<svg width="250" height="250" viewBox="0 0 250 250" fill="none" xmlns="http://www.w3.org/2000/svg">
<path d="M125 250C194.036 250 250 194.036 250 125C250 55.9644 194.036 0 125 0C55.9644 0 0 55.9644 0 125C0 194.036 55.9644 250 125 250Z" fill="url(#paint0_linear_1205_1032)"/>
<path d="M79.408 90.9658H74.8636C74.3113 90.9658 73.8636 91.4135 73.8636 91.9658V101.185C73.8636 101.737 74.3113 102.185 74.8636 102.185H79.408C79.9603 102.185 80.408 101.737 80.408 101.185V91.9658C80.408 91.4135 79.9603 90.9658 79.408 90.9658Z" fill="url(#paint1_linear_1205_1032)"/>
<path d="M164.551 106.794V91.9658C164.551 91.4135 164.998 90.9658 165.551 90.9658H175.705C176.257 90.9658 176.705 91.4135 176.705 91.9658V106.794C176.705 107.347 176.257 107.794 175.705 107.794H165.551C164.998 107.794 164.551 107.347 164.551 106.794Z" fill="url(#paint2_linear_1205_1032)"/>
<path d="M73.8636 100.556V166.444C73.8636 168.653 75.6544 170.434 77.8636 170.434H172.704C174.914 170.434 176.704 168.643 176.704 166.434V108.621C176.704 106.412 174.914 104.621 172.704 104.621H112.552C110.775 104.621 109.21 103.448 108.712 101.742L108.045 99.4551C107.547 97.7488 105.983 96.5757 104.205 96.5757H77.8636C75.6544 96.5757 73.8636 98.3468 73.8636 100.556Z" fill="url(#paint3_linear_1205_1032)"/>
<path d="M80.408 94.8744V85.7253C80.408 85.1917 80.827 84.7521 81.36 84.7265L164.437 80.7324C165.008 80.7049 165.486 81.1601 165.486 81.7312V103.055C165.486 103.607 165.038 104.055 164.486 104.055H112.872C112.463 104.055 112.096 103.806 111.944 103.426L109.174 96.503C109.023 96.1233 108.655 95.8744 108.246 95.8744H81.408C80.8557 95.8744 80.408 95.4267 80.408 94.8744Z" fill="url(#paint4_linear_1205_1032)"/>
<path d="M109.202 93.7708H74.8636C74.3113 93.7708 73.8636 94.2185 73.8636 94.7708V98.829C73.8636 99.3813 74.3113 99.829 74.8636 99.829H106.433C106.887 99.829 107.285 100.136 107.4 100.576L109.827 109.852C109.942 110.292 110.34 110.599 110.794 110.599H175.704C176.257 110.599 176.704 110.152 176.704 109.599V104.195C176.704 103.642 176.257 103.195 175.704 103.195H112.721C112.244 103.195 111.834 102.858 111.74 102.39L110.183 94.5753C110.089 94.1076 109.679 93.7708 109.202 93.7708Z" fill="url(#paint5_linear_1205_1032)"/>
<path d="M128.991 142.386H122.979C122.703 142.386 122.479 142.61 122.479 142.886V144.691C122.479 144.967 122.703 145.191 122.979 145.191H128.991C129.267 145.191 129.491 144.967 129.491 144.691V142.886C129.491 142.61 129.267 142.386 128.991 142.386Z" fill="#E9ECEE" stroke="#E9ECEE" stroke-linecap="round"/>
<path d="M119.675 152.671H131.829" stroke="#E9ECEE" stroke-width="2" stroke-linecap="round"/>
<path d="M121.278 139.93L117.512 131.646C117.211 130.984 117.696 130.232 118.423 130.232H133.08C133.808 130.232 134.292 130.984 133.991 131.646L130.225 139.93C130.063 140.287 129.707 140.516 129.315 140.516H122.188C121.796 140.516 121.44 140.287 121.278 139.93Z" fill="#E9ECEE" stroke="#E9ECEE"/>
<path d="M125.752 139.582C131.174 139.582 135.569 135.187 135.569 129.765C135.569 124.344 131.174 119.948 125.752 119.948C120.33 119.948 115.935 124.344 115.935 129.765C115.935 135.187 120.33 139.582 125.752 139.582Z" fill="#E9ECEE"/>
<defs>
<linearGradient id="paint0_linear_1205_1032" x1="64.7727" y1="-2.50739e-06" x2="186.364" y2="252.841" gradientUnits="userSpaceOnUse">
<stop stop-color="#EFF0F5" stop-opacity="0.19"/>
<stop offset="1" stop-color="#EFF0F5"/>
</linearGradient>
<linearGradient id="paint1_linear_1205_1032" x1="77.1358" y1="90.9658" x2="77.1358" y2="102.185" gradientUnits="userSpaceOnUse">
<stop stop-color="#BEC6CB"/>
<stop offset="1" stop-color="#EAEBEB"/>
</linearGradient>
<linearGradient id="paint2_linear_1205_1032" x1="170.628" y1="90.9658" x2="170.628" y2="107.794" gradientUnits="userSpaceOnUse">
<stop stop-color="#BEC6CB"/>
<stop offset="1" stop-color="#EAEBEB"/>
</linearGradient>
<linearGradient id="paint3_linear_1205_1032" x1="-51.0753" y1="37.5909" x2="211.976" y2="186.328" gradientUnits="userSpaceOnUse">
<stop stop-color="#D3D9DD"/>
<stop offset="1" stop-color="#DDE3E8"/>
</linearGradient>
<linearGradient id="paint4_linear_1205_1032" x1="122.947" y1="80.682" x2="117.21" y2="127.683" gradientUnits="userSpaceOnUse">
<stop stop-color="white"/>
<stop offset="1" stop-color="#EAEBEB"/>
</linearGradient>
<linearGradient id="paint5_linear_1205_1032" x1="69.614" y1="89.0111" x2="254.898" y2="125.133" gradientUnits="userSpaceOnUse">
<stop stop-color="#EFF0F1"/>
<stop offset="1" stop-color="#E7E7E7"/>
</linearGradient>
</defs>
</svg>
