<svg width="24" height="24" viewBox="0 0 24 24" fill="none" xmlns="http://www.w3.org/2000/svg">
<path d="M12 0C5.41463 0 0 5.41463 0 12C0 18.5854 5.41463 24 12 24C18.5854 24 24 18.5854 24 12C24 5.41463 18.5854 0 12 0ZM17.6195 13.1122H13.1122V17.6195C13.1122 18.2634 12.6146 18.7317 12 18.7317C11.3854 18.7317 10.8878 18.2341 10.8878 17.6195V13.1122H6.38049C5.73659 13.1122 5.26829 12.6146 5.26829 12C5.26829 11.3854 5.73659 10.8878 6.38049 10.8878H10.8878V6.38049C10.8878 5.73659 11.3854 5.26829 12 5.26829C12.6146 5.26829 13.1122 5.76585 13.1122 6.38049V10.8878H17.6195C18.2634 10.8878 18.7317 11.3854 18.7317 12C18.7317 12.6146 18.2341 13.1122 17.6195 13.1122Z" fill="white"/>
</svg>
