<svg width="18" height="18" viewBox="0 0 18 18" fill="none" xmlns="http://www.w3.org/2000/svg">
<path d="M15.1073 9.67456C14.8332 9.67456 14.6111 9.89668 14.6111 10.1708V14.008H3.9924V3.38937H7.82969C8.10376 3.38937 8.32589 3.16725 8.32589 2.89317C8.32589 2.6191 8.10376 2.39697 7.82969 2.39697H3.4962C3.22212 2.39697 3 2.6191 3 2.89317V14.5042C3 14.7783 3.22215 15.0005 3.4962 15.0005H15.1073C15.3813 15.0005 15.6035 14.7783 15.6035 14.5042V10.1708C15.6035 9.89671 15.3813 9.67456 15.1073 9.67456Z" fill="white"/>
<path d="M15.8545 3.91518L14.0849 2.14539C13.9919 2.05226 13.8657 2 13.7341 2C13.6024 2 13.4764 2.05226 13.3833 2.14539L7.5281 8.00054C7.46789 8.06059 7.4244 8.13501 7.40124 8.21672L6.70655 10.6812C6.65793 10.854 6.7064 11.0396 6.83341 11.1667C6.92769 11.2609 7.05439 11.312 7.18422 11.312C7.22903 11.312 7.27436 11.3059 7.31869 11.2935L9.78316 10.5988C9.86502 10.5757 9.93947 10.532 9.9995 10.472L15.8545 4.61682C16.0483 4.42311 16.0483 4.10884 15.8545 3.91518ZM9.38949 9.67869L7.90206 10.0978L8.32135 8.6107L13.7341 3.198L14.8021 4.26599L9.38949 9.67869Z" fill="white"/>
<path d="M8.3586 7.83567L7.64307 8.55176L9.44738 10.3575L10.1629 9.64139L8.3586 7.83567Z" fill="white"/>
</svg>
