<svg width="30" height="30" viewBox="0 0 30 30" fill="none" xmlns="http://www.w3.org/2000/svg">
<g clip-path="url(#clip0)">
<path d="M6.65607 11.3123L1.54646 8.3623C0.55916 10.3575 5.85938e-05 12.6076 0 14.9999C0 17.359 0.565137 19.613 1.56762 21.6259L6.65572 18.6883C6.15387 17.5582 5.86951 16.3118 5.86957 14.9999C5.86963 13.688 6.15416 12.442 6.65607 11.3123Z" fill="white"/>
<path d="M24.8395 3.67782C22.2034 1.38481 18.7586 -0.00251611 14.9898 3.42595e-06C9.83345 0.00346046 5.23114 2.63584 2.5271 6.66938L7.64087 9.62192C9.30382 7.35352 11.9792 5.86952 15.0003 5.86957C17.2027 5.86963 19.2215 6.6569 20.7984 7.96143C21.1844 8.28071 21.7487 8.25147 22.1029 7.89727L24.8879 5.11225C25.2895 4.71065 25.268 4.05047 24.8395 3.67782Z" fill="white"/>
<path d="M29.8972 13.2645C29.8388 12.7679 29.4213 12.392 28.9214 12.392L16.6304 12.3914C16.0901 12.3914 15.6521 12.8293 15.6521 13.3696V17.2794C15.6521 17.8197 16.0901 18.2577 16.6304 18.2577H23.518C22.8836 19.9088 21.7817 21.3282 20.3788 22.36L23.3043 27.4271C26.249 25.4316 28.4879 22.4146 29.474 18.853C30.0102 16.9166 30.1067 15.044 29.8972 13.2645Z" fill="white"/>
<path d="M18.6873 23.3426C17.5591 23.8452 16.3136 24.1303 15.0002 24.1304C11.9757 24.1305 9.30185 22.6464 7.64007 20.3789L2.5481 23.3188C5.22946 27.3127 9.78021 30 15.0001 30C17.3598 30 19.6057 29.4231 21.6147 28.413L18.6873 23.3426Z" fill="white"/>
</g>
<defs>
<clipPath id="clip0">
<rect width="30" height="30" fill="white"/>
</clipPath>
</defs>
</svg>
