<svg width="24" height="24" viewBox="0 0 24 24" fill="none" xmlns="http://www.w3.org/2000/svg">
<path d="M16.3636 10.909C18.2182 10.909 19.6364 9.4908 19.6364 7.63625C19.6364 5.78171 18.2182 4.36353 16.3636 4.36353C14.5091 4.36353 13.0909 5.78171 13.0909 7.63625C13.0909 9.4908 14.5091 10.909 16.3636 10.909ZM7.63636 10.909C9.49091 10.909 10.9091 9.4908 10.9091 7.63625C10.9091 5.78171 9.49091 4.36353 7.63636 4.36353C5.78182 4.36353 4.36364 5.78171 4.36364 7.63625C4.36364 9.4908 5.78182 10.909 7.63636 10.909ZM7.63636 13.0908C5.12727 13.0908 0 14.3999 0 16.909V19.6363H15.2727V16.909C15.2727 14.3999 10.1455 13.0908 7.63636 13.0908ZM16.3636 13.0908C16.0364 13.0908 15.7091 13.0908 15.2727 13.1999C16.5818 14.0726 17.4545 15.3817 17.4545 16.909V19.6363H24V16.909C24 14.3999 18.8727 13.0908 16.3636 13.0908Z" fill="white"/>
</svg>
