<svg width="24" height="24" viewBox="0 0 24 24" fill="none" xmlns="http://www.w3.org/2000/svg">
<g clip-path="url(#clip0)">
<path d="M8.99995 10C11.7614 10 14 7.76142 14 5C14 2.23858 11.7614 0 8.99995 0C6.23853 0 3.99995 2.23858 3.99995 5C3.99995 7.76142 6.23853 10 8.99995 10Z" fill="white"/>
<path d="M11.534 20.8C11.013 19.898 11.117 18.787 11.737 18C11.117 17.213 11.013 16.103 11.534 15.2L12.343 13.8C12.788 13.029 13.618 12.55 14.509 12.55C14.631 12.55 14.751 12.559 14.87 12.576C14.903 12.494 14.945 12.417 14.986 12.339C14.446 12.126 13.863 12 13.25 12H4.75C2.131 12 0 14.131 0 16.75V20.25C0 20.664 0.336 21 0.75 21H11.649L11.534 20.8Z" fill="white"/>
<path d="M21.703 18.4689C21.7231 18.3139 21.7501 18.1599 21.7501 17.9999C21.7501 17.8389 21.722 17.6859 21.703 17.5309L22.6041 16.8489C22.8051 16.6969 22.8611 16.4189 22.7351 16.1999L21.9261 14.7999C21.8001 14.5819 21.5311 14.4909 21.2991 14.5889L20.262 15.0259C20.009 14.8329 19.7401 14.6629 19.4431 14.5389L19.3051 13.4379C19.2731 13.1879 19.061 12.9999 18.8091 12.9999H17.192C16.94 12.9999 16.727 13.1879 16.696 13.4379L16.5581 14.5389C16.2611 14.6629 15.9911 14.8339 15.7391 15.0259L14.702 14.5889C14.47 14.4909 14.201 14.5809 14.075 14.7999L13.266 16.1999C13.14 16.4179 13.1961 16.6959 13.3971 16.8489L14.2981 17.5309C14.2781 17.6859 14.2511 17.8399 14.2511 17.9999C14.2511 18.1609 14.2791 18.3139 14.2981 18.4689L13.3971 19.1509C13.1961 19.3029 13.14 19.5809 13.266 19.7999L14.075 21.2009C14.201 21.4189 14.47 21.5099 14.702 21.4119L15.7391 20.9739C15.9921 21.1669 16.2611 21.3369 16.5581 21.4609L16.696 22.5619C16.727 22.8119 16.939 22.9999 17.1911 22.9999H18.8081C19.0601 22.9999 19.2731 22.8119 19.3041 22.5619L19.442 21.4609C19.739 21.3369 20.009 21.1659 20.261 20.9739L21.2981 21.4109C21.5301 21.5089 21.799 21.4189 21.925 21.1999L22.734 19.7989C22.8601 19.5809 22.8041 19.3029 22.6031 19.1499L21.703 18.4689ZM18.0001 19.9999C16.8951 19.9999 16.0001 19.1049 16.0001 17.9999C16.0001 16.8949 16.8951 15.9999 18.0001 15.9999C19.1051 15.9999 20.0001 16.8949 20.0001 17.9999C20.0001 19.1049 19.1051 19.9999 18.0001 19.9999Z" fill="white"/>
</g>
<defs>
<clipPath id="clip0">
<rect width="24" height="24" fill="white"/>
</clipPath>
</defs>
</svg>
