<svg width="24" height="24" viewBox="0 0 24 24" fill="none" xmlns="http://www.w3.org/2000/svg">
<path d="M21.75 1.65H12.75V0.75C12.75 0.325 12.425 0 12 0C11.575 0 11.25 0.325 11.25 0.75V1.65H2.25C1.825 1.65 1.5 1.975 1.5 2.4V14.975H22.5V2.4C22.5 1.975 22.175 1.65 21.75 1.65Z" fill="white"/>
<path d="M23.25 16.2251H0.75C0.35 16.2251 0 16.5751 0 16.9751C0 17.4001 0.325 17.7251 0.75 17.7251H10.475L6.05 22.4001C5.775 22.7001 5.775 23.1751 6.075 23.4501C6.375 23.7251 6.85 23.7251 7.125 23.4251L11.25 19.0751V23.2501C11.25 23.6751 11.575 24.0001 12 24.0001C12.425 24.0001 12.75 23.6751 12.75 23.2501V19.0751L16.875 23.4251C17.15 23.7251 17.625 23.7501 17.925 23.4501C18.225 23.1751 18.25 22.7001 17.95 22.4001L13.525 17.7251H23.25C23.675 17.7251 24 17.4001 24 16.9751C24 16.5501 23.675 16.2251 23.25 16.2251Z" fill="white"/>
</svg>
