<svg width="96" height="110" viewBox="0 0 96 110" fill="none" xmlns="http://www.w3.org/2000/svg">
<g clip-path="url(#clip0)">
<path fill-rule="evenodd" clip-rule="evenodd" d="M43.2905 21.8207C27.2516 24.2486 12.0188 36.5483 12.0188 53.2771C18.2731 78.837 21.9423 88.7889 35.2571 98.5273C45.7088 105.117 52.6859 107.705 61.6365 109.173C73.2557 111.094 83.5962 109.44 88.9332 106.665C98.273 101.542 96.8554 96.5263 93.1584 79.6641C90.8234 68.9385 89.5448 63.7892 86.3203 51.5695C85.542 48.6613 83.6796 39.2431 77.3419 31.1322C73.7005 26.4898 68.836 22.8345 61.0528 22.2476C52.4635 19.8196 50.1008 21.6606 43.2905 21.8207Z" fill="#245643"/>
<path fill-rule="evenodd" clip-rule="evenodd" d="M87.0153 -0.00402832C87.2655 19.4995 65.9174 22.8345 52.4358 25.0224C35.8132 27.7171 28.7805 36.9219 28.1412 30.5186C27.5296 24.1152 40.0105 15.1505 56.8555 14.6703C69.6144 14.3501 83.1515 12.9627 87.0153 -0.00402832Z" fill="url(#paint0_linear)"/>
<path fill-rule="evenodd" clip-rule="evenodd" d="M87.0404 0.0102539C87.2906 19.5138 66.6652 23.0356 57.9091 23.5959C41.0919 24.6898 32.6972 35.2553 28.1663 30.5328C22.9682 25.1167 36.9501 17.0591 53.4894 14.0442C64.358 12.0699 83.1488 12.9503 87.0404 0.0102539Z" fill="#1B1A18"/>
<path fill-rule="evenodd" clip-rule="evenodd" d="M78.9848 53.3659C78.9848 70.1848 81.7463 93.3406 54.2133 91.5471C35.8173 90.3913 12.1016 71.3007 11.4112 54.4819C10.7209 37.7029 27.0863 18.6522 45.4823 17.6957C57.8275 17.058 68.3858 23.116 74.396 33.8768C77.198 39.0181 79.2285 46.471 78.9848 53.3659Z" fill="#1B1B18"/>
<path fill-rule="evenodd" clip-rule="evenodd" d="M27.33 60.5799C27.33 63.2501 25.6244 62.453 23.1878 63.4096C14.3756 66.7972 20.9543 74.9675 16.3249 74.9675C8.77157 74.9675 0 67.5146 0 60.5799C0 53.6451 6.13198 48.0255 13.6853 48.0255C21.198 48.0255 27.33 53.6451 27.33 60.5799Z" fill="#FFE600"/>
<path fill-rule="evenodd" clip-rule="evenodd" d="M73.746 65.3225C73.746 74.0906 65.9085 81.1848 56.2435 81.1848C46.5785 81.1848 38.741 74.0906 38.741 65.3225C38.741 56.5544 46.5785 49.4602 56.2435 49.4602C65.9085 49.4602 73.746 56.5544 73.746 65.3225Z" fill="#E53C0E"/>
<path fill-rule="evenodd" clip-rule="evenodd" d="M50.2 52.4864C50.2 57.686 46.0489 61.8779 40.8796 61.9988C35.7104 62.0794 31.4027 58.0085 31.2069 52.8492C31.011 47.6899 35.0055 43.2965 40.1747 43.0144C45.344 42.7322 49.8083 46.642 50.2 51.8012" fill="black"/>
<path d="M50.2 52.4864C50.2 57.686 46.0489 61.8779 40.8796 61.9988C35.7104 62.0794 31.4027 58.0085 31.2069 52.8492C31.011 47.6899 35.0055 43.2965 40.1747 43.0144C45.344 42.7322 49.8083 46.642 50.2 51.8012" stroke="white" stroke-width="6.3526" stroke-miterlimit="11.3386" stroke-linecap="round"/>
<circle cx="40.5" cy="52.5" r="7.5" fill="#191917"/>
</g>
<defs>
<linearGradient id="paint0_linear" x1="51.517" y1="-4.42038" x2="65.9876" y2="50.4859" gradientUnits="userSpaceOnUse">
<stop stop-color="#3E3E3E"/>
<stop offset="1" stop-color="#CFC9B7"/>
</linearGradient>
<clipPath id="clip0">
<rect width="96" height="110" fill="white"/>
</clipPath>
</defs>
</svg>
