<svg width="32" height="32" viewBox="0 0 32 32" fill="none" xmlns="http://www.w3.org/2000/svg">
<path d="M9.27852 2C8.28259 2 7.48584 2.79715 7.48584 3.79359V28.2064C7.48584 29.2028 8.28259 30 9.27852 30H26.7073C27.7033 30 28.5 29.2028 28.5 28.2064V8.97509L21.5285 2H9.27852Z" fill="#E2E5E7"/>
<path d="M23.2215 8.97509H28.5L21.5284 2V7.28114C21.4288 8.17794 22.2256 8.97509 23.2215 8.97509Z" fill="#B0B7BD"/>
<path d="M28.4005 14.2562L23.2217 8.9751H28.5001V14.2562H28.4005Z" fill="#CAD1D8"/>
<path d="M24.9146 24.6655C24.9146 25.1637 24.5162 25.5623 24.0183 25.5623H4.89634C4.39837 25.5623 4 25.1637 4 24.6655V15.8968C4 15.3986 4.39837 15 4.89634 15H24.0183C24.5162 15 24.9146 15.3986 24.9146 15.8968V24.6655Z" fill="#576D7E"/>
<path d="M24.1179 25.6156H7.48584V26.5124H24.0183C24.5163 26.5124 24.9147 26.1139 24.9147 25.6156V24.7188C24.9147 25.217 24.5163 25.6156 24.1179 25.6156Z" fill="#CAD1D8"/>
<path d="M10.4998 22.4601C10.1758 22.4601 9.87184 22.4001 9.58784 22.2801C9.30784 22.1561 9.06184 21.9861 8.84984 21.7701C8.64184 21.5501 8.47784 21.2941 8.35784 21.0021C8.24184 20.7101 8.18384 20.3941 8.18384 20.0541C8.18384 19.7181 8.24184 19.4061 8.35784 19.1181C8.47784 18.8261 8.64184 18.5721 8.84984 18.3561C9.06184 18.1361 9.30784 17.9641 9.58784 17.8401C9.86784 17.7161 10.1718 17.6541 10.4998 17.6541C10.8078 17.6541 11.0718 17.6941 11.2918 17.7741C11.5158 17.8541 11.7398 17.9861 11.9638 18.1701C12.0118 18.2101 12.0438 18.2481 12.0598 18.2841C12.0758 18.3201 12.0838 18.3641 12.0838 18.4161C12.0838 18.4921 12.0558 18.5561 11.9998 18.6081C11.9478 18.6561 11.8838 18.6841 11.8078 18.6921C11.7318 18.6961 11.6578 18.6701 11.5858 18.6141C11.4378 18.4861 11.2838 18.3881 11.1238 18.3201C10.9678 18.2521 10.7598 18.2181 10.4998 18.2181C10.2638 18.2181 10.0418 18.2661 9.83384 18.3621C9.62584 18.4581 9.44184 18.5901 9.28184 18.7581C9.12584 18.9261 9.00384 19.1221 8.91584 19.3461C8.82784 19.5661 8.78384 19.8021 8.78384 20.0541C8.78384 20.3101 8.82784 20.5501 8.91584 20.7741C9.00384 20.9941 9.12584 21.1881 9.28184 21.3561C9.44184 21.5241 9.62584 21.6561 9.83384 21.7521C10.0418 21.8441 10.2638 21.8901 10.4998 21.8901C10.7038 21.8901 10.8958 21.8561 11.0758 21.7881C11.2598 21.7161 11.4358 21.6181 11.6038 21.4941C11.6758 21.4421 11.7458 21.4201 11.8138 21.4281C11.8858 21.4321 11.9458 21.4601 11.9938 21.5121C12.0418 21.5601 12.0658 21.6281 12.0658 21.7161C12.0658 21.8001 12.0338 21.8741 11.9698 21.9381C11.5378 22.2861 11.0478 22.4601 10.4998 22.4601ZM14.7319 22.4601C14.4759 22.4601 14.2319 22.4201 13.9999 22.3401C13.7679 22.2601 13.5659 22.1481 13.3939 22.0041C13.2219 21.8601 13.0959 21.6941 13.0159 21.5061C12.9759 21.4221 12.9759 21.3441 13.0159 21.2721C13.0599 21.2001 13.1319 21.1541 13.2319 21.1341C13.3039 21.1181 13.3739 21.1301 13.4419 21.1701C13.5139 21.2061 13.5679 21.2621 13.6039 21.3381C13.6519 21.4381 13.7299 21.5301 13.8379 21.6141C13.9499 21.6981 14.0839 21.7661 14.2399 21.8181C14.3959 21.8701 14.5599 21.8961 14.7319 21.8961C14.9239 21.8961 15.0999 21.8661 15.2599 21.8061C15.4239 21.7461 15.5559 21.6601 15.6559 21.5481C15.7559 21.4321 15.8059 21.2901 15.8059 21.1221C15.8059 20.9101 15.7219 20.7201 15.5539 20.5521C15.3899 20.3841 15.1179 20.2801 14.7379 20.2401C14.2419 20.1921 13.8519 20.0461 13.5679 19.8021C13.2839 19.5581 13.1419 19.2561 13.1419 18.8961C13.1419 18.6321 13.2159 18.4081 13.3639 18.2241C13.5119 18.0401 13.7119 17.9001 13.9639 17.8041C14.2199 17.7081 14.5039 17.6601 14.8159 17.6601C15.1799 17.6601 15.4779 17.7341 15.7099 17.8821C15.9419 18.0301 16.1339 18.2261 16.2859 18.4701C16.3419 18.5581 16.3639 18.6421 16.3519 18.7221C16.3439 18.7981 16.3059 18.8581 16.2379 18.9021C16.1619 18.9501 16.0799 18.9601 15.9919 18.9321C15.9039 18.9041 15.8379 18.8521 15.7939 18.7761C15.6939 18.6041 15.5639 18.4701 15.4039 18.3741C15.2479 18.2781 15.0459 18.2281 14.7979 18.2241C14.5019 18.2201 14.2539 18.2761 14.0539 18.3921C13.8539 18.5041 13.7539 18.6781 13.7539 18.9141C13.7539 19.0341 13.7839 19.1501 13.8439 19.2621C13.9079 19.3701 14.0219 19.4641 14.1859 19.5441C14.3539 19.6241 14.5939 19.6801 14.9059 19.7121C15.3819 19.7601 15.7519 19.9061 16.0159 20.1501C16.2839 20.3901 16.4179 20.7081 16.4179 21.1041C16.4179 21.3321 16.3699 21.5301 16.2739 21.6981C16.1819 21.8661 16.0559 22.0081 15.8959 22.1241C15.7399 22.2361 15.5599 22.3201 15.3559 22.3761C15.1559 22.4321 14.9479 22.4601 14.7319 22.4601ZM19.0427 22.4601C18.7867 22.4601 18.5427 22.4201 18.3107 22.3401C18.0787 22.2601 17.8767 22.1481 17.7047 22.0041C17.5327 21.8601 17.4067 21.6941 17.3267 21.5061C17.2867 21.4221 17.2867 21.3441 17.3267 21.2721C17.3707 21.2001 17.4427 21.1541 17.5427 21.1341C17.6147 21.1181 17.6847 21.1301 17.7527 21.1701C17.8247 21.2061 17.8787 21.2621 17.9147 21.3381C17.9627 21.4381 18.0407 21.5301 18.1487 21.6141C18.2607 21.6981 18.3947 21.7661 18.5507 21.8181C18.7067 21.8701 18.8707 21.8961 19.0427 21.8961C19.2347 21.8961 19.4107 21.8661 19.5707 21.8061C19.7347 21.7461 19.8667 21.6601 19.9667 21.5481C20.0667 21.4321 20.1167 21.2901 20.1167 21.1221C20.1167 20.9101 20.0327 20.7201 19.8647 20.5521C19.7007 20.3841 19.4287 20.2801 19.0487 20.2401C18.5527 20.1921 18.1627 20.0461 17.8787 19.8021C17.5947 19.5581 17.4527 19.2561 17.4527 18.8961C17.4527 18.6321 17.5267 18.4081 17.6747 18.2241C17.8227 18.0401 18.0227 17.9001 18.2747 17.8041C18.5307 17.7081 18.8147 17.6601 19.1267 17.6601C19.4907 17.6601 19.7887 17.7341 20.0207 17.8821C20.2527 18.0301 20.4447 18.2261 20.5967 18.4701C20.6527 18.5581 20.6747 18.6421 20.6627 18.7221C20.6547 18.7981 20.6167 18.8581 20.5487 18.9021C20.4727 18.9501 20.3907 18.9601 20.3027 18.9321C20.2147 18.9041 20.1487 18.8521 20.1047 18.7761C20.0047 18.6041 19.8747 18.4701 19.7147 18.3741C19.5587 18.2781 19.3567 18.2281 19.1087 18.2241C18.8127 18.2201 18.5647 18.2761 18.3647 18.3921C18.1647 18.5041 18.0647 18.6781 18.0647 18.9141C18.0647 19.0341 18.0947 19.1501 18.1547 19.2621C18.2187 19.3701 18.3327 19.4641 18.4967 19.5441C18.6647 19.6241 18.9047 19.6801 19.2167 19.7121C19.6927 19.7601 20.0627 19.9061 20.3267 20.1501C20.5947 20.3901 20.7287 20.7081 20.7287 21.1041C20.7287 21.3321 20.6807 21.5301 20.5847 21.6981C20.4927 21.8661 20.3667 22.0081 20.2067 22.1241C20.0507 22.2361 19.8707 22.3201 19.6667 22.3761C19.4667 22.4321 19.2587 22.4601 19.0427 22.4601Z" fill="white"/>
<path d="M9.58789 22.28L9.5069 22.4629L9.51005 22.4642L9.58789 22.28ZM8.84989 21.77L8.70454 21.9074L8.70716 21.9101L8.84989 21.77ZM8.35789 21.002L8.17201 21.0758L8.17291 21.078L8.35789 21.002ZM8.35789 19.118L8.1729 19.042L8.17238 19.0433L8.35789 19.118ZM8.84989 18.356L8.70588 18.2172L8.70583 18.2173L8.84989 18.356ZM9.58789 17.84L9.50691 17.6571L9.58789 17.84ZM11.2919 17.774L11.2236 17.962L11.2246 17.9623L11.2919 17.774ZM11.9639 18.17L12.0919 18.0163L12.0909 18.0154L11.9639 18.17ZM11.9999 18.608L12.1356 18.755L12.136 18.7546L11.9999 18.608ZM11.8079 18.692L11.8184 18.892L11.8288 18.8909L11.8079 18.692ZM11.5859 18.614L11.4549 18.7655L11.4631 18.7719L11.5859 18.614ZM11.1239 18.32L11.044 18.5033L11.0457 18.5041L11.1239 18.32ZM9.28189 18.758L9.13706 18.6201L9.13534 18.6219L9.28189 18.758ZM8.91589 19.346L9.10159 19.4203L9.10205 19.4191L8.91589 19.346ZM8.91589 20.774L8.72974 20.8471L8.7302 20.8483L8.91589 20.774ZM9.28189 21.356L9.13532 21.4921L9.13707 21.4939L9.28189 21.356ZM9.83389 21.752L9.75007 21.9336L9.75299 21.9349L9.83389 21.752ZM11.0759 21.788L11.1466 21.9751L11.1488 21.9742L11.0759 21.788ZM11.6039 21.494L11.4868 21.3318L11.4851 21.3331L11.6039 21.494ZM11.8139 21.428L11.7905 21.627L11.8028 21.6277L11.8139 21.428ZM11.9939 21.512L11.8468 21.6478L11.8525 21.6534L11.9939 21.512ZM11.9699 21.938L12.0954 22.0937L12.1037 22.087L12.1113 22.0794L11.9699 21.938ZM10.4999 22.26C10.2013 22.26 9.92386 22.2048 9.66574 22.0958L9.51005 22.4642C9.81993 22.5952 10.1505 22.66 10.4999 22.66V22.26ZM9.66888 22.0971C9.4117 21.9832 9.18672 21.8277 8.99263 21.6299L8.70716 21.9101C8.93707 22.1443 9.20409 22.3288 9.50691 22.4629L9.66888 22.0971ZM8.99522 21.6326C8.80482 21.4312 8.65395 21.1962 8.54288 20.926L8.17291 21.078C8.30184 21.3918 8.47897 21.6688 8.70457 21.9074L8.99522 21.6326ZM8.54377 20.9282C8.43784 20.6615 8.38389 20.3708 8.38389 20.054H7.98389C7.98389 20.4172 8.04595 20.7585 8.17202 21.0758L8.54377 20.9282ZM8.38389 20.054C8.38389 19.7415 8.43774 19.4551 8.54341 19.1927L8.17238 19.0433C8.04605 19.3569 7.98389 19.6945 7.98389 20.054H8.38389ZM8.54288 19.194C8.65382 18.9241 8.80434 18.6916 8.99396 18.4947L8.70583 18.2173C8.47945 18.4524 8.30197 18.7279 8.17291 19.042L8.54288 19.194ZM8.99391 18.4948C9.18791 18.2935 9.41249 18.1364 9.66888 18.0229L9.50691 17.6571C9.2033 17.7916 8.93588 17.9785 8.70588 18.2172L8.99391 18.4948ZM9.66888 18.0229C9.9216 17.9109 10.1978 17.854 10.4999 17.854V17.454C10.146 17.454 9.81419 17.521 9.50691 17.6571L9.66888 18.0229ZM10.4999 17.854C10.7915 17.854 11.0312 17.892 11.2236 17.962L11.3603 17.586C11.1127 17.496 10.8243 17.454 10.4999 17.454V17.854ZM11.2246 17.9623C11.4228 18.0331 11.627 18.1521 11.837 18.3245L12.0909 18.0154C11.8528 17.8199 11.609 17.6749 11.3592 17.5856L11.2246 17.9623ZM11.8359 18.3236C11.853 18.3379 11.8641 18.3493 11.8709 18.3573C11.8778 18.3655 11.8785 18.3682 11.8771 18.3652L12.2427 18.2028C12.209 18.1271 12.1511 18.0657 12.0919 18.0163L11.8359 18.3236ZM11.8771 18.3652C11.8788 18.3689 11.8839 18.3835 11.8839 18.416H12.2839C12.2839 18.3445 12.273 18.2711 12.2427 18.2028L11.8771 18.3652ZM11.8839 18.416C11.8839 18.436 11.8793 18.447 11.8638 18.4614L12.136 18.7546C12.2325 18.6649 12.2839 18.548 12.2839 18.416H11.8839ZM11.8642 18.461C11.8465 18.4774 11.8238 18.4892 11.787 18.4931L11.8288 18.8909C11.944 18.8788 12.0493 18.8345 12.1356 18.755L11.8642 18.461ZM11.7974 18.4923C11.7785 18.4933 11.7506 18.4887 11.7087 18.4561L11.4631 18.7719C11.5652 18.8512 11.6853 18.8987 11.8184 18.8917L11.7974 18.4923ZM11.7167 18.4627C11.555 18.3228 11.3835 18.213 11.2021 18.1359L11.0457 18.5041C11.1843 18.563 11.3209 18.6492 11.4551 18.7653L11.7167 18.4627ZM11.2038 18.1367C11.0129 18.0534 10.7743 18.018 10.4999 18.018V18.418C10.7455 18.418 10.9229 18.4506 11.044 18.5033L11.2038 18.1367ZM10.4999 18.018C10.2359 18.018 9.98516 18.0719 9.75008 18.1804L9.91771 18.5436C10.0986 18.4601 10.2919 18.418 10.4999 18.418V18.018ZM9.75008 18.1804C9.51888 18.2871 9.31424 18.434 9.13707 18.6201L9.42672 18.8959C9.56955 18.746 9.73291 18.6289 9.91771 18.5436L9.75008 18.1804ZM9.13534 18.6219C8.96148 18.8091 8.82643 19.0268 8.72974 19.2729L9.10205 19.4191C9.18136 19.2172 9.29031 19.0429 9.42845 18.8941L9.13534 18.6219ZM8.7302 19.2717C8.63216 19.5168 8.58389 19.7782 8.58389 20.054H8.98389C8.98389 19.8258 9.02363 19.6152 9.10159 19.4203L8.7302 19.2717ZM8.58389 20.054C8.58389 20.3334 8.63202 20.5984 8.72974 20.8471L9.10205 20.7009C9.02377 20.5016 8.98389 20.2866 8.98389 20.054H8.58389ZM8.7302 20.8483C8.82702 21.0903 8.96204 21.3055 9.13534 21.4921L9.42845 21.2199C9.28975 21.0705 9.18077 20.8977 9.10159 20.6997L8.7302 20.8483ZM9.13707 21.4939C9.31424 21.68 9.51888 21.8269 9.75008 21.9336L9.91771 21.5704C9.73291 21.4851 9.56955 21.368 9.42672 21.2181L9.13707 21.4939ZM9.75299 21.9349C9.98744 22.0386 10.2371 22.09 10.4999 22.09V21.69C10.2907 21.69 10.0964 21.6494 9.9148 21.5691L9.75299 21.9349ZM10.4999 22.09C10.7266 22.09 10.9427 22.0521 11.1466 21.9751L11.0052 21.6009C10.8491 21.6599 10.6812 21.69 10.4999 21.69V22.09ZM11.1488 21.9742C11.35 21.8955 11.5414 21.7887 11.7227 21.6549L11.4851 21.3331C11.3305 21.4472 11.1698 21.5365 11.003 21.6017L11.1488 21.9742ZM11.721 21.6561C11.7648 21.6245 11.7856 21.626 11.7905 21.6266L11.8373 21.2294C11.7062 21.2139 11.587 21.2595 11.4868 21.3319L11.721 21.6561ZM11.8028 21.6277C11.824 21.6289 11.8349 21.6346 11.8469 21.6476L12.1409 21.3763C12.0569 21.2853 11.9478 21.2351 11.825 21.2283L11.8028 21.6277ZM11.8525 21.6534C11.8528 21.6537 11.8659 21.6646 11.8659 21.716H12.2659C12.2659 21.5914 12.231 21.4663 12.1353 21.3706L11.8525 21.6534ZM11.8659 21.716C11.8659 21.7426 11.8582 21.7669 11.8285 21.7966L12.1113 22.0794C12.2096 21.9811 12.2659 21.8574 12.2659 21.716H11.8659ZM11.8444 21.7822C11.4475 22.102 11.0017 22.26 10.4999 22.26V22.66C11.0942 22.66 11.6283 22.47 12.0954 22.0937L11.8444 21.7822ZM14 22.34L14.0652 22.1509L14 22.34ZM13.394 22.004L13.2656 22.1573L13.394 22.004ZM13.016 21.506L13.2002 21.4276L13.1965 21.42L13.016 21.506ZM13.016 21.272L12.8452 21.1676L12.8411 21.1749L13.016 21.272ZM13.232 21.134L13.2712 21.3302L13.2754 21.3292L13.232 21.134ZM13.442 21.17L13.3403 21.3428L13.3525 21.3489L13.442 21.17ZM13.604 21.338L13.4232 21.4236L13.4237 21.4245L13.604 21.338ZM13.838 21.614L13.7152 21.7719L13.718 21.774L13.838 21.614ZM14.24 21.818L14.1767 22.0077L14.24 21.818ZM15.26 21.806L15.1912 21.6182L15.1897 21.6187L15.26 21.806ZM15.656 21.548L15.8052 21.6812L15.8074 21.6786L15.656 21.548ZM15.554 20.552L15.4108 20.6917L15.4125 20.6934L15.554 20.552ZM14.738 20.24L14.7589 20.0411L14.7572 20.0409L14.738 20.24ZM13.568 19.802L13.6983 19.6503L13.568 19.802ZM13.964 17.804L13.8937 17.6167L13.8928 17.6171L13.964 17.804ZM15.71 17.882L15.8175 17.7134L15.71 17.882ZM16.286 18.47L16.1162 18.5757L16.1172 18.5774L16.286 18.47ZM16.352 18.722L16.154 18.6923L16.1531 18.7011L16.352 18.722ZM16.238 18.902L16.3448 19.0711L16.3466 19.0699L16.238 18.902ZM15.992 18.932L15.9313 19.1226L15.992 18.932ZM15.794 18.776L15.9671 18.6758L15.9669 18.6755L15.794 18.776ZM15.404 18.374L15.2991 18.5443L15.3011 18.5455L15.404 18.374ZM14.798 18.224L14.8012 18.024H14.8007L14.798 18.224ZM14.054 18.392L14.1517 18.5665L14.1543 18.565L14.054 18.392ZM13.844 19.262L13.6675 19.3565L13.6719 19.364L13.844 19.262ZM14.186 19.544L14.0983 19.7238L14.1 19.7246L14.186 19.544ZM14.906 19.712L14.8856 19.911H14.8859L14.906 19.712ZM16.016 20.15L15.8802 20.2969L15.8825 20.299L16.016 20.15ZM16.274 21.698L16.1003 21.5987L16.0985 21.6019L16.274 21.698ZM15.896 22.124L16.0126 22.2865L16.0134 22.2859L15.896 22.124ZM15.356 22.376L15.303 22.1831L15.302 22.1834L15.356 22.376ZM14.732 22.26C14.4972 22.26 14.2753 22.2234 14.0652 22.1509L13.9348 22.5291C14.1886 22.6166 14.4547 22.66 14.732 22.66V22.26ZM14.0652 22.1509C13.8541 22.0781 13.674 21.9776 13.5224 21.8506L13.2656 22.1573C13.458 22.3184 13.6819 22.4419 13.9348 22.5291L14.0652 22.1509ZM13.5224 21.8506C13.3722 21.7249 13.2665 21.5839 13.2 21.4277L12.8319 21.5843C12.9255 21.8041 13.0718 21.9951 13.2656 22.1573L13.5224 21.8506ZM13.1965 21.42C13.1869 21.3997 13.186 21.3886 13.186 21.3845C13.186 21.3814 13.1863 21.3771 13.1908 21.3691L12.8411 21.1749C12.7653 21.3114 12.7718 21.4583 12.8354 21.592L13.1965 21.42ZM13.1866 21.3763C13.1956 21.3617 13.2136 21.3416 13.2712 21.3301L13.1927 20.9379C13.0504 20.9663 12.9244 21.0383 12.8453 21.1677L13.1866 21.3763ZM13.2754 21.3292C13.2943 21.325 13.3129 21.3261 13.3406 21.3424L13.5434 20.9976C13.4351 20.9339 13.3136 20.911 13.1886 20.9388L13.2754 21.3292ZM13.3525 21.3489C13.3826 21.3639 13.4054 21.3861 13.4232 21.4236L13.7847 21.2524C13.7305 21.1379 13.6453 21.0481 13.5314 20.9911L13.3525 21.3489ZM13.4237 21.4245C13.4878 21.5582 13.5883 21.6732 13.7152 21.7719L13.9608 21.4561C13.8716 21.3868 13.8161 21.3178 13.7843 21.2514L13.4237 21.4245ZM13.718 21.774C13.8499 21.8729 14.0038 21.9501 14.1767 22.0077L14.3032 21.6283C14.1641 21.5819 14.0501 21.5231 13.958 21.454L13.718 21.774ZM14.1767 22.0077C14.354 22.0668 14.5395 22.096 14.732 22.096V21.696C14.5805 21.696 14.4379 21.6732 14.3032 21.6283L14.1767 22.0077ZM14.732 22.096C14.945 22.096 15.1451 22.0627 15.3302 21.9933L15.1897 21.6187C15.0548 21.6693 14.9029 21.696 14.732 21.696V22.096ZM15.3287 21.9938C15.5185 21.9244 15.6799 21.8215 15.8052 21.6812L15.5068 21.4148C15.432 21.4985 15.3294 21.5676 15.1913 21.6182L15.3287 21.9938ZM15.8074 21.6786C15.9419 21.5227 16.006 21.3329 16.006 21.122H15.606C15.606 21.2471 15.5701 21.3413 15.5045 21.4174L15.8074 21.6786ZM16.006 21.122C16.006 20.8503 15.8959 20.6111 15.6954 20.4106L15.4125 20.6934C15.548 20.8289 15.606 20.9696 15.606 21.122H16.006ZM15.6971 20.4123C15.4855 20.1956 15.1582 20.0831 14.7589 20.0411L14.717 20.4389C15.0777 20.4769 15.2944 20.5724 15.4109 20.6917L15.6971 20.4123ZM14.7572 20.0409C14.2889 19.9956 13.9422 19.8598 13.6983 19.6503L13.4376 19.9537C13.7617 20.2322 14.1951 20.3884 14.7187 20.4391L14.7572 20.0409ZM13.6983 19.6503C13.4565 19.4425 13.342 19.1951 13.342 18.896H12.942C12.942 19.3169 13.1114 19.6734 13.4376 19.9537L13.6983 19.6503ZM13.342 18.896C13.342 18.6719 13.4038 18.4936 13.5198 18.3493L13.2081 18.0986C13.0282 18.3224 12.942 18.5921 12.942 18.896H13.342ZM13.5198 18.3493C13.6425 18.1967 13.8116 18.0761 14.0352 17.9909L13.8928 17.6171C13.6124 17.7239 13.3814 17.8832 13.2081 18.0986L13.5198 18.3493ZM14.0342 17.9913C14.2648 17.9048 14.5246 17.86 14.816 17.86V17.46C14.4833 17.46 14.1751 17.5112 13.8937 17.6167L14.0342 17.9913ZM14.816 17.86C15.1539 17.86 15.4114 17.9287 15.6024 18.0506L15.8175 17.7134C15.5446 17.5393 15.206 17.46 14.816 17.46V17.86ZM15.6024 18.0506C15.8081 18.1818 15.9793 18.3559 16.1162 18.5757L16.4557 18.3642C16.2887 18.0961 16.0758 17.8782 15.8175 17.7134L15.6024 18.0506ZM16.1172 18.5774C16.155 18.6367 16.1572 18.6725 16.1542 18.6923L16.5498 18.7517C16.5708 18.6115 16.5289 18.4792 16.4547 18.3626L16.1172 18.5774ZM16.1531 18.7011C16.152 18.7108 16.1498 18.7149 16.1485 18.717C16.147 18.7194 16.1425 18.7256 16.1293 18.7341L16.3466 19.0699C16.4619 18.9953 16.5361 18.8831 16.5509 18.7429L16.1531 18.7011ZM16.1312 18.7329C16.1066 18.7484 16.0861 18.7521 16.0526 18.7414L15.9313 19.1226C16.0738 19.1679 16.2173 19.1516 16.3448 19.0711L16.1312 18.7329ZM16.0526 18.7414C16.0093 18.7276 15.9847 18.7063 15.9671 18.6758L15.6209 18.8762C15.6912 18.9976 15.7986 19.0803 15.9313 19.1226L16.0526 18.7414ZM15.9669 18.6755C15.8511 18.4763 15.6977 18.317 15.5069 18.2025L15.3011 18.5455C15.4302 18.623 15.5369 18.7317 15.6211 18.8765L15.9669 18.6755ZM15.5088 18.2037C15.3132 18.0833 15.0728 18.0284 14.8012 18.024L14.7947 18.424C15.0191 18.4276 15.1827 18.4727 15.2991 18.5443L15.5088 18.2037ZM14.8007 18.024C14.4785 18.0197 14.1925 18.0804 13.9536 18.219L14.1543 18.565C14.3154 18.4716 14.5255 18.4203 14.7953 18.424L14.8007 18.024ZM13.9562 18.2175C13.8293 18.2886 13.726 18.3843 13.6556 18.5068C13.5853 18.6291 13.554 18.7672 13.554 18.914H13.954C13.954 18.8248 13.9726 18.7579 14.0024 18.7062C14.0319 18.6547 14.0786 18.6074 14.1517 18.5665L13.9562 18.2175ZM13.554 18.914C13.554 19.0689 13.5931 19.2172 13.6677 19.3564L14.0203 19.1675C13.9749 19.0828 13.954 18.9991 13.954 18.914H13.554ZM13.6719 19.364C13.7629 19.5176 13.9143 19.634 14.0983 19.7237L14.2737 19.3642C14.1297 19.294 14.053 19.2224 14.016 19.16L13.6719 19.364ZM14.1 19.7246C14.298 19.8189 14.5642 19.878 14.8856 19.911L14.9264 19.513C14.6237 19.482 14.4099 19.4291 14.272 19.3634L14.1 19.7246ZM14.8859 19.911C15.3329 19.9561 15.6572 20.0907 15.8802 20.2969L16.1517 20.0031C15.8467 19.7212 15.431 19.5639 14.926 19.513L14.8859 19.911ZM15.8825 20.299C16.1036 20.497 16.218 20.7585 16.218 21.104H16.618C16.618 20.6575 16.4643 20.283 16.1494 20.001L15.8825 20.299ZM16.218 21.104C16.218 21.3034 16.1762 21.466 16.1003 21.5988L16.4476 21.7972C16.5637 21.594 16.618 21.3606 16.618 21.104H16.218ZM16.0985 21.6019C16.0212 21.7431 15.9154 21.8629 15.7786 21.9621L16.0134 22.2859C16.1966 22.1531 16.3427 21.9889 16.4494 21.7941L16.0985 21.6019ZM15.7793 21.9615C15.6444 22.0584 15.4865 22.1328 15.303 22.1831L15.4089 22.5689C15.6335 22.5072 15.8355 22.4136 16.0126 22.2865L15.7793 21.9615ZM15.302 22.1834C15.1203 22.2343 14.9305 22.26 14.732 22.26V22.66C14.9655 22.66 15.1916 22.6297 15.4099 22.5686L15.302 22.1834ZM18.3108 22.34L18.376 22.1509L18.3108 22.34ZM17.7048 22.004L17.5764 22.1573L17.7048 22.004ZM17.3268 21.506L17.511 21.4276L17.5074 21.42L17.3268 21.506ZM17.3268 21.272L17.156 21.1676L17.152 21.1749L17.3268 21.272ZM17.5428 21.134L17.5821 21.3302L17.5862 21.3292L17.5428 21.134ZM17.7528 21.17L17.6512 21.3428L17.6634 21.3489L17.7528 21.17ZM17.9148 21.338L17.7341 21.4236L17.7345 21.4245L17.9148 21.338ZM18.1488 21.614L18.026 21.7719L18.0288 21.774L18.1488 21.614ZM18.5508 21.818L18.4876 22.0077L18.5508 21.818ZM19.5708 21.806L19.5021 21.6182L19.5006 21.6187L19.5708 21.806ZM19.9668 21.548L20.116 21.6812L20.1183 21.6786L19.9668 21.548ZM19.8648 20.552L19.7217 20.6917L19.7234 20.6934L19.8648 20.552ZM19.0488 20.24L19.0698 20.0411L19.0681 20.0409L19.0488 20.24ZM17.8788 19.802L18.0092 19.6503L17.8788 19.802ZM18.2748 17.804L18.2046 17.6167L18.2036 17.6171L18.2748 17.804ZM20.0208 17.882L20.1284 17.7134L20.0208 17.882ZM20.5968 18.47L20.4271 18.5757L20.4281 18.5774L20.5968 18.47ZM20.6628 18.722L20.4648 18.6923L20.4639 18.7011L20.6628 18.722ZM20.5488 18.902L20.6556 19.0711L20.6575 19.0699L20.5488 18.902ZM20.3028 18.932L20.2422 19.1226L20.3028 18.932ZM20.1048 18.776L20.2779 18.6758L20.2777 18.6755L20.1048 18.776ZM19.7148 18.374L19.61 18.5443L19.6119 18.5455L19.7148 18.374ZM19.1088 18.224L19.1121 18.024H19.1115L19.1088 18.224ZM18.3648 18.392L18.4626 18.5665L18.4652 18.565L18.3648 18.392ZM18.1548 19.262L17.9784 19.3565L17.9828 19.364L18.1548 19.262ZM18.4968 19.544L18.4091 19.7238L18.4108 19.7246L18.4968 19.544ZM19.2168 19.712L19.1964 19.911H19.1968L19.2168 19.712ZM20.3268 20.15L20.1911 20.2969L20.1934 20.299L20.3268 20.15ZM20.5848 21.698L20.4111 21.5987L20.4094 21.6019L20.5848 21.698ZM20.2068 22.124L20.3235 22.2865L20.3242 22.2859L20.2068 22.124ZM19.6668 22.376L19.6139 22.1831L19.6129 22.1834L19.6668 22.376ZM19.0428 22.26C18.808 22.26 18.5862 22.2234 18.376 22.1509L18.2456 22.5291C18.4995 22.6166 18.7656 22.66 19.0428 22.66V22.26ZM18.376 22.1509C18.1649 22.0781 17.9848 21.9776 17.8332 21.8506L17.5764 22.1573C17.7688 22.3184 17.9927 22.4419 18.2456 22.5291L18.376 22.1509ZM17.8332 21.8506C17.683 21.7249 17.5773 21.5839 17.5109 21.4277L17.1428 21.5843C17.2363 21.8041 17.3826 21.9951 17.5764 22.1573L17.8332 21.8506ZM17.5074 21.42C17.4978 21.3997 17.4968 21.3886 17.4968 21.3845C17.4968 21.3814 17.4972 21.3771 17.5017 21.3691L17.152 21.1749C17.0762 21.3114 17.0826 21.4583 17.1463 21.592L17.5074 21.42ZM17.4975 21.3763C17.5064 21.3617 17.5244 21.3416 17.582 21.3301L17.5036 20.9379C17.3612 20.9663 17.2352 21.0383 17.1562 21.1677L17.4975 21.3763ZM17.5862 21.3292C17.6052 21.325 17.6237 21.3261 17.6514 21.3424L17.8542 20.9976C17.7459 20.9339 17.6245 20.911 17.4994 20.9388L17.5862 21.3292ZM17.6634 21.3489C17.6935 21.3639 17.7163 21.3861 17.7341 21.4236L18.0956 21.2524C18.0413 21.1379 17.9562 21.0481 17.8423 20.9911L17.6634 21.3489ZM17.7345 21.4245C17.7987 21.5582 17.8992 21.6732 18.026 21.7719L18.2716 21.4561C18.1825 21.3868 18.127 21.3178 18.0951 21.2514L17.7345 21.4245ZM18.0288 21.774C18.1607 21.8729 18.3147 21.9501 18.4876 22.0077L18.6141 21.6283C18.475 21.5819 18.3609 21.5231 18.2688 21.454L18.0288 21.774ZM18.4876 22.0077C18.6649 22.0668 18.8503 22.096 19.0428 22.096V21.696C18.8913 21.696 18.7488 21.6732 18.6141 21.6283L18.4876 22.0077ZM19.0428 22.096C19.2559 22.096 19.456 22.0627 19.6411 21.9933L19.5006 21.6187C19.3657 21.6693 19.2138 21.696 19.0428 21.696V22.096ZM19.6395 21.9938C19.8294 21.9244 19.9908 21.8215 20.116 21.6812L19.8176 21.4148C19.7429 21.4985 19.6403 21.5676 19.5021 21.6182L19.6395 21.9938ZM20.1183 21.6786C20.2527 21.5227 20.3168 21.3329 20.3168 21.122H19.9168C19.9168 21.2471 19.8809 21.3413 19.8153 21.4174L20.1183 21.6786ZM20.3168 21.122C20.3168 20.8503 20.2068 20.6111 20.0062 20.4106L19.7234 20.6934C19.8588 20.8289 19.9168 20.9696 19.9168 21.122H20.3168ZM20.0079 20.4123C19.7964 20.1956 19.4691 20.0831 19.0698 20.0411L19.0279 20.4389C19.3886 20.4769 19.6053 20.5724 19.7217 20.6917L20.0079 20.4123ZM19.0681 20.0409C18.5997 19.9956 18.2531 19.8598 18.0092 19.6503L17.7485 19.9537C18.0726 20.2322 18.5059 20.3884 19.0296 20.4391L19.0681 20.0409ZM18.0092 19.6503C17.7674 19.4425 17.6528 19.1951 17.6528 18.896H17.2528C17.2528 19.3169 17.4223 19.6734 17.7485 19.9537L18.0092 19.6503ZM17.6528 18.896C17.6528 18.6719 17.7146 18.4936 17.8307 18.3493L17.519 18.0986C17.339 18.3224 17.2528 18.5921 17.2528 18.896H17.6528ZM17.8307 18.3493C17.9534 18.1967 18.1224 18.0761 18.346 17.9909L18.2036 17.6171C17.9232 17.7239 17.6922 17.8832 17.519 18.0986L17.8307 18.3493ZM18.3451 17.9913C18.5757 17.9048 18.8355 17.86 19.1268 17.86V17.46C18.7942 17.46 18.486 17.5112 18.2046 17.6167L18.3451 17.9913ZM19.1268 17.86C19.4647 17.86 19.7222 17.9287 19.9133 18.0506L20.1284 17.7134C19.8554 17.5393 19.5169 17.46 19.1268 17.46V17.86ZM19.9133 18.0506C20.119 18.1818 20.2901 18.3559 20.4271 18.5757L20.7666 18.3642C20.5995 18.0961 20.3867 17.8782 20.1284 17.7134L19.9133 18.0506ZM20.4281 18.5774C20.4659 18.6367 20.468 18.6725 20.465 18.6923L20.8606 18.7517C20.8816 18.6115 20.8398 18.4792 20.7656 18.3626L20.4281 18.5774ZM20.4639 18.7011C20.4629 18.7108 20.4607 18.7149 20.4594 18.717C20.4579 18.7194 20.4533 18.7256 20.4402 18.7341L20.6575 19.0699C20.7727 18.9953 20.847 18.8831 20.8617 18.7429L20.4639 18.7011ZM20.442 18.7329C20.4175 18.7484 20.397 18.7521 20.3635 18.7414L20.2422 19.1226C20.3847 19.1679 20.5282 19.1516 20.6556 19.0711L20.442 18.7329ZM20.3635 18.7414C20.3202 18.7276 20.2956 18.7063 20.2779 18.6758L19.9317 18.8762C20.002 18.9976 20.1094 19.0803 20.2422 19.1226L20.3635 18.7414ZM20.2777 18.6755C20.1619 18.4763 20.0086 18.317 19.8177 18.2025L19.6119 18.5455C19.7411 18.623 19.8477 18.7317 19.9319 18.8765L20.2777 18.6755ZM19.8196 18.2037C19.6241 18.0833 19.3837 18.0284 19.1121 18.024L19.1056 18.424C19.3299 18.4276 19.4936 18.4727 19.61 18.5443L19.8196 18.2037ZM19.1115 18.024C18.7893 18.0197 18.5034 18.0804 18.2645 18.219L18.4652 18.565C18.6263 18.4716 18.8363 18.4203 19.1061 18.424L19.1115 18.024ZM18.2671 18.2175C18.1401 18.2886 18.0369 18.3843 17.9664 18.5068C17.8961 18.6291 17.8648 18.7672 17.8648 18.914H18.2648C18.2648 18.8248 18.2835 18.7579 18.3132 18.7062C18.3428 18.6547 18.3895 18.6074 18.4625 18.5665L18.2671 18.2175ZM17.8648 18.914C17.8648 19.0689 17.9039 19.2172 17.9785 19.3564L18.3311 19.1675C18.2857 19.0828 18.2648 18.9991 18.2648 18.914H17.8648ZM17.9828 19.364C18.0738 19.5176 18.2251 19.634 18.4091 19.7237L18.5845 19.3642C18.4405 19.294 18.3638 19.2224 18.3269 19.16L17.9828 19.364ZM18.4108 19.7246C18.6089 19.8189 18.875 19.878 19.1964 19.911L19.2372 19.513C18.9346 19.482 18.7208 19.4291 18.5828 19.3634L18.4108 19.7246ZM19.1968 19.911C19.6438 19.9561 19.9681 20.0907 20.1911 20.2969L20.4626 20.0031C20.1576 19.7212 19.7419 19.5639 19.2369 19.513L19.1968 19.911ZM20.1934 20.299C20.4145 20.497 20.5288 20.7585 20.5288 21.104H20.9288C20.9288 20.6575 20.7752 20.283 20.4603 20.001L20.1934 20.299ZM20.5288 21.104C20.5288 21.3034 20.4871 21.466 20.4112 21.5988L20.7585 21.7972C20.8746 21.594 20.9288 21.3606 20.9288 21.104H20.5288ZM20.4094 21.6019C20.3321 21.7431 20.2262 21.8629 20.0894 21.9621L20.3242 22.2859C20.5074 22.1531 20.6536 21.9889 20.7602 21.7941L20.4094 21.6019ZM20.0902 21.9615C19.9553 22.0584 19.7973 22.1328 19.6139 22.1831L19.7198 22.5689C19.9443 22.5072 20.1463 22.4136 20.3235 22.2865L20.0902 21.9615ZM19.6129 22.1834C19.4311 22.2343 19.2413 22.26 19.0428 22.26V22.66C19.2763 22.66 19.5025 22.6297 19.7208 22.5686L19.6129 22.1834Z" fill="white"/>
</svg>
