<svg width="32" height="32" viewBox="0 0 32 32" fill="none" xmlns="http://www.w3.org/2000/svg">
<path d="M9.27852 2C8.28259 2 7.48584 2.79715 7.48584 3.79359V28.2064C7.48584 29.2028 8.28259 30 9.27852 30H26.7073C27.7033 30 28.5 29.2028 28.5 28.2064V8.97509L21.5285 2H9.27852Z" fill="#E2E5E7"/>
<path d="M23.2215 8.97509H28.5L21.5284 2V7.28114C21.4288 8.17794 22.2256 8.97509 23.2215 8.97509Z" fill="#B0B7BD"/>
<path d="M28.4005 14.2562L23.2217 8.9751H28.5001V14.2562H28.4005Z" fill="#CAD1D8"/>
<path d="M24.9146 24.7188C24.9146 25.217 24.5162 25.6156 24.0183 25.6156H4.89634C4.39837 25.6156 4 25.217 4 24.7188V15.9501C4 15.4519 4.39837 15.0533 4.89634 15.0533H24.0183C24.5162 15.0533 24.9146 15.4519 24.9146 15.9501V24.7188Z" fill="#50BEE8"/>
<path d="M24.1179 25.6156H7.48584V26.5124H24.0183C24.5163 26.5124 24.9147 26.1139 24.9147 25.6156V24.7188C24.9147 25.217 24.5163 25.6156 24.1179 25.6156Z" fill="#CAD1D8"/>
<path d="M7.7119 22.7C7.6239 22.7 7.5499 22.67 7.4899 22.61C7.4299 22.55 7.3999 22.476 7.3999 22.388V18.326C7.3999 18.234 7.4299 18.16 7.4899 18.104C7.5499 18.044 7.6239 18.014 7.7119 18.014H8.7979C9.1419 18.014 9.4539 18.072 9.7339 18.188C10.0179 18.3 10.2639 18.462 10.4719 18.674C10.6799 18.882 10.8399 19.128 10.9519 19.412C11.0639 19.696 11.1199 20.01 11.1199 20.354C11.1199 20.698 11.0639 21.014 10.9519 21.302C10.8399 21.586 10.6799 21.834 10.4719 22.046C10.2639 22.254 10.0179 22.416 9.7339 22.532C9.4539 22.644 9.1419 22.7 8.7979 22.7H7.7119ZM8.0239 22.148H8.7979C9.1339 22.148 9.4299 22.072 9.6859 21.92C9.9459 21.764 10.1499 21.552 10.2979 21.284C10.4459 21.012 10.5199 20.702 10.5199 20.354C10.5199 20.002 10.4459 19.692 10.2979 19.424C10.1499 19.156 9.9459 18.946 9.6859 18.794C9.4299 18.642 9.1339 18.566 8.7979 18.566H8.0239V22.148ZM14.3279 22.76C13.9759 22.76 13.6539 22.702 13.3619 22.586C13.0699 22.466 12.8179 22.3 12.6059 22.088C12.3979 21.872 12.2359 21.618 12.1199 21.326C12.0039 21.03 11.9459 20.706 11.9459 20.354C11.9459 20.002 12.0039 19.68 12.1199 19.388C12.2359 19.096 12.3979 18.844 12.6059 18.632C12.8179 18.416 13.0699 18.25 13.3619 18.134C13.6539 18.014 13.9759 17.954 14.3279 17.954C14.6799 17.954 14.9999 18.014 15.2879 18.134C15.5799 18.25 15.8319 18.416 16.0439 18.632C16.2559 18.844 16.4199 19.096 16.5359 19.388C16.6519 19.68 16.7099 20.002 16.7099 20.354C16.7099 20.706 16.6519 21.03 16.5359 21.326C16.4199 21.618 16.2559 21.872 16.0439 22.088C15.8319 22.3 15.5799 22.466 15.2879 22.586C14.9999 22.702 14.6799 22.76 14.3279 22.76ZM14.3279 22.196C14.6759 22.196 14.9839 22.116 15.2519 21.956C15.5199 21.792 15.7299 21.572 15.8819 21.296C16.0339 21.016 16.1099 20.702 16.1099 20.354C16.1099 20.006 16.0339 19.694 15.8819 19.418C15.7299 19.138 15.5199 18.918 15.2519 18.758C14.9839 18.598 14.6759 18.518 14.3279 18.518C13.9799 18.518 13.6719 18.598 13.4039 18.758C13.1359 18.918 12.9259 19.138 12.7739 19.418C12.6219 19.694 12.5459 20.006 12.5459 20.354C12.5459 20.702 12.6219 21.016 12.7739 21.296C12.9259 21.572 13.1359 21.792 13.4039 21.956C13.6719 22.116 13.9799 22.196 14.3279 22.196ZM19.8501 22.76C19.5261 22.76 19.2221 22.7 18.9381 22.58C18.6581 22.456 18.4121 22.286 18.2001 22.07C17.9921 21.85 17.8281 21.594 17.7081 21.302C17.5921 21.01 17.5341 20.694 17.5341 20.354C17.5341 20.018 17.5921 19.706 17.7081 19.418C17.8281 19.126 17.9921 18.872 18.2001 18.656C18.4121 18.436 18.6581 18.264 18.9381 18.14C19.2181 18.016 19.5221 17.954 19.8501 17.954C20.1581 17.954 20.4221 17.994 20.6421 18.074C20.8661 18.154 21.0901 18.286 21.3141 18.47C21.3621 18.51 21.3941 18.548 21.4101 18.584C21.4261 18.62 21.4341 18.664 21.4341 18.716C21.4341 18.792 21.4061 18.856 21.3501 18.908C21.2981 18.956 21.2341 18.984 21.1581 18.992C21.0821 18.996 21.0081 18.97 20.9361 18.914C20.7881 18.786 20.6341 18.688 20.4741 18.62C20.3181 18.552 20.1101 18.518 19.8501 18.518C19.6141 18.518 19.3921 18.566 19.1841 18.662C18.9761 18.758 18.7921 18.89 18.6321 19.058C18.4761 19.226 18.3541 19.422 18.2661 19.646C18.1781 19.866 18.1341 20.102 18.1341 20.354C18.1341 20.61 18.1781 20.85 18.2661 21.074C18.3541 21.294 18.4761 21.488 18.6321 21.656C18.7921 21.824 18.9761 21.956 19.1841 22.052C19.3921 22.144 19.6141 22.19 19.8501 22.19C20.0541 22.19 20.2461 22.156 20.4261 22.088C20.6101 22.016 20.7861 21.918 20.9541 21.794C21.0261 21.742 21.0961 21.72 21.1641 21.728C21.2361 21.732 21.2961 21.76 21.3441 21.812C21.3921 21.86 21.4161 21.928 21.4161 22.016C21.4161 22.1 21.3841 22.174 21.3201 22.238C20.8881 22.586 20.3981 22.76 19.8501 22.76Z" fill="white"/>
<path d="M7.48971 22.61L7.34829 22.7514L7.48971 22.61ZM7.48971 18.104L7.62626 18.2503L7.63114 18.2454L7.48971 18.104ZM9.73371 18.188L9.65716 18.3728L9.66034 18.3741L9.73371 18.188ZM10.4717 18.674L10.3289 18.8141L10.3303 18.8154L10.4717 18.674ZM10.9517 19.412L11.1378 19.3386L10.9517 19.412ZM10.9517 21.302L11.1378 21.3754L11.1381 21.3745L10.9517 21.302ZM10.4717 22.046L10.6131 22.1874L10.6145 22.1861L10.4717 22.046ZM9.73371 22.532L9.80799 22.7177L9.80934 22.7172L9.73371 22.532ZM8.02371 22.148H7.82371V22.348H8.02371V22.148ZM9.68571 21.92L9.78782 22.092L9.78861 22.0915L9.68571 21.92ZM10.2977 21.284L10.4728 21.3807L10.4734 21.3796L10.2977 21.284ZM10.2977 19.424L10.1226 19.5207L10.2977 19.424ZM9.68571 18.794L9.5836 18.966L9.58478 18.9667L9.68571 18.794ZM8.02371 18.566V18.366H7.82371V18.566H8.02371ZM7.71171 22.5C7.67456 22.5 7.6521 22.4896 7.63114 22.4686L7.34829 22.7514C7.44733 22.8505 7.57287 22.9 7.71171 22.9V22.5ZM7.63114 22.4686C7.61017 22.4476 7.59971 22.4252 7.59971 22.388H7.19971C7.19971 22.5269 7.24926 22.6524 7.34829 22.7514L7.63114 22.4686ZM7.59971 22.388V18.326H7.19971V22.388H7.59971ZM7.59971 18.326C7.59971 18.282 7.61182 18.2636 7.62618 18.2502L7.35325 17.9578C7.24761 18.0564 7.19971 18.186 7.19971 18.326H7.59971ZM7.63114 18.2454C7.6521 18.2245 7.67456 18.214 7.71171 18.214V17.814C7.57287 17.814 7.44733 17.8636 7.34829 17.9626L7.63114 18.2454ZM7.71171 18.214H8.79771V17.814H7.71171V18.214ZM8.79771 18.214C9.11898 18.214 9.4045 18.2681 9.65717 18.3728L9.81026 18.0032C9.50293 17.8759 9.16445 17.814 8.79771 17.814V18.214ZM9.66034 18.3741C9.91899 18.4761 10.1411 18.6227 10.3289 18.8141L10.6145 18.5339C10.3863 18.3014 10.1164 18.124 9.80709 18.002L9.66034 18.3741ZM10.3303 18.8154C10.5182 19.0033 10.6633 19.2259 10.7657 19.4854L11.1378 19.3386C11.0161 19.0301 10.8412 18.7607 10.6131 18.5326L10.3303 18.8154ZM10.7657 19.4854C10.8673 19.7432 10.9197 20.032 10.9197 20.354H11.3197C11.3197 19.9881 11.2601 19.6488 11.1378 19.3386L10.7657 19.4854ZM10.9197 20.354C10.9197 20.676 10.8674 20.9671 10.7653 21.2295L11.1381 21.3745C11.2601 21.0609 11.3197 20.72 11.3197 20.354H10.9197ZM10.7657 21.2286C10.6632 21.4884 10.5177 21.7136 10.3289 21.9059L10.6145 22.1861C10.8417 21.9544 11.0162 21.6836 11.1378 21.3754L10.7657 21.2286ZM10.3303 21.9046C10.1419 22.093 9.91854 22.2405 9.65809 22.3469L9.80934 22.7172C10.1169 22.5915 10.3855 22.415 10.6131 22.1874L10.3303 21.9046ZM9.65944 22.3463C9.40615 22.4476 9.11982 22.5 8.79771 22.5V22.9C9.16361 22.9 9.50128 22.8404 9.80799 22.7177L9.65944 22.3463ZM8.79771 22.5H7.71171V22.9H8.79771V22.5ZM8.02371 22.348H8.79771V21.948H8.02371V22.348ZM8.79771 22.348C9.16493 22.348 9.4971 22.2646 9.78782 22.092L9.58361 21.748C9.36233 21.8794 9.1025 21.948 8.79771 21.948V22.348ZM9.78861 22.0915C10.0791 21.9172 10.3079 21.6792 10.4728 21.3807L10.1226 21.1873C9.99151 21.4248 9.81228 21.6108 9.58282 21.7485L9.78861 22.0915ZM10.4734 21.3796C10.6392 21.0748 10.7197 20.7312 10.7197 20.354H10.3197C10.3197 20.6728 10.2522 20.9492 10.122 21.1884L10.4734 21.3796ZM10.7197 20.354C10.7197 19.9733 10.6394 19.6291 10.4728 19.3273L10.1226 19.5207C10.252 19.7549 10.3197 20.0307 10.3197 20.354H10.7197ZM10.4728 19.3273C10.3077 19.0283 10.0783 18.7919 9.78665 18.6214L9.58478 18.9667C9.81313 19.1002 9.99175 19.2837 10.1226 19.5207L10.4728 19.3273ZM9.78782 18.622C9.4971 18.4494 9.16493 18.366 8.79771 18.366V18.766C9.1025 18.766 9.36233 18.8346 9.58361 18.966L9.78782 18.622ZM8.79771 18.366H8.02371V18.766H8.79771V18.366ZM7.82371 18.566V22.148H8.22371V18.566H7.82371ZM13.3617 22.586L13.2857 22.771L13.2879 22.7719L13.3617 22.586ZM12.6057 22.088L12.4616 22.2268L12.4643 22.2294L12.6057 22.088ZM12.1197 21.326L11.9335 21.399L11.9339 21.3999L12.1197 21.326ZM12.1197 19.388L11.9339 19.3142L12.1197 19.388ZM12.6057 18.632L12.463 18.4919L12.6057 18.632ZM13.3617 18.134L13.4356 18.3199L13.4378 18.319L13.3617 18.134ZM15.2877 18.134L15.2108 18.3187L15.2139 18.3199L15.2877 18.134ZM16.0437 18.632L15.901 18.7721L15.9023 18.7734L16.0437 18.632ZM16.5357 19.388L16.7216 19.3142L16.5357 19.388ZM16.5357 21.326L16.7216 21.3999L16.7219 21.399L16.5357 21.326ZM16.0437 22.088L16.1852 22.2294L16.1865 22.2281L16.0437 22.088ZM15.2877 22.586L15.3625 22.7715L15.3638 22.771L15.2877 22.586ZM15.2517 21.956L15.3543 22.1277L15.3561 22.1266L15.2517 21.956ZM15.8817 21.296L16.0569 21.3925L16.0575 21.3914L15.8817 21.296ZM15.8817 19.418L15.706 19.5134L15.7065 19.5145L15.8817 19.418ZM15.2517 18.758L15.1492 18.9297L15.2517 18.758ZM13.4037 18.758L13.5063 18.9297L13.4037 18.758ZM12.7737 19.418L12.9489 19.5145L12.9495 19.5134L12.7737 19.418ZM12.7737 21.296L12.598 21.3914L12.5985 21.3925L12.7737 21.296ZM13.4037 21.956L13.2993 22.1266L13.3012 22.1277L13.4037 21.956ZM14.3277 22.56C13.998 22.56 13.7014 22.5057 13.4356 22.4001L13.2879 22.7719C13.6061 22.8983 13.9535 22.96 14.3277 22.96V22.56ZM13.4378 22.401C13.1689 22.2905 12.9395 22.1389 12.7472 21.9466L12.4643 22.2294C12.696 22.4611 12.9706 22.6415 13.2857 22.771L13.4378 22.401ZM12.7498 21.9493C12.5607 21.7529 12.4125 21.5212 12.3056 21.2522L11.9339 21.3999C12.059 21.7148 12.2348 21.9911 12.4617 22.2267L12.7498 21.9493ZM12.3059 21.253C12.2 20.9827 12.1457 20.6837 12.1457 20.354H11.7457C11.7457 20.7283 11.8075 21.0774 11.9335 21.399L12.3059 21.253ZM12.1457 20.354C12.1457 20.0243 12.2 19.7277 12.3056 19.4619L11.9339 19.3142C11.8075 19.6323 11.7457 19.9798 11.7457 20.354H12.1457ZM12.3056 19.4619C12.4124 19.1931 12.5602 18.964 12.7485 18.7721L12.463 18.4919C12.2353 18.724 12.0591 18.9989 11.9339 19.3142L12.3056 19.4619ZM12.7485 18.7721C12.9402 18.5768 13.1685 18.426 13.4356 18.3199L13.2879 17.9481C12.971 18.074 12.6953 18.2553 12.463 18.4919L12.7485 18.7721ZM13.4378 18.319C13.703 18.21 13.9988 18.154 14.3277 18.154V17.754C13.9527 17.754 13.6045 17.818 13.2857 17.949L13.4378 18.319ZM14.3277 18.154C14.6567 18.154 14.9501 18.21 15.2108 18.3186L15.3647 17.9494C15.0494 17.818 14.7028 17.754 14.3277 17.754V18.154ZM15.2139 18.3199C15.481 18.426 15.7093 18.5768 15.901 18.7721L16.1865 18.4919C15.9542 18.2553 15.6785 18.074 15.3616 17.9481L15.2139 18.3199ZM15.9023 18.7734C16.0941 18.9652 16.2434 19.1939 16.3499 19.4619L16.7216 19.3142C16.596 18.9981 16.4173 18.7228 16.1852 18.4906L15.9023 18.7734ZM16.3499 19.4619C16.4555 19.7277 16.5097 20.0243 16.5097 20.354H16.9097C16.9097 19.9798 16.848 19.6323 16.7216 19.3142L16.3499 19.4619ZM16.5097 20.354C16.5097 20.6837 16.4555 20.9827 16.3495 21.253L16.7219 21.399C16.848 21.0774 16.9097 20.7283 16.9097 20.354H16.5097ZM16.3499 21.2522C16.2433 21.5204 16.0936 21.7516 15.901 21.9479L16.1865 22.2281C16.4178 21.9924 16.5962 21.7156 16.7216 21.3999L16.3499 21.2522ZM15.9023 21.9466C15.71 22.1389 15.4806 22.2905 15.2117 22.401L15.3638 22.771C15.6789 22.6415 15.9535 22.4611 16.1852 22.2294L15.9023 21.9466ZM15.213 22.4005C14.9517 22.5057 14.6575 22.56 14.3277 22.56V22.96C14.7019 22.96 15.0477 22.8983 15.3625 22.7715L15.213 22.4005ZM14.3277 22.396C14.7076 22.396 15.0518 22.3083 15.3543 22.1277L15.1492 21.7843C14.9157 21.9237 14.6439 21.996 14.3277 21.996V22.396ZM15.3561 22.1266C15.6539 21.9444 15.8882 21.6988 16.0569 21.3925L15.7065 21.1995C15.5713 21.4452 15.3856 21.6396 15.1473 21.7854L15.3561 22.1266ZM16.0575 21.3914C16.2268 21.0795 16.3097 20.7322 16.3097 20.354H15.9097C15.9097 20.6718 15.8406 20.9525 15.706 21.2006L16.0575 21.3914ZM16.3097 20.354C16.3097 19.9759 16.2269 19.6301 16.0569 19.3215L15.7065 19.5145C15.8406 19.7579 15.9097 20.0361 15.9097 20.354H16.3097ZM16.0575 19.3226C15.8888 19.0117 15.6537 18.7651 15.3543 18.5863L15.1492 18.9297C15.3857 19.0709 15.5707 19.2643 15.706 19.5134L16.0575 19.3226ZM15.3543 18.5863C15.0518 18.4057 14.7076 18.318 14.3277 18.318V18.718C14.6439 18.718 14.9157 18.7903 15.1492 18.9297L15.3543 18.5863ZM14.3277 18.318C13.9479 18.318 13.6037 18.4057 13.3012 18.5863L13.5063 18.9297C13.7398 18.7903 14.0116 18.718 14.3277 18.718V18.318ZM13.3012 18.5863C13.0017 18.7651 12.7667 19.0117 12.598 19.3226L12.9495 19.5134C13.0848 19.2643 13.2697 19.0709 13.5063 18.9297L13.3012 18.5863ZM12.5985 19.3215C12.4286 19.6301 12.3457 19.9759 12.3457 20.354H12.7457C12.7457 20.0361 12.8149 19.7579 12.9489 19.5145L12.5985 19.3215ZM12.3457 20.354C12.3457 20.7322 12.4286 21.0795 12.598 21.3914L12.9495 21.2006C12.8148 20.9525 12.7457 20.6718 12.7457 20.354H12.3457ZM12.5985 21.3925C12.7673 21.6988 13.0016 21.9444 13.2993 22.1266L13.5081 21.7854C13.2699 21.6396 13.0842 21.4452 12.9489 21.1995L12.5985 21.3925ZM13.3012 22.1277C13.6037 22.3083 13.9479 22.396 14.3277 22.396V21.996C14.0116 21.996 13.7398 21.9237 13.5063 21.7843L13.3012 22.1277ZM18.9379 22.58L18.8569 22.7629L18.8601 22.7642L18.9379 22.58ZM18.1999 22.07L18.0546 22.2074L18.0572 22.2101L18.1999 22.07ZM17.7079 21.302L17.5221 21.3759L17.523 21.378L17.7079 21.302ZM17.7079 19.418L17.5229 19.342L17.5224 19.3433L17.7079 19.418ZM18.1999 18.656L18.0559 18.5172V18.5173L18.1999 18.656ZM18.9379 18.14L18.857 17.9571L18.9379 18.14ZM20.6419 18.074L20.5736 18.262L20.5747 18.2624L20.6419 18.074ZM21.3139 18.47L21.442 18.3164L21.4409 18.3155L21.3139 18.47ZM21.3499 18.908L21.4856 19.055L21.486 19.0546L21.3499 18.908ZM21.1579 18.992L21.1685 19.192L21.1789 19.1909L21.1579 18.992ZM20.9359 18.914L20.8049 19.0655L20.8132 19.0719L20.9359 18.914ZM20.4739 18.62L20.394 18.8034L20.3957 18.8041L20.4739 18.62ZM18.6319 19.058L18.4871 18.9201L18.4854 18.9219L18.6319 19.058ZM18.2659 19.646L18.4516 19.7203L18.4521 19.7191L18.2659 19.646ZM18.2659 21.074L18.0798 21.1471L18.0802 21.1483L18.2659 21.074ZM18.6319 21.656L18.4854 21.7921L18.4871 21.7939L18.6319 21.656ZM19.1839 22.052L19.1001 22.2336L19.103 22.2349L19.1839 22.052ZM20.4259 22.088L20.4966 22.2751L20.4988 22.2743L20.4259 22.088ZM20.9539 21.794L20.8368 21.6319L20.8352 21.6331L20.9539 21.794ZM21.1639 21.728L21.1405 21.927L21.1528 21.9277L21.1639 21.728ZM21.3439 21.812L21.1969 21.9478L21.2025 21.9534L21.3439 21.812ZM21.3199 22.238L21.4454 22.3938L21.4538 22.387L21.4614 22.3794L21.3199 22.238ZM19.8499 22.56C19.5513 22.56 19.2739 22.5048 19.0158 22.3958L18.8601 22.7642C19.17 22.8952 19.5006 22.96 19.8499 22.96V22.56ZM19.0189 22.3971C18.7617 22.2832 18.5368 22.1277 18.3427 21.9299L18.0572 22.2101C18.2871 22.4444 18.5541 22.6288 18.857 22.7629L19.0189 22.3971ZM18.3453 21.9326C18.1549 21.7312 18.004 21.4963 17.8929 21.226L17.523 21.378C17.6519 21.6918 17.829 21.9688 18.0546 22.2074L18.3453 21.9326ZM17.8938 21.2282C17.7879 20.9615 17.7339 20.6708 17.7339 20.354H17.3339C17.3339 20.7172 17.396 21.0585 17.5221 21.3759L17.8938 21.2282ZM17.7339 20.354C17.7339 20.0415 17.7878 19.7551 17.8935 19.4927L17.5224 19.3433C17.3961 19.6569 17.3339 19.9945 17.3339 20.354H17.7339ZM17.8929 19.494C18.0039 19.2241 18.1544 18.9917 18.344 18.7947L18.0559 18.5173C17.8295 18.7524 17.652 19.0279 17.523 19.342L17.8929 19.494ZM18.344 18.7948C18.538 18.5935 18.7625 18.4364 19.0189 18.3229L18.857 17.9571C18.5533 18.0916 18.2859 18.2786 18.0559 18.5172L18.344 18.7948ZM19.0189 18.3229C19.2716 18.211 19.5478 18.154 19.8499 18.154V17.754C19.4961 17.754 19.1642 17.8211 18.857 17.9571L19.0189 18.3229ZM19.8499 18.154C20.1416 18.154 20.3812 18.192 20.5736 18.262L20.7103 17.8861C20.4627 17.796 20.1743 17.754 19.8499 17.754V18.154ZM20.5747 18.2624C20.7728 18.3331 20.977 18.4521 21.187 18.6246L21.4409 18.3155C21.2029 18.1199 20.9591 17.9749 20.7092 17.8857L20.5747 18.2624ZM21.1859 18.6237C21.2031 18.638 21.2142 18.6493 21.221 18.6573C21.2278 18.6655 21.2285 18.6682 21.2272 18.6652L21.5927 18.5028C21.5591 18.4271 21.5012 18.3657 21.442 18.3164L21.1859 18.6237ZM21.2272 18.6652C21.2288 18.6689 21.2339 18.6835 21.2339 18.716H21.6339C21.6339 18.6446 21.6231 18.5711 21.5927 18.5028L21.2272 18.6652ZM21.2339 18.716C21.2339 18.736 21.2294 18.7471 21.2138 18.7615L21.486 19.0546C21.5825 18.965 21.6339 18.848 21.6339 18.716H21.2339ZM21.2143 18.7611C21.1965 18.7775 21.1738 18.7892 21.137 18.7931L21.1789 19.1909C21.2941 19.1788 21.3994 19.1346 21.4856 19.055L21.2143 18.7611ZM21.1474 18.7923C21.1286 18.7933 21.1007 18.7888 21.0587 18.7561L20.8132 19.0719C20.9152 19.1513 21.0353 19.1987 21.1685 19.1917L21.1474 18.7923ZM21.0668 18.7627C20.905 18.6228 20.7335 18.513 20.5522 18.4359L20.3957 18.8041C20.5343 18.863 20.6709 18.9492 20.8051 19.0653L21.0668 18.7627ZM20.5539 18.4367C20.3629 18.3534 20.1244 18.318 19.8499 18.318V18.718C20.0955 18.718 20.273 18.7506 20.394 18.8034L20.5539 18.4367ZM19.8499 18.318C19.5859 18.318 19.3352 18.3719 19.1001 18.4804L19.2678 18.8436C19.4487 18.7601 19.642 18.718 19.8499 18.718V18.318ZM19.1001 18.4804C18.8689 18.5871 18.6643 18.734 18.4871 18.9201L18.7768 19.1959C18.9196 19.046 19.083 18.9289 19.2678 18.8436L19.1001 18.4804ZM18.4854 18.9219C18.3115 19.1092 18.1765 19.3268 18.0798 19.5729L18.4521 19.7191C18.5314 19.5172 18.6404 19.3429 18.7785 19.1941L18.4854 18.9219ZM18.0802 19.5717C17.9822 19.8168 17.9339 20.0782 17.9339 20.354H18.3339C18.3339 20.1258 18.3737 19.9152 18.4516 19.7203L18.0802 19.5717ZM17.9339 20.354C17.9339 20.6334 17.9821 20.8984 18.0798 21.1471L18.4521 21.0009C18.3738 20.8016 18.3339 20.5866 18.3339 20.354H17.9339ZM18.0802 21.1483C18.1771 21.3903 18.3121 21.6055 18.4854 21.7921L18.7785 21.5199C18.6398 21.3705 18.5308 21.1977 18.4516 20.9997L18.0802 21.1483ZM18.4871 21.7939C18.6643 21.98 18.8689 22.1269 19.1001 22.2336L19.2678 21.8704C19.083 21.7851 18.9196 21.668 18.7768 21.5181L18.4871 21.7939ZM19.103 22.2349C19.3375 22.3386 19.5871 22.39 19.8499 22.39V21.99C19.6407 21.99 19.4464 21.9494 19.2648 21.8691L19.103 22.2349ZM19.8499 22.39C20.0766 22.39 20.2927 22.3521 20.4966 22.2751L20.3553 21.9009C20.1992 21.9599 20.0313 21.99 19.8499 21.99V22.39ZM20.4988 22.2743C20.7001 22.1955 20.8914 22.0888 21.0727 21.9549L20.8352 21.6331C20.6805 21.7473 20.5198 21.8365 20.3531 21.9018L20.4988 22.2743ZM21.071 21.9561C21.1149 21.9245 21.1357 21.9261 21.1406 21.9266L21.1873 21.5294C21.0562 21.514 20.937 21.5595 20.8368 21.6319L21.071 21.9561ZM21.1528 21.9277C21.1741 21.9289 21.185 21.9347 21.197 21.9477L21.4909 21.6764C21.4069 21.5854 21.2978 21.5351 21.175 21.5283L21.1528 21.9277ZM21.2025 21.9534C21.2028 21.9537 21.2159 21.9647 21.2159 22.016H21.6159C21.6159 21.8914 21.5811 21.7663 21.4854 21.6706L21.2025 21.9534ZM21.2159 22.016C21.2159 22.0426 21.2082 22.0669 21.1785 22.0966L21.4614 22.3794C21.5597 22.2811 21.6159 22.1574 21.6159 22.016H21.2159ZM21.1945 22.0823C20.7975 22.402 20.3517 22.56 19.8499 22.56V22.96C20.4442 22.96 20.9783 22.77 21.4454 22.3938L21.1945 22.0823Z" fill="white"/>
</svg>
