<svg width="32" height="32" viewBox="0 0 32 32" fill="none" xmlns="http://www.w3.org/2000/svg">
<path d="M9.27852 2C8.28259 2 7.48584 2.79715 7.48584 3.79359V28.2064C7.48584 29.2028 8.28259 30 9.27852 30H26.7073C27.7033 30 28.5 29.2028 28.5 28.2064V8.97509L21.5285 2H9.27852Z" fill="#E2E5E7"/>
<path d="M23.2215 8.97509H28.5L21.5284 2V7.28114C21.4288 8.17794 22.2256 8.97509 23.2215 8.97509Z" fill="#B0B7BD"/>
<path d="M28.4005 14.2562L23.2217 8.9751H28.5001V14.2562H28.4005Z" fill="#CAD1D8"/>
<path d="M24.9146 24.7188C24.9146 25.217 24.5162 25.6156 24.0183 25.6156H4.89634C4.39837 25.6156 4 25.217 4 24.7188V15.9501C4 15.4519 4.39837 15.0533 4.89634 15.0533H24.0183C24.5162 15.0533 24.9146 15.4519 24.9146 15.9501V24.7188Z" fill="#50BEE8"/>
<path d="M24.1179 25.6156H7.48584V26.5124H24.0183C24.5163 26.5124 24.9147 26.1139 24.9147 25.6156V24.7188C24.9147 25.217 24.5163 25.6156 24.1179 25.6156Z" fill="#CAD1D8"/>
<path d="M5.7119 22.7C5.6239 22.7 5.5499 22.67 5.4899 22.61C5.4299 22.55 5.3999 22.476 5.3999 22.388V18.326C5.3999 18.234 5.4299 18.16 5.4899 18.104C5.5499 18.044 5.6239 18.014 5.7119 18.014H6.7979C7.1419 18.014 7.4539 18.072 7.7339 18.188C8.0179 18.3 8.2639 18.462 8.4719 18.674C8.6799 18.882 8.8399 19.128 8.9519 19.412C9.0639 19.696 9.1199 20.01 9.1199 20.354C9.1199 20.698 9.0639 21.014 8.9519 21.302C8.8399 21.586 8.6799 21.834 8.4719 22.046C8.2639 22.254 8.0179 22.416 7.7339 22.532C7.4539 22.644 7.1419 22.7 6.7979 22.7H5.7119ZM6.0239 22.148H6.7979C7.1339 22.148 7.4299 22.072 7.6859 21.92C7.9459 21.764 8.1499 21.552 8.2979 21.284C8.4459 21.012 8.5199 20.702 8.5199 20.354C8.5199 20.002 8.4459 19.692 8.2979 19.424C8.1499 19.156 7.9459 18.946 7.6859 18.794C7.4299 18.642 7.1339 18.566 6.7979 18.566H6.0239V22.148ZM12.3279 22.76C11.9759 22.76 11.6539 22.702 11.3619 22.586C11.0699 22.466 10.8179 22.3 10.6059 22.088C10.3979 21.872 10.2359 21.618 10.1199 21.326C10.0039 21.03 9.94594 20.706 9.94594 20.354C9.94594 20.002 10.0039 19.68 10.1199 19.388C10.2359 19.096 10.3979 18.844 10.6059 18.632C10.8179 18.416 11.0699 18.25 11.3619 18.134C11.6539 18.014 11.9759 17.954 12.3279 17.954C12.6799 17.954 12.9999 18.014 13.2879 18.134C13.5799 18.25 13.8319 18.416 14.0439 18.632C14.2559 18.844 14.4199 19.096 14.5359 19.388C14.6519 19.68 14.7099 20.002 14.7099 20.354C14.7099 20.706 14.6519 21.03 14.5359 21.326C14.4199 21.618 14.2559 21.872 14.0439 22.088C13.8319 22.3 13.5799 22.466 13.2879 22.586C12.9999 22.702 12.6799 22.76 12.3279 22.76ZM12.3279 22.196C12.6759 22.196 12.9839 22.116 13.2519 21.956C13.5199 21.792 13.7299 21.572 13.8819 21.296C14.0339 21.016 14.1099 20.702 14.1099 20.354C14.1099 20.006 14.0339 19.694 13.8819 19.418C13.7299 19.138 13.5199 18.918 13.2519 18.758C12.9839 18.598 12.6759 18.518 12.3279 18.518C11.9799 18.518 11.6719 18.598 11.4039 18.758C11.1359 18.918 10.9259 19.138 10.7739 19.418C10.6219 19.694 10.5459 20.006 10.5459 20.354C10.5459 20.702 10.6219 21.016 10.7739 21.296C10.9259 21.572 11.1359 21.792 11.4039 21.956C11.6719 22.116 11.9799 22.196 12.3279 22.196ZM17.8501 22.76C17.5261 22.76 17.2221 22.7 16.9381 22.58C16.6581 22.456 16.4121 22.286 16.2001 22.07C15.9921 21.85 15.8281 21.594 15.7081 21.302C15.5921 21.01 15.5341 20.694 15.5341 20.354C15.5341 20.018 15.5921 19.706 15.7081 19.418C15.8281 19.126 15.9921 18.872 16.2001 18.656C16.4121 18.436 16.6581 18.264 16.9381 18.14C17.2181 18.016 17.5221 17.954 17.8501 17.954C18.1581 17.954 18.4221 17.994 18.6421 18.074C18.8661 18.154 19.0901 18.286 19.3141 18.47C19.3621 18.51 19.3941 18.548 19.4101 18.584C19.4261 18.62 19.4341 18.664 19.4341 18.716C19.4341 18.792 19.4061 18.856 19.3501 18.908C19.2981 18.956 19.2341 18.984 19.1581 18.992C19.0821 18.996 19.0081 18.97 18.9361 18.914C18.7881 18.786 18.6341 18.688 18.4741 18.62C18.3181 18.552 18.1101 18.518 17.8501 18.518C17.6141 18.518 17.3921 18.566 17.1841 18.662C16.9761 18.758 16.7921 18.89 16.6321 19.058C16.4761 19.226 16.3541 19.422 16.2661 19.646C16.1781 19.866 16.1341 20.102 16.1341 20.354C16.1341 20.61 16.1781 20.85 16.2661 21.074C16.3541 21.294 16.4761 21.488 16.6321 21.656C16.7921 21.824 16.9761 21.956 17.1841 22.052C17.3921 22.144 17.6141 22.19 17.8501 22.19C18.0541 22.19 18.2461 22.156 18.4261 22.088C18.6101 22.016 18.7861 21.918 18.9541 21.794C19.0261 21.742 19.0961 21.72 19.1641 21.728C19.2361 21.732 19.2961 21.76 19.3441 21.812C19.3921 21.86 19.4161 21.928 19.4161 22.016C19.4161 22.1 19.3841 22.174 19.3201 22.238C18.8881 22.586 18.3981 22.76 17.8501 22.76ZM20.5762 22.7C20.4842 22.7 20.4142 22.672 20.3662 22.616C20.3182 22.556 20.2942 22.488 20.2942 22.412C20.2942 22.332 20.3182 22.26 20.3662 22.196L21.7642 20.336L20.4442 18.506C20.3962 18.442 20.3762 18.372 20.3842 18.296C20.3922 18.22 20.4202 18.154 20.4682 18.098C20.5202 18.042 20.5882 18.014 20.6722 18.014C20.7762 18.014 20.8502 18.044 20.8942 18.104L22.1842 19.892L23.5282 18.104C23.5842 18.044 23.6582 18.014 23.7502 18.014C23.8342 18.014 23.9002 18.04 23.9482 18.092C23.9962 18.144 24.0222 18.208 24.0262 18.284C24.0302 18.36 24.0082 18.434 23.9602 18.506L22.5922 20.33L23.9362 22.196C23.9842 22.26 24.0062 22.332 24.0022 22.412C23.9982 22.492 23.9702 22.56 23.9182 22.616C23.8702 22.672 23.8022 22.7 23.7142 22.7C23.6142 22.7 23.5342 22.662 23.4742 22.586L22.1722 20.78L20.7922 22.61C20.7322 22.67 20.6602 22.7 20.5762 22.7Z" fill="white"/>
<path d="M5.48971 22.61L5.34829 22.7514L5.48971 22.61ZM5.48971 18.104L5.62626 18.2503L5.63114 18.2454L5.48971 18.104ZM7.73371 18.188L7.65716 18.3728L7.66034 18.3741L7.73371 18.188ZM8.47171 18.674L8.32895 18.8141L8.33029 18.8154L8.47171 18.674ZM8.95171 19.412L9.13777 19.3386L8.95171 19.412ZM8.95171 21.302L9.13777 21.3754L9.13812 21.3745L8.95171 21.302ZM8.47171 22.046L8.61314 22.1874L8.61448 22.1861L8.47171 22.046ZM7.73371 22.532L7.80799 22.7177L7.80934 22.7172L7.73371 22.532ZM6.02371 22.148H5.82371V22.348H6.02371V22.148ZM7.68571 21.92L7.78782 22.092L7.78861 22.0915L7.68571 21.92ZM8.29771 21.284L8.4728 21.3807L8.47339 21.3796L8.29771 21.284ZM8.29771 19.424L8.12264 19.5207L8.29771 19.424ZM7.68571 18.794L7.5836 18.966L7.58478 18.9667L7.68571 18.794ZM6.02371 18.566V18.366H5.82371V18.566H6.02371ZM5.71171 22.5C5.67456 22.5 5.6521 22.4896 5.63114 22.4686L5.34829 22.7514C5.44733 22.8505 5.57287 22.9 5.71171 22.9V22.5ZM5.63114 22.4686C5.61017 22.4476 5.59971 22.4252 5.59971 22.388H5.19971C5.19971 22.5269 5.24926 22.6524 5.34829 22.7514L5.63114 22.4686ZM5.59971 22.388V18.326H5.19971V22.388H5.59971ZM5.59971 18.326C5.59971 18.282 5.61182 18.2636 5.62618 18.2502L5.35325 17.9578C5.24761 18.0564 5.19971 18.186 5.19971 18.326H5.59971ZM5.63114 18.2454C5.6521 18.2245 5.67456 18.214 5.71171 18.214V17.814C5.57287 17.814 5.44733 17.8636 5.34829 17.9626L5.63114 18.2454ZM5.71171 18.214H6.79771V17.814H5.71171V18.214ZM6.79771 18.214C7.11898 18.214 7.4045 18.2681 7.65717 18.3728L7.81026 18.0032C7.50293 17.8759 7.16445 17.814 6.79771 17.814V18.214ZM7.66034 18.3741C7.91899 18.4761 8.14116 18.6227 8.32895 18.8141L8.61448 18.5339C8.38627 18.3014 8.11644 18.124 7.80709 18.002L7.66034 18.3741ZM8.33029 18.8154C8.51817 19.0033 8.66333 19.2259 8.76566 19.4854L9.13777 19.3386C9.0161 19.0301 8.84126 18.7607 8.61314 18.5326L8.33029 18.8154ZM8.76566 19.4854C8.86735 19.7432 8.91971 20.032 8.91971 20.354H9.31971C9.31971 19.9881 9.26008 19.6488 9.13777 19.3386L8.76566 19.4854ZM8.91971 20.354C8.91971 20.676 8.86736 20.9671 8.76531 21.2295L9.13812 21.3745C9.26007 21.0609 9.31971 20.72 9.31971 20.354H8.91971ZM8.76566 21.2286C8.6632 21.4884 8.51768 21.7136 8.32895 21.9059L8.61448 22.1861C8.84175 21.9544 9.01623 21.6836 9.13777 21.3754L8.76566 21.2286ZM8.33029 21.9046C8.14191 22.093 7.91854 22.2405 7.65809 22.3469L7.80934 22.7172C8.11688 22.5915 8.38552 22.415 8.61314 22.1874L8.33029 21.9046ZM7.65944 22.3463C7.40615 22.4476 7.11982 22.5 6.79771 22.5V22.9C7.16361 22.9 7.50128 22.8404 7.80799 22.7177L7.65944 22.3463ZM6.79771 22.5H5.71171V22.9H6.79771V22.5ZM6.02371 22.348H6.79771V21.948H6.02371V22.348ZM6.79771 22.348C7.16493 22.348 7.4971 22.2646 7.78782 22.092L7.58361 21.748C7.36233 21.8794 7.1025 21.948 6.79771 21.948V22.348ZM7.78861 22.0915C8.07915 21.9172 8.30792 21.6792 8.47279 21.3807L8.12264 21.1873C7.99151 21.4248 7.81228 21.6108 7.58282 21.7485L7.78861 22.0915ZM8.47339 21.3796C8.63925 21.0748 8.71971 20.7312 8.71971 20.354H8.31971C8.31971 20.6728 8.25218 20.9492 8.12204 21.1884L8.47339 21.3796ZM8.71971 20.354C8.71971 19.9733 8.63945 19.6291 8.47279 19.3273L8.12264 19.5207C8.25198 19.7549 8.31971 20.0307 8.31971 20.354H8.71971ZM8.47279 19.3273C8.30768 19.0283 8.0783 18.7919 7.78665 18.6214L7.58478 18.9667C7.81313 19.1002 7.99175 19.2837 8.12264 19.5207L8.47279 19.3273ZM7.78782 18.622C7.4971 18.4494 7.16493 18.366 6.79771 18.366V18.766C7.1025 18.766 7.36233 18.8346 7.58361 18.966L7.78782 18.622ZM6.79771 18.366H6.02371V18.766H6.79771V18.366ZM5.82371 18.566V22.148H6.22371V18.566H5.82371ZM11.3617 22.586L11.2857 22.771L11.2879 22.7719L11.3617 22.586ZM10.6057 22.088L10.4616 22.2268L10.4643 22.2294L10.6057 22.088ZM10.1197 21.326L9.93353 21.399L9.93388 21.3999L10.1197 21.326ZM10.1197 19.388L9.93388 19.3142L10.1197 19.388ZM10.6057 18.632L10.463 18.4919L10.6057 18.632ZM11.3617 18.134L11.4356 18.3199L11.4378 18.319L11.3617 18.134ZM13.2877 18.134L13.2108 18.3187L13.2139 18.3199L13.2877 18.134ZM14.0437 18.632L13.901 18.7721L13.9023 18.7734L14.0437 18.632ZM14.5357 19.388L14.7216 19.3142L14.5357 19.388ZM14.5357 21.326L14.7216 21.3999L14.7219 21.399L14.5357 21.326ZM14.0437 22.088L14.1852 22.2294L14.1865 22.2281L14.0437 22.088ZM13.2877 22.586L13.3625 22.7715L13.3638 22.771L13.2877 22.586ZM13.2517 21.956L13.3543 22.1277L13.3561 22.1266L13.2517 21.956ZM13.8817 21.296L14.0569 21.3925L14.0575 21.3914L13.8817 21.296ZM13.8817 19.418L13.706 19.5134L13.7065 19.5145L13.8817 19.418ZM13.2517 18.758L13.1492 18.9297L13.2517 18.758ZM11.4037 18.758L11.5063 18.9297L11.4037 18.758ZM10.7737 19.418L10.9489 19.5145L10.9495 19.5134L10.7737 19.418ZM10.7737 21.296L10.598 21.3914L10.5985 21.3925L10.7737 21.296ZM11.4037 21.956L11.2993 22.1266L11.3012 22.1277L11.4037 21.956ZM12.3277 22.56C11.998 22.56 11.7014 22.5057 11.4356 22.4001L11.2879 22.7719C11.6061 22.8983 11.9535 22.96 12.3277 22.96V22.56ZM11.4378 22.401C11.1689 22.2905 10.9395 22.1389 10.7472 21.9466L10.4643 22.2294C10.696 22.4611 10.9706 22.6415 11.2857 22.771L11.4378 22.401ZM10.7498 21.9493C10.5607 21.7529 10.4125 21.5212 10.3056 21.2522L9.93388 21.3999C10.059 21.7148 10.2348 21.9911 10.4617 22.2267L10.7498 21.9493ZM10.3059 21.253C10.2 20.9827 10.1457 20.6837 10.1457 20.354H9.74575C9.74575 20.7283 9.80749 21.0774 9.93353 21.399L10.3059 21.253ZM10.1457 20.354C10.1457 20.0243 10.2 19.7277 10.3056 19.4619L9.93388 19.3142C9.80748 19.6323 9.74575 19.9798 9.74575 20.354H10.1457ZM10.3056 19.4619C10.4124 19.1931 10.5602 18.964 10.7485 18.7721L10.463 18.4919C10.2353 18.724 10.0591 18.9989 9.93388 19.3142L10.3056 19.4619ZM10.7485 18.7721C10.9402 18.5768 11.1685 18.426 11.4356 18.3199L11.2879 17.9481C10.971 18.074 10.6953 18.2553 10.463 18.4919L10.7485 18.7721ZM11.4378 18.319C11.703 18.21 11.9988 18.154 12.3277 18.154V17.754C11.9527 17.754 11.6045 17.818 11.2857 17.949L11.4378 18.319ZM12.3277 18.154C12.6567 18.154 12.9501 18.21 13.2108 18.3186L13.3647 17.9494C13.0494 17.818 12.7028 17.754 12.3277 17.754V18.154ZM13.2139 18.3199C13.481 18.426 13.7093 18.5768 13.901 18.7721L14.1865 18.4919C13.9542 18.2553 13.6785 18.074 13.3616 17.9481L13.2139 18.3199ZM13.9023 18.7734C14.0941 18.9652 14.2434 19.1939 14.3499 19.4619L14.7216 19.3142C14.596 18.9981 14.4173 18.7228 14.1852 18.4906L13.9023 18.7734ZM14.3499 19.4619C14.4555 19.7277 14.5097 20.0243 14.5097 20.354H14.9097C14.9097 19.9798 14.848 19.6323 14.7216 19.3142L14.3499 19.4619ZM14.5097 20.354C14.5097 20.6837 14.4555 20.9827 14.3495 21.253L14.7219 21.399C14.848 21.0774 14.9097 20.7283 14.9097 20.354H14.5097ZM14.3499 21.2522C14.2433 21.5204 14.0936 21.7516 13.901 21.9479L14.1865 22.2281C14.4178 21.9924 14.5962 21.7156 14.7216 21.3999L14.3499 21.2522ZM13.9023 21.9466C13.71 22.1389 13.4806 22.2905 13.2117 22.401L13.3638 22.771C13.6789 22.6415 13.9535 22.4611 14.1852 22.2294L13.9023 21.9466ZM13.213 22.4005C12.9517 22.5057 12.6575 22.56 12.3277 22.56V22.96C12.7019 22.96 13.0477 22.8983 13.3625 22.7715L13.213 22.4005ZM12.3277 22.396C12.7076 22.396 13.0518 22.3083 13.3543 22.1277L13.1492 21.7843C12.9157 21.9237 12.6439 21.996 12.3277 21.996V22.396ZM13.3561 22.1266C13.6539 21.9444 13.8882 21.6988 14.0569 21.3925L13.7065 21.1995C13.5713 21.4452 13.3856 21.6396 13.1473 21.7854L13.3561 22.1266ZM14.0575 21.3914C14.2268 21.0795 14.3097 20.7322 14.3097 20.354H13.9097C13.9097 20.6718 13.8406 20.9525 13.706 21.2006L14.0575 21.3914ZM14.3097 20.354C14.3097 19.9759 14.2269 19.6301 14.0569 19.3215L13.7065 19.5145C13.8406 19.7579 13.9097 20.0361 13.9097 20.354H14.3097ZM14.0575 19.3226C13.8888 19.0117 13.6537 18.7651 13.3543 18.5863L13.1492 18.9297C13.3857 19.0709 13.5707 19.2643 13.706 19.5134L14.0575 19.3226ZM13.3543 18.5863C13.0518 18.4057 12.7076 18.318 12.3277 18.318V18.718C12.6439 18.718 12.9157 18.7903 13.1492 18.9297L13.3543 18.5863ZM12.3277 18.318C11.9479 18.318 11.6037 18.4057 11.3012 18.5863L11.5063 18.9297C11.7398 18.7903 12.0116 18.718 12.3277 18.718V18.318ZM11.3012 18.5863C11.0017 18.7651 10.7667 19.0117 10.598 19.3226L10.9495 19.5134C11.0848 19.2643 11.2697 19.0709 11.5063 18.9297L11.3012 18.5863ZM10.5985 19.3215C10.4286 19.6301 10.3457 19.9759 10.3457 20.354H10.7457C10.7457 20.0361 10.8149 19.7579 10.9489 19.5145L10.5985 19.3215ZM10.3457 20.354C10.3457 20.7322 10.4286 21.0795 10.598 21.3914L10.9495 21.2006C10.8148 20.9525 10.7457 20.6718 10.7457 20.354H10.3457ZM10.5985 21.3925C10.7673 21.6988 11.0016 21.9444 11.2993 22.1266L11.5081 21.7854C11.2699 21.6396 11.0842 21.4452 10.9489 21.1995L10.5985 21.3925ZM11.3012 22.1277C11.6037 22.3083 11.9479 22.396 12.3277 22.396V21.996C12.0116 21.996 11.7398 21.9237 11.5063 21.7843L11.3012 22.1277ZM16.9379 22.58L16.8569 22.7629L16.8601 22.7642L16.9379 22.58ZM16.1999 22.07L16.0546 22.2074L16.0572 22.2101L16.1999 22.07ZM15.7079 21.302L15.5221 21.3759L15.523 21.378L15.7079 21.302ZM15.7079 19.418L15.5229 19.342L15.5224 19.3433L15.7079 19.418ZM16.1999 18.656L16.0559 18.5172V18.5173L16.1999 18.656ZM16.9379 18.14L16.857 17.9571L16.9379 18.14ZM18.6419 18.074L18.5736 18.262L18.5747 18.2624L18.6419 18.074ZM19.3139 18.47L19.442 18.3164L19.4409 18.3155L19.3139 18.47ZM19.3499 18.908L19.4856 19.055L19.486 19.0546L19.3499 18.908ZM19.1579 18.992L19.1685 19.192L19.1789 19.1909L19.1579 18.992ZM18.9359 18.914L18.8049 19.0655L18.8132 19.0719L18.9359 18.914ZM18.4739 18.62L18.394 18.8034L18.3957 18.8041L18.4739 18.62ZM16.6319 19.058L16.4871 18.9201L16.4854 18.9219L16.6319 19.058ZM16.2659 19.646L16.4516 19.7203L16.4521 19.7191L16.2659 19.646ZM16.2659 21.074L16.0798 21.1471L16.0802 21.1483L16.2659 21.074ZM16.6319 21.656L16.4854 21.7921L16.4871 21.7939L16.6319 21.656ZM17.1839 22.052L17.1001 22.2336L17.103 22.2349L17.1839 22.052ZM18.4259 22.088L18.4966 22.2751L18.4988 22.2743L18.4259 22.088ZM18.9539 21.794L18.8368 21.6319L18.8352 21.6331L18.9539 21.794ZM19.1639 21.728L19.1405 21.927L19.1528 21.9277L19.1639 21.728ZM19.3439 21.812L19.1969 21.9478L19.2025 21.9534L19.3439 21.812ZM19.3199 22.238L19.4454 22.3938L19.4538 22.387L19.4614 22.3794L19.3199 22.238ZM17.8499 22.56C17.5513 22.56 17.2739 22.5048 17.0158 22.3958L16.8601 22.7642C17.17 22.8952 17.5006 22.96 17.8499 22.96V22.56ZM17.0189 22.3971C16.7617 22.2832 16.5368 22.1277 16.3427 21.9299L16.0572 22.2101C16.2871 22.4444 16.5541 22.6288 16.857 22.7629L17.0189 22.3971ZM16.3453 21.9326C16.1549 21.7312 16.004 21.4963 15.8929 21.226L15.523 21.378C15.6519 21.6918 15.829 21.9688 16.0546 22.2074L16.3453 21.9326ZM15.8938 21.2282C15.7879 20.9615 15.7339 20.6708 15.7339 20.354H15.3339C15.3339 20.7172 15.396 21.0585 15.5221 21.3759L15.8938 21.2282ZM15.7339 20.354C15.7339 20.0415 15.7878 19.7551 15.8935 19.4927L15.5224 19.3433C15.3961 19.6569 15.3339 19.9945 15.3339 20.354H15.7339ZM15.8929 19.494C16.0039 19.2241 16.1544 18.9917 16.344 18.7947L16.0559 18.5173C15.8295 18.7524 15.652 19.0279 15.523 19.342L15.8929 19.494ZM16.344 18.7948C16.538 18.5935 16.7625 18.4364 17.0189 18.3229L16.857 17.9571C16.5533 18.0916 16.2859 18.2786 16.0559 18.5172L16.344 18.7948ZM17.0189 18.3229C17.2716 18.211 17.5478 18.154 17.8499 18.154V17.754C17.4961 17.754 17.1642 17.8211 16.857 17.9571L17.0189 18.3229ZM17.8499 18.154C18.1416 18.154 18.3812 18.192 18.5736 18.262L18.7103 17.8861C18.4627 17.796 18.1743 17.754 17.8499 17.754V18.154ZM18.5747 18.2624C18.7728 18.3331 18.977 18.4521 19.187 18.6246L19.4409 18.3155C19.2029 18.1199 18.9591 17.9749 18.7092 17.8857L18.5747 18.2624ZM19.1859 18.6237C19.2031 18.638 19.2142 18.6493 19.221 18.6573C19.2278 18.6655 19.2285 18.6682 19.2272 18.6652L19.5927 18.5028C19.5591 18.4271 19.5012 18.3657 19.442 18.3164L19.1859 18.6237ZM19.2272 18.6652C19.2288 18.6689 19.2339 18.6835 19.2339 18.716H19.6339C19.6339 18.6446 19.6231 18.5711 19.5927 18.5028L19.2272 18.6652ZM19.2339 18.716C19.2339 18.736 19.2294 18.7471 19.2138 18.7615L19.486 19.0546C19.5825 18.965 19.6339 18.848 19.6339 18.716H19.2339ZM19.2143 18.7611C19.1965 18.7775 19.1738 18.7892 19.137 18.7931L19.1789 19.1909C19.2941 19.1788 19.3994 19.1346 19.4856 19.055L19.2143 18.7611ZM19.1474 18.7923C19.1286 18.7933 19.1007 18.7888 19.0587 18.7561L18.8132 19.0719C18.9152 19.1513 19.0353 19.1987 19.1685 19.1917L19.1474 18.7923ZM19.0668 18.7627C18.905 18.6228 18.7335 18.513 18.5522 18.4359L18.3957 18.8041C18.5343 18.863 18.6709 18.9492 18.8051 19.0653L19.0668 18.7627ZM18.5539 18.4367C18.3629 18.3534 18.1244 18.318 17.8499 18.318V18.718C18.0955 18.718 18.273 18.7506 18.394 18.8034L18.5539 18.4367ZM17.8499 18.318C17.5859 18.318 17.3352 18.3719 17.1001 18.4804L17.2678 18.8436C17.4487 18.7601 17.642 18.718 17.8499 18.718V18.318ZM17.1001 18.4804C16.8689 18.5871 16.6643 18.734 16.4871 18.9201L16.7768 19.1959C16.9196 19.046 17.083 18.9289 17.2678 18.8436L17.1001 18.4804ZM16.4854 18.9219C16.3115 19.1092 16.1765 19.3268 16.0798 19.5729L16.4521 19.7191C16.5314 19.5172 16.6404 19.3429 16.7785 19.1941L16.4854 18.9219ZM16.0802 19.5717C15.9822 19.8168 15.9339 20.0782 15.9339 20.354H16.3339C16.3339 20.1258 16.3737 19.9152 16.4516 19.7203L16.0802 19.5717ZM15.9339 20.354C15.9339 20.6334 15.9821 20.8984 16.0798 21.1471L16.4521 21.0009C16.3738 20.8016 16.3339 20.5866 16.3339 20.354H15.9339ZM16.0802 21.1483C16.1771 21.3903 16.3121 21.6055 16.4854 21.7921L16.7785 21.5199C16.6398 21.3705 16.5308 21.1977 16.4516 20.9997L16.0802 21.1483ZM16.4871 21.7939C16.6643 21.98 16.8689 22.1269 17.1001 22.2336L17.2678 21.8704C17.083 21.7851 16.9196 21.668 16.7768 21.5181L16.4871 21.7939ZM17.103 22.2349C17.3375 22.3386 17.5871 22.39 17.8499 22.39V21.99C17.6407 21.99 17.4464 21.9494 17.2648 21.8691L17.103 22.2349ZM17.8499 22.39C18.0766 22.39 18.2927 22.3521 18.4966 22.2751L18.3553 21.9009C18.1992 21.9599 18.0313 21.99 17.8499 21.99V22.39ZM18.4988 22.2743C18.7001 22.1955 18.8914 22.0888 19.0727 21.9549L18.8352 21.6331C18.6805 21.7473 18.5198 21.8365 18.3531 21.9018L18.4988 22.2743ZM19.071 21.9561C19.1149 21.9245 19.1357 21.9261 19.1406 21.9266L19.1873 21.5294C19.0562 21.514 18.937 21.5595 18.8368 21.6319L19.071 21.9561ZM19.1528 21.9277C19.1741 21.9289 19.185 21.9347 19.197 21.9477L19.4909 21.6764C19.4069 21.5854 19.2978 21.5351 19.175 21.5283L19.1528 21.9277ZM19.2025 21.9534C19.2028 21.9537 19.2159 21.9647 19.2159 22.016H19.6159C19.6159 21.8914 19.5811 21.7663 19.4854 21.6706L19.2025 21.9534ZM19.2159 22.016C19.2159 22.0426 19.2082 22.0669 19.1785 22.0966L19.4614 22.3794C19.5597 22.2811 19.6159 22.1574 19.6159 22.016H19.2159ZM19.1945 22.0823C18.7975 22.402 18.3517 22.56 17.8499 22.56V22.96C18.4442 22.96 18.9783 22.77 19.4454 22.3938L19.1945 22.0823ZM20.366 22.616L20.2097 22.741L20.2142 22.7462L20.366 22.616ZM20.366 22.196L20.2061 22.0758L20.206 22.076L20.366 22.196ZM21.764 20.336L21.9239 20.4562L22.0124 20.3385L21.9262 20.219L21.764 20.336ZM20.444 18.506L20.6062 18.389L20.604 18.386L20.444 18.506ZM20.384 18.296L20.5829 18.3169L20.384 18.296ZM20.468 18.098L20.3213 17.9618L20.3162 17.9679L20.468 18.098ZM20.894 18.104L21.0562 17.987L21.0553 17.9857L20.894 18.104ZM22.184 19.892L22.0218 20.009L22.1807 20.2293L22.3439 20.0122L22.184 19.892ZM23.528 18.104L23.3818 17.9675L23.3745 17.9753L23.3681 17.9838L23.528 18.104ZM23.948 18.092L24.095 17.9564L23.948 18.092ZM24.026 18.284L24.2257 18.2735L24.026 18.284ZM23.96 18.506L24.1202 18.6262L24.1264 18.617L23.96 18.506ZM22.592 20.33L22.432 20.21L22.3438 20.3276L22.4297 20.4469L22.592 20.33ZM23.936 22.196L23.7737 22.3129L23.776 22.316L23.936 22.196ZM24.002 22.412L24.2018 22.422L24.002 22.412ZM23.918 22.616L23.7713 22.4798L23.7662 22.4859L23.918 22.616ZM23.474 22.586L23.3116 22.7031L23.317 22.7099L23.474 22.586ZM22.172 20.78L22.3342 20.6631L22.1756 20.443L22.0123 20.6596L22.172 20.78ZM20.792 22.61L20.9334 22.7514L20.9433 22.7416L20.9517 22.7304L20.792 22.61ZM20.576 22.5C20.5267 22.5 20.5187 22.4869 20.5179 22.4859L20.2142 22.7462C20.3093 22.8571 20.4413 22.9 20.576 22.9V22.5ZM20.5222 22.4911C20.5022 22.4661 20.494 22.4421 20.494 22.412H20.094C20.094 22.534 20.1338 22.6459 20.2098 22.741L20.5222 22.4911ZM20.494 22.412C20.494 22.3753 20.504 22.3454 20.526 22.316L20.206 22.076C20.132 22.1746 20.094 22.2887 20.094 22.412H20.494ZM20.5259 22.3162L21.9239 20.4562L21.6041 20.2158L20.2061 22.0758L20.5259 22.3162ZM21.9262 20.219L20.6062 18.389L20.2818 18.623L21.6018 20.453L21.9262 20.219ZM20.604 18.386C20.5847 18.3603 20.5805 18.3402 20.5829 18.3169L20.1851 18.2751C20.1715 18.4038 20.2073 18.5237 20.284 18.626L20.604 18.386ZM20.5829 18.3169C20.5868 18.2797 20.5992 18.2522 20.6199 18.2282L20.3162 17.9679C20.2408 18.0558 20.1972 18.1603 20.1851 18.2751L20.5829 18.3169ZM20.6146 18.2341C20.6247 18.2231 20.6375 18.214 20.672 18.214V17.814C20.5385 17.814 20.4153 17.8609 20.3214 17.9619L20.6146 18.2341ZM20.672 18.214C20.7057 18.214 20.7233 18.219 20.7304 18.2219C20.7356 18.224 20.7343 18.2244 20.7327 18.2223L21.0553 17.9857C20.96 17.8558 20.8126 17.814 20.672 17.814V18.214ZM20.7318 18.221L22.0218 20.009L22.3462 19.775L21.0562 17.987L20.7318 18.221ZM22.3439 20.0122L23.6879 18.2242L23.3681 17.9838L22.0241 19.7718L22.3439 20.0122ZM23.6742 18.2405C23.6876 18.2261 23.706 18.214 23.75 18.214V17.814C23.61 17.814 23.4804 17.8619 23.3818 17.9675L23.6742 18.2405ZM23.75 18.214C23.7895 18.214 23.798 18.2243 23.801 18.2277L24.095 17.9564C24.002 17.8557 23.8785 17.814 23.75 17.814V18.214ZM23.801 18.2277C23.8149 18.2427 23.8245 18.2613 23.8263 18.2945L24.2257 18.2735C24.2195 18.1547 24.1771 18.0453 24.095 17.9564L23.801 18.2277ZM23.8263 18.2945C23.8277 18.3217 23.8211 18.3538 23.7936 18.3951L24.1264 18.617C24.1949 18.5142 24.2323 18.3983 24.2257 18.2735L23.8263 18.2945ZM23.8 18.386L22.432 20.21L22.752 20.45L24.12 18.626L23.8 18.386ZM22.4297 20.4469L23.7737 22.3129L24.0983 22.0791L22.7543 20.2131L22.4297 20.4469ZM23.776 22.316C23.7959 22.3426 23.8039 22.3686 23.8023 22.402L24.2018 22.422C24.2081 22.2954 24.1721 22.1774 24.096 22.076L23.776 22.316ZM23.8023 22.402C23.8005 22.4375 23.7898 22.4602 23.7714 22.4799L24.0646 22.7521C24.1502 22.6599 24.1955 22.5465 24.2018 22.422L23.8023 22.402ZM23.7662 22.4859C23.7635 22.4889 23.756 22.5 23.714 22.5V22.9C23.848 22.9 23.9765 22.8551 24.0699 22.7462L23.7662 22.4859ZM23.714 22.5C23.6729 22.5 23.6516 22.4882 23.631 22.4621L23.317 22.7099C23.4164 22.8358 23.5551 22.9 23.714 22.9V22.5ZM23.6362 22.4691L22.3342 20.6631L22.0098 20.897L23.3118 22.703L23.6362 22.4691ZM22.0123 20.6596L20.6323 22.4896L20.9517 22.7304L22.3317 20.9004L22.0123 20.6596ZM20.6506 22.4686C20.6277 22.4915 20.6064 22.5 20.576 22.5V22.9C20.7136 22.9 20.8363 22.8485 20.9334 22.7514L20.6506 22.4686Z" fill="white"/>
</svg>
