<svg width="32" height="32" viewBox="0 0 32 32" fill="none" xmlns="http://www.w3.org/2000/svg">
<path d="M9.27852 2C8.28259 2 7.48584 2.79715 7.48584 3.79359V28.2064C7.48584 29.2028 8.28259 30 9.27852 30H26.7073C27.7033 30 28.5 29.2028 28.5 28.2064V8.97509L21.5285 2H9.27852Z" fill="#E2E5E7"/>
<path d="M23.2215 8.97509H28.5L21.5284 2V7.28114C21.4288 8.17794 22.2256 8.97509 23.2215 8.97509Z" fill="#B0B7BD"/>
<path d="M28.4005 14.2562L23.2217 8.9751H28.5001V14.2562H28.4005Z" fill="#CAD1D8"/>
<path d="M24.9146 24.7188C24.9146 25.217 24.5162 25.6156 24.0183 25.6156H4.89634C4.39837 25.6156 4 25.217 4 24.7188V15.9501C4 15.4519 4.39837 15.0533 4.89634 15.0533H24.0183C24.5162 15.0533 24.9146 15.4519 24.9146 15.9501V24.7188Z" fill="#84BD5A"/>
<path d="M24.1179 25.6156H7.48584V26.5124H24.0183C24.5163 26.5124 24.9147 26.1139 24.9147 25.6156V24.7188C24.9147 25.217 24.5163 25.6156 24.1179 25.6156Z" fill="#CAD1D8"/>
<path d="M5.61229 23C5.52429 23 5.45029 22.97 5.39029 22.91C5.33029 22.85 5.30029 22.776 5.30029 22.688V18.626C5.30029 18.534 5.33029 18.46 5.39029 18.404C5.45029 18.344 5.52429 18.314 5.61229 18.314C5.70429 18.314 5.77829 18.344 5.83429 18.404C5.89429 18.46 5.92429 18.534 5.92429 18.626V20.348H8.70829V18.626C8.70829 18.534 8.73829 18.46 8.79829 18.404C8.85829 18.344 8.93229 18.314 9.02029 18.314C9.11229 18.314 9.18629 18.344 9.24229 18.404C9.29829 18.46 9.32629 18.534 9.32629 18.626V22.688C9.32629 22.776 9.29829 22.85 9.24229 22.91C9.18629 22.97 9.11229 23 9.02029 23C8.93229 23 8.85829 22.97 8.79829 22.91C8.73829 22.85 8.70829 22.776 8.70829 22.688V20.9H5.92429V22.688C5.92429 22.776 5.89429 22.85 5.83429 22.91C5.77829 22.97 5.70429 23 5.61229 23ZM12.0929 23C12.0049 23 11.9309 22.97 11.8709 22.91C11.8109 22.85 11.7809 22.776 11.7809 22.688V18.89H10.4849C10.4009 18.89 10.3309 18.864 10.2749 18.812C10.2229 18.756 10.1969 18.686 10.1969 18.602C10.1969 18.518 10.2229 18.45 10.2749 18.398C10.3309 18.342 10.4009 18.314 10.4849 18.314H13.6949C13.7789 18.314 13.8469 18.342 13.8989 18.398C13.9549 18.45 13.9829 18.518 13.9829 18.602C13.9829 18.686 13.9549 18.756 13.8989 18.812C13.8469 18.864 13.7789 18.89 13.6949 18.89H12.4049V22.688C12.4049 22.776 12.3749 22.85 12.3149 22.91C12.2549 22.97 12.1809 23 12.0929 23ZM15.1657 23C15.0777 23 15.0037 22.97 14.9437 22.91C14.8837 22.85 14.8537 22.776 14.8537 22.688V18.626C14.8537 18.534 14.8837 18.46 14.9437 18.404C15.0037 18.344 15.0777 18.314 15.1657 18.314C15.2857 18.314 15.3777 18.37 15.4417 18.482L17.2237 22.052L18.9577 18.482C19.0217 18.37 19.1137 18.314 19.2337 18.314C19.3217 18.314 19.3957 18.344 19.4557 18.404C19.5157 18.46 19.5457 18.534 19.5457 18.626V22.688C19.5457 22.776 19.5137 22.85 19.4497 22.91C19.3897 22.97 19.3177 23 19.2337 23C19.1457 23 19.0717 22.97 19.0117 22.91C18.9517 22.85 18.9217 22.776 18.9217 22.688V19.706L17.4697 22.664C17.4017 22.768 17.3117 22.82 17.1997 22.82C17.0677 22.82 16.9717 22.758 16.9117 22.634L15.4777 19.76V22.688C15.4777 22.776 15.4477 22.85 15.3877 22.91C15.3277 22.97 15.2537 23 15.1657 23ZM21.2342 23C21.1462 23 21.0722 22.97 21.0122 22.91C20.9562 22.85 20.9282 22.776 20.9282 22.688V18.626C20.9282 18.538 20.9582 18.464 21.0182 18.404C21.0782 18.344 21.1502 18.314 21.2342 18.314C21.3222 18.314 21.3962 18.344 21.4562 18.404C21.5162 18.464 21.5462 18.538 21.5462 18.626V22.376H23.7182C23.8062 22.376 23.8802 22.406 23.9402 22.466C24.0002 22.526 24.0302 22.6 24.0302 22.688C24.0302 22.776 24.0002 22.85 23.9402 22.91C23.8802 22.97 23.8062 23 23.7182 23H21.2342Z" fill="white"/>
<path d="M5.3901 18.404L5.52664 18.5503L5.53152 18.5454L5.3901 18.404ZM5.8341 18.404L5.68754 18.5408L5.69764 18.5502L5.8341 18.404ZM5.9241 20.348H5.7241V20.548H5.9241V20.348ZM8.7081 20.348V20.548H8.9081V20.348H8.7081ZM8.7981 18.404L8.93464 18.5503L8.93952 18.5454L8.7981 18.404ZM9.2421 18.404L9.0958 18.5405L9.10068 18.5454L9.2421 18.404ZM8.7081 20.9H8.9081V20.7H8.7081V20.9ZM5.9241 20.9V20.7H5.7241V20.9H5.9241ZM5.8341 22.91L5.69259 22.7685L5.68789 22.7735L5.8341 22.91ZM5.6121 22.8C5.57495 22.8 5.55249 22.7895 5.53152 22.7686L5.24868 23.0514C5.34771 23.1505 5.47325 23.2 5.6121 23.2V22.8ZM5.53152 22.7686C5.51055 22.7476 5.5001 22.7252 5.5001 22.688H5.1001C5.1001 22.8268 5.14965 22.9524 5.24868 23.0514L5.53152 22.7686ZM5.5001 22.688V18.626H5.1001V22.688H5.5001ZM5.5001 18.626C5.5001 18.582 5.51229 18.5637 5.52664 18.5503L5.25364 18.2578C5.14799 18.3564 5.1001 18.486 5.1001 18.626H5.5001ZM5.53152 18.5454C5.55249 18.5245 5.57495 18.514 5.6121 18.514V18.114C5.47325 18.114 5.34771 18.1635 5.24868 18.2626L5.53152 18.5454ZM5.6121 18.514C5.65607 18.514 5.67414 18.5264 5.68754 18.5408L5.98031 18.2675C5.88171 18.1619 5.75213 18.114 5.6121 18.114V18.514ZM5.69764 18.5502C5.71199 18.5636 5.7241 18.582 5.7241 18.626H6.1241C6.1241 18.486 6.07621 18.3564 5.97056 18.2578L5.69764 18.5502ZM5.7241 18.626V20.348H6.1241V18.626H5.7241ZM5.9241 20.548H8.7081V20.148H5.9241V20.548ZM8.9081 20.348V18.626H8.5081V20.348H8.9081ZM8.9081 18.626C8.9081 18.582 8.92029 18.5637 8.93464 18.5503L8.66164 18.2578C8.55599 18.3564 8.5081 18.486 8.5081 18.626H8.9081ZM8.93952 18.5454C8.96049 18.5245 8.98295 18.514 9.0201 18.514V18.114C8.88125 18.114 8.75571 18.1635 8.65668 18.2626L8.93952 18.5454ZM9.0201 18.514C9.06407 18.514 9.0824 18.5261 9.0958 18.5405L9.38831 18.2675C9.28971 18.1619 9.16013 18.114 9.0201 18.114V18.514ZM9.10068 18.5454C9.11309 18.5578 9.1261 18.5778 9.1261 18.626H9.5261C9.5261 18.4902 9.48311 18.3622 9.38352 18.2626L9.10068 18.5454ZM9.1261 18.626V22.688H9.5261V18.626H9.1261ZM9.1261 22.688C9.1261 22.7293 9.11468 22.7534 9.09589 22.7735L9.38831 23.0465C9.48152 22.9466 9.5261 22.8227 9.5261 22.688H9.1261ZM9.09589 22.7735C9.08249 22.7879 9.06407 22.8 9.0201 22.8V23.2C9.16013 23.2 9.28971 23.1521 9.38831 23.0465L9.09589 22.7735ZM9.0201 22.8C8.98295 22.8 8.96049 22.7895 8.93952 22.7686L8.65668 23.0514C8.75571 23.1505 8.88125 23.2 9.0201 23.2V22.8ZM8.93952 22.7686C8.91855 22.7476 8.9081 22.7252 8.9081 22.688H8.5081C8.5081 22.8268 8.55765 22.9524 8.65668 23.0514L8.93952 22.7686ZM8.9081 22.688V20.9H8.5081V22.688H8.9081ZM8.7081 20.7H5.9241V21.1H8.7081V20.7ZM5.7241 20.9V22.688H6.1241V20.9H5.7241ZM5.7241 22.688C5.7241 22.7252 5.71356 22.7475 5.69259 22.7685L5.97552 23.0514C6.07455 22.9524 6.1241 22.8268 6.1241 22.688H5.7241ZM5.68789 22.7735C5.67449 22.7879 5.65607 22.8 5.6121 22.8V23.2C5.75213 23.2 5.88171 23.1521 5.98031 23.0465L5.68789 22.7735ZM11.7807 18.89H11.9807V18.69H11.7807V18.89ZM10.2747 18.812L10.1281 18.9481L10.1331 18.9535L10.1386 18.9586L10.2747 18.812ZM13.8987 18.398L13.7521 18.5341L13.7571 18.5395L13.7626 18.5446L13.8987 18.398ZM12.4047 18.89V18.69H12.2047V18.89H12.4047ZM12.0927 22.8C12.0555 22.8 12.0331 22.7895 12.0121 22.7686L11.7292 23.0514C11.8283 23.1505 11.9538 23.2 12.0927 23.2V22.8ZM12.0121 22.7686C11.9911 22.7476 11.9807 22.7252 11.9807 22.688H11.5807C11.5807 22.8268 11.6302 22.9524 11.7292 23.0514L12.0121 22.7686ZM11.9807 22.688V18.89H11.5807V22.688H11.9807ZM11.7807 18.69H10.4847V19.09H11.7807V18.69ZM10.4847 18.69C10.4457 18.69 10.426 18.6796 10.4108 18.6654L10.1386 18.9586C10.2354 19.0484 10.3556 19.09 10.4847 19.09V18.69ZM10.4212 18.6759C10.4071 18.6607 10.3967 18.641 10.3967 18.602H9.9967C9.9967 18.731 10.0382 18.8513 10.1281 18.9481L10.4212 18.6759ZM10.3967 18.602C10.3967 18.5628 10.407 18.5485 10.4161 18.5394L10.1332 18.2566C10.0383 18.3515 9.9967 18.4732 9.9967 18.602H10.3967ZM10.4161 18.5394C10.4321 18.5234 10.4501 18.514 10.4847 18.514V18.114C10.3512 18.114 10.2292 18.1606 10.1332 18.2566L10.4161 18.5394ZM10.4847 18.514H13.6947V18.114H10.4847V18.514ZM13.6947 18.514C13.7292 18.514 13.7419 18.5231 13.7521 18.5341L14.0452 18.2619C13.9514 18.1609 13.8281 18.114 13.6947 18.114V18.514ZM13.7626 18.5446C13.7735 18.5547 13.7827 18.5675 13.7827 18.602H14.1827C14.1827 18.4685 14.1358 18.3453 14.0348 18.2514L13.7626 18.5446ZM13.7827 18.602C13.7827 18.6365 13.7733 18.6545 13.7572 18.6706L14.0401 18.9534C14.136 18.8575 14.1827 18.7355 14.1827 18.602H13.7827ZM13.7572 18.6706C13.7482 18.6796 13.7338 18.69 13.6947 18.69V19.09C13.8235 19.09 13.9452 19.0484 14.0401 18.9534L13.7572 18.6706ZM13.6947 18.69H12.4047V19.09H13.6947V18.69ZM12.2047 18.89V22.688H12.6047V18.89H12.2047ZM12.2047 22.688C12.2047 22.7252 12.1942 22.7476 12.1732 22.7686L12.4561 23.0514C12.5551 22.9524 12.6047 22.8268 12.6047 22.688H12.2047ZM12.1732 22.7686C12.1523 22.7895 12.1298 22.8 12.0927 22.8V23.2C12.2315 23.2 12.3571 23.1505 12.4561 23.0514L12.1732 22.7686ZM14.9435 18.404L15.08 18.5503L15.0849 18.5454L14.9435 18.404ZM15.4415 18.482L15.6207 18.3925L15.6151 18.3828L15.4415 18.482ZM17.2235 22.052L17.0445 22.1413L17.2259 22.5047L17.4034 22.1394L17.2235 22.052ZM18.9575 18.482L18.7834 18.3825L18.7776 18.3946L18.9575 18.482ZM19.4555 18.404L19.314 18.5455L19.319 18.5502L19.4555 18.404ZM19.4495 22.91L19.3126 22.764L19.308 22.7686L19.4495 22.91ZM18.9215 19.706H19.1215L18.7419 19.6179L18.9215 19.706ZM17.4695 22.664L17.6369 22.7734L17.6436 22.7632L17.649 22.7521L17.4695 22.664ZM16.9115 22.634L17.0915 22.5469L17.0904 22.5447L16.9115 22.634ZM15.4775 19.76L15.6564 19.6707L15.2775 19.76H15.4775ZM15.1655 22.8C15.1283 22.8 15.1058 22.7895 15.0849 22.7686L14.802 23.0514C14.9011 23.1505 15.0266 23.2 15.1655 23.2V22.8ZM15.0849 22.7686C15.0639 22.7476 15.0535 22.7252 15.0535 22.688H14.6535C14.6535 22.8268 14.703 22.9524 14.802 23.0514L15.0849 22.7686ZM15.0535 22.688V18.626H14.6535V22.688H15.0535ZM15.0535 18.626C15.0535 18.582 15.0657 18.5637 15.08 18.5503L14.807 18.2578C14.7014 18.3564 14.6535 18.486 14.6535 18.626H15.0535ZM15.0849 18.5454C15.1058 18.5245 15.1283 18.514 15.1655 18.514V18.114C15.0266 18.114 14.9011 18.1635 14.802 18.2626L15.0849 18.5454ZM15.1655 18.514C15.2073 18.514 15.2362 18.5258 15.2678 18.5812L15.6151 18.3828C15.5188 18.2142 15.3636 18.114 15.1655 18.114V18.514ZM15.2625 18.5713L17.0445 22.1413L17.4024 21.9627L15.6207 18.3925L15.2625 18.5713ZM17.4034 22.1394L19.1374 18.5694L18.7776 18.3946L17.0436 21.9646L17.4034 22.1394ZM19.1311 18.5812C19.1628 18.5258 19.1916 18.514 19.2335 18.514V18.114C19.0353 18.114 18.8798 18.2139 18.7834 18.3825L19.1311 18.5812ZM19.2335 18.514C19.2706 18.514 19.2931 18.5246 19.314 18.5455L19.5969 18.2626C19.4978 18.1635 19.3723 18.114 19.2335 18.114V18.514ZM19.319 18.5502C19.3334 18.5636 19.3455 18.582 19.3455 18.626H19.7455C19.7455 18.486 19.6976 18.3564 19.5919 18.2578L19.319 18.5502ZM19.3455 18.626V22.688H19.7455V18.626H19.3455ZM19.3455 22.688C19.3455 22.7209 19.3361 22.7419 19.3126 22.764L19.5862 23.0559C19.6907 22.958 19.7455 22.8311 19.7455 22.688H19.3455ZM19.308 22.7686C19.2851 22.7915 19.2638 22.8 19.2335 22.8V23.2C19.3711 23.2 19.4938 23.1485 19.5909 23.0514L19.308 22.7686ZM19.2335 22.8C19.1963 22.8 19.1738 22.7895 19.1529 22.7686L18.87 23.0514C18.9691 23.1505 19.0946 23.2 19.2335 23.2V22.8ZM19.1529 22.7686C19.1319 22.7476 19.1215 22.7252 19.1215 22.688H18.7215C18.7215 22.8268 18.771 22.9524 18.87 23.0514L19.1529 22.7686ZM19.1215 22.688V19.706H18.7215V22.688H19.1215ZM18.7419 19.6179L17.2899 22.5759L17.649 22.7521L19.101 19.7941L18.7419 19.6179ZM17.3021 22.5546C17.2662 22.6094 17.2357 22.62 17.1995 22.62V23.02C17.3872 23.02 17.5367 22.9266 17.6369 22.7734L17.3021 22.5546ZM17.1995 22.62C17.1658 22.62 17.1479 22.6125 17.137 22.6055C17.1256 22.5981 17.1088 22.5827 17.0915 22.5469L16.7314 22.7211C16.7741 22.8093 16.8354 22.8869 16.92 22.9415C17.0051 22.9965 17.1011 23.02 17.1995 23.02V22.62ZM17.0904 22.5447L15.6564 19.6707L15.2985 19.8493L16.7325 22.7233L17.0904 22.5447ZM15.2775 19.76V22.688H15.6775V19.76H15.2775ZM15.2775 22.688C15.2775 22.7252 15.267 22.7476 15.246 22.7686L15.5289 23.0514C15.6279 22.9524 15.6775 22.8268 15.6775 22.688H15.2775ZM15.246 22.7686C15.2251 22.7895 15.2026 22.8 15.1655 22.8V23.2C15.3043 23.2 15.4298 23.1505 15.5289 23.0514L15.246 22.7686ZM21.012 22.91L20.8657 23.0465L20.8706 23.0514L21.012 22.91ZM21.546 22.376H21.346V22.576H21.546V22.376ZM21.234 22.8C21.1968 22.8 21.1744 22.7895 21.1534 22.7686L20.8706 23.0514C20.9696 23.1505 21.0951 23.2 21.234 23.2V22.8ZM21.1582 22.7735C21.1394 22.7534 21.128 22.7293 21.128 22.688H20.728C20.728 22.8227 20.7725 22.9466 20.8657 23.0465L21.1582 22.7735ZM21.128 22.688V18.626H20.728V22.688H21.128ZM21.128 18.626C21.128 18.5888 21.1384 18.5664 21.1594 18.5454L20.8766 18.2626C20.7775 18.3616 20.728 18.4872 20.728 18.626H21.128ZM21.1594 18.5454C21.1823 18.5225 21.2036 18.514 21.234 18.514V18.114C21.0963 18.114 20.9736 18.1655 20.8766 18.2626L21.1594 18.5454ZM21.234 18.514C21.2711 18.514 21.2936 18.5245 21.3146 18.5454L21.5974 18.2626C21.4984 18.1635 21.3728 18.114 21.234 18.114V18.514ZM21.3146 18.5454C21.3355 18.5664 21.346 18.5888 21.346 18.626H21.746C21.746 18.4872 21.6964 18.3616 21.5974 18.2626L21.3146 18.5454ZM21.346 18.626V22.376H21.746V18.626H21.346ZM21.546 22.576H23.718V22.176H21.546V22.576ZM23.718 22.576C23.7551 22.576 23.7776 22.5865 23.7986 22.6074L24.0814 22.3246C23.9824 22.2255 23.8568 22.176 23.718 22.176V22.576ZM23.7986 22.6074C23.8195 22.6284 23.83 22.6508 23.83 22.688H24.23C24.23 22.5492 24.1804 22.4236 24.0814 22.3246L23.7986 22.6074ZM23.83 22.688C23.83 22.7252 23.8195 22.7476 23.7986 22.7686L24.0814 23.0514C24.1804 22.9524 24.23 22.8268 24.23 22.688H23.83ZM23.7986 22.7686C23.7776 22.7895 23.7551 22.8 23.718 22.8V23.2C23.8568 23.2 23.9824 23.1505 24.0814 23.0514L23.7986 22.7686ZM23.718 22.8H21.234V23.2H23.718V22.8Z" fill="white"/>
</svg>
