<svg width="32" height="32" viewBox="0 0 32 32" fill="none" xmlns="http://www.w3.org/2000/svg">
<path d="M9.27852 2C8.28259 2 7.48584 2.79715 7.48584 3.79359V28.2064C7.48584 29.2028 8.28259 30 9.27852 30H26.7073C27.7033 30 28.5 29.2028 28.5 28.2064V8.97509L21.5285 2H9.27852Z" fill="#E2E5E7"/>
<path d="M23.2215 8.97509H28.5L21.5284 2V7.28114C21.4288 8.17794 22.2256 8.97509 23.2215 8.97509Z" fill="#B0B7BD"/>
<path d="M28.4005 14.2562L23.2217 8.9751H28.5001V14.2562H28.4005Z" fill="#CAD1D8"/>
<path d="M24.9146 24.7188C24.9146 25.217 24.5162 25.6156 24.0183 25.6156H4.89634C4.39837 25.6156 4 25.217 4 24.7188V15.9501C4 15.4519 4.39837 15.0533 4.89634 15.0533H24.0183C24.5162 15.0533 24.9146 15.4519 24.9146 15.9501V24.7188Z" fill="#576D7E"/>
<path d="M24.1179 25.6157H7.48584V26.5125H24.0183C24.5163 26.5125 24.9147 26.1139 24.9147 25.6157V24.7189C24.9147 25.2171 24.5163 25.6157 24.1179 25.6157Z" fill="#CAD1D8"/>
<path d="M11.71 22.56C11.43 22.56 11.18 22.5 10.96 22.38C10.744 22.256 10.574 22.086 10.45 21.87C10.33 21.65 10.27 21.4 10.27 21.12C10.27 21.028 10.3 20.954 10.36 20.898C10.42 20.838 10.494 20.808 10.582 20.808C10.674 20.808 10.748 20.838 10.804 20.898C10.864 20.954 10.894 21.028 10.894 21.12C10.894 21.376 10.97 21.586 11.122 21.75C11.274 21.914 11.47 21.996 11.71 21.996C11.95 21.996 12.146 21.914 12.298 21.75C12.454 21.586 12.532 21.376 12.532 21.12V18.126C12.532 18.034 12.56 17.96 12.616 17.904C12.676 17.844 12.75 17.814 12.838 17.814C12.93 17.814 13.006 17.844 13.066 17.904C13.126 17.96 13.156 18.034 13.156 18.126V21.12C13.156 21.4 13.094 21.65 12.97 21.87C12.846 22.086 12.676 22.256 12.46 22.38C12.244 22.5 11.994 22.56 11.71 22.56ZM16.0239 22.56C15.7679 22.56 15.5239 22.52 15.2919 22.44C15.0599 22.36 14.8579 22.248 14.6859 22.104C14.5139 21.96 14.3879 21.794 14.3079 21.606C14.2679 21.522 14.2679 21.444 14.3079 21.372C14.3519 21.3 14.4239 21.254 14.5239 21.234C14.5959 21.218 14.6659 21.23 14.7339 21.27C14.8059 21.306 14.8599 21.362 14.8959 21.438C14.9439 21.538 15.0219 21.63 15.1299 21.714C15.2419 21.798 15.3759 21.866 15.5319 21.918C15.6879 21.97 15.8519 21.996 16.0239 21.996C16.2159 21.996 16.3919 21.966 16.5519 21.906C16.7159 21.846 16.8479 21.76 16.9479 21.648C17.0479 21.532 17.0979 21.39 17.0979 21.222C17.0979 21.01 17.0139 20.82 16.8459 20.652C16.6819 20.484 16.4099 20.38 16.0299 20.34C15.5339 20.292 15.1439 20.146 14.8599 19.902C14.5759 19.658 14.4339 19.356 14.4339 18.996C14.4339 18.732 14.5079 18.508 14.6559 18.324C14.8039 18.14 15.0039 18 15.2559 17.904C15.5119 17.808 15.7959 17.76 16.1079 17.76C16.4719 17.76 16.7699 17.834 17.0019 17.982C17.2339 18.13 17.4259 18.326 17.5779 18.57C17.6339 18.658 17.6559 18.742 17.6439 18.822C17.6359 18.898 17.5979 18.958 17.5299 19.002C17.4539 19.05 17.3719 19.06 17.2839 19.032C17.1959 19.004 17.1299 18.952 17.0859 18.876C16.9859 18.704 16.8559 18.57 16.6959 18.474C16.5399 18.378 16.3379 18.328 16.0899 18.324C15.7939 18.32 15.5459 18.376 15.3459 18.492C15.1459 18.604 15.0459 18.778 15.0459 19.014C15.0459 19.134 15.0759 19.25 15.1359 19.362C15.1999 19.47 15.3139 19.564 15.4779 19.644C15.6459 19.724 15.8859 19.78 16.1979 19.812C16.6739 19.86 17.0439 20.006 17.3079 20.25C17.5759 20.49 17.7099 20.808 17.7099 21.204C17.7099 21.432 17.6619 21.63 17.5659 21.798C17.4739 21.966 17.3479 22.108 17.1879 22.224C17.0319 22.336 16.8519 22.42 16.6479 22.476C16.4479 22.532 16.2399 22.56 16.0239 22.56Z" fill="white"/>
<path d="M10.9601 22.3801L10.8605 22.5536L10.8643 22.5557L10.9601 22.3801ZM10.4501 21.8701L10.2745 21.9659L10.2766 21.9697L10.4501 21.8701ZM10.3601 20.8981L10.4966 21.0444L10.5015 21.0395L10.3601 20.8981ZM10.8041 20.8981L10.6575 21.0349L10.6676 21.0443L10.8041 20.8981ZM11.1221 21.7501L10.9754 21.8861L11.1221 21.7501ZM12.2981 21.7501L12.1532 21.6122L12.1514 21.6141L12.2981 21.7501ZM12.6161 17.9041L12.4747 17.7627L12.6161 17.9041ZM13.0661 17.9041L12.9246 18.0456L12.9296 18.0503L13.0661 17.9041ZM12.9701 21.8701L13.1436 21.9697L13.1443 21.9683L12.9701 21.8701ZM12.4601 22.3801L12.5572 22.5549L12.5597 22.5536L12.4601 22.3801ZM11.7101 22.3601C11.4596 22.3601 11.2432 22.3067 11.0559 22.2045L10.8643 22.5557C11.117 22.6935 11.4006 22.7601 11.7101 22.7601V22.3601ZM11.0597 22.2066C10.8744 22.1003 10.7299 21.9558 10.6236 21.7705L10.2766 21.9697C10.4183 22.2164 10.6138 22.4119 10.8605 22.5536L11.0597 22.2066ZM10.6257 21.7743C10.5235 21.587 10.4701 21.3706 10.4701 21.1201H10.0701C10.0701 21.4296 10.1367 21.7132 10.2745 21.9659L10.6257 21.7743ZM10.4701 21.1201C10.4701 21.0761 10.4822 21.0577 10.4966 21.0443L10.2236 20.7519C10.118 20.8505 10.0701 20.9801 10.0701 21.1201H10.4701ZM10.5015 21.0395C10.5225 21.0186 10.5449 21.0081 10.5821 21.0081V20.6081C10.4433 20.6081 10.3177 20.6576 10.2187 20.7567L10.5015 21.0395ZM10.5821 21.0081C10.6261 21.0081 10.6445 21.0202 10.6579 21.0346L10.9503 20.7616C10.8517 20.656 10.7221 20.6081 10.5821 20.6081V21.0081ZM10.6676 21.0443C10.682 21.0577 10.6941 21.0761 10.6941 21.1201H11.0941C11.0941 20.9801 11.0462 20.8505 10.9406 20.7519L10.6676 21.0443ZM10.6941 21.1201C10.6941 21.4187 10.7842 21.6797 10.9754 21.8861L11.2688 21.6141C11.156 21.4925 11.0941 21.3335 11.0941 21.1201H10.6941ZM10.9754 21.8861C11.1683 22.0941 11.419 22.1961 11.7101 22.1961V21.7961C11.5212 21.7961 11.3799 21.7341 11.2688 21.6141L10.9754 21.8861ZM11.7101 22.1961C12.0012 22.1961 12.2519 22.0941 12.4448 21.8861L12.1514 21.6141C12.0403 21.7341 11.899 21.7961 11.7101 21.7961V22.1961ZM12.443 21.8879C12.6391 21.6818 12.7321 21.4201 12.7321 21.1201H12.3321C12.3321 21.3321 12.2691 21.4904 12.1532 21.6123L12.443 21.8879ZM12.7321 21.1201V18.1261H12.3321V21.1201H12.7321ZM12.7321 18.1261C12.7321 18.0779 12.7451 18.0579 12.7575 18.0455L12.4747 17.7627C12.3751 17.8623 12.3321 17.9903 12.3321 18.1261H12.7321ZM12.7575 18.0455C12.7785 18.0246 12.8009 18.0141 12.8381 18.0141V17.6141C12.6993 17.6141 12.5737 17.6636 12.4747 17.7627L12.7575 18.0455ZM12.8381 18.0141C12.882 18.0141 12.9055 18.0264 12.9247 18.0455L13.2075 17.7627C13.1067 17.6618 12.9782 17.6141 12.8381 17.6141V18.0141ZM12.9296 18.0503C12.944 18.0637 12.9561 18.0821 12.9561 18.1261H13.3561C13.3561 17.9861 13.3082 17.8565 13.2026 17.7579L12.9296 18.0503ZM12.9561 18.1261V21.1201H13.3561V18.1261H12.9561ZM12.9561 21.1201C12.9561 21.3695 12.9012 21.585 12.7959 21.7719L13.1443 21.9683C13.287 21.7152 13.3561 21.4307 13.3561 21.1201H12.9561ZM12.7966 21.7705C12.6903 21.9558 12.5458 22.1003 12.3605 22.2066L12.5597 22.5536C12.8064 22.4119 13.0019 22.2164 13.1436 21.9697L12.7966 21.7705ZM12.363 22.2053C12.1809 22.3064 11.9652 22.3601 11.7101 22.3601V22.7601C12.023 22.7601 12.3073 22.6938 12.5572 22.5549L12.363 22.2053ZM15.292 22.4401L15.3572 22.251L15.292 22.4401ZM14.686 22.1041L14.5576 22.2575L14.686 22.1041ZM14.308 21.6061L14.4922 21.5277L14.4885 21.5201L14.308 21.6061ZM14.308 21.3721L14.1372 21.2677L14.1331 21.275L14.308 21.3721ZM14.524 21.2341L14.5632 21.4303L14.5673 21.4293L14.524 21.2341ZM14.734 21.2701L14.6323 21.4429L14.6445 21.449L14.734 21.2701ZM14.896 21.4381L14.7152 21.5237L14.7157 21.5246L14.896 21.4381ZM15.13 21.7141L15.0072 21.872L15.01 21.8741L15.13 21.7141ZM15.532 21.9181L15.4687 22.1078L15.532 21.9181ZM16.552 21.9061L16.4832 21.7183L16.4817 21.7188L16.552 21.9061ZM16.948 21.6481L17.0972 21.7813L17.0994 21.7787L16.948 21.6481ZM16.846 20.6521L16.7028 20.7918L16.7045 20.7935L16.846 20.6521ZM16.03 20.3401L16.0509 20.1412L16.0492 20.141L16.03 20.3401ZM14.86 19.9021L14.9903 19.7504L14.86 19.9021ZM15.256 17.9041L15.1857 17.7168L15.1848 17.7172L15.256 17.9041ZM17.002 17.9821L17.1095 17.8135L17.002 17.9821ZM17.578 18.5701L17.4082 18.6759L17.4092 18.6775L17.578 18.5701ZM17.644 18.8221L17.446 18.7924L17.4451 18.8012L17.644 18.8221ZM17.53 19.0021L17.6368 19.1712L17.6386 19.17L17.53 19.0021ZM17.284 19.0321L17.2233 19.2227L17.284 19.0321ZM17.086 18.8761L17.259 18.7759L17.2589 18.7756L17.086 18.8761ZM16.696 18.4741L16.5911 18.6444L16.5931 18.6456L16.696 18.4741ZM16.09 18.3241L16.0932 18.1241H16.0927L16.09 18.3241ZM15.346 18.4921L15.4437 18.6666L15.4463 18.6651L15.346 18.4921ZM15.136 19.3621L14.9595 19.4566L14.9639 19.4641L15.136 19.3621ZM15.478 19.6441L15.3903 19.8239L15.392 19.8247L15.478 19.6441ZM16.198 19.8121L16.1776 20.0111H16.1779L16.198 19.8121ZM17.308 20.2501L17.1722 20.397L17.1745 20.3991L17.308 20.2501ZM17.566 21.7981L17.3923 21.6989L17.3905 21.702L17.566 21.7981ZM17.188 22.2241L17.3046 22.3866L17.3054 22.386L17.188 22.2241ZM16.648 22.4761L16.595 22.2832L16.594 22.2835L16.648 22.4761ZM16.024 22.3601C15.7892 22.3601 15.5673 22.3235 15.3572 22.251L15.2268 22.6292C15.4806 22.7167 15.7467 22.7601 16.024 22.7601V22.3601ZM15.3572 22.251C15.1461 22.1782 14.966 22.0777 14.8143 21.9507L14.5576 22.2575C14.75 22.4185 14.9739 22.542 15.2268 22.6292L15.3572 22.251ZM14.8143 21.9507C14.6641 21.825 14.5585 21.684 14.492 21.5278L14.1239 21.6844C14.2175 21.9042 14.3638 22.0952 14.5576 22.2575L14.8143 21.9507ZM14.4885 21.5201C14.4789 21.4999 14.478 21.4887 14.478 21.4846C14.478 21.4815 14.4783 21.4772 14.4828 21.4692L14.1331 21.275C14.0573 21.4115 14.0638 21.5585 14.1274 21.6921L14.4885 21.5201ZM14.4786 21.4764C14.4876 21.4618 14.5055 21.4417 14.5632 21.4302L14.4847 21.038C14.3424 21.0665 14.2164 21.1384 14.1373 21.2678L14.4786 21.4764ZM14.5673 21.4293C14.5863 21.4251 14.6049 21.4262 14.6326 21.4425L14.8354 21.0977C14.7271 21.034 14.6056 21.0111 14.4806 21.0389L14.5673 21.4293ZM14.6445 21.449C14.6746 21.464 14.6974 21.4862 14.7152 21.5237L15.0767 21.3525C15.0225 21.238 14.9373 21.1482 14.8234 21.0912L14.6445 21.449ZM14.7157 21.5246C14.7798 21.6583 14.8803 21.7733 15.0072 21.872L15.2527 21.5562C15.1636 21.4869 15.1081 21.4179 15.0763 21.3516L14.7157 21.5246ZM15.01 21.8741C15.1419 21.973 15.2958 22.0502 15.4687 22.1078L15.5952 21.7284C15.4561 21.682 15.3421 21.6232 15.25 21.5541L15.01 21.8741ZM15.4687 22.1078C15.646 22.1669 15.8315 22.1961 16.024 22.1961V21.7961C15.8725 21.7961 15.7299 21.7733 15.5952 21.7284L15.4687 22.1078ZM16.024 22.1961C16.237 22.1961 16.4371 22.1628 16.6222 22.0934L16.4817 21.7188C16.3468 21.7694 16.1949 21.7961 16.024 21.7961V22.1961ZM16.6207 22.0939C16.8105 22.0245 16.9719 21.9216 17.0971 21.7813L16.7988 21.5149C16.724 21.5986 16.6214 21.6677 16.4832 21.7183L16.6207 22.0939ZM17.0994 21.7787C17.2339 21.6228 17.298 21.433 17.298 21.2221H16.898C16.898 21.3472 16.8621 21.4414 16.7965 21.5175L17.0994 21.7787ZM17.298 21.2221C17.298 20.9504 17.1879 20.7112 16.9874 20.5107L16.7045 20.7935C16.84 20.929 16.898 21.0698 16.898 21.2221H17.298ZM16.9891 20.5124C16.7775 20.2957 16.4502 20.1832 16.0509 20.1412L16.009 20.539C16.3697 20.577 16.5864 20.6725 16.7028 20.7918L16.9891 20.5124ZM16.0492 20.141C15.5809 20.0957 15.2342 19.9599 14.9903 19.7504L14.7296 20.0538C15.0537 20.3323 15.4871 20.4885 16.0107 20.5392L16.0492 20.141ZM14.9903 19.7504C14.7485 19.5427 14.634 19.2952 14.634 18.9961H14.234C14.234 19.417 14.4034 19.7735 14.7296 20.0538L14.9903 19.7504ZM14.634 18.9961C14.634 18.772 14.6958 18.5937 14.8118 18.4495L14.5001 18.1987C14.3202 18.4225 14.234 18.6922 14.234 18.9961H14.634ZM14.8118 18.4495C14.9345 18.2969 15.1035 18.1762 15.3272 18.091L15.1848 17.7172C14.9044 17.824 14.6734 17.9833 14.5001 18.1987L14.8118 18.4495ZM15.3262 18.0914C15.5568 18.0049 15.8166 17.9601 16.108 17.9601V17.5601C15.7753 17.5601 15.4671 17.6113 15.1857 17.7168L15.3262 18.0914ZM16.108 17.9601C16.4459 17.9601 16.7034 18.0288 16.8944 18.1507L17.1095 17.8135C16.8366 17.6394 16.498 17.5601 16.108 17.5601V17.9601ZM16.8944 18.1507C17.1001 18.2819 17.2713 18.456 17.4082 18.6758L17.7477 18.4644C17.5807 18.1962 17.3678 17.9783 17.1095 17.8135L16.8944 18.1507ZM17.4092 18.6775C17.447 18.7368 17.4492 18.7726 17.4462 18.7924L17.8417 18.8518C17.8628 18.7116 17.8209 18.5794 17.7467 18.4627L17.4092 18.6775ZM17.4451 18.8012C17.444 18.8109 17.4418 18.815 17.4405 18.8171C17.439 18.8195 17.4344 18.8257 17.4213 18.8342L17.6386 19.17C17.7539 19.0954 17.8281 18.9832 17.8429 18.843L17.4451 18.8012ZM17.4232 18.833C17.3986 18.8485 17.3781 18.8522 17.3446 18.8415L17.2233 19.2227C17.3658 19.268 17.5093 19.2517 17.6368 19.1712L17.4232 18.833ZM17.3446 18.8415C17.3013 18.8277 17.2767 18.8065 17.259 18.7759L16.9129 18.9763C16.9832 19.0977 17.0906 19.1805 17.2233 19.2227L17.3446 18.8415ZM17.2589 18.7756C17.1431 18.5764 16.9897 18.4171 16.7989 18.3026L16.5931 18.6456C16.7222 18.7231 16.8289 18.8318 16.9131 18.9766L17.2589 18.7756ZM16.8008 18.3038C16.6052 18.1834 16.3648 18.1285 16.0932 18.1241L16.0867 18.5241C16.3111 18.5277 16.4747 18.5728 16.5911 18.6444L16.8008 18.3038ZM16.0927 18.1241C15.7705 18.1198 15.4845 18.1805 15.2456 18.3191L15.4463 18.6651C15.6074 18.5717 15.8174 18.5204 16.0873 18.5241L16.0927 18.1241ZM15.2482 18.3176C15.1213 18.3887 15.018 18.4844 14.9476 18.6069C14.8773 18.7292 14.846 18.8673 14.846 19.0141H15.246C15.246 18.9249 15.2646 18.858 15.2944 18.8063C15.3239 18.7548 15.3706 18.7075 15.4437 18.6666L15.2482 18.3176ZM14.846 19.0141C14.846 19.169 14.885 19.3173 14.9597 19.4565L15.3123 19.2677C15.2669 19.1829 15.246 19.0992 15.246 19.0141H14.846ZM14.9639 19.4641C15.0549 19.6177 15.2063 19.7341 15.3903 19.8239L15.5656 19.4643C15.4217 19.3941 15.345 19.3225 15.308 19.2601L14.9639 19.4641ZM15.392 19.8247C15.59 19.919 15.8562 19.9781 16.1776 20.0111L16.2184 19.6131C15.9157 19.5821 15.7019 19.5292 15.5639 19.4635L15.392 19.8247ZM16.1779 20.0111C16.6249 20.0562 16.9492 20.1909 17.1722 20.397L17.4437 20.1032C17.1387 19.8213 16.723 19.664 16.218 19.6131L16.1779 20.0111ZM17.1745 20.3991C17.3956 20.5971 17.51 20.8586 17.51 21.2041H17.91C17.91 20.7576 17.7563 20.3831 17.4414 20.1011L17.1745 20.3991ZM17.51 21.2041C17.51 21.4035 17.4682 21.5661 17.3923 21.6989L17.7396 21.8973C17.8557 21.6941 17.91 21.4607 17.91 21.2041H17.51ZM17.3905 21.702C17.3132 21.8432 17.2074 21.963 17.0706 22.0622L17.3054 22.386C17.4885 22.2532 17.6347 22.089 17.7414 21.8942L17.3905 21.702ZM17.0713 22.0616C16.9364 22.1585 16.7785 22.2329 16.595 22.2832L16.7009 22.669C16.9255 22.6073 17.1275 22.5137 17.3046 22.3866L17.0713 22.0616ZM16.594 22.2835C16.4123 22.3344 16.2225 22.3601 16.024 22.3601V22.7601C16.2575 22.7601 16.4836 22.7298 16.7019 22.6687L16.594 22.2835Z" fill="white"/>
</svg>
