<svg width="32" height="32" viewBox="0 0 32 32" fill="none" xmlns="http://www.w3.org/2000/svg">
<path d="M9.27852 2C8.28259 2 7.48584 2.79715 7.48584 3.79359V28.2064C7.48584 29.2028 8.28259 30 9.27852 30H26.7073C27.7033 30 28.5 29.2028 28.5 28.2064V8.97509L21.5285 2H9.27852Z" fill="#E2E5E7"/>
<path d="M23.2215 8.97509H28.5L21.5284 2V7.28114C21.4288 8.17794 22.2256 8.97509 23.2215 8.97509Z" fill="#B0B7BD"/>
<path d="M28.4005 14.2562L23.2217 8.9751H28.5001V14.2562H28.4005Z" fill="#CAD1D8"/>
<path d="M24.9146 24.7188C24.9146 25.217 24.5162 25.6156 24.0183 25.6156H4.89634C4.39837 25.6156 4 25.217 4 24.7188V15.9501C4 15.4519 4.39837 15.0533 4.89634 15.0533H24.0183C24.5162 15.0533 24.9146 15.4519 24.9146 15.9501V24.7188Z" fill="#576D7E"/>
<path d="M24.1179 25.6157H7.48584V26.5125H24.0183C24.5163 26.5125 24.9147 26.1139 24.9147 25.6157V24.7189C24.9147 25.2171 24.5163 25.6157 24.1179 25.6157Z" fill="#CAD1D8"/>
<path d="M6.71002 22.4601C6.43002 22.4601 6.18002 22.4001 5.96002 22.2801C5.74402 22.1561 5.57402 21.9861 5.45002 21.7701C5.33002 21.5501 5.27002 21.3001 5.27002 21.0201C5.27002 20.9281 5.30002 20.8541 5.36002 20.7981C5.42002 20.7381 5.49402 20.7081 5.58202 20.7081C5.67402 20.7081 5.74802 20.7381 5.80402 20.7981C5.86402 20.8541 5.89402 20.9281 5.89402 21.0201C5.89402 21.2761 5.97002 21.4861 6.12202 21.6501C6.27402 21.8141 6.47002 21.8961 6.71002 21.8961C6.95002 21.8961 7.14602 21.8141 7.29802 21.6501C7.45402 21.4861 7.53202 21.2761 7.53202 21.0201V18.0261C7.53202 17.9341 7.56002 17.8601 7.61602 17.8041C7.67602 17.7441 7.75002 17.7141 7.83802 17.7141C7.93002 17.7141 8.00602 17.7441 8.06602 17.8041C8.12602 17.8601 8.15602 17.9341 8.15602 18.0261V21.0201C8.15602 21.3001 8.09402 21.5501 7.97002 21.7701C7.84602 21.9861 7.67602 22.1561 7.46002 22.2801C7.24402 22.4001 6.99402 22.4601 6.71002 22.4601ZM11.0239 22.4601C10.7679 22.4601 10.5239 22.4201 10.2919 22.3401C10.0599 22.2601 9.85788 22.1481 9.68588 22.0041C9.51388 21.8601 9.38788 21.6941 9.30788 21.5061C9.26788 21.4221 9.26788 21.3441 9.30788 21.2721C9.35188 21.2001 9.42388 21.1541 9.52388 21.1341C9.59588 21.1181 9.66588 21.1301 9.73388 21.1701C9.80588 21.2061 9.85988 21.2621 9.89588 21.3381C9.94388 21.4381 10.0219 21.5301 10.1299 21.6141C10.2419 21.6981 10.3759 21.7661 10.5319 21.8181C10.6879 21.8701 10.8519 21.8961 11.0239 21.8961C11.2159 21.8961 11.3919 21.8661 11.5519 21.8061C11.7159 21.7461 11.8479 21.6601 11.9479 21.5481C12.0479 21.4321 12.0979 21.2901 12.0979 21.1221C12.0979 20.9101 12.0139 20.7201 11.8459 20.5521C11.6819 20.3841 11.4099 20.2801 11.0299 20.2401C10.5339 20.1921 10.1439 20.0461 9.85988 19.8021C9.57588 19.5581 9.43388 19.2561 9.43388 18.8961C9.43388 18.6321 9.50788 18.4081 9.65588 18.2241C9.80388 18.0401 10.0039 17.9001 10.2559 17.8041C10.5119 17.7081 10.7959 17.6601 11.1079 17.6601C11.4719 17.6601 11.7699 17.7341 12.0019 17.8821C12.2339 18.0301 12.4259 18.2261 12.5779 18.4701C12.6339 18.5581 12.6559 18.6421 12.6439 18.7221C12.6359 18.7981 12.5979 18.8581 12.5299 18.9021C12.4539 18.9501 12.3719 18.9601 12.2839 18.9321C12.1959 18.9041 12.1299 18.8521 12.0859 18.7761C11.9859 18.6041 11.8559 18.4701 11.6959 18.3741C11.5399 18.2781 11.3379 18.2281 11.0899 18.2241C10.7939 18.2201 10.5459 18.2761 10.3459 18.3921C10.1459 18.5041 10.0459 18.6781 10.0459 18.9141C10.0459 19.0341 10.0759 19.1501 10.1359 19.2621C10.1999 19.3701 10.3139 19.4641 10.4779 19.5441C10.6459 19.6241 10.8859 19.6801 11.1979 19.7121C11.6739 19.7601 12.0439 19.9061 12.3079 20.1501C12.5759 20.3901 12.7099 20.7081 12.7099 21.1041C12.7099 21.3321 12.6619 21.5301 12.5659 21.6981C12.4739 21.8661 12.3479 22.0081 12.1879 22.1241C12.0319 22.2361 11.8519 22.3201 11.6479 22.3761C11.4479 22.4321 11.2399 22.4601 11.0239 22.4601ZM16.0127 22.4601C15.6607 22.4601 15.3387 22.4021 15.0467 22.2861C14.7547 22.1661 14.5027 22.0001 14.2907 21.7881C14.0827 21.5721 13.9207 21.3181 13.8047 21.0261C13.6887 20.7301 13.6307 20.4061 13.6307 20.0541C13.6307 19.7021 13.6887 19.3801 13.8047 19.0881C13.9207 18.7961 14.0827 18.5441 14.2907 18.3321C14.5027 18.1161 14.7547 17.9501 15.0467 17.8341C15.3387 17.7141 15.6607 17.6541 16.0127 17.6541C16.3647 17.6541 16.6847 17.7141 16.9727 17.8341C17.2647 17.9501 17.5167 18.1161 17.7287 18.3321C17.9407 18.5441 18.1047 18.7961 18.2207 19.0881C18.3367 19.3801 18.3947 19.7021 18.3947 20.0541C18.3947 20.4061 18.3367 20.7301 18.2207 21.0261C18.1047 21.3181 17.9407 21.5721 17.7287 21.7881C17.5167 22.0001 17.2647 22.1661 16.9727 22.2861C16.6847 22.4021 16.3647 22.4601 16.0127 22.4601ZM16.0127 21.8961C16.3607 21.8961 16.6687 21.8161 16.9367 21.6561C17.2047 21.4921 17.4147 21.2721 17.5667 20.9961C17.7187 20.7161 17.7947 20.4021 17.7947 20.0541C17.7947 19.7061 17.7187 19.3941 17.5667 19.1181C17.4147 18.8381 17.2047 18.6181 16.9367 18.4581C16.6687 18.2981 16.3607 18.2181 16.0127 18.2181C15.6647 18.2181 15.3567 18.2981 15.0887 18.4581C14.8207 18.6181 14.6107 18.8381 14.4587 19.1181C14.3067 19.3941 14.2307 19.7061 14.2307 20.0541C14.2307 20.4021 14.3067 20.7161 14.4587 20.9961C14.6107 21.2721 14.8207 21.4921 15.0887 21.6561C15.3567 21.8161 15.6647 21.8961 16.0127 21.8961ZM19.8581 22.4001C19.7701 22.4001 19.6961 22.3701 19.6361 22.3101C19.5801 22.2501 19.5521 22.1761 19.5521 22.0881V18.0261C19.5521 17.9341 19.5801 17.8601 19.6361 17.8041C19.6961 17.7441 19.7701 17.7141 19.8581 17.7141C19.9541 17.7141 20.0341 17.7521 20.0981 17.8281L22.7141 21.3081V18.0261C22.7141 17.9341 22.7441 17.8601 22.8041 17.8041C22.8641 17.7441 22.9381 17.7141 23.0261 17.7141C23.1181 17.7141 23.1921 17.7441 23.2481 17.8041C23.3041 17.8601 23.3321 17.9341 23.3321 18.0261V22.0881C23.3321 22.1761 23.3041 22.2501 23.2481 22.3101C23.1921 22.3701 23.1181 22.4001 23.0261 22.4001C22.9861 22.4001 22.9421 22.3921 22.8941 22.3761C22.8501 22.3561 22.8141 22.3281 22.7861 22.2921L20.1701 18.8121V22.0881C20.1701 22.1761 20.1401 22.2501 20.0801 22.3101C20.0241 22.3701 19.9501 22.4001 19.8581 22.4001Z" fill="white"/>
<path d="M5.96007 22.28L5.86047 22.4535L5.8643 22.4556L5.96007 22.28ZM5.45007 21.77L5.27445 21.8658L5.27662 21.8696L5.45007 21.77ZM5.36007 20.798L5.49661 20.9443L5.50149 20.9394L5.36007 20.798ZM5.80407 20.798L5.65751 20.9348L5.66761 20.9442L5.80407 20.798ZM6.12207 21.65L5.97538 21.7859L6.12207 21.65ZM7.29807 21.65L7.15315 21.5121L7.15138 21.514L7.29807 21.65ZM7.61607 17.804L7.47465 17.6626L7.61607 17.804ZM8.06607 17.804L7.92456 17.9455L7.92961 17.9502L8.06607 17.804ZM7.97007 21.77L8.14353 21.8696L8.1443 21.8682L7.97007 21.77ZM7.46007 22.28L7.55721 22.4548L7.55964 22.4534L7.46007 22.28ZM6.71007 22.26C6.45954 22.26 6.24314 22.2066 6.05584 22.1044L5.8643 22.4556C6.117 22.5934 6.4006 22.66 6.71007 22.66V22.26ZM6.05964 22.1065C5.87438 22.0002 5.72988 21.8557 5.62352 21.6704L5.27662 21.8696C5.41826 22.1163 5.61376 22.3118 5.8605 22.4534L6.05964 22.1065ZM5.62565 21.6742C5.52348 21.4869 5.47007 21.2705 5.47007 21.02H5.07007C5.07007 21.3295 5.13666 21.6131 5.27449 21.8658L5.62565 21.6742ZM5.47007 21.02C5.47007 20.976 5.48218 20.9576 5.49653 20.9442L5.22361 20.6518C5.11796 20.7504 5.07007 20.88 5.07007 21.02H5.47007ZM5.50149 20.9394C5.52246 20.9184 5.54492 20.908 5.58207 20.908V20.508C5.44322 20.508 5.31768 20.5575 5.21865 20.6566L5.50149 20.9394ZM5.58207 20.908C5.62604 20.908 5.64446 20.9201 5.65786 20.9345L5.95028 20.6615C5.85168 20.5559 5.7221 20.508 5.58207 20.508V20.908ZM5.66761 20.9442C5.68196 20.9576 5.69407 20.976 5.69407 21.02H6.09407C6.09407 20.88 6.04618 20.7504 5.94053 20.6518L5.66761 20.9442ZM5.69407 21.02C5.69407 21.3186 5.78413 21.5796 5.97538 21.7859L6.26876 21.514C6.15601 21.3924 6.09407 21.2334 6.09407 21.02H5.69407ZM5.97538 21.7859C6.16823 21.994 6.41896 22.096 6.71007 22.096V21.696C6.52118 21.696 6.37991 21.634 6.26876 21.514L5.97538 21.7859ZM6.71007 22.096C7.00118 22.096 7.25191 21.994 7.44476 21.7859L7.15138 21.514C7.04023 21.634 6.89896 21.696 6.71007 21.696V22.096ZM7.44298 21.7878C7.63906 21.5817 7.73207 21.32 7.73207 21.02H7.33207C7.33207 21.232 7.26908 21.3903 7.15316 21.5122L7.44298 21.7878ZM7.73207 21.02V18.026H7.33207V21.02H7.73207ZM7.73207 18.026C7.73207 17.9778 7.74508 17.9578 7.75749 17.9454L7.47465 17.6626C7.37506 17.7622 7.33207 17.8902 7.33207 18.026H7.73207ZM7.75749 17.9454C7.77846 17.9244 7.80092 17.914 7.83807 17.914V17.514C7.69922 17.514 7.57368 17.5635 7.47465 17.6626L7.75749 17.9454ZM7.83807 17.914C7.88196 17.914 7.9055 17.9263 7.92465 17.9454L8.20749 17.6626C8.10664 17.5617 7.97818 17.514 7.83807 17.514V17.914ZM7.92961 17.9502C7.94396 17.9636 7.95607 17.982 7.95607 18.026H8.35607C8.35607 17.886 8.30818 17.7564 8.20253 17.6578L7.92961 17.9502ZM7.95607 18.026V21.02H8.35607V18.026H7.95607ZM7.95607 21.02C7.95607 21.2694 7.90116 21.4849 7.79584 21.6718L8.1443 21.8682C8.28698 21.6151 8.35607 21.3306 8.35607 21.02H7.95607ZM7.79662 21.6704C7.69026 21.8557 7.54576 22.0002 7.3605 22.1065L7.55964 22.4534C7.80638 22.3118 8.00188 22.1163 8.14352 21.8696L7.79662 21.6704ZM7.36294 22.1052C7.18084 22.2063 6.96521 22.26 6.71007 22.26V22.66C7.02293 22.66 7.3073 22.5937 7.5572 22.4548L7.36294 22.1052ZM10.292 22.34L10.3572 22.1509L10.292 22.34ZM9.68593 22.004L9.55754 22.1573L9.68593 22.004ZM9.30793 21.506L9.49212 21.4276L9.4885 21.42L9.30793 21.506ZM9.30793 21.272L9.13713 21.1676L9.1331 21.1749L9.30793 21.272ZM9.52393 21.134L9.56316 21.3302L9.56732 21.3292L9.52393 21.134ZM9.73393 21.17L9.63229 21.3428L9.64449 21.3489L9.73393 21.17ZM9.89593 21.338L9.71518 21.4236L9.71562 21.4245L9.89593 21.338ZM10.13 21.614L10.0072 21.7719L10.01 21.774L10.13 21.614ZM10.532 21.818L10.4687 22.0077L10.532 21.818ZM11.552 21.806L11.4832 21.6182L11.4817 21.6187L11.552 21.806ZM11.948 21.548L12.0972 21.6812L12.0994 21.6786L11.948 21.548ZM11.846 20.552L11.7028 20.6917L11.7045 20.6934L11.846 20.552ZM11.03 20.24L11.0509 20.0411L11.0492 20.0409L11.03 20.24ZM9.85993 19.802L9.99026 19.6503L9.85993 19.802ZM10.256 17.804L10.1857 17.6167L10.1848 17.6171L10.256 17.804ZM12.002 17.882L12.1095 17.7134L12.002 17.882ZM12.578 18.47L12.4082 18.5757L12.4092 18.5774L12.578 18.47ZM12.644 18.722L12.446 18.6923L12.4451 18.7011L12.644 18.722ZM12.53 18.902L12.6368 19.0711L12.6386 19.0699L12.53 18.902ZM12.284 18.932L12.2233 19.1226L12.284 18.932ZM12.086 18.776L12.259 18.6758L12.2589 18.6755L12.086 18.776ZM11.696 18.374L11.5911 18.5443L11.5931 18.5455L11.696 18.374ZM11.09 18.224L11.0932 18.024H11.0927L11.09 18.224ZM10.346 18.392L10.4437 18.5665L10.4463 18.565L10.346 18.392ZM10.136 19.262L9.95947 19.3565L9.96387 19.364L10.136 19.262ZM10.478 19.544L10.3903 19.7238L10.392 19.7246L10.478 19.544ZM11.198 19.712L11.1776 19.911H11.1779L11.198 19.712ZM12.308 20.15L12.1722 20.2969L12.1745 20.299L12.308 20.15ZM12.566 21.698L12.3923 21.5987L12.3905 21.6019L12.566 21.698ZM12.188 22.124L12.3046 22.2865L12.3054 22.2859L12.188 22.124ZM11.648 22.376L11.595 22.1831L11.594 22.1834L11.648 22.376ZM11.024 22.26C10.7892 22.26 10.5673 22.2234 10.3572 22.1509L10.2268 22.5291C10.4806 22.6166 10.7467 22.66 11.024 22.66V22.26ZM10.3572 22.1509C10.1461 22.0781 9.96593 21.9776 9.81432 21.8506L9.55754 22.1573C9.74993 22.3184 9.97384 22.4419 10.2268 22.5291L10.3572 22.1509ZM9.81432 21.8506C9.66412 21.7249 9.55842 21.5839 9.49196 21.4277L9.1239 21.5843C9.21744 21.8041 9.36374 21.9951 9.55754 22.1573L9.81432 21.8506ZM9.4885 21.42C9.47886 21.3997 9.47793 21.3886 9.47793 21.3845C9.47793 21.3814 9.47831 21.3771 9.48276 21.3691L9.1331 21.1749C9.05727 21.3114 9.06372 21.4583 9.12736 21.592L9.4885 21.42ZM9.47859 21.3763C9.48753 21.3617 9.50551 21.3416 9.56315 21.3301L9.48471 20.9379C9.34235 20.9663 9.21633 21.0383 9.13727 21.1677L9.47859 21.3763ZM9.56732 21.3292C9.58625 21.325 9.60483 21.3261 9.63253 21.3424L9.83533 20.9976C9.72703 20.9339 9.6056 20.911 9.48054 20.9388L9.56732 21.3292ZM9.64449 21.3489C9.6746 21.3639 9.69741 21.3861 9.71518 21.4236L10.0767 21.2524C10.0225 21.1379 9.93726 21.0481 9.82337 20.9911L9.64449 21.3489ZM9.71562 21.4245C9.77978 21.5582 9.8803 21.6732 10.0072 21.7719L10.2527 21.4561C10.1636 21.3868 10.1081 21.3178 10.0763 21.2514L9.71562 21.4245ZM10.01 21.774C10.1419 21.8729 10.2958 21.9501 10.4687 22.0077L10.5952 21.6283C10.4561 21.5819 10.3421 21.5231 10.25 21.454L10.01 21.774ZM10.4687 22.0077C10.646 22.0668 10.8315 22.096 11.024 22.096V21.696C10.8725 21.696 10.7299 21.6732 10.5952 21.6283L10.4687 22.0077ZM11.024 22.096C11.237 22.096 11.4371 22.0627 11.6222 21.9933L11.4817 21.6187C11.3468 21.6693 11.1949 21.696 11.024 21.696V22.096ZM11.6207 21.9938C11.8105 21.9244 11.9719 21.8215 12.0971 21.6812L11.7988 21.4148C11.724 21.4985 11.6214 21.5676 11.4832 21.6182L11.6207 21.9938ZM12.0994 21.6786C12.2339 21.5227 12.298 21.3329 12.298 21.122H11.898C11.898 21.2471 11.8621 21.3413 11.7965 21.4174L12.0994 21.6786ZM12.298 21.122C12.298 20.8503 12.1879 20.6111 11.9874 20.4106L11.7045 20.6934C11.84 20.8289 11.898 20.9696 11.898 21.122H12.298ZM11.9891 20.4123C11.7775 20.1956 11.4502 20.0831 11.0509 20.0411L11.009 20.4389C11.3697 20.4769 11.5864 20.5724 11.7028 20.6917L11.9891 20.4123ZM11.0492 20.0409C10.5809 19.9956 10.2342 19.8598 9.99026 19.6503L9.7296 19.9537C10.0537 20.2322 10.4871 20.3884 11.0107 20.4391L11.0492 20.0409ZM9.99026 19.6503C9.74846 19.4425 9.63393 19.1951 9.63393 18.896H9.23393C9.23393 19.3169 9.4034 19.6734 9.7296 19.9537L9.99026 19.6503ZM9.63393 18.896C9.63393 18.6719 9.69573 18.4936 9.81177 18.3493L9.50009 18.0986C9.32013 18.3224 9.23393 18.5921 9.23393 18.896H9.63393ZM9.81177 18.3493C9.93451 18.1967 10.1035 18.0761 10.3272 17.9909L10.1848 17.6171C9.90435 17.7239 9.67335 17.8832 9.50009 18.0986L9.81177 18.3493ZM10.3262 17.9913C10.5568 17.9048 10.8166 17.86 11.108 17.86V17.46C10.7753 17.46 10.4671 17.5112 10.1857 17.6167L10.3262 17.9913ZM11.108 17.86C11.4459 17.86 11.7034 17.9287 11.8944 18.0506L12.1095 17.7134C11.8366 17.5393 11.498 17.46 11.108 17.46V17.86ZM11.8944 18.0506C12.1001 18.1818 12.2713 18.3559 12.4082 18.5757L12.7477 18.3642C12.5807 18.0961 12.3678 17.8782 12.1095 17.7134L11.8944 18.0506ZM12.4092 18.5774C12.447 18.6367 12.4492 18.6725 12.4462 18.6923L12.8417 18.7517C12.8628 18.6115 12.8209 18.4792 12.7467 18.3626L12.4092 18.5774ZM12.4451 18.7011C12.444 18.7108 12.4418 18.7149 12.4405 18.717C12.439 18.7194 12.4344 18.7256 12.4213 18.7341L12.6386 19.0699C12.7539 18.9953 12.8281 18.8831 12.8429 18.7429L12.4451 18.7011ZM12.4232 18.7329C12.3986 18.7484 12.3781 18.7521 12.3446 18.7414L12.2233 19.1226C12.3658 19.1679 12.5093 19.1516 12.6368 19.0711L12.4232 18.7329ZM12.3446 18.7414C12.3013 18.7276 12.2767 18.7063 12.259 18.6758L11.9129 18.8762C11.9832 18.9976 12.0906 19.0803 12.2233 19.1226L12.3446 18.7414ZM12.2589 18.6755C12.1431 18.4763 11.9897 18.317 11.7989 18.2025L11.5931 18.5455C11.7222 18.623 11.8289 18.7317 11.9131 18.8765L12.2589 18.6755ZM11.8008 18.2037C11.6052 18.0833 11.3648 18.0284 11.0932 18.024L11.0867 18.424C11.3111 18.4276 11.4747 18.4727 11.5911 18.5443L11.8008 18.2037ZM11.0927 18.024C10.7705 18.0197 10.4845 18.0804 10.2456 18.219L10.4463 18.565C10.6074 18.4716 10.8174 18.4203 11.0873 18.424L11.0927 18.024ZM10.2482 18.2175C10.1213 18.2886 10.018 18.3843 9.94753 18.5068C9.87725 18.6291 9.84593 18.7672 9.84593 18.914H10.246C10.246 18.8248 10.2646 18.7579 10.2944 18.7062C10.3239 18.6547 10.3706 18.6074 10.4437 18.5665L10.2482 18.2175ZM9.84593 18.914C9.84593 19.0689 9.88502 19.2172 9.95963 19.3564L10.3123 19.1675C10.2669 19.0828 10.246 18.9991 10.246 18.914H9.84593ZM9.96387 19.364C10.0549 19.5176 10.2063 19.634 10.3903 19.7237L10.5656 19.3642C10.4217 19.294 10.345 19.2224 10.308 19.16L9.96387 19.364ZM10.392 19.7246C10.59 19.8189 10.8562 19.878 11.1776 19.911L11.2184 19.513C10.9157 19.482 10.7019 19.4291 10.5639 19.3634L10.392 19.7246ZM11.1779 19.911C11.6249 19.9561 11.9492 20.0907 12.1722 20.2969L12.4437 20.0031C12.1387 19.7212 11.723 19.5639 11.218 19.513L11.1779 19.911ZM12.1745 20.299C12.3956 20.497 12.51 20.7585 12.51 21.104H12.91C12.91 20.6575 12.7563 20.283 12.4414 20.001L12.1745 20.299ZM12.51 21.104C12.51 21.3034 12.4682 21.466 12.3923 21.5988L12.7396 21.7972C12.8557 21.594 12.91 21.3606 12.91 21.104H12.51ZM12.3905 21.6019C12.3132 21.7431 12.2074 21.8629 12.0706 21.9621L12.3054 22.2859C12.4885 22.1531 12.6347 21.9889 12.7414 21.7941L12.3905 21.6019ZM12.0713 21.9615C11.9364 22.0584 11.7785 22.1328 11.595 22.1831L11.7009 22.5689C11.9255 22.5072 12.1275 22.4136 12.3046 22.2865L12.0713 21.9615ZM11.594 22.1834C11.4123 22.2343 11.2225 22.26 11.024 22.26V22.66C11.2575 22.66 11.4836 22.6297 11.7019 22.5686L11.594 22.1834ZM15.0468 22.286L14.9708 22.471L14.973 22.4719L15.0468 22.286ZM14.2908 21.788L14.1467 21.9267L14.1494 21.9294L14.2908 21.788ZM13.8048 21.026L13.6186 21.099L13.6189 21.0998L13.8048 21.026ZM13.8048 19.088L13.6189 19.0142L13.8048 19.088ZM14.2908 18.332L14.1481 18.1919L14.2908 18.332ZM15.0468 17.834L15.1207 18.0199L15.1228 18.019L15.0468 17.834ZM16.9728 17.834L16.8959 18.0186L16.899 18.0199L16.9728 17.834ZM17.7288 18.332L17.5861 18.4721L17.5874 18.4734L17.7288 18.332ZM18.2208 19.088L18.4067 19.0142L18.2208 19.088ZM18.2208 21.026L18.4067 21.0998L18.407 21.099L18.2208 21.026ZM17.7288 21.788L17.8702 21.9294L17.8716 21.9281L17.7288 21.788ZM16.9728 22.286L17.0475 22.4715L17.0488 22.471L16.9728 22.286ZM16.9368 21.656L17.0393 21.8277L17.0412 21.8266L16.9368 21.656ZM17.5668 20.996L17.742 21.0925L17.7426 21.0914L17.5668 20.996ZM17.5668 19.118L17.391 19.2134L17.3916 19.2145L17.5668 19.118ZM16.9368 18.458L16.8343 18.6297L16.9368 18.458ZM15.0888 18.458L15.1913 18.6297L15.0888 18.458ZM14.4588 19.118L14.634 19.2145L14.6346 19.2134L14.4588 19.118ZM14.4588 20.996L14.283 21.0914L14.2836 21.0925L14.4588 20.996ZM15.0888 21.656L14.9844 21.8266L14.9863 21.8277L15.0888 21.656ZM16.0128 22.26C15.6831 22.26 15.3865 22.2057 15.1207 22.1001L14.973 22.4719C15.2911 22.5983 15.6386 22.66 16.0128 22.66V22.26ZM15.1228 22.101C14.854 21.9905 14.6246 21.8389 14.4322 21.6466L14.1494 21.9294C14.3811 22.1611 14.6556 22.3415 14.9708 22.471L15.1228 22.101ZM14.4349 21.6493C14.2458 21.4529 14.0976 21.2212 13.9907 20.9522L13.6189 21.0998C13.7441 21.4148 13.9199 21.6911 14.1468 21.9267L14.4349 21.6493ZM13.991 20.953C13.8851 20.6826 13.8308 20.3837 13.8308 20.054H13.4308C13.4308 20.4283 13.4926 20.7774 13.6186 21.099L13.991 20.953ZM13.8308 20.054C13.8308 19.7242 13.8851 19.4277 13.9907 19.1618L13.6189 19.0142C13.4926 19.3323 13.4308 19.6797 13.4308 20.054H13.8308ZM13.9907 19.1618C14.0974 18.8931 14.2453 18.664 14.4336 18.4721L14.1481 18.1919C13.9204 18.424 13.7442 18.6989 13.6189 19.0142L13.9907 19.1618ZM14.4336 18.4721C14.6253 18.2767 14.8536 18.126 15.1207 18.0199L14.973 17.6481C14.6561 17.774 14.3804 17.9552 14.1481 18.1919L14.4336 18.4721ZM15.1228 18.019C15.3881 17.91 15.6839 17.854 16.0128 17.854V17.454C15.6377 17.454 15.2895 17.518 14.9708 17.649L15.1228 18.019ZM16.0128 17.854C16.3418 17.854 16.6352 17.91 16.8959 18.0186L17.0497 17.6494C16.7344 17.518 16.3878 17.454 16.0128 17.454V17.854ZM16.899 18.0199C17.1661 18.126 17.3944 18.2767 17.5861 18.4721L17.8716 18.1919C17.6393 17.9552 17.3636 17.774 17.0467 17.6481L16.899 18.0199ZM17.5874 18.4734C17.7792 18.6652 17.9285 18.8939 18.0349 19.1618L18.4067 19.0142C18.2811 18.6981 18.1024 18.4228 17.8702 18.1906L17.5874 18.4734ZM18.0349 19.1618C18.1406 19.4277 18.1948 19.7242 18.1948 20.054H18.5948C18.5948 19.6797 18.5331 19.3323 18.4067 19.0142L18.0349 19.1618ZM18.1948 20.054C18.1948 20.3837 18.1406 20.6826 18.0346 20.953L18.407 21.099C18.5331 20.7774 18.5948 20.4283 18.5948 20.054H18.1948ZM18.0349 20.9522C17.9284 21.2204 17.7787 21.4516 17.5861 21.6479L17.8716 21.9281C18.1029 21.6924 18.2812 21.4156 18.4067 21.0998L18.0349 20.9522ZM17.5874 21.6466C17.3951 21.8389 17.1656 21.9905 16.8968 22.101L17.0488 22.471C17.364 22.3415 17.6386 22.1611 17.8702 21.9294L17.5874 21.6466ZM16.8981 22.1005C16.6368 22.2057 16.3426 22.26 16.0128 22.26V22.66C16.387 22.66 16.7328 22.5983 17.0475 22.4715L16.8981 22.1005ZM16.0128 22.096C16.3927 22.096 16.7369 22.0083 17.0393 21.8277L16.8343 21.4843C16.6008 21.6237 16.329 21.696 16.0128 21.696V22.096ZM17.0412 21.8266C17.3389 21.6444 17.5733 21.3988 17.742 21.0925L17.3916 20.8995C17.2563 21.1452 17.0707 21.3396 16.8324 21.4854L17.0412 21.8266ZM17.7426 21.0914C17.9119 20.7795 17.9948 20.4322 17.9948 20.054H17.5948C17.5948 20.3718 17.5257 20.6525 17.391 20.9006L17.7426 21.0914ZM17.9948 20.054C17.9948 19.6759 17.9119 19.3301 17.742 19.0215L17.3916 19.2145C17.5257 19.4579 17.5948 19.7361 17.5948 20.054H17.9948ZM17.7426 19.0226C17.5738 18.7117 17.3388 18.4651 17.0393 18.2863L16.8343 18.6297C17.0708 18.7709 17.2558 18.9643 17.391 19.2134L17.7426 19.0226ZM17.0393 18.2863C16.7369 18.1057 16.3927 18.018 16.0128 18.018V18.418C16.329 18.418 16.6008 18.4903 16.8343 18.6297L17.0393 18.2863ZM16.0128 18.018C15.633 18.018 15.2888 18.1057 14.9863 18.2863L15.1913 18.6297C15.4249 18.4903 15.6967 18.418 16.0128 18.418V18.018ZM14.9863 18.2863C14.6868 18.4651 14.4518 18.7117 14.283 19.0226L14.6346 19.2134C14.7698 18.9643 14.9548 18.7709 15.1913 18.6297L14.9863 18.2863ZM14.2836 19.0215C14.1137 19.3301 14.0308 19.6759 14.0308 20.054H14.4308C14.4308 19.7361 14.4999 19.4579 14.634 19.2145L14.2836 19.0215ZM14.0308 20.054C14.0308 20.4322 14.1137 20.7795 14.283 21.0914L14.6346 20.9006C14.4999 20.6525 14.4308 20.3718 14.4308 20.054H14.0308ZM14.2836 21.0925C14.4523 21.3988 14.6867 21.6444 14.9844 21.8266L15.1932 21.4854C14.9549 21.3396 14.7693 21.1452 14.634 20.8995L14.2836 21.0925ZM14.9863 21.8277C15.2888 22.0083 15.633 22.096 16.0128 22.096V21.696C15.6967 21.696 15.4249 21.6237 15.1913 21.4843L14.9863 21.8277ZM19.6362 22.31L19.4899 22.4465L19.4948 22.4514L19.6362 22.31ZM19.6362 17.804L19.4948 17.6626L19.6362 17.804ZM20.0982 17.828L20.2583 17.7076L20.2512 17.6992L20.0982 17.828ZM22.7142 21.308L22.5543 21.4282L22.9142 21.9069V21.308H22.7142ZM22.8042 17.804L22.9408 17.9503L22.9456 17.9454L22.8042 17.804ZM23.2482 17.804L23.1019 17.9405L23.1068 17.9454L23.2482 17.804ZM22.8942 22.376L22.8114 22.5581L22.821 22.5624L22.831 22.5657L22.8942 22.376ZM22.7862 22.292L22.6263 22.4122L22.6283 22.4148L22.7862 22.292ZM20.1702 18.812L20.3301 18.6918L19.9702 18.2131V18.812H20.1702ZM20.0802 22.31L19.9387 22.1685L19.934 22.1735L20.0802 22.31ZM19.8582 22.2C19.8211 22.2 19.7986 22.1895 19.7776 22.1686L19.4948 22.4514C19.5938 22.5504 19.7194 22.6 19.8582 22.6V22.2ZM19.7824 22.1735C19.7636 22.1534 19.7522 22.1293 19.7522 22.088H19.3522C19.3522 22.2226 19.3968 22.3466 19.49 22.4465L19.7824 22.1735ZM19.7522 22.088V18.026H19.3522V22.088H19.7522ZM19.7522 18.026C19.7522 17.9778 19.7652 17.9578 19.7776 17.9454L19.4948 17.6626C19.3952 17.7622 19.3522 17.8902 19.3522 18.026H19.7522ZM19.7776 17.9454C19.7986 17.9244 19.8211 17.914 19.8582 17.914V17.514C19.7194 17.514 19.5938 17.5635 19.4948 17.6626L19.7776 17.9454ZM19.8582 17.914C19.8929 17.914 19.9177 17.9241 19.9452 17.9568L20.2512 17.6992C20.1507 17.5799 20.0155 17.514 19.8582 17.514V17.914ZM19.9383 17.9482L22.5543 21.4282L22.8741 21.1878L20.2581 17.7078L19.9383 17.9482ZM22.9142 21.308V18.026H22.5142V21.308H22.9142ZM22.9142 18.026C22.9142 17.982 22.9263 17.9636 22.9407 17.9502L22.6677 17.6578C22.5621 17.7564 22.5142 17.886 22.5142 18.026H22.9142ZM22.9456 17.9454C22.9666 17.9244 22.9891 17.914 23.0262 17.914V17.514C22.8874 17.514 22.7618 17.5635 22.6628 17.6626L22.9456 17.9454ZM23.0262 17.914C23.0702 17.914 23.0886 17.9261 23.102 17.9405L23.3944 17.6675C23.2958 17.5619 23.1662 17.514 23.0262 17.514V17.914ZM23.1068 17.9454C23.1192 17.9578 23.1322 17.9778 23.1322 18.026H23.5322C23.5322 17.8902 23.4892 17.7622 23.3896 17.6626L23.1068 17.9454ZM23.1322 18.026V22.088H23.5322V18.026H23.1322ZM23.1322 22.088C23.1322 22.1293 23.1208 22.1534 23.102 22.1735L23.3944 22.4465C23.4876 22.3466 23.5322 22.2226 23.5322 22.088H23.1322ZM23.102 22.1735C23.0886 22.1879 23.0702 22.2 23.0262 22.2V22.6C23.1662 22.6 23.2958 22.5521 23.3944 22.4465L23.102 22.1735ZM23.0262 22.2C23.0125 22.2 22.9902 22.1972 22.9575 22.1863L22.831 22.5657C22.8942 22.5868 22.9599 22.6 23.0262 22.6V22.2ZM22.977 22.1939C22.9606 22.1865 22.951 22.1781 22.9441 22.1692L22.6283 22.4148C22.6774 22.4779 22.7398 22.5255 22.8114 22.5581L22.977 22.1939ZM22.9461 22.1718L20.3301 18.6918L20.0103 18.9322L22.6263 22.4122L22.9461 22.1718ZM19.9702 18.812V22.088H20.3702V18.812H19.9702ZM19.9702 22.088C19.9702 22.1251 19.9598 22.1476 19.9388 22.1686L20.2216 22.4514C20.3207 22.3524 20.3702 22.2268 20.3702 22.088H19.9702ZM19.934 22.1735C19.9206 22.1879 19.9022 22.2 19.8582 22.2V22.6C19.9982 22.6 20.1278 22.5521 20.2264 22.4465L19.934 22.1735Z" fill="white"/>
</svg>
