<svg width="32" height="32" viewBox="0 0 32 32" fill="none" xmlns="http://www.w3.org/2000/svg">
<path d="M9.27852 2C8.28259 2 7.48584 2.79715 7.48584 3.79359V28.2064C7.48584 29.2028 8.28259 30 9.27852 30H26.7074C27.7033 30 28.5001 29.2028 28.5001 28.2064V8.97509L21.5285 2H9.27852Z" fill="#E2E5E7"/>
<path d="M23.2215 8.97509H28.5L21.5284 2V7.28114C21.4288 8.17794 22.2256 8.97509 23.2215 8.97509Z" fill="#B0B7BD"/>
<path d="M28.4005 14.1567L23.1221 8.87549H28.4005V14.1567Z" fill="#CAD1D8"/>
<path d="M24.9146 24.6191C24.9146 25.1173 24.5163 25.5159 24.0183 25.5159H4.89634C4.39837 25.5159 4 25.1173 4 24.6191V15.9501C4 15.4519 4.39837 15.0533 4.89634 15.0533H24.0183C24.5163 15.0533 24.9146 15.4519 24.9146 15.9501V24.6191Z" fill="#F15642"/>
<path d="M24.1179 25.5159H7.48584V26.4127H24.0184C24.5163 26.4127 24.9147 26.0141 24.9147 25.5159V24.6191C24.9147 25.1173 24.5163 25.5159 24.1179 25.5159Z" fill="#CAD1D8"/>
<path d="M9.59276 22.3452C9.50476 22.3452 9.43076 22.3152 9.37076 22.2552C9.31076 22.1952 9.28076 22.1212 9.28076 22.0332V17.9712C9.28076 17.8792 9.31076 17.8052 9.37076 17.7492C9.43076 17.6892 9.50476 17.6592 9.59276 17.6592H10.7928C11.0928 17.6592 11.3588 17.7252 11.5908 17.8572C11.8228 17.9892 12.0028 18.1732 12.1308 18.4092C12.2628 18.6412 12.3288 18.9092 12.3288 19.2132C12.3288 19.5052 12.2628 19.7652 12.1308 19.9932C12.0028 20.2212 11.8228 20.3992 11.5908 20.5272C11.3588 20.6552 11.0928 20.7192 10.7928 20.7192H9.90476V22.0332C9.90476 22.1212 9.87476 22.1952 9.81476 22.2552C9.75876 22.3152 9.68476 22.3452 9.59276 22.3452ZM9.90476 20.1432H10.7928C11.0648 20.1432 11.2888 20.0572 11.4648 19.8852C11.6408 19.7092 11.7288 19.4852 11.7288 19.2132C11.7288 19.0212 11.6888 18.8532 11.6088 18.7092C11.5288 18.5612 11.4188 18.4452 11.2788 18.3612C11.1388 18.2772 10.9768 18.2352 10.7928 18.2352H9.90476V20.1432ZM13.511 22.3452C13.423 22.3452 13.349 22.3152 13.289 22.2552C13.229 22.1952 13.199 22.1212 13.199 22.0332V17.9712C13.199 17.8792 13.229 17.8052 13.289 17.7492C13.349 17.6892 13.423 17.6592 13.511 17.6592H14.597C14.941 17.6592 15.253 17.7172 15.533 17.8332C15.817 17.9452 16.063 18.1072 16.271 18.3192C16.479 18.5272 16.639 18.7732 16.751 19.0572C16.863 19.3412 16.919 19.6552 16.919 19.9992C16.919 20.3432 16.863 20.6592 16.751 20.9472C16.639 21.2312 16.479 21.4792 16.271 21.6912C16.063 21.8992 15.817 22.0612 15.533 22.1772C15.253 22.2892 14.941 22.3452 14.597 22.3452H13.511ZM13.823 21.7932H14.597C14.933 21.7932 15.229 21.7172 15.485 21.5652C15.745 21.4092 15.949 21.1972 16.097 20.9292C16.245 20.6572 16.319 20.3472 16.319 19.9992C16.319 19.6472 16.245 19.3372 16.097 19.0692C15.949 18.8012 15.745 18.5912 15.485 18.4392C15.229 18.2872 14.933 18.2112 14.597 18.2112H13.823V21.7932ZM18.0123 22.3452C17.9243 22.3452 17.8503 22.3152 17.7903 22.2552C17.7303 22.1952 17.7003 22.1212 17.7003 22.0332V17.9712C17.7003 17.8792 17.7303 17.8052 17.7903 17.7492C17.8503 17.6892 17.9243 17.6592 18.0123 17.6592H20.7243C20.8163 17.6592 20.8903 17.6872 20.9463 17.7432C21.0023 17.7952 21.0303 17.8652 21.0303 17.9532C21.0303 18.0372 21.0023 18.1052 20.9463 18.1572C20.8903 18.2092 20.8163 18.2352 20.7243 18.2352H18.3243V19.6932H20.0463C20.1383 19.6932 20.2123 19.7212 20.2683 19.7772C20.3243 19.8292 20.3523 19.8972 20.3523 19.9812C20.3523 20.0652 20.3243 20.1352 20.2683 20.1912C20.2123 20.2432 20.1383 20.2692 20.0463 20.2692H18.3243V22.0332C18.3243 22.1212 18.2943 22.1952 18.2343 22.2552C18.1743 22.3152 18.1003 22.3452 18.0123 22.3452Z" fill="white"/>
<path d="M9.37057 22.2552L9.22915 22.3966L9.37057 22.2552ZM9.37057 17.7492L9.50712 17.8955L9.512 17.8906L9.37057 17.7492ZM11.5906 17.8572L11.4917 18.031L11.5906 17.8572ZM12.1306 18.4092L11.9547 18.5046L11.9567 18.5081L12.1306 18.4092ZM12.1306 19.9932L11.9575 19.893L11.9562 19.8953L12.1306 19.9932ZM11.5906 20.5272L11.6872 20.7023L11.5906 20.5272ZM9.90457 20.7192V20.5192H9.70457V20.7192H9.90457ZM9.81457 22.2552L9.67307 22.1137L9.66836 22.1187L9.81457 22.2552ZM9.90457 20.1432H9.70457V20.3432H9.90457V20.1432ZM11.4646 19.8852L11.6044 20.0282L11.606 20.0266L11.4646 19.8852ZM11.6086 18.7092L11.4326 18.8043L11.4337 18.8063L11.6086 18.7092ZM9.90457 18.2352V18.0352H9.70457V18.2352H9.90457ZM9.59257 22.1452C9.55542 22.1452 9.53296 22.1347 9.512 22.1138L9.22915 22.3966C9.32819 22.4956 9.45373 22.5452 9.59257 22.5452V22.1452ZM9.512 22.1138C9.49103 22.0928 9.48057 22.0703 9.48057 22.0332H9.08057C9.08057 22.172 9.13012 22.2976 9.22915 22.3966L9.512 22.1138ZM9.48057 22.0332V17.9712H9.08057V22.0332H9.48057ZM9.48057 17.9712C9.48057 17.9272 9.49268 17.9088 9.50704 17.8954L9.23411 17.603C9.12847 17.7016 9.08057 17.8312 9.08057 17.9712H9.48057ZM9.512 17.8906C9.53296 17.8696 9.55542 17.8592 9.59257 17.8592V17.4592C9.45373 17.4592 9.32819 17.5087 9.22915 17.6078L9.512 17.8906ZM9.59257 17.8592H10.7926V17.4592H9.59257V17.8592ZM10.7926 17.8592C11.0623 17.8592 11.2934 17.9182 11.4917 18.031L11.6895 17.6834C11.4237 17.5322 11.1229 17.4592 10.7926 17.4592V17.8592ZM11.4917 18.031C11.691 18.1444 11.8445 18.3012 11.9548 18.5045L12.3064 18.3138C12.1607 18.0452 11.9541 17.8339 11.6895 17.6834L11.4917 18.031ZM11.9567 18.5081C12.0693 18.706 12.1286 18.939 12.1286 19.2132H12.5286C12.5286 18.8794 12.4558 18.5764 12.3044 18.3103L11.9567 18.5081ZM12.1286 19.2132C12.1286 19.4739 12.07 19.6986 11.9575 19.893L12.3036 20.0934C12.4551 19.8317 12.5286 19.5365 12.5286 19.2132H12.1286ZM11.9562 19.8953C11.8467 20.0903 11.6938 20.2418 11.4939 20.3521L11.6872 20.7023C11.9513 20.5566 12.1585 20.352 12.305 20.0911L11.9562 19.8953ZM11.4939 20.3521C11.2953 20.4617 11.0633 20.5192 10.7926 20.5192V20.9192C11.1218 20.9192 11.4219 20.8487 11.6872 20.7023L11.4939 20.3521ZM10.7926 20.5192H9.90457V20.9192H10.7926V20.5192ZM9.70457 20.7192V22.0332H10.1046V20.7192H9.70457ZM9.70457 22.0332C9.70457 22.0703 9.69412 22.0928 9.67315 22.1138L9.956 22.3966C10.055 22.2976 10.1046 22.172 10.1046 22.0332H9.70457ZM9.66836 22.1187C9.65496 22.1331 9.63655 22.1452 9.59257 22.1452V22.5452C9.7326 22.5452 9.86219 22.4973 9.96079 22.3916L9.66836 22.1187ZM9.90457 20.3432H10.7926V19.9432H9.90457V20.3432ZM10.7926 20.3432C11.1108 20.3432 11.3869 20.2407 11.6044 20.0282L11.3248 19.7421C11.1902 19.8736 11.0183 19.9432 10.7926 19.9432V20.3432ZM11.606 20.0266C11.8232 19.8094 11.9286 19.5328 11.9286 19.2132H11.5286C11.5286 19.4376 11.458 19.6089 11.3231 19.7438L11.606 20.0266ZM11.9286 19.2132C11.9286 18.9929 11.8825 18.7904 11.7834 18.6121L11.4337 18.8063C11.4947 18.916 11.5286 19.0495 11.5286 19.2132H11.9286ZM11.7845 18.6141C11.688 18.4355 11.5532 18.2927 11.3815 18.1897L11.1757 18.5327C11.2839 18.5976 11.3691 18.6868 11.4326 18.8043L11.7845 18.6141ZM11.3815 18.1897C11.2066 18.0848 11.0081 18.0352 10.7926 18.0352V18.4352C10.945 18.4352 11.0706 18.4696 11.1757 18.5327L11.3815 18.1897ZM10.7926 18.0352H9.90457V18.4352H10.7926V18.0352ZM9.70457 18.2352V20.1432H10.1046V18.2352H9.70457ZM13.2888 22.2552L13.1474 22.3966L13.2888 22.2552ZM13.2888 17.7492L13.4254 17.8955L13.4303 17.8906L13.2888 17.7492ZM15.5328 17.8332L15.4563 18.018L15.4595 18.0192L15.5328 17.8332ZM16.2708 18.3192L16.1281 18.4593L16.1294 18.4606L16.2708 18.3192ZM16.7508 19.0572L16.9369 18.9838L16.7508 19.0572ZM16.7508 20.9472L16.9369 21.0206L16.9372 21.0197L16.7508 20.9472ZM16.2708 21.6912L16.4123 21.8326L16.4136 21.8313L16.2708 21.6912ZM15.5328 22.1772L15.6071 22.3629L15.6085 22.3623L15.5328 22.1772ZM13.8228 21.7932H13.6228V21.9932H13.8228V21.7932ZM15.4848 21.5652L15.587 21.7372L15.5877 21.7367L15.4848 21.5652ZM16.0968 20.9292L16.2719 21.0259L16.2725 21.0248L16.0968 20.9292ZM16.0968 19.0692L15.9218 19.1659L16.0968 19.0692ZM15.4848 18.4392L15.3827 18.6112L15.3839 18.6118L15.4848 18.4392ZM13.8228 18.2112V18.0112H13.6228V18.2112H13.8228ZM13.5108 22.1452C13.4737 22.1452 13.4512 22.1347 13.4303 22.1138L13.1474 22.3966C13.2465 22.4956 13.372 22.5452 13.5108 22.5452V22.1452ZM13.4303 22.1138C13.4093 22.0928 13.3988 22.0703 13.3988 22.0332H12.9988C12.9988 22.172 13.0484 22.2976 13.1474 22.3966L13.4303 22.1138ZM13.3988 22.0332V17.9712H12.9988V22.0332H13.3988ZM13.3988 17.9712C13.3988 17.9272 13.411 17.9088 13.4253 17.8954L13.1524 17.603C13.0467 17.7016 12.9988 17.8312 12.9988 17.9712H13.3988ZM13.4303 17.8906C13.4512 17.8696 13.4737 17.8592 13.5108 17.8592V17.4592C13.372 17.4592 13.2465 17.5087 13.1474 17.6078L13.4303 17.8906ZM13.5108 17.8592H14.5968V17.4592H13.5108V17.8592ZM14.5968 17.8592C14.9181 17.8592 15.2036 17.9133 15.4563 18.018L15.6094 17.6484C15.3021 17.5211 14.9636 17.4592 14.5968 17.4592V17.8592ZM15.4595 18.0192C15.7181 18.1212 15.9403 18.2678 16.1281 18.4593L16.4136 18.1791C16.1854 17.9465 15.9156 17.7691 15.6062 17.6471L15.4595 18.0192ZM16.1294 18.4606C16.3173 18.6485 16.4625 18.8711 16.5648 19.1306L16.9369 18.9838C16.8152 18.6753 16.6404 18.4059 16.4123 18.1778L16.1294 18.4606ZM16.5648 19.1306C16.6665 19.3884 16.7188 19.6771 16.7188 19.9992H17.1188C17.1188 19.6332 17.0592 19.294 16.9369 18.9838L16.5648 19.1306ZM16.7188 19.9992C16.7188 20.3212 16.6665 20.6123 16.5644 20.8747L16.9372 21.0197C17.0592 20.7061 17.1188 20.3652 17.1188 19.9992H16.7188ZM16.5648 20.8738C16.4623 21.1336 16.3168 21.3588 16.1281 21.5511L16.4136 21.8313C16.6409 21.5996 16.8154 21.3288 16.9369 21.0206L16.5648 20.8738ZM16.1294 21.5498C15.941 21.7382 15.7177 21.8857 15.4572 21.992L15.6085 22.3623C15.916 22.2367 16.1847 22.0602 16.4123 21.8326L16.1294 21.5498ZM15.4586 21.9915C15.2053 22.0928 14.919 22.1452 14.5968 22.1452V22.5452C14.9627 22.5452 15.3004 22.4856 15.6071 22.3629L15.4586 21.9915ZM14.5968 22.1452H13.5108V22.5452H14.5968V22.1452ZM13.8228 21.9932H14.5968V21.5932H13.8228V21.9932ZM14.5968 21.9932C14.9641 21.9932 15.2962 21.9098 15.587 21.7372L15.3827 21.3932C15.1615 21.5246 14.9016 21.5932 14.5968 21.5932V21.9932ZM15.5877 21.7367C15.8783 21.5624 16.1071 21.3244 16.2719 21.0259L15.9218 20.8325C15.7906 21.07 15.6114 21.256 15.3819 21.3937L15.5877 21.7367ZM16.2725 21.0248C16.4384 20.72 16.5188 20.3764 16.5188 19.9992H16.1188C16.1188 20.318 16.0513 20.5944 15.9212 20.8336L16.2725 21.0248ZM16.5188 19.9992C16.5188 19.6185 16.4386 19.2743 16.2719 18.9725L15.9218 19.1659C16.0511 19.4001 16.1188 19.6759 16.1188 19.9992H16.5188ZM16.2719 18.9725C16.1068 18.6735 15.8774 18.437 15.5858 18.2665L15.3839 18.6118C15.6123 18.7453 15.7909 18.9289 15.9218 19.1659L16.2719 18.9725ZM15.587 18.2672C15.2962 18.0946 14.9641 18.0112 14.5968 18.0112V18.4112C14.9016 18.4112 15.1615 18.4798 15.3827 18.6112L15.587 18.2672ZM14.5968 18.0112H13.8228V18.4112H14.5968V18.0112ZM13.6228 18.2112V21.7932H14.0228V18.2112H13.6228ZM17.7901 17.7492L17.9266 17.8955L17.9315 17.8906L17.7901 17.7492ZM20.9461 17.7432L20.8045 17.8847L20.81 17.8897L20.9461 17.7432ZM20.9461 18.1572L21.0822 18.3037L20.9461 18.1572ZM18.3241 18.2352V18.0352H18.1241V18.2352H18.3241ZM18.3241 19.6932H18.1241V19.8932H18.3241V19.6932ZM20.2681 19.7772L20.1265 19.9187L20.132 19.9237L20.2681 19.7772ZM20.2681 20.1912L20.4042 20.3378L20.4095 20.3326L20.2681 20.1912ZM18.3241 20.2692V20.0692H18.1241V20.2692H18.3241ZM18.2341 22.2552L18.0926 22.1138L18.2341 22.2552ZM18.0121 22.1452C17.9749 22.1452 17.9525 22.1347 17.9315 22.1138L17.6486 22.3966C17.7477 22.4956 17.8732 22.5452 18.0121 22.5452V22.1452ZM17.9315 22.1138C17.9105 22.0928 17.9001 22.0703 17.9001 22.0332H17.5001C17.5001 22.172 17.5496 22.2976 17.6486 22.3966L17.9315 22.1138ZM17.9001 22.0332V17.9712H17.5001V22.0332H17.9001ZM17.9001 17.9712C17.9001 17.9272 17.9122 17.9088 17.9265 17.8954L17.6536 17.603C17.548 17.7016 17.5001 17.8312 17.5001 17.9712H17.9001ZM17.9315 17.8906C17.9525 17.8696 17.9749 17.8592 18.0121 17.8592V17.4592C17.8732 17.4592 17.7477 17.5087 17.6486 17.6078L17.9315 17.8906ZM18.0121 17.8592H20.7241V17.4592H18.0121V17.8592ZM20.7241 17.8592C20.7723 17.8592 20.7922 17.8722 20.8046 17.8846L21.0875 17.6018C20.9879 17.5022 20.8598 17.4592 20.7241 17.4592V17.8592ZM20.81 17.8897C20.8189 17.898 20.8301 17.9116 20.8301 17.9532H21.2301C21.2301 17.8188 21.1852 17.6923 21.0822 17.5966L20.81 17.8897ZM20.8301 17.9532C20.8301 17.9877 20.8209 18.0004 20.81 18.0106L21.0822 18.3037C21.1832 18.2099 21.2301 18.0867 21.2301 17.9532H20.8301ZM20.81 18.0106C20.7982 18.0215 20.7765 18.0352 20.7241 18.0352V18.4352C20.8557 18.4352 20.9819 18.3968 21.0822 18.3037L20.81 18.0106ZM20.7241 18.0352H18.3241V18.4352H20.7241V18.0352ZM18.1241 18.2352V19.6932H18.5241V18.2352H18.1241ZM18.3241 19.8932H20.0461V19.4932H18.3241V19.8932ZM20.0461 19.8932C20.0943 19.8932 20.1142 19.9062 20.1266 19.9186L20.4095 19.6358C20.3099 19.5362 20.1818 19.4932 20.0461 19.4932V19.8932ZM20.132 19.9237C20.1429 19.9339 20.1521 19.9467 20.1521 19.9812H20.5521C20.5521 19.8477 20.5052 19.7244 20.4042 19.6306L20.132 19.9237ZM20.1521 19.9812C20.1521 20.0157 20.1427 20.0337 20.1266 20.0498L20.4095 20.3326C20.5054 20.2366 20.5521 20.1147 20.5521 19.9812H20.1521ZM20.132 20.0446C20.1202 20.0555 20.0985 20.0692 20.0461 20.0692V20.4692C20.1777 20.4692 20.3039 20.4308 20.4042 20.3377L20.132 20.0446ZM20.0461 20.0692H18.3241V20.4692H20.0461V20.0692ZM18.1241 20.2692V22.0332H18.5241V20.2692H18.1241ZM18.1241 22.0332C18.1241 22.0703 18.1136 22.0928 18.0926 22.1138L18.3755 22.3966C18.4745 22.2976 18.5241 22.172 18.5241 22.0332H18.1241ZM18.0926 22.1138C18.0717 22.1347 18.0492 22.1452 18.0121 22.1452V22.5452C18.1509 22.5452 18.2765 22.4956 18.3755 22.3966L18.0926 22.1138Z" fill="white"/>
</svg>
