<svg width="32" height="32" viewBox="0 0 32 32" fill="none" xmlns="http://www.w3.org/2000/svg">
<path d="M9.27852 2C8.28259 2 7.48584 2.79715 7.48584 3.79359V28.2064C7.48584 29.2028 8.28259 30 9.27852 30H26.7073C27.7033 30 28.5 29.2028 28.5 28.2064V8.97509L21.5285 2H9.27852Z" fill="#E2E5E7"/>
<path d="M23.2215 8.97509H28.5L21.5284 2V7.28114C21.4288 8.17794 22.2256 8.97509 23.2215 8.97509Z" fill="#B0B7BD"/>
<path d="M28.4005 14.2562L23.2217 8.9751H28.5001V14.2562H28.4005Z" fill="#CAD1D8"/>
<path d="M24.9146 24.6655C24.9146 25.1637 24.5162 25.5623 24.0183 25.5623H4.89634C4.39837 25.5623 4 25.1637 4 24.6655V15.8968C4 15.3986 4.39837 15 4.89634 15H24.0183C24.5162 15 24.9146 15.3986 24.9146 15.8968V24.6655Z" fill="#50BEE8"/>
<path d="M24.1179 25.6157H7.48584V26.5125H24.0183C24.5163 26.5125 24.9147 26.1139 24.9147 25.6157V24.7189C24.9147 25.2171 24.5163 25.6157 24.1179 25.6157Z" fill="#CAD1D8"/>
<path d="M9.312 22.4C9.224 22.4 9.15 22.37 9.09 22.31C9.03 22.25 9 22.176 9 22.088V18.026C9 17.934 9.03 17.86 9.09 17.804C9.15 17.744 9.224 17.714 9.312 17.714H10.512C10.812 17.714 11.078 17.78 11.31 17.912C11.542 18.044 11.722 18.228 11.85 18.464C11.982 18.696 12.048 18.964 12.048 19.268C12.048 19.56 11.982 19.82 11.85 20.048C11.722 20.276 11.542 20.454 11.31 20.582C11.078 20.71 10.812 20.774 10.512 20.774H9.624V22.088C9.624 22.176 9.594 22.25 9.534 22.31C9.478 22.37 9.404 22.4 9.312 22.4ZM9.624 20.198H10.512C10.784 20.198 11.008 20.112 11.184 19.94C11.36 19.764 11.448 19.54 11.448 19.268C11.448 19.076 11.408 18.908 11.328 18.764C11.248 18.616 11.138 18.5 10.998 18.416C10.858 18.332 10.696 18.29 10.512 18.29H9.624V20.198ZM14.4063 22.46C14.1503 22.46 13.9063 22.42 13.6743 22.34C13.4423 22.26 13.2403 22.148 13.0683 22.004C12.8963 21.86 12.7703 21.694 12.6903 21.506C12.6503 21.422 12.6503 21.344 12.6903 21.272C12.7343 21.2 12.8063 21.154 12.9063 21.134C12.9783 21.118 13.0483 21.13 13.1163 21.17C13.1883 21.206 13.2423 21.262 13.2783 21.338C13.3263 21.438 13.4043 21.53 13.5123 21.614C13.6243 21.698 13.7583 21.766 13.9143 21.818C14.0703 21.87 14.2343 21.896 14.4063 21.896C14.5983 21.896 14.7743 21.866 14.9343 21.806C15.0983 21.746 15.2303 21.66 15.3303 21.548C15.4303 21.432 15.4803 21.29 15.4803 21.122C15.4803 20.91 15.3963 20.72 15.2283 20.552C15.0643 20.384 14.7923 20.28 14.4123 20.24C13.9163 20.192 13.5263 20.046 13.2423 19.802C12.9583 19.558 12.8163 19.256 12.8163 18.896C12.8163 18.632 12.8903 18.408 13.0383 18.224C13.1863 18.04 13.3863 17.9 13.6383 17.804C13.8943 17.708 14.1783 17.66 14.4903 17.66C14.8543 17.66 15.1523 17.734 15.3843 17.882C15.6163 18.03 15.8083 18.226 15.9603 18.47C16.0163 18.558 16.0383 18.642 16.0263 18.722C16.0183 18.798 15.9803 18.858 15.9123 18.902C15.8363 18.95 15.7543 18.96 15.6663 18.932C15.5783 18.904 15.5123 18.852 15.4683 18.776C15.3683 18.604 15.2383 18.47 15.0783 18.374C14.9223 18.278 14.7203 18.228 14.4723 18.224C14.1763 18.22 13.9283 18.276 13.7283 18.392C13.5283 18.504 13.4283 18.678 13.4283 18.914C13.4283 19.034 13.4583 19.15 13.5183 19.262C13.5823 19.37 13.6963 19.464 13.8603 19.544C14.0283 19.624 14.2683 19.68 14.5803 19.712C15.0563 19.76 15.4263 19.906 15.6903 20.15C15.9583 20.39 16.0923 20.708 16.0923 21.104C16.0923 21.332 16.0443 21.53 15.9483 21.698C15.8563 21.866 15.7303 22.008 15.5703 22.124C15.4143 22.236 15.2343 22.32 15.0303 22.376C14.8303 22.432 14.6223 22.46 14.4063 22.46ZM17.5411 22.4C17.4531 22.4 17.3791 22.37 17.3191 22.31C17.2591 22.25 17.2291 22.176 17.2291 22.088V18.026C17.2291 17.934 17.2591 17.86 17.3191 17.804C17.3791 17.744 17.4531 17.714 17.5411 17.714H18.6271C18.9711 17.714 19.2831 17.772 19.5631 17.888C19.8471 18 20.0931 18.162 20.3011 18.374C20.5091 18.582 20.6691 18.828 20.7811 19.112C20.8931 19.396 20.9491 19.71 20.9491 20.054C20.9491 20.398 20.8931 20.714 20.7811 21.002C20.6691 21.286 20.5091 21.534 20.3011 21.746C20.0931 21.954 19.8471 22.116 19.5631 22.232C19.2831 22.344 18.9711 22.4 18.6271 22.4H17.5411ZM17.8531 21.848H18.6271C18.9631 21.848 19.2591 21.772 19.5151 21.62C19.7751 21.464 19.9791 21.252 20.1271 20.984C20.2751 20.712 20.3491 20.402 20.3491 20.054C20.3491 19.702 20.2751 19.392 20.1271 19.124C19.9791 18.856 19.7751 18.646 19.5151 18.494C19.2591 18.342 18.9631 18.266 18.6271 18.266H17.8531V21.848Z" fill="white"/>
<path d="M9.0898 22.31L8.94838 22.4514L9.0898 22.31ZM9.0898 17.804L9.22635 17.9503L9.23123 17.9454L9.0898 17.804ZM11.3098 17.912L11.2109 18.0858L11.3098 17.912ZM11.8498 18.464L11.674 18.5594L11.676 18.5629L11.8498 18.464ZM11.8498 20.048L11.6767 19.9478L11.6754 19.9501L11.8498 20.048ZM11.3098 20.582L11.4064 20.7571L11.3098 20.582ZM9.62381 20.774V20.574H9.4238V20.774H9.62381ZM9.5338 22.31L9.3923 22.1685L9.38759 22.1735L9.5338 22.31ZM9.62381 20.198H9.4238V20.398H9.62381V20.198ZM11.1838 19.94L11.3236 20.083L11.3252 20.0814L11.1838 19.94ZM11.3278 18.764L11.1518 18.8591L11.153 18.8611L11.3278 18.764ZM9.62381 18.29V18.09H9.4238V18.29H9.62381ZM9.3118 22.2C9.27465 22.2 9.2522 22.1895 9.23123 22.1686L8.94838 22.4514C9.04741 22.5504 9.17296 22.6 9.3118 22.6V22.2ZM9.23123 22.1686C9.21027 22.1476 9.1998 22.1251 9.1998 22.088H8.7998C8.7998 22.2268 8.84935 22.3524 8.94838 22.4514L9.23123 22.1686ZM9.1998 22.088V18.026H8.7998V22.088H9.1998ZM9.1998 18.026C9.1998 17.982 9.21191 17.9636 9.22627 17.9502L8.95334 17.6578C8.8477 17.7564 8.7998 17.886 8.7998 18.026H9.1998ZM9.23123 17.9454C9.2522 17.9244 9.27465 17.914 9.3118 17.914V17.514C9.17296 17.514 9.04741 17.5635 8.94838 17.6626L9.23123 17.9454ZM9.3118 17.914H10.5118V17.514H9.3118V17.914ZM10.5118 17.914C10.7815 17.914 11.0126 17.973 11.2109 18.0858L11.4087 17.7382C11.143 17.587 10.8421 17.514 10.5118 17.514V17.914ZM11.2109 18.0858C11.4102 18.1992 11.5637 18.356 11.674 18.5593L12.0256 18.3686C11.8799 18.1 11.6734 17.8887 11.4087 17.7382L11.2109 18.0858ZM11.676 18.5629C11.7886 18.7608 11.8478 18.9938 11.8478 19.268H12.2478C12.2478 18.9342 12.1751 18.6312 12.0236 18.3651L11.676 18.5629ZM11.8478 19.268C11.8478 19.5287 11.7892 19.7535 11.6767 19.9478L12.0229 20.1482C12.1744 19.8865 12.2478 19.5913 12.2478 19.268H11.8478ZM11.6754 19.9501C11.5659 20.1452 11.413 20.2966 11.2132 20.4069L11.4064 20.7571C11.6706 20.6114 11.8777 20.4068 12.0242 20.1459L11.6754 19.9501ZM11.2132 20.4069C11.0145 20.5165 10.7825 20.574 10.5118 20.574V20.974C10.8411 20.974 11.1411 20.9035 11.4064 20.7571L11.2132 20.4069ZM10.5118 20.574H9.62381V20.974H10.5118V20.574ZM9.4238 20.774V22.088H9.8238V20.774H9.4238ZM9.4238 22.088C9.4238 22.1251 9.41335 22.1476 9.39238 22.1686L9.67522 22.4514C9.77426 22.3524 9.8238 22.2268 9.8238 22.088H9.4238ZM9.38759 22.1735C9.37419 22.1879 9.35577 22.2 9.3118 22.2V22.6C9.45183 22.6 9.58141 22.5521 9.68001 22.4465L9.38759 22.1735ZM9.62381 20.398H10.5118V19.998H9.62381V20.398ZM10.5118 20.398C10.83 20.398 11.1061 20.2955 11.3236 20.083L11.044 19.797C10.9095 19.9284 10.7376 19.998 10.5118 19.998V20.398ZM11.3252 20.0814C11.5424 19.8642 11.6478 19.5876 11.6478 19.268H11.2478C11.2478 19.4924 11.1772 19.6637 11.0424 19.7986L11.3252 20.0814ZM11.6478 19.268C11.6478 19.0477 11.6017 18.8452 11.5026 18.6669L11.153 18.8611C11.2139 18.9708 11.2478 19.1043 11.2478 19.268H11.6478ZM11.5037 18.6689C11.4072 18.4903 11.2724 18.3475 11.1007 18.2445L10.8949 18.5875C11.0032 18.6525 11.0884 18.7416 11.1519 18.8591L11.5037 18.6689ZM11.1007 18.2445C10.9258 18.1396 10.7273 18.09 10.5118 18.09V18.49C10.6643 18.49 10.7898 18.5244 10.8949 18.5875L11.1007 18.2445ZM10.5118 18.09H9.62381V18.49H10.5118V18.09ZM9.4238 18.29V20.198H9.8238V18.29H9.4238ZM13.6741 22.34L13.7393 22.1509L13.6741 22.34ZM13.0681 22.004L12.9397 22.1573L13.0681 22.004ZM12.6901 21.506L12.8743 21.4276L12.8707 21.42L12.6901 21.506ZM12.6901 21.272L12.5193 21.1676L12.5153 21.1749L12.6901 21.272ZM12.9061 21.134L12.9453 21.3302L12.9495 21.3292L12.9061 21.134ZM13.1161 21.17L13.0144 21.3428L13.0266 21.3489L13.1161 21.17ZM13.2781 21.338L13.0973 21.4236L13.0978 21.4245L13.2781 21.338ZM13.5121 21.614L13.3893 21.7719L13.3921 21.774L13.5121 21.614ZM13.9141 21.818L13.8508 22.0077L13.9141 21.818ZM14.9341 21.806L14.8654 21.6182L14.8639 21.6187L14.9341 21.806ZM15.3301 21.548L15.4793 21.6812L15.4816 21.6786L15.3301 21.548ZM15.2281 20.552L15.085 20.6917L15.0867 20.6934L15.2281 20.552ZM14.4121 20.24L14.433 20.0411L14.4313 20.0409L14.4121 20.24ZM13.2421 19.802L13.3724 19.6503L13.2421 19.802ZM13.6381 17.804L13.5679 17.6167L13.5669 17.6171L13.6381 17.804ZM15.3841 17.882L15.4916 17.7134L15.3841 17.882ZM15.9601 18.47L15.7903 18.5757L15.7914 18.5774L15.9601 18.47ZM16.0261 18.722L15.8281 18.6923L15.8272 18.7011L16.0261 18.722ZM15.9121 18.902L16.0189 19.0711L16.0207 19.0699L15.9121 18.902ZM15.6661 18.932L15.6054 19.1226L15.6661 18.932ZM15.4681 18.776L15.6412 18.6758L15.641 18.6755L15.4681 18.776ZM15.0781 18.374L14.9733 18.5443L14.9752 18.5455L15.0781 18.374ZM14.4721 18.224L14.4753 18.024H14.4748L14.4721 18.224ZM13.7281 18.392L13.8258 18.5665L13.8284 18.565L13.7281 18.392ZM13.5181 19.262L13.3416 19.3565L13.346 19.364L13.5181 19.262ZM13.8601 19.544L13.7724 19.7238L13.7741 19.7246L13.8601 19.544ZM14.5801 19.712L14.5597 19.911H14.56L14.5801 19.712ZM15.6901 20.15L15.5543 20.2969L15.5567 20.299L15.6901 20.15ZM15.9481 21.698L15.7744 21.5987L15.7727 21.6019L15.9481 21.698ZM15.5701 22.124L15.6867 22.2865L15.6875 22.2859L15.5701 22.124ZM15.0301 22.376L14.9771 22.1831L14.9762 22.1834L15.0301 22.376ZM14.4061 22.26C14.1713 22.26 13.9494 22.2234 13.7393 22.1509L13.6089 22.5291C13.8628 22.6166 14.1289 22.66 14.4061 22.66V22.26ZM13.7393 22.1509C13.5282 22.0781 13.3481 21.9776 13.1965 21.8506L12.9397 22.1573C13.1321 22.3184 13.356 22.4419 13.6089 22.5291L13.7393 22.1509ZM13.1965 21.8506C13.0463 21.7249 12.9406 21.5839 12.8741 21.4277L12.5061 21.5843C12.5996 21.8041 12.7459 21.9951 12.9397 22.1573L13.1965 21.8506ZM12.8707 21.42C12.861 21.3997 12.8601 21.3886 12.8601 21.3845C12.8601 21.3814 12.8605 21.3771 12.8649 21.3691L12.5153 21.1749C12.4394 21.3114 12.4459 21.4583 12.5095 21.592L12.8707 21.42ZM12.8607 21.3763C12.8697 21.3617 12.8877 21.3416 12.9453 21.3301L12.8669 20.9379C12.7245 20.9663 12.5985 21.0383 12.5194 21.1677L12.8607 21.3763ZM12.9495 21.3292C12.9684 21.325 12.987 21.3261 13.0147 21.3424L13.2175 20.9976C13.1092 20.9339 12.9878 20.911 12.8627 20.9388L12.9495 21.3292ZM13.0266 21.3489C13.0567 21.3639 13.0796 21.3861 13.0973 21.4236L13.4588 21.2524C13.4046 21.1379 13.3194 21.0481 13.2055 20.9911L13.0266 21.3489ZM13.0978 21.4245C13.1619 21.5582 13.2625 21.6732 13.3893 21.7719L13.6349 21.4561C13.5457 21.3868 13.4902 21.3178 13.4584 21.2514L13.0978 21.4245ZM13.3921 21.774C13.524 21.8729 13.6779 21.9501 13.8508 22.0077L13.9773 21.6283C13.8383 21.5819 13.7242 21.5231 13.6321 21.454L13.3921 21.774ZM13.8508 22.0077C14.0282 22.0668 14.2136 22.096 14.4061 22.096V21.696C14.2546 21.696 14.112 21.6732 13.9773 21.6283L13.8508 22.0077ZM14.4061 22.096C14.6191 22.096 14.8193 22.0627 15.0043 21.9933L14.8639 21.6187C14.7289 21.6693 14.577 21.696 14.4061 21.696V22.096ZM15.0028 21.9938C15.1926 21.9244 15.354 21.8215 15.4793 21.6812L15.1809 21.4148C15.1061 21.4985 15.0035 21.5676 14.8654 21.6182L15.0028 21.9938ZM15.4816 21.6786C15.616 21.5227 15.6801 21.3329 15.6801 21.122H15.2801C15.2801 21.2471 15.2442 21.3413 15.1786 21.4174L15.4816 21.6786ZM15.6801 21.122C15.6801 20.8503 15.5701 20.6111 15.3695 20.4106L15.0867 20.6934C15.2221 20.8289 15.2801 20.9696 15.2801 21.122H15.6801ZM15.3712 20.4123C15.1596 20.1956 14.8323 20.0831 14.433 20.0411L14.3911 20.4389C14.7519 20.4769 14.9685 20.5724 15.085 20.6917L15.3712 20.4123ZM14.4313 20.0409C13.963 19.9956 13.6163 19.8598 13.3724 19.6503L13.1117 19.9537C13.4359 20.2322 13.8692 20.3884 14.3928 20.4391L14.4313 20.0409ZM13.3724 19.6503C13.1306 19.4425 13.0161 19.1951 13.0161 18.896H12.6161C12.6161 19.3169 12.7856 19.6734 13.1117 19.9537L13.3724 19.6503ZM13.0161 18.896C13.0161 18.6719 13.0779 18.4936 13.1939 18.3493L12.8822 18.0986C12.7023 18.3224 12.6161 18.5921 12.6161 18.896H13.0161ZM13.1939 18.3493C13.3167 18.1967 13.4857 18.0761 13.7093 17.9909L13.5669 17.6171C13.2865 17.7239 13.0555 17.8832 12.8822 18.0986L13.1939 18.3493ZM13.7083 17.9913C13.9389 17.9048 14.1987 17.86 14.4901 17.86V17.46C14.1574 17.46 13.8492 17.5112 13.5679 17.6167L13.7083 17.9913ZM14.4901 17.86C14.828 17.86 15.0855 17.9287 15.2765 18.0506L15.4916 17.7134C15.2187 17.5393 14.8802 17.46 14.4901 17.46V17.86ZM15.2765 18.0506C15.4822 18.1818 15.6534 18.3559 15.7903 18.5757L16.1298 18.3642C15.9628 18.0961 15.7499 17.8782 15.4916 17.7134L15.2765 18.0506ZM15.7914 18.5774C15.8291 18.6367 15.8313 18.6725 15.8283 18.6923L16.2239 18.7517C16.2449 18.6115 16.203 18.4792 16.1288 18.3626L15.7914 18.5774ZM15.8272 18.7011C15.8262 18.7108 15.8239 18.7149 15.8226 18.717C15.8211 18.7194 15.8166 18.7256 15.8034 18.7341L16.0207 19.0699C16.136 18.9953 16.2102 18.8831 16.225 18.7429L15.8272 18.7011ZM15.8053 18.7329C15.7807 18.7484 15.7602 18.7521 15.7267 18.7414L15.6054 19.1226C15.7479 19.1679 15.8914 19.1516 16.0189 19.0711L15.8053 18.7329ZM15.7267 18.7414C15.6835 18.7276 15.6589 18.7063 15.6412 18.6758L15.295 18.8762C15.3653 18.9976 15.4727 19.0803 15.6054 19.1226L15.7267 18.7414ZM15.641 18.6755C15.5252 18.4763 15.3719 18.317 15.181 18.2025L14.9752 18.5455C15.1043 18.623 15.211 18.7317 15.2952 18.8765L15.641 18.6755ZM15.1829 18.2037C14.9873 18.0833 14.747 18.0284 14.4753 18.024L14.4689 18.424C14.6932 18.4276 14.8568 18.4727 14.9733 18.5443L15.1829 18.2037ZM14.4748 18.024C14.1526 18.0197 13.8666 18.0804 13.6277 18.219L13.8284 18.565C13.9895 18.4716 14.1996 18.4203 14.4694 18.424L14.4748 18.024ZM13.6304 18.2175C13.5034 18.2886 13.4001 18.3843 13.3297 18.5068C13.2594 18.6291 13.2281 18.7672 13.2281 18.914H13.6281C13.6281 18.8248 13.6468 18.7579 13.6765 18.7062C13.706 18.6547 13.7528 18.6074 13.8258 18.5665L13.6304 18.2175ZM13.2281 18.914C13.2281 19.0689 13.2672 19.2172 13.3418 19.3564L13.6944 19.1675C13.649 19.0828 13.6281 18.9991 13.6281 18.914H13.2281ZM13.346 19.364C13.4371 19.5176 13.5884 19.634 13.7724 19.7237L13.9478 19.3642C13.8038 19.294 13.7271 19.2224 13.6901 19.16L13.346 19.364ZM13.7741 19.7246C13.9721 19.8189 14.2383 19.878 14.5597 19.911L14.6005 19.513C14.2979 19.482 14.084 19.4291 13.9461 19.3634L13.7741 19.7246ZM14.56 19.911C15.007 19.9561 15.3313 20.0907 15.5543 20.2969L15.8258 20.0031C15.5209 19.7212 15.1051 19.5639 14.6001 19.513L14.56 19.911ZM15.5567 20.299C15.7777 20.497 15.8921 20.7585 15.8921 21.104H16.2921C16.2921 20.6575 16.1384 20.283 15.8235 20.001L15.5567 20.299ZM15.8921 21.104C15.8921 21.3034 15.8503 21.466 15.7744 21.5988L16.1217 21.7972C16.2379 21.594 16.2921 21.3606 16.2921 21.104H15.8921ZM15.7727 21.6019C15.6953 21.7431 15.5895 21.8629 15.4527 21.9621L15.6875 22.2859C15.8707 22.1531 16.0168 21.9889 16.1235 21.7941L15.7727 21.6019ZM15.4534 21.9615C15.3186 22.0584 15.1606 22.1328 14.9771 22.1831L15.083 22.5689C15.3076 22.5072 15.5096 22.4136 15.6867 22.2865L15.4534 21.9615ZM14.9762 22.1834C14.7944 22.2343 14.6046 22.26 14.4061 22.26V22.66C14.6396 22.66 14.8658 22.6297 15.084 22.5686L14.9762 22.1834ZM17.3189 22.31L17.1775 22.4514L17.3189 22.31ZM17.3189 17.804L17.4555 17.9503L17.4604 17.9454L17.3189 17.804ZM19.5629 17.888L19.4864 18.0728L19.4896 18.074L19.5629 17.888ZM20.3009 18.374L20.1582 18.5141L20.1595 18.5154L20.3009 18.374ZM20.7809 19.112L20.967 19.0386L20.7809 19.112ZM20.7809 21.002L20.967 21.0754L20.9673 21.0745L20.7809 21.002ZM20.3009 21.746L20.4424 21.8874L20.4437 21.8861L20.3009 21.746ZM19.5629 22.232L19.6372 22.4177L19.6386 22.4171L19.5629 22.232ZM17.8529 21.848H17.6529V22.048H17.8529V21.848ZM19.5149 21.62L19.6171 21.792L19.6178 21.7915L19.5149 21.62ZM20.1269 20.984L20.302 21.0807L20.3026 21.0796L20.1269 20.984ZM20.1269 19.124L19.9519 19.2207L20.1269 19.124ZM19.5149 18.494L19.4128 18.666L19.414 18.6667L19.5149 18.494ZM17.8529 18.266V18.066H17.6529V18.266H17.8529ZM17.5409 22.2C17.5038 22.2 17.4813 22.1895 17.4604 22.1686L17.1775 22.4514C17.2766 22.5504 17.4021 22.6 17.5409 22.6V22.2ZM17.4604 22.1686C17.4394 22.1476 17.4289 22.1251 17.4289 22.088H17.0289C17.0289 22.2268 17.0785 22.3524 17.1775 22.4514L17.4604 22.1686ZM17.4289 22.088V18.026H17.0289V22.088H17.4289ZM17.4289 18.026C17.4289 17.982 17.441 17.9636 17.4554 17.9502L17.1825 17.6578C17.0768 17.7564 17.0289 17.886 17.0289 18.026H17.4289ZM17.4604 17.9454C17.4813 17.9244 17.5038 17.914 17.5409 17.914V17.514C17.4021 17.514 17.2766 17.5635 17.1775 17.6626L17.4604 17.9454ZM17.5409 17.914H18.6269V17.514H17.5409V17.914ZM18.6269 17.914C18.9482 17.914 19.2337 17.9681 19.4864 18.0728L19.6395 17.7032C19.3322 17.5759 18.9937 17.514 18.6269 17.514V17.914ZM19.4896 18.074C19.7482 18.1761 19.9704 18.3227 20.1582 18.5141L20.4437 18.2339C20.2155 18.0013 19.9457 17.8239 19.6363 17.7019L19.4896 18.074ZM20.1595 18.5154C20.3474 18.7033 20.4926 18.9259 20.5949 19.1854L20.967 19.0386C20.8453 18.7301 20.6705 18.4607 20.4424 18.2326L20.1595 18.5154ZM20.5949 19.1854C20.6966 19.4432 20.7489 19.7319 20.7489 20.054H21.1489C21.1489 19.688 21.0893 19.3488 20.967 19.0386L20.5949 19.1854ZM20.7489 20.054C20.7489 20.376 20.6966 20.6671 20.5945 20.9295L20.9673 21.0745C21.0893 20.7609 21.1489 20.42 21.1489 20.054H20.7489ZM20.5949 20.9286C20.4924 21.1884 20.3469 21.4136 20.1582 21.6059L20.4437 21.8861C20.671 21.6544 20.8455 21.3836 20.967 21.0754L20.5949 20.9286ZM20.1595 21.6046C19.9711 21.793 19.7478 21.9405 19.4873 22.0468L19.6386 22.4171C19.9461 22.2915 20.2148 22.115 20.4424 21.8874L20.1595 21.6046ZM19.4887 22.0463C19.2354 22.1476 18.949 22.2 18.6269 22.2V22.6C18.9928 22.6 19.3305 22.5404 19.6372 22.4177L19.4887 22.0463ZM18.6269 22.2H17.5409V22.6H18.6269V22.2ZM17.8529 22.048H18.6269V21.648H17.8529V22.048ZM18.6269 22.048C18.9942 22.048 19.3263 21.9646 19.6171 21.792L19.4128 21.448C19.1916 21.5794 18.9317 21.648 18.6269 21.648V22.048ZM19.6178 21.7915C19.9084 21.6172 20.1371 21.3792 20.302 21.0807L19.9519 20.8873C19.8207 21.1248 19.6415 21.3108 19.412 21.4485L19.6178 21.7915ZM20.3026 21.0796C20.4685 20.7748 20.5489 20.4312 20.5489 20.054H20.1489C20.1489 20.3728 20.0814 20.6492 19.9513 20.8884L20.3026 21.0796ZM20.5489 20.054C20.5489 19.6733 20.4687 19.3291 20.302 19.0273L19.9519 19.2207C20.0812 19.4549 20.1489 19.7307 20.1489 20.054H20.5489ZM20.302 19.0273C20.1369 18.7283 19.9075 18.4918 19.6159 18.3213L19.414 18.6667C19.6424 18.8002 19.821 18.9837 19.9519 19.2207L20.302 19.0273ZM19.6171 18.322C19.3263 18.1494 18.9942 18.066 18.6269 18.066V18.466C18.9317 18.466 19.1916 18.5346 19.4128 18.666L19.6171 18.322ZM18.6269 18.066H17.8529V18.466H18.6269V18.066ZM17.6529 18.266V21.848H18.0529V18.266H17.6529Z" fill="white"/>
</svg>
