<svg width="32" height="32" viewBox="0 0 32 32" fill="none" xmlns="http://www.w3.org/2000/svg">
<path d="M9.27852 2C8.28259 2 7.48584 2.79715 7.48584 3.79359V28.2064C7.48584 29.2028 8.28259 30 9.27852 30H26.7073C27.7033 30 28.5 29.2028 28.5 28.2064V8.97509L21.5285 2H9.27852Z" fill="#E2E5E7"/>
<path d="M23.2215 8.97509H28.5L21.5284 2V7.28114C21.4288 8.17794 22.2256 8.97509 23.2215 8.97509Z" fill="#B0B7BD"/>
<path d="M28.4005 14.2562L23.2217 8.9751H28.5001V14.2562H28.4005Z" fill="#CAD1D8"/>
<path d="M24.9146 24.7188C24.9146 25.217 24.5162 25.6156 24.0183 25.6156H4.89634C4.39837 25.6156 4 25.217 4 24.7188V15.9501C4 15.4519 4.39837 15.0533 4.89634 15.0533H24.0183C24.5162 15.0533 24.9146 15.4519 24.9146 15.9501V24.7188Z" fill="#F7B84E"/>
<path d="M24.1179 25.6157H7.48584V26.5125H24.0183C24.5163 26.5125 24.9147 26.1139 24.9147 25.6157V24.7189C24.9147 25.2171 24.5163 25.6157 24.1179 25.6157Z" fill="#CAD1D8"/>
<path d="M9.88785 22.4601C9.63185 22.4601 9.38785 22.4201 9.15585 22.3401C8.92385 22.2601 8.72185 22.1481 8.54985 22.0041C8.37785 21.8601 8.25185 21.6941 8.17185 21.5061C8.13185 21.4221 8.13185 21.3441 8.17185 21.2721C8.21585 21.2001 8.28785 21.1541 8.38785 21.1341C8.45985 21.1181 8.52985 21.1301 8.59785 21.1701C8.66985 21.2061 8.72385 21.2621 8.75985 21.3381C8.80785 21.4381 8.88585 21.5301 8.99385 21.6141C9.10585 21.6981 9.23985 21.7661 9.39585 21.8181C9.55185 21.8701 9.71585 21.8961 9.88785 21.8961C10.0798 21.8961 10.2558 21.8661 10.4158 21.8061C10.5798 21.7461 10.7118 21.6601 10.8118 21.5481C10.9118 21.4321 10.9618 21.2901 10.9618 21.1221C10.9618 20.9101 10.8778 20.7201 10.7098 20.5521C10.5458 20.3841 10.2738 20.2801 9.89385 20.2401C9.39785 20.1921 9.00785 20.0461 8.72385 19.8021C8.43985 19.5581 8.29785 19.2561 8.29785 18.8961C8.29785 18.6321 8.37185 18.4081 8.51985 18.2241C8.66785 18.0401 8.86785 17.9001 9.11985 17.8041C9.37585 17.7081 9.65985 17.6601 9.97185 17.6601C10.3358 17.6601 10.6338 17.7341 10.8658 17.8821C11.0978 18.0301 11.2898 18.2261 11.4418 18.4701C11.4978 18.5581 11.5198 18.6421 11.5078 18.7221C11.4998 18.7981 11.4618 18.8581 11.3938 18.9021C11.3178 18.9501 11.2358 18.9601 11.1478 18.9321C11.0598 18.9041 10.9938 18.8521 10.9498 18.7761C10.8498 18.6041 10.7198 18.4701 10.5598 18.3741C10.4038 18.2781 10.2018 18.2281 9.95385 18.2241C9.65785 18.2201 9.40985 18.2761 9.20985 18.3921C9.00985 18.5041 8.90985 18.6781 8.90985 18.9141C8.90985 19.0341 8.93985 19.1501 8.99985 19.2621C9.06385 19.3701 9.17785 19.4641 9.34185 19.5441C9.50985 19.6241 9.74985 19.6801 10.0618 19.7121C10.5378 19.7601 10.9078 19.9061 11.1718 20.1501C11.4398 20.3901 11.5738 20.7081 11.5738 21.1041C11.5738 21.3321 11.5258 21.5301 11.4298 21.6981C11.3378 21.8661 11.2118 22.0081 11.0518 22.1241C10.8958 22.2361 10.7158 22.3201 10.5118 22.3761C10.3118 22.4321 10.1038 22.4601 9.88785 22.4601ZM14.0784 22.4001C13.9504 22.4001 13.8564 22.3341 13.7964 22.2021L12.0384 18.1821C11.9824 18.0461 11.9764 17.9341 12.0204 17.8461C12.0644 17.7581 12.1484 17.7141 12.2724 17.7141C12.4124 17.7141 12.5084 17.7761 12.5604 17.9001L14.0724 21.5241L15.6084 17.9001C15.6404 17.8281 15.6764 17.7801 15.7164 17.7561C15.7604 17.7281 15.8184 17.7141 15.8904 17.7141C16.0104 17.7141 16.0924 17.7581 16.1364 17.8461C16.1844 17.9301 16.1844 18.0241 16.1364 18.1281L14.3604 22.2021C14.3084 22.3341 14.2144 22.4001 14.0784 22.4001ZM18.8754 22.4601C18.5514 22.4601 18.2474 22.4001 17.9634 22.2801C17.6834 22.1561 17.4374 21.9861 17.2254 21.7701C17.0174 21.5501 16.8534 21.2941 16.7334 21.0021C16.6174 20.7101 16.5594 20.3941 16.5594 20.0541C16.5594 19.7181 16.6174 19.4061 16.7334 19.1181C16.8534 18.8261 17.0174 18.5721 17.2254 18.3561C17.4374 18.1361 17.6834 17.9641 17.9634 17.8401C18.2434 17.7161 18.5474 17.6541 18.8754 17.6541C19.1834 17.6541 19.4474 17.6941 19.6674 17.7741C19.8914 17.8541 20.1154 17.9861 20.3394 18.1701C20.3874 18.2101 20.4194 18.2481 20.4354 18.2841C20.4514 18.3201 20.4594 18.3641 20.4594 18.4161C20.4594 18.4921 20.4314 18.5561 20.3754 18.6081C20.3234 18.6601 20.2574 18.6881 20.1774 18.6921C20.1014 18.6961 20.0294 18.6701 19.9614 18.6141C19.8134 18.4861 19.6594 18.3881 19.4994 18.3201C19.3434 18.2521 19.1354 18.2181 18.8754 18.2181C18.6394 18.2181 18.4174 18.2661 18.2094 18.3621C18.0014 18.4581 17.8174 18.5901 17.6574 18.7581C17.5014 18.9261 17.3794 19.1221 17.2914 19.3461C17.2034 19.5661 17.1594 19.8021 17.1594 20.0541C17.1594 20.3101 17.2034 20.5501 17.2914 20.7741C17.3794 20.9941 17.5014 21.1881 17.6574 21.3561C17.8174 21.5241 18.0014 21.6561 18.2094 21.7521C18.4174 21.8441 18.6394 21.8901 18.8754 21.8901C19.0514 21.8901 19.2194 21.8641 19.3794 21.8121C19.5394 21.7601 19.6934 21.6861 19.8414 21.5901V20.5221H19.0134C18.9254 20.5221 18.8514 20.4961 18.7914 20.4441C18.7314 20.3921 18.7014 20.3261 18.7014 20.2461C18.7014 20.1661 18.7314 20.1001 18.7914 20.0481C18.8514 19.9961 18.9254 19.9701 19.0134 19.9701H20.1354C20.2274 19.9701 20.3014 20.0001 20.3574 20.0601C20.4134 20.1161 20.4414 20.1901 20.4414 20.2821V21.7161C20.4414 21.7561 20.4334 21.7961 20.4174 21.8361C20.4054 21.8721 20.3814 21.9061 20.3454 21.9381C20.1334 22.1141 19.9034 22.2461 19.6554 22.3341C19.4074 22.4181 19.1474 22.4601 18.8754 22.4601Z" fill="white"/>
<path d="M9.15589 22.34L9.22109 22.1509L9.15589 22.34ZM8.54989 22.004L8.42151 22.1573L8.54989 22.004ZM8.17189 21.506L8.35609 21.4276L8.35247 21.42L8.17189 21.506ZM8.17189 21.272L8.00109 21.1676L7.99706 21.1749L8.17189 21.272ZM8.38789 21.134L8.42713 21.3302L8.43128 21.3292L8.38789 21.134ZM8.59789 21.17L8.49626 21.3428L8.50845 21.3489L8.59789 21.17ZM8.75989 21.338L8.57914 21.4236L8.57959 21.4245L8.75989 21.338ZM8.99389 21.614L8.87109 21.7719L8.87389 21.774L8.99389 21.614ZM9.39589 21.818L9.33265 22.0077L9.39589 21.818ZM10.4159 21.806L10.3472 21.6182L10.3457 21.6187L10.4159 21.806ZM10.8119 21.548L10.9611 21.6812L10.9634 21.6786L10.8119 21.548ZM10.7099 20.552L10.5668 20.6917L10.5685 20.6934L10.7099 20.552ZM9.89389 20.24L9.91483 20.0411L9.91316 20.0409L9.89389 20.24ZM8.72389 19.802L8.85423 19.6503L8.72389 19.802ZM9.11989 17.804L9.04967 17.6167L9.0487 17.6171L9.11989 17.804ZM10.8659 17.882L10.9735 17.7134L10.8659 17.882ZM11.4419 18.47L11.2721 18.5757L11.2732 18.5774L11.4419 18.47ZM11.5079 18.722L11.3099 18.6923L11.309 18.7011L11.5079 18.722ZM11.3939 18.902L11.5007 19.0711L11.5026 19.0699L11.3939 18.902ZM11.1479 18.932L11.0873 19.1226L11.1479 18.932ZM10.9499 18.776L11.123 18.6758L11.1228 18.6755L10.9499 18.776ZM10.5599 18.374L10.4551 18.5443L10.457 18.5455L10.5599 18.374ZM9.95389 18.224L9.95712 18.024H9.9566L9.95389 18.224ZM9.20989 18.392L9.30763 18.5665L9.31024 18.565L9.20989 18.392ZM8.99989 19.262L8.82343 19.3565L8.82784 19.364L8.99989 19.262ZM9.34189 19.544L9.25421 19.7238L9.25591 19.7246L9.34189 19.544ZM10.0619 19.712L10.0415 19.911H10.0418L10.0619 19.712ZM11.1719 20.15L11.0361 20.2969L11.0385 20.299L11.1719 20.15ZM11.4299 21.698L11.2562 21.5987L11.2545 21.6019L11.4299 21.698ZM11.0519 22.124L11.1685 22.2865L11.1693 22.2859L11.0519 22.124ZM10.5119 22.376L10.459 22.1831L10.458 22.1834L10.5119 22.376ZM9.88789 22.26C9.65312 22.26 9.43122 22.2234 9.22109 22.1509L9.0907 22.5291C9.34457 22.6166 9.61067 22.66 9.88789 22.66V22.26ZM9.22109 22.1509C9.00999 22.0781 8.82989 21.9776 8.67828 21.8506L8.42151 22.1573C8.6139 22.3184 8.8378 22.4419 9.0907 22.5291L9.22109 22.1509ZM8.67828 21.8506C8.52808 21.7249 8.42239 21.5839 8.35593 21.4277L7.98786 21.5843C8.0814 21.8041 8.22771 21.9951 8.42151 22.1573L8.67828 21.8506ZM8.35247 21.42C8.34282 21.3997 8.34189 21.3886 8.34189 21.3845C8.34189 21.3814 8.34228 21.3771 8.34673 21.3691L7.99706 21.1749C7.92124 21.3114 7.92769 21.4583 7.99132 21.592L8.35247 21.42ZM8.34255 21.3763C8.35149 21.3617 8.36948 21.3416 8.42712 21.3301L8.34867 20.9379C8.20631 20.9663 8.0803 21.0383 8.00124 21.1677L8.34255 21.3763ZM8.43128 21.3292C8.45022 21.325 8.46879 21.3261 8.49649 21.3424L8.6993 20.9976C8.59099 20.9339 8.46957 20.911 8.34451 20.9388L8.43128 21.3292ZM8.50845 21.3489C8.53856 21.3639 8.56137 21.3861 8.57915 21.4236L8.94064 21.2524C8.88641 21.1379 8.80123 21.0481 8.68734 20.9911L8.50845 21.3489ZM8.57959 21.4245C8.64375 21.5582 8.74427 21.6732 8.87111 21.7719L9.11668 21.4561C9.02752 21.3868 8.97204 21.3178 8.9402 21.2514L8.57959 21.4245ZM8.87389 21.774C9.00579 21.8729 9.15973 21.9501 9.33265 22.0077L9.45914 21.6283C9.32006 21.5819 9.206 21.5231 9.11389 21.454L8.87389 21.774ZM9.33265 22.0077C9.50997 22.0668 9.69539 22.096 9.88789 22.096V21.696C9.73639 21.696 9.59382 21.6732 9.45914 21.6283L9.33265 22.0077ZM9.88789 22.096C10.1009 22.096 10.3011 22.0627 10.4861 21.9933L10.3457 21.6187C10.2107 21.6693 10.0589 21.696 9.88789 21.696V22.096ZM10.4846 21.9938C10.6745 21.9244 10.8358 21.8215 10.9611 21.6812L10.6627 21.4148C10.588 21.4985 10.4853 21.5676 10.3472 21.6182L10.4846 21.9938ZM10.9634 21.6786C11.0978 21.5227 11.1619 21.3329 11.1619 21.122H10.7619C10.7619 21.2471 10.726 21.3413 10.6604 21.4174L10.9634 21.6786ZM11.1619 21.122C11.1619 20.8503 11.0519 20.6111 10.8513 20.4106L10.5685 20.6934C10.7039 20.8289 10.7619 20.9696 10.7619 21.122H11.1619ZM10.853 20.4123C10.6415 20.1956 10.3141 20.0831 9.91483 20.0411L9.87296 20.4389C10.2337 20.4769 10.4503 20.5724 10.5668 20.6917L10.853 20.4123ZM9.91316 20.0409C9.44479 19.9956 9.09812 19.8598 8.85423 19.6503L8.59356 19.9537C8.91767 20.2322 9.351 20.3884 9.87463 20.4391L9.91316 20.0409ZM8.85423 19.6503C8.61243 19.4425 8.49789 19.1951 8.49789 18.896H8.09789C8.09789 19.3169 8.26736 19.6734 8.59356 19.9537L8.85423 19.6503ZM8.49789 18.896C8.49789 18.6719 8.5597 18.4936 8.67574 18.3493L8.36405 18.0986C8.18409 18.3224 8.09789 18.5921 8.09789 18.896H8.49789ZM8.67574 18.3493C8.79848 18.1967 8.96748 18.0761 9.19109 17.9909L9.0487 17.6171C8.76831 17.7239 8.53731 17.8832 8.36405 18.0986L8.67574 18.3493ZM9.19012 17.9913C9.42073 17.9048 9.68053 17.86 9.97189 17.86V17.46C9.63926 17.46 9.33106 17.5112 9.04967 17.6167L9.19012 17.9913ZM9.97189 17.86C10.3098 17.86 10.5673 17.9287 10.7583 18.0506L10.9735 17.7134C10.7005 17.5393 10.362 17.46 9.97189 17.46V17.86ZM10.7583 18.0506C10.9641 18.1818 11.1352 18.3559 11.2721 18.5757L11.6117 18.3642C11.4446 18.0961 11.2318 17.8782 10.9735 17.7134L10.7583 18.0506ZM11.2732 18.5774C11.311 18.6367 11.3131 18.6725 11.3101 18.6923L11.7057 18.7517C11.7267 18.6115 11.6849 18.4792 11.6106 18.3626L11.2732 18.5774ZM11.309 18.7011C11.308 18.7108 11.3057 18.7149 11.3044 18.717C11.3029 18.7194 11.2984 18.7256 11.2853 18.7341L11.5026 19.0699C11.6178 18.9953 11.6921 18.8831 11.7068 18.7429L11.309 18.7011ZM11.2871 18.7329C11.2626 18.7484 11.2421 18.7521 11.2085 18.7414L11.0873 19.1226C11.2297 19.1679 11.3732 19.1516 11.5007 19.0711L11.2871 18.7329ZM11.2085 18.7414C11.1653 18.7276 11.1407 18.7063 11.123 18.6758L10.7768 18.8762C10.8471 18.9976 10.9545 19.0803 11.0873 19.1226L11.2085 18.7414ZM11.1228 18.6755C11.007 18.4763 10.8537 18.317 10.6628 18.2025L10.457 18.5455C10.5861 18.623 10.6928 18.7317 10.777 18.8765L11.1228 18.6755ZM10.6647 18.2037C10.4692 18.0833 10.2288 18.0284 9.95712 18.024L9.95067 18.424C10.175 18.4276 10.3387 18.4727 10.4551 18.5443L10.6647 18.2037ZM9.9566 18.024C9.63441 18.0197 9.34845 18.0804 9.10955 18.219L9.31024 18.565C9.47133 18.4716 9.68138 18.4203 9.95119 18.424L9.9566 18.024ZM9.11217 18.2175C8.98522 18.2886 8.88194 18.3843 8.81149 18.5068C8.74122 18.6291 8.70989 18.7672 8.70989 18.914H9.10989C9.10989 18.8248 9.12857 18.7579 9.1583 18.7062C9.18785 18.6547 9.23457 18.6074 9.30762 18.5665L9.11217 18.2175ZM8.70989 18.914C8.70989 19.0689 8.74898 19.2172 8.8236 19.3564L9.17619 19.1675C9.13081 19.0828 9.10989 18.9991 9.10989 18.914H8.70989ZM8.82784 19.364C8.91888 19.5176 9.0702 19.634 9.25421 19.7237L9.42958 19.3642C9.28559 19.294 9.20891 19.2224 9.17195 19.16L8.82784 19.364ZM9.25591 19.7246C9.45395 19.8189 9.72011 19.878 10.0415 19.911L10.0823 19.513C9.77967 19.482 9.56584 19.4291 9.42788 19.3634L9.25591 19.7246ZM10.0418 19.911C10.4889 19.9561 10.8131 20.0907 11.0362 20.2969L11.3077 20.0031C11.0027 19.7212 10.587 19.5639 10.082 19.513L10.0418 19.911ZM11.0385 20.299C11.2596 20.497 11.3739 20.7585 11.3739 21.104H11.7739C11.7739 20.6575 11.6202 20.283 11.3053 20.001L11.0385 20.299ZM11.3739 21.104C11.3739 21.3034 11.3321 21.466 11.2563 21.5988L11.6036 21.7972C11.7197 21.594 11.7739 21.3606 11.7739 21.104H11.3739ZM11.2545 21.6019C11.1772 21.7431 11.0713 21.8629 10.9345 21.9621L11.1693 22.2859C11.3525 22.1531 11.4986 21.9889 11.6053 21.7941L11.2545 21.6019ZM10.9353 21.9615C10.8004 22.0584 10.6424 22.1328 10.459 22.1831L10.5648 22.5689C10.7894 22.5072 10.9914 22.4136 11.1685 22.2865L10.9353 21.9615ZM10.458 22.1834C10.2762 22.2343 10.0864 22.26 9.88789 22.26V22.66C10.1214 22.66 10.3476 22.6297 10.5658 22.5686L10.458 22.1834ZM13.7965 22.202L13.6133 22.2821L13.6145 22.2848L13.7965 22.202ZM12.0385 18.182L11.8536 18.2582L11.8553 18.2621L12.0385 18.182ZM12.0205 17.846L11.8416 17.7566L12.0205 17.846ZM12.5605 17.9L12.7451 17.823L12.745 17.8226L12.5605 17.9ZM14.0725 21.524L13.888 21.601L14.0711 22.0399L14.2567 21.602L14.0725 21.524ZM15.6085 17.9L15.4257 17.8188L15.4244 17.8219L15.6085 17.9ZM15.7165 17.756L15.8195 17.9276L15.8239 17.9247L15.7165 17.756ZM16.1365 17.846L15.9574 17.9356L15.9629 17.9452L16.1365 17.846ZM16.1365 18.128L15.9549 18.0442L15.9532 18.0481L16.1365 18.128ZM14.3605 22.202L14.1771 22.122L14.1744 22.1287L14.3605 22.202ZM14.0785 22.2C14.0507 22.2 14.0365 22.1935 14.027 22.1868C14.0159 22.179 13.9977 22.1612 13.9786 22.1192L13.6145 22.2848C13.6554 22.3748 13.7142 22.4559 13.7971 22.5142C13.8816 22.5735 13.9783 22.6 14.0785 22.6V22.2ZM13.9798 22.1219L12.2218 18.1019L11.8553 18.2621L13.6133 22.2821L13.9798 22.1219ZM12.2235 18.1058C12.1785 17.9965 12.1919 17.9505 12.1994 17.9354L11.8416 17.7566C11.7612 17.9175 11.7866 18.0954 11.8536 18.2581L12.2235 18.1058ZM12.1994 17.9354C12.2019 17.9305 12.2038 17.9283 12.2046 17.9275C12.2053 17.9267 12.2066 17.9256 12.2093 17.9242C12.2153 17.9211 12.2333 17.914 12.2725 17.914V17.514C12.0963 17.514 11.9289 17.582 11.8416 17.7566L12.1994 17.9354ZM12.2725 17.914C12.3127 17.914 12.332 17.9227 12.341 17.9285C12.3495 17.934 12.3629 17.9458 12.3761 17.9773L12.745 17.8226C12.7062 17.7302 12.6456 17.649 12.558 17.5925C12.4711 17.5363 12.3723 17.514 12.2725 17.514V17.914ZM12.376 17.977L13.888 21.601L14.2571 21.447L12.7451 17.823L12.376 17.977ZM14.2567 21.602L15.7927 17.978L15.4244 17.8219L13.8884 21.4459L14.2567 21.602ZM15.7913 17.9812C15.803 17.955 15.8128 17.9389 15.8195 17.93C15.8263 17.921 15.827 17.923 15.8194 17.9275L15.6136 17.5845C15.5215 17.6398 15.4641 17.7324 15.4258 17.8188L15.7913 17.9812ZM15.8239 17.9247C15.8258 17.9235 15.8426 17.914 15.8905 17.914V17.514C15.7944 17.514 15.6953 17.5325 15.6092 17.5873L15.8239 17.9247ZM15.8905 17.914C15.9268 17.914 15.9428 17.9207 15.9475 17.9232C15.9497 17.9244 15.9509 17.9254 15.9517 17.9263C15.9527 17.9273 15.9549 17.9299 15.9576 17.9354L16.3154 17.7566C16.2761 17.6778 16.2161 17.6134 16.1366 17.5708C16.0593 17.5293 15.9742 17.514 15.8905 17.514V17.914ZM15.9629 17.9452C15.9726 17.9623 15.9815 17.9866 15.9549 18.0442L16.3181 18.2118C16.3875 18.0614 16.3964 17.8977 16.3102 17.7468L15.9629 17.9452ZM15.9532 18.0481L14.1772 22.1221L14.5439 22.2819L16.3199 18.2079L15.9532 18.0481ZM14.1744 22.1287C14.1594 22.1669 14.1442 22.1811 14.1361 22.1868C14.1286 22.1921 14.1132 22.2 14.0785 22.2V22.6C14.1799 22.6 14.2795 22.5749 14.366 22.5142C14.4518 22.4539 14.5096 22.3691 14.5466 22.2753L14.1744 22.1287ZM17.9635 22.28L17.8825 22.4629L17.8857 22.4642L17.9635 22.28ZM17.2255 21.77L17.0802 21.9074L17.0828 21.9101L17.2255 21.77ZM16.7335 21.002L16.5476 21.0758L16.5485 21.078L16.7335 21.002ZM16.7335 19.118L16.5485 19.042L16.548 19.0433L16.7335 19.118ZM17.2255 18.356L17.0815 18.2172V18.2173L17.2255 18.356ZM17.9635 17.84L17.8825 17.6571L17.9635 17.84ZM19.6675 17.774L19.5992 17.962L19.6003 17.9623L19.6675 17.774ZM20.3395 18.17L20.4676 18.0163L20.4665 18.0154L20.3395 18.17ZM20.3755 18.608L20.2393 18.4613L20.2341 18.4666L20.3755 18.608ZM20.1775 18.692L20.1675 18.4922L20.167 18.4923L20.1775 18.692ZM19.9615 18.614L19.8307 18.7653L19.8344 18.7684L19.9615 18.614ZM19.4995 18.32L19.4196 18.5033L19.4213 18.5041L19.4995 18.32ZM17.6575 18.758L17.5127 18.6201L17.511 18.6219L17.6575 18.758ZM17.2915 19.346L17.4772 19.4203L17.4777 19.4191L17.2915 19.346ZM17.2915 20.774L17.1054 20.8471L17.1058 20.8483L17.2915 20.774ZM17.6575 21.356L17.511 21.4921L17.5127 21.4939L17.6575 21.356ZM18.2095 21.752L18.1257 21.9336L18.1286 21.9349L18.2095 21.752ZM19.3795 21.812L19.4413 22.0022L19.3795 21.812ZM19.8415 21.59L19.9504 21.7578L20.0415 21.6987V21.59H19.8415ZM19.8415 20.522H20.0415V20.322H19.8415V20.522ZM18.7915 20.444L18.6605 20.5951L18.7915 20.444ZM18.7915 20.048L18.6605 19.8969L18.7915 20.048ZM20.3575 20.06L20.2112 20.1965L20.2161 20.2014L20.3575 20.06ZM20.4175 21.836L20.2315 21.7616L20.2278 21.7727L20.4175 21.836ZM20.3455 21.938L20.4734 22.092L20.4784 22.0875L20.3455 21.938ZM19.6555 22.334L19.7197 22.5234L19.7224 22.5225L19.6555 22.334ZM18.8755 22.26C18.5769 22.26 18.2995 22.2048 18.0414 22.0958L17.8857 22.4642C18.1956 22.5952 18.5262 22.66 18.8755 22.66V22.26ZM18.0445 22.0971C17.7873 21.9832 17.5624 21.8277 17.3683 21.6299L17.0828 21.9101C17.3127 22.1443 17.5797 22.3288 17.8825 22.4629L18.0445 22.0971ZM17.3709 21.6326C17.1805 21.4312 17.0296 21.1962 16.9185 20.926L16.5485 21.078C16.6775 21.3918 16.8546 21.6688 17.0802 21.9074L17.3709 21.6326ZM16.9194 20.9282C16.8135 20.6615 16.7595 20.3708 16.7595 20.054H16.3595C16.3595 20.4172 16.4216 20.7585 16.5477 21.0758L16.9194 20.9282ZM16.7595 20.054C16.7595 19.7415 16.8134 19.4551 16.919 19.1927L16.548 19.0433C16.4217 19.3569 16.3595 19.6945 16.3595 20.054H16.7595ZM16.9185 19.194C17.0295 18.9241 17.18 18.6916 17.3696 18.4947L17.0815 18.2173C16.8551 18.4524 16.6776 18.7279 16.5485 19.042L16.9185 19.194ZM17.3695 18.4948C17.5635 18.2935 17.7881 18.1364 18.0445 18.0229L17.8825 17.6571C17.5789 17.7916 17.3115 17.9785 17.0815 18.2172L17.3695 18.4948ZM18.0445 18.0229C18.2972 17.9109 18.5734 17.854 18.8755 17.854V17.454C18.5216 17.454 18.1898 17.521 17.8825 17.6571L18.0445 18.0229ZM18.8755 17.854C19.1672 17.854 19.4068 17.892 19.5992 17.962L19.7359 17.586C19.4883 17.496 19.1999 17.454 18.8755 17.454V17.854ZM19.6003 17.9623C19.7984 18.0331 20.0026 18.1521 20.2126 18.3245L20.4665 18.0154C20.2284 17.8199 19.9846 17.6749 19.7348 17.5856L19.6003 17.9623ZM20.2115 18.3236C20.2287 18.3379 20.2398 18.3493 20.2465 18.3573C20.2534 18.3655 20.2541 18.3682 20.2528 18.3652L20.6183 18.2028C20.5846 18.1271 20.5268 18.0657 20.4676 18.0163L20.2115 18.3236ZM20.2528 18.3652C20.2544 18.3689 20.2595 18.3835 20.2595 18.416H20.6595C20.6595 18.3445 20.6487 18.2711 20.6183 18.2028L20.2528 18.3652ZM20.2595 18.416C20.2595 18.436 20.2549 18.447 20.2394 18.4614L20.5116 18.7546C20.6081 18.6649 20.6595 18.548 20.6595 18.416H20.2595ZM20.2341 18.4666C20.2204 18.4803 20.2028 18.4905 20.1675 18.4922L20.1875 18.8917C20.3122 18.8855 20.4266 18.8397 20.517 18.7494L20.2341 18.4666ZM20.167 18.4923C20.1488 18.4932 20.1246 18.4892 20.0887 18.4596L19.8344 18.7684C19.9345 18.8508 20.0543 18.8988 20.188 18.8917L20.167 18.4923ZM20.0924 18.4627C19.9306 18.3228 19.7591 18.213 19.5778 18.1359L19.4213 18.5041C19.5599 18.563 19.6965 18.6492 19.8307 18.7653L20.0924 18.4627ZM19.5794 18.1367C19.3885 18.0534 19.1499 18.018 18.8755 18.018V18.418C19.1211 18.418 19.2985 18.4506 19.4196 18.5033L19.5794 18.1367ZM18.8755 18.018C18.6115 18.018 18.3608 18.0719 18.1257 18.1804L18.2933 18.5436C18.4743 18.4601 18.6676 18.418 18.8755 18.418V18.018ZM18.1257 18.1804C17.8945 18.2871 17.6899 18.434 17.5127 18.6201L17.8024 18.8959C17.9452 18.746 18.1085 18.6289 18.2933 18.5436L18.1257 18.1804ZM17.511 18.6219C17.3371 18.8091 17.2021 19.0268 17.1054 19.2729L17.4777 19.4191C17.557 19.2172 17.6659 19.0429 17.8041 18.8941L17.511 18.6219ZM17.1058 19.2717C17.0078 19.5168 16.9595 19.7782 16.9595 20.054H17.3595C17.3595 19.8258 17.3993 19.6152 17.4772 19.4203L17.1058 19.2717ZM16.9595 20.054C16.9595 20.3334 17.0077 20.5984 17.1054 20.8471L17.4777 20.7009C17.3994 20.5016 17.3595 20.2866 17.3595 20.054H16.9595ZM17.1058 20.8483C17.2027 21.0903 17.3377 21.3055 17.511 21.4921L17.8041 21.2199C17.6654 21.0705 17.5564 20.8977 17.4772 20.6997L17.1058 20.8483ZM17.5127 21.4939C17.6899 21.68 17.8945 21.8269 18.1257 21.9336L18.2933 21.5704C18.1085 21.4851 17.9452 21.368 17.8024 21.2181L17.5127 21.4939ZM18.1286 21.9349C18.3631 22.0386 18.6127 22.09 18.8755 22.09V21.69C18.6663 21.69 18.472 21.6494 18.2904 21.5691L18.1286 21.9349ZM18.8755 22.09C19.0715 22.09 19.2605 22.061 19.4413 22.0022L19.3177 21.6218C19.1786 21.667 19.0315 21.69 18.8755 21.69V22.09ZM19.4413 22.0022C19.6187 21.9446 19.7884 21.8628 19.9504 21.7578L19.7327 21.4222C19.5986 21.5092 19.4603 21.5754 19.3177 21.6218L19.4413 22.0022ZM20.0415 21.59V20.522H19.6415V21.59H20.0415ZM19.8415 20.322H19.0135V20.722H19.8415V20.322ZM19.0135 20.322C18.9681 20.322 18.9421 20.3099 18.9225 20.2929L18.6605 20.5951C18.7609 20.6821 18.883 20.722 19.0135 20.722V20.322ZM18.9225 20.2929C18.9067 20.2792 18.9015 20.2685 18.9015 20.246H18.5015C18.5015 20.3835 18.5563 20.5048 18.6605 20.5951L18.9225 20.2929ZM18.9015 20.246C18.9015 20.2235 18.9067 20.2128 18.9225 20.1991L18.6605 19.8969C18.5563 19.9872 18.5015 20.1085 18.5015 20.246H18.9015ZM18.9225 20.1991C18.9421 20.1821 18.9681 20.17 19.0135 20.17V19.77C18.883 19.77 18.7609 19.8099 18.6605 19.8969L18.9225 20.1991ZM19.0135 20.17H20.1355V19.77H19.0135V20.17ZM20.1355 20.17C20.1795 20.17 20.1979 20.1821 20.2113 20.1965L20.5037 19.9235C20.4051 19.8179 20.2756 19.77 20.1355 19.77V20.17ZM20.2161 20.2014C20.2285 20.2138 20.2415 20.2338 20.2415 20.282H20.6415C20.6415 20.1462 20.5985 20.0182 20.499 19.9186L20.2161 20.2014ZM20.2415 20.282V21.716H20.6415V20.282H20.2415ZM20.2415 21.716C20.2415 21.7286 20.2391 21.7435 20.2318 21.7617L20.6032 21.9103C20.6279 21.8485 20.6415 21.7833 20.6415 21.716H20.2415ZM20.2278 21.7727C20.2295 21.7677 20.2294 21.7736 20.2127 21.7885L20.4784 22.0875C20.5337 22.0384 20.5816 21.9763 20.6073 21.8992L20.2278 21.7727ZM20.2178 21.7841C20.023 21.9458 19.8134 22.0657 19.5886 22.1455L19.7224 22.5225C19.9936 22.4262 20.244 22.2822 20.4733 22.0919L20.2178 21.7841ZM19.5914 22.1446C19.3648 22.2213 19.1266 22.26 18.8755 22.26V22.66C19.1685 22.66 19.4502 22.6147 19.7197 22.5234L19.5914 22.1446Z" fill="white"/>
</svg>
