<svg width="32" height="32" viewBox="0 0 32 32" fill="none" xmlns="http://www.w3.org/2000/svg">
<path d="M9.27852 2C8.28259 2 7.48584 2.79715 7.48584 3.79359V28.2064C7.48584 29.2028 8.28259 30 9.27852 30H26.7074C27.7033 30 28.5001 29.2028 28.5001 28.2064V8.97509L21.5285 2H9.27852Z" fill="#E2E5E7"/>
<path d="M23.2215 8.97509H28.5L21.5284 2V7.28114C21.4288 8.17794 22.2256 8.97509 23.2215 8.97509Z" fill="#B0B7BD"/>
<path d="M28.4005 14.1567L23.1221 8.87549H28.4005V14.1567Z" fill="#CAD1D8"/>
<path d="M24.9146 24.6191C24.9146 25.1173 24.5163 25.5159 24.0183 25.5159H4.89634C4.39837 25.5159 4 25.1173 4 24.6191V15.9501C4 15.4519 4.39837 15.0533 4.89634 15.0533H24.0183C24.5163 15.0533 24.9146 15.4519 24.9146 15.9501V24.6191Z" fill="#576D7E"/>
<path d="M24.1179 25.5159H7.48584V26.4127H24.0184C24.5163 26.4127 24.9147 26.0141 24.9147 25.5159V24.6191C24.9147 25.1173 24.5163 25.5159 24.1179 25.5159Z" fill="#CAD1D8"/>
<path d="M10.6668 22.3452C10.5788 22.3452 10.5048 22.3152 10.4448 22.2552C10.3848 22.1952 10.3548 22.1212 10.3548 22.0332V18.2352H9.05875C8.97475 18.2352 8.90475 18.2092 8.84875 18.1572C8.79675 18.1012 8.77075 18.0312 8.77075 17.9472C8.77075 17.8632 8.79675 17.7952 8.84875 17.7432C8.90475 17.6872 8.97475 17.6592 9.05875 17.6592H12.2688C12.3528 17.6592 12.4208 17.6872 12.4728 17.7432C12.5288 17.7952 12.5568 17.8632 12.5568 17.9472C12.5568 18.0312 12.5288 18.1012 12.4728 18.1572C12.4208 18.2092 12.3528 18.2352 12.2688 18.2352H10.9788V22.0332C10.9788 22.1212 10.9488 22.1952 10.8888 22.2552C10.8288 22.3152 10.7548 22.3452 10.6668 22.3452ZM13.4096 22.3452C13.3176 22.3452 13.2476 22.3172 13.1996 22.2612C13.1516 22.2012 13.1276 22.1332 13.1276 22.0572C13.1276 21.9772 13.1516 21.9052 13.1996 21.8412L14.5976 19.9812L13.2776 18.1512C13.2296 18.0872 13.2096 18.0172 13.2176 17.9412C13.2256 17.8652 13.2536 17.7992 13.3016 17.7432C13.3536 17.6872 13.4216 17.6592 13.5056 17.6592C13.6096 17.6592 13.6836 17.6892 13.7276 17.7492L15.0176 19.5372L16.3616 17.7492C16.4176 17.6892 16.4916 17.6592 16.5836 17.6592C16.6676 17.6592 16.7336 17.6852 16.7816 17.7372C16.8296 17.7892 16.8556 17.8532 16.8596 17.9292C16.8636 18.0052 16.8416 18.0792 16.7936 18.1512L15.4256 19.9752L16.7696 21.8412C16.8176 21.9052 16.8396 21.9772 16.8356 22.0572C16.8316 22.1372 16.8036 22.2052 16.7516 22.2612C16.7036 22.3172 16.6356 22.3452 16.5476 22.3452C16.4476 22.3452 16.3676 22.3072 16.3076 22.2312L15.0056 20.4252L13.6256 22.2552C13.5656 22.3152 13.4936 22.3452 13.4096 22.3452ZM19.2885 22.3452C19.2005 22.3452 19.1265 22.3152 19.0665 22.2552C19.0065 22.1952 18.9765 22.1212 18.9765 22.0332V18.2352H17.6805C17.5965 18.2352 17.5265 18.2092 17.4705 18.1572C17.4185 18.1012 17.3925 18.0312 17.3925 17.9472C17.3925 17.8632 17.4185 17.7952 17.4705 17.7432C17.5265 17.6872 17.5965 17.6592 17.6805 17.6592H20.8905C20.9745 17.6592 21.0425 17.6872 21.0945 17.7432C21.1505 17.7952 21.1785 17.8632 21.1785 17.9472C21.1785 18.0312 21.1505 18.1012 21.0945 18.1572C21.0425 18.2092 20.9745 18.2352 20.8905 18.2352H19.6005V22.0332C19.6005 22.1212 19.5705 22.1952 19.5105 22.2552C19.4505 22.3152 19.3765 22.3452 19.2885 22.3452Z" fill="white"/>
<path d="M10.4446 22.2552L10.3031 22.3966L10.4446 22.2552ZM10.3546 18.2352H10.5546V18.0352H10.3546V18.2352ZM8.84856 18.1572L8.70201 18.2933L8.70705 18.2987L8.71247 18.3037L8.84856 18.1572ZM8.84856 17.7432L8.70714 17.6018L8.84856 17.7432ZM12.4726 17.7432L12.326 17.8793L12.331 17.8847L12.3365 17.8897L12.4726 17.7432ZM12.4726 18.1572L12.614 18.2986L12.4726 18.1572ZM10.9786 18.2352V18.0352H10.7786V18.2352H10.9786ZM10.8886 22.2552L11.03 22.3966L10.8886 22.2552ZM10.6666 22.1452C10.6294 22.1452 10.607 22.1347 10.586 22.1138L10.3031 22.3966C10.4022 22.4956 10.5277 22.5452 10.6666 22.5452V22.1452ZM10.586 22.1138C10.565 22.0928 10.5546 22.0703 10.5546 22.0332H10.1546C10.1546 22.172 10.2041 22.2976 10.3031 22.3966L10.586 22.1138ZM10.5546 22.0332V18.2352H10.1546V22.0332H10.5546ZM10.3546 18.0352H9.05856V18.4352H10.3546V18.0352ZM9.05856 18.0352C9.01961 18.0352 8.99986 18.0247 8.98465 18.0106L8.71247 18.3037C8.80927 18.3936 8.92952 18.4352 9.05856 18.4352V18.0352ZM8.99512 18.0211C8.981 18.0059 8.97056 17.9861 8.97056 17.9472H8.57056C8.57056 18.0762 8.61212 18.1965 8.70201 18.2933L8.99512 18.0211ZM8.97056 17.9472C8.97056 17.908 8.98092 17.8937 8.98999 17.8846L8.70714 17.6018C8.61221 17.6967 8.57056 17.8183 8.57056 17.9472H8.97056ZM8.98999 17.8846C9.00603 17.8686 9.02404 17.8592 9.05856 17.8592V17.4592C8.92509 17.4592 8.8031 17.5058 8.70714 17.6018L8.98999 17.8846ZM9.05856 17.8592H12.2686V17.4592H9.05856V17.8592ZM12.2686 17.8592C12.3031 17.8592 12.3158 17.8683 12.326 17.8793L12.6191 17.6071C12.5253 17.5061 12.402 17.4592 12.2686 17.4592V17.8592ZM12.3365 17.8897C12.3474 17.8999 12.3566 17.9127 12.3566 17.9472H12.7566C12.7566 17.8137 12.7097 17.6904 12.6087 17.5966L12.3365 17.8897ZM12.3566 17.9472C12.3566 17.9817 12.3472 17.9997 12.3311 18.0158L12.614 18.2986C12.7099 18.2026 12.7566 18.0807 12.7566 17.9472H12.3566ZM12.3311 18.0158C12.3221 18.0248 12.3077 18.0352 12.2686 18.0352V18.4352C12.3974 18.4352 12.5191 18.3935 12.614 18.2986L12.3311 18.0158ZM12.2686 18.0352H10.9786V18.4352H12.2686V18.0352ZM10.7786 18.2352V22.0332H11.1786V18.2352H10.7786ZM10.7786 22.0332C10.7786 22.0703 10.7681 22.0928 10.7471 22.1138L11.03 22.3966C11.129 22.2976 11.1786 22.172 11.1786 22.0332H10.7786ZM10.7471 22.1138C10.7262 22.1347 10.7037 22.1452 10.6666 22.1452V22.5452C10.8054 22.5452 10.931 22.4956 11.03 22.3966L10.7471 22.1138ZM13.1994 22.2612L13.0431 22.3862L13.0475 22.3913L13.1994 22.2612ZM13.1994 21.8412L13.0395 21.721L13.0394 21.7212L13.1994 21.8412ZM14.5974 19.9812L14.7572 20.1013L14.8457 19.9836L14.7596 19.8642L14.5974 19.9812ZM13.2774 18.1512L13.4396 18.0342L13.4374 18.0312L13.2774 18.1512ZM13.2174 17.9412L13.4163 17.9621L13.2174 17.9412ZM13.3014 17.7432L13.1547 17.607L13.1495 17.613L13.3014 17.7432ZM13.7274 17.7492L13.8896 17.6322L13.8886 17.6309L13.7274 17.7492ZM15.0174 19.5372L14.8552 19.6542L15.0141 19.8744L15.1772 19.6574L15.0174 19.5372ZM16.3614 17.7492L16.2152 17.6127L16.2079 17.6205L16.2015 17.629L16.3614 17.7492ZM16.7814 17.7372L16.9283 17.6015L16.7814 17.7372ZM16.8594 17.9292L17.0591 17.9187L16.8594 17.9292ZM16.7934 18.1512L16.9536 18.2714L16.9598 18.2621L16.7934 18.1512ZM15.4254 19.9752L15.2654 19.8552L15.1772 19.9728L15.2631 20.0921L15.4254 19.9752ZM16.7694 21.8412L16.607 21.9581L16.6094 21.9612L16.7694 21.8412ZM16.8354 22.0572L17.0351 22.0672L16.8354 22.0572ZM16.7514 22.2612L16.6047 22.125L16.5995 22.131L16.7514 22.2612ZM16.3074 22.2312L16.145 22.3483L16.1504 22.3551L16.3074 22.2312ZM15.0054 20.4252L15.1676 20.3082L15.009 20.0882L14.8457 20.3048L15.0054 20.4252ZM13.6254 22.2552L13.7668 22.3966L13.7766 22.3867L13.785 22.3756L13.6254 22.2552ZM13.4094 22.1452C13.3601 22.1452 13.3521 22.132 13.3512 22.131L13.0475 22.3913C13.1426 22.5023 13.2746 22.5452 13.4094 22.5452V22.1452ZM13.3555 22.1362C13.3356 22.1113 13.3274 22.0872 13.3274 22.0572H12.9274C12.9274 22.1791 12.9672 22.2911 13.0432 22.3861L13.3555 22.1362ZM13.3274 22.0572C13.3274 22.0205 13.3373 21.9906 13.3594 21.9612L13.0394 21.7212C12.9654 21.8198 12.9274 21.9339 12.9274 22.0572H13.3274ZM13.3592 21.9613L14.7572 20.1013L14.4375 19.861L13.0395 21.721L13.3592 21.9613ZM14.7596 19.8642L13.4396 18.0342L13.1152 18.2682L14.4352 20.0982L14.7596 19.8642ZM13.4374 18.0312C13.4181 18.0055 13.4138 17.9854 13.4163 17.9621L13.0185 17.9202C13.0049 18.049 13.0406 18.1689 13.1174 18.2712L13.4374 18.0312ZM13.4163 17.9621C13.4202 17.9249 13.4326 17.8974 13.4532 17.8733L13.1495 17.613C13.0741 17.701 13.0305 17.8055 13.0185 17.9202L13.4163 17.9621ZM13.4479 17.8793C13.4581 17.8683 13.4708 17.8592 13.5054 17.8592V17.4592C13.3719 17.4592 13.2486 17.5061 13.1548 17.6071L13.4479 17.8793ZM13.5054 17.8592C13.539 17.8592 13.5566 17.8642 13.5637 17.867C13.569 17.8692 13.5676 17.8696 13.5661 17.8675L13.8886 17.6309C13.7934 17.501 13.646 17.4592 13.5054 17.4592V17.8592ZM13.5652 17.8662L14.8552 19.6542L15.1796 19.4202L13.8896 17.6322L13.5652 17.8662ZM15.1772 19.6574L16.5212 17.8694L16.2015 17.629L14.8575 19.417L15.1772 19.6574ZM16.5076 17.8856C16.521 17.8713 16.5394 17.8592 16.5834 17.8592V17.4592C16.4433 17.4592 16.3137 17.5071 16.2152 17.6127L16.5076 17.8856ZM16.5834 17.8592C16.6229 17.8592 16.6313 17.8695 16.6344 17.8728L16.9283 17.6015C16.8354 17.5009 16.7118 17.4592 16.5834 17.4592V17.8592ZM16.6344 17.8728C16.6483 17.8879 16.6579 17.9065 16.6596 17.9397L17.0591 17.9187C17.0528 17.7999 17.0104 17.6905 16.9283 17.6015L16.6344 17.8728ZM16.6596 17.9397C16.6611 17.9669 16.6545 17.999 16.627 18.0402L16.9598 18.2621C17.0282 18.1594 17.0657 18.0435 17.0591 17.9187L16.6596 17.9397ZM16.6334 18.0312L15.2654 19.8552L15.5854 20.0952L16.9534 18.2712L16.6334 18.0312ZM15.2631 20.0921L16.6071 21.9581L16.9316 21.7243L15.5876 19.8583L15.2631 20.0921ZM16.6094 21.9612C16.6293 21.9878 16.6373 22.0138 16.6356 22.0472L17.0351 22.0672C17.0414 21.9406 17.0054 21.8226 16.9294 21.7212L16.6094 21.9612ZM16.6356 22.0472C16.6338 22.0827 16.6232 22.1053 16.6048 22.1251L16.8979 22.3973C16.9836 22.305 17.0289 22.1917 17.0351 22.0672L16.6356 22.0472ZM16.5995 22.131C16.5969 22.1341 16.5894 22.1452 16.5474 22.1452V22.5452C16.6813 22.5452 16.8098 22.5003 16.9032 22.3913L16.5995 22.131ZM16.5474 22.1452C16.5062 22.1452 16.485 22.1334 16.4643 22.1073L16.1504 22.3551C16.2497 22.481 16.3885 22.5452 16.5474 22.5452V22.1452ZM16.4696 22.1142L15.1676 20.3082L14.8431 20.5421L16.1451 22.3481L16.4696 22.1142ZM14.8457 20.3048L13.4657 22.1348L13.785 22.3756L15.165 20.5456L14.8457 20.3048ZM13.4839 22.1138C13.461 22.1367 13.4397 22.1452 13.4094 22.1452V22.5452C13.547 22.5452 13.6697 22.4937 13.7668 22.3966L13.4839 22.1138ZM19.0663 22.2552L18.9249 22.3966L19.0663 22.2552ZM18.9763 18.2352H19.1763V18.0352H18.9763V18.2352ZM17.4703 18.1572L17.3237 18.2933L17.3288 18.2987L17.3342 18.3037L17.4703 18.1572ZM17.4703 17.7432L17.3289 17.6018L17.4703 17.7432ZM21.0943 17.7432L20.9477 17.8793L20.9528 17.8847L20.9582 17.8897L21.0943 17.7432ZM21.0943 18.1572L21.2357 18.2986L21.0943 18.1572ZM19.6003 18.2352V18.0352H19.4003V18.2352H19.6003ZM19.5103 22.2552L19.6517 22.3966L19.5103 22.2552ZM19.2883 22.1452C19.2511 22.1452 19.2287 22.1347 19.2077 22.1138L18.9249 22.3966C19.0239 22.4956 19.1494 22.5452 19.2883 22.5452V22.1452ZM19.2077 22.1138C19.1867 22.0928 19.1763 22.0703 19.1763 22.0332H18.7763C18.7763 22.172 18.8258 22.2976 18.9249 22.3966L19.2077 22.1138ZM19.1763 22.0332V18.2352H18.7763V22.0332H19.1763ZM18.9763 18.0352H17.6803V18.4352H18.9763V18.0352ZM17.6803 18.0352C17.6413 18.0352 17.6216 18.0247 17.6064 18.0106L17.3342 18.3037C17.431 18.3936 17.5512 18.4352 17.6803 18.4352V18.0352ZM17.6168 18.0211C17.6027 18.0059 17.5923 17.9861 17.5923 17.9472H17.1923C17.1923 18.0762 17.2338 18.1965 17.3237 18.2933L17.6168 18.0211ZM17.5923 17.9472C17.5923 17.908 17.6026 17.8937 17.6117 17.8846L17.3289 17.6018C17.2339 17.6967 17.1923 17.8183 17.1923 17.9472H17.5923ZM17.6117 17.8846C17.6277 17.8686 17.6458 17.8592 17.6803 17.8592V17.4592C17.5468 17.4592 17.4248 17.5058 17.3289 17.6018L17.6117 17.8846ZM17.6803 17.8592H20.8903V17.4592H17.6803V17.8592ZM20.8903 17.8592C20.9248 17.8592 20.9375 17.8683 20.9477 17.8793L21.2408 17.6071C21.147 17.5061 21.0238 17.4592 20.8903 17.4592V17.8592ZM20.9582 17.8897C20.9692 17.8999 20.9783 17.9127 20.9783 17.9472H21.3783C21.3783 17.8137 21.3314 17.6904 21.2304 17.5966L20.9582 17.8897ZM20.9783 17.9472C20.9783 17.9817 20.9689 17.9997 20.9529 18.0158L21.2357 18.2986C21.3317 18.2026 21.3783 18.0807 21.3783 17.9472H20.9783ZM20.9529 18.0158C20.9438 18.0248 20.9294 18.0352 20.8903 18.0352V18.4352C21.0191 18.4352 21.1408 18.3935 21.2357 18.2986L20.9529 18.0158ZM20.8903 18.0352H19.6003V18.4352H20.8903V18.0352ZM19.4003 18.2352V22.0332H19.8003V18.2352H19.4003ZM19.4003 22.0332C19.4003 22.0703 19.3898 22.0928 19.3689 22.1138L19.6517 22.3966C19.7507 22.2976 19.8003 22.172 19.8003 22.0332H19.4003ZM19.3689 22.1138C19.3479 22.1347 19.3254 22.1452 19.2883 22.1452V22.5452C19.4271 22.5452 19.5527 22.4956 19.6517 22.3966L19.3689 22.1138Z" fill="white"/>
</svg>
