<svg width="32" height="32" viewBox="0 0 32 32" fill="none" xmlns="http://www.w3.org/2000/svg">
<path d="M9.27852 2C8.28259 2 7.48584 2.79715 7.48584 3.79359V28.2064C7.48584 29.2028 8.28259 30 9.27852 30H26.7073C27.7033 30 28.5 29.2028 28.5 28.2064V8.97509L21.5285 2H9.27852Z" fill="#E2E5E7"/>
<path d="M23.2215 8.97509H28.5L21.5284 2V7.28114C21.4288 8.17794 22.2256 8.97509 23.2215 8.97509Z" fill="#B0B7BD"/>
<path d="M28.4005 14.2562L23.2217 8.9751H28.5001V14.2562H28.4005Z" fill="#CAD1D8"/>
<path d="M24.9146 24.7188C24.9146 25.217 24.5162 25.6156 24.0183 25.6156H4.89634C4.39837 25.6156 4 25.217 4 24.7188V15.9501C4 15.4519 4.39837 15.0533 4.89634 15.0533H24.0183C24.5162 15.0533 24.9146 15.4519 24.9146 15.9501V24.7188Z" fill="#F15642"/>
<path d="M24.1179 25.6157H7.48584V26.5125H24.0183C24.5163 26.5125 24.9147 26.1139 24.9147 25.6157V24.7189C24.9147 25.2171 24.5163 25.6157 24.1179 25.6157Z" fill="#CAD1D8"/>
<path d="M7.88185 22.4C7.78985 22.4 7.71985 22.372 7.67185 22.316C7.62385 22.256 7.59985 22.188 7.59985 22.112C7.59985 22.032 7.62385 21.96 7.67185 21.896L9.06985 20.036L7.74985 18.206C7.70185 18.142 7.68185 18.072 7.68985 17.996C7.69785 17.92 7.72585 17.854 7.77385 17.798C7.82585 17.742 7.89385 17.714 7.97785 17.714C8.08185 17.714 8.15585 17.744 8.19985 17.804L9.48985 19.592L10.8339 17.804C10.8899 17.744 10.9639 17.714 11.0559 17.714C11.1399 17.714 11.2059 17.74 11.2539 17.792C11.3019 17.844 11.3279 17.908 11.3319 17.984C11.3359 18.06 11.3139 18.134 11.2659 18.206L9.89785 20.03L11.2419 21.896C11.2899 21.96 11.3119 22.032 11.3079 22.112C11.3039 22.192 11.2759 22.26 11.2239 22.316C11.1759 22.372 11.1079 22.4 11.0199 22.4C10.9199 22.4 10.8399 22.362 10.7799 22.286L9.47785 20.48L8.09785 22.31C8.03785 22.37 7.96585 22.4 7.88185 22.4ZM12.6868 22.4C12.5988 22.4 12.5248 22.37 12.4648 22.31C12.4048 22.25 12.3748 22.176 12.3748 22.088V18.026C12.3748 17.934 12.4048 17.86 12.4648 17.804C12.5248 17.744 12.5988 17.714 12.6868 17.714C12.8068 17.714 12.8988 17.77 12.9628 17.882L14.7448 21.452L16.4788 17.882C16.5428 17.77 16.6348 17.714 16.7548 17.714C16.8428 17.714 16.9168 17.744 16.9768 17.804C17.0368 17.86 17.0668 17.934 17.0668 18.026V22.088C17.0668 22.176 17.0348 22.25 16.9708 22.31C16.9108 22.37 16.8388 22.4 16.7548 22.4C16.6668 22.4 16.5928 22.37 16.5328 22.31C16.4728 22.25 16.4428 22.176 16.4428 22.088V19.106L14.9908 22.064C14.9228 22.168 14.8328 22.22 14.7208 22.22C14.5888 22.22 14.4928 22.158 14.4328 22.034L12.9988 19.16V22.088C12.9988 22.176 12.9688 22.25 12.9088 22.31C12.8488 22.37 12.7748 22.4 12.6868 22.4ZM18.7554 22.4C18.6674 22.4 18.5934 22.37 18.5334 22.31C18.4774 22.25 18.4494 22.176 18.4494 22.088V18.026C18.4494 17.938 18.4794 17.864 18.5394 17.804C18.5994 17.744 18.6714 17.714 18.7554 17.714C18.8434 17.714 18.9174 17.744 18.9774 17.804C19.0374 17.864 19.0674 17.938 19.0674 18.026V21.776H21.2394C21.3274 21.776 21.4014 21.806 21.4614 21.866C21.5214 21.926 21.5514 22 21.5514 22.088C21.5514 22.176 21.5214 22.25 21.4614 22.31C21.4014 22.37 21.3274 22.4 21.2394 22.4H18.7554Z" fill="white"/>
<path d="M7.6719 22.316L7.51564 22.441L7.52005 22.4462L7.6719 22.316ZM7.6719 21.896L7.51203 21.7758L7.5119 21.776L7.6719 21.896ZM9.0699 20.036L9.22978 20.1562L9.31826 20.0384L9.23211 19.919L9.0699 20.036ZM7.7499 18.206L7.91214 18.089L7.9099 18.086L7.7499 18.206ZM7.6899 17.996L7.88881 18.0169L7.6899 17.996ZM7.7739 17.798L7.62723 17.6618L7.62205 17.6678L7.7739 17.798ZM8.1999 17.804L8.3621 17.687L8.36119 17.6857L8.1999 17.804ZM9.4899 19.592L9.32771 19.709L9.4866 19.9292L9.64978 19.7122L9.4899 19.592ZM10.8339 17.804L10.6877 17.6675L10.6804 17.6753L10.674 17.6838L10.8339 17.804ZM11.2539 17.792L11.4009 17.6563L11.2539 17.792ZM11.3319 17.984L11.5316 17.9735L11.3319 17.984ZM11.2659 18.206L11.4262 18.3262L11.4323 18.3169L11.2659 18.206ZM9.8979 20.03L9.7379 19.91L9.6497 20.0276L9.73562 20.1469L9.8979 20.03ZM11.2419 21.896L11.0796 22.0129L11.0819 22.016L11.2419 21.896ZM11.3079 22.112L11.5077 22.122L11.3079 22.112ZM11.2239 22.316L11.0772 22.1798L11.0721 22.1858L11.2239 22.316ZM10.7799 22.286L10.6175 22.4031L10.6229 22.4099L10.7799 22.286ZM9.4779 20.48L9.64014 20.363L9.48152 20.143L9.31822 20.3596L9.4779 20.48ZM8.0979 22.31L8.23933 22.4514L8.24919 22.4416L8.25759 22.4304L8.0979 22.31ZM7.8819 22.2C7.83263 22.2 7.82463 22.1869 7.82376 22.1858L7.52005 22.4462C7.61518 22.5571 7.74718 22.6 7.8819 22.6V22.2ZM7.82808 22.1911C7.80811 22.1661 7.7999 22.142 7.7999 22.112H7.3999C7.3999 22.2339 7.4397 22.3459 7.51573 22.4409L7.82808 22.1911ZM7.7999 22.112C7.7999 22.0753 7.80987 22.0454 7.8319 22.016L7.5119 21.776C7.43794 21.8746 7.3999 21.9887 7.3999 22.112H7.7999ZM7.83178 22.0162L9.22978 20.1562L8.91003 19.9158L7.51203 21.7758L7.83178 22.0162ZM9.23211 19.919L7.91211 18.089L7.5877 18.323L8.9077 20.153L9.23211 19.919ZM7.9099 18.086C7.89063 18.0603 7.88636 18.0402 7.88881 18.0169L7.491 17.9751C7.47745 18.1038 7.51318 18.2237 7.5899 18.326L7.9099 18.086ZM7.88881 18.0169C7.89272 17.9797 7.90515 17.9522 7.92576 17.9282L7.62205 17.6678C7.54666 17.7558 7.50309 17.8603 7.491 17.9751L7.88881 18.0169ZM7.92046 17.9341C7.93064 17.9231 7.94338 17.914 7.9779 17.914V17.514C7.84443 17.514 7.72117 17.5609 7.62735 17.6619L7.92046 17.9341ZM7.9779 17.914C8.01156 17.914 8.02916 17.919 8.03626 17.9218C8.0415 17.924 8.04017 17.9244 8.03862 17.9223L8.36119 17.6857C8.26593 17.5558 8.1185 17.514 7.9779 17.514V17.914ZM8.03771 17.921L9.32771 19.709L9.6521 19.475L8.3621 17.687L8.03771 17.921ZM9.64978 19.7122L10.9938 17.9242L10.674 17.6838L9.33003 19.4718L9.64978 19.7122ZM10.9801 17.9405C10.9935 17.9261 11.0119 17.914 11.0559 17.914V17.514C10.9159 17.514 10.7863 17.5619 10.6877 17.6675L10.9801 17.9405ZM11.0559 17.914C11.0954 17.914 11.1039 17.9243 11.1069 17.9276L11.4009 17.6563C11.3079 17.5557 11.1844 17.514 11.0559 17.514V17.914ZM11.1069 17.9276C11.1208 17.9427 11.1304 17.9613 11.1322 17.9945L11.5316 17.9735C11.5254 17.8547 11.483 17.7453 11.4009 17.6563L11.1069 17.9276ZM11.1322 17.9945C11.1336 18.0217 11.127 18.0538 11.0995 18.0951L11.4323 18.3169C11.5008 18.2142 11.5382 18.0983 11.5316 17.9735L11.1322 17.9945ZM11.1059 18.086L9.7379 19.91L10.0579 20.15L11.4259 18.326L11.1059 18.086ZM9.73562 20.1469L11.0796 22.0129L11.4042 21.7791L10.0602 19.9131L9.73562 20.1469ZM11.0819 22.016C11.1018 22.0426 11.1098 22.0686 11.1082 22.102L11.5077 22.122C11.514 21.9954 11.478 21.8774 11.4019 21.776L11.0819 22.016ZM11.1082 22.102C11.1064 22.1375 11.0957 22.1601 11.0773 22.1799L11.3705 22.4521C11.4561 22.3599 11.5014 22.2465 11.5077 22.122L11.1082 22.102ZM11.0721 22.1858C11.0694 22.1889 11.0619 22.2 11.0199 22.2V22.6C11.1539 22.6 11.2824 22.5551 11.3758 22.4462L11.0721 22.1858ZM11.0199 22.2C10.9788 22.2 10.9575 22.1882 10.9369 22.1621L10.6229 22.4099C10.7223 22.5358 10.861 22.6 11.0199 22.6V22.2ZM10.9421 22.169L9.64014 20.363L9.31567 20.597L10.6177 22.403L10.9421 22.169ZM9.31822 20.3596L7.93822 22.1896L8.25759 22.4304L9.63759 20.6004L9.31822 20.3596ZM7.95648 22.1686C7.93356 22.1915 7.91226 22.2 7.8819 22.2V22.6C8.01955 22.6 8.14225 22.5485 8.23933 22.4514L7.95648 22.1686ZM12.4648 22.31L12.3234 22.4514L12.4648 22.31ZM12.4648 17.804L12.6014 17.9503L12.6062 17.9454L12.4648 17.804ZM12.9628 17.882L13.1421 17.7925L13.1365 17.7828L12.9628 17.882ZM14.7448 21.452L14.5659 21.5413L14.7473 21.9047L14.9247 21.5394L14.7448 21.452ZM16.4788 17.882L16.3048 17.7825L16.2989 17.7946L16.4788 17.882ZM16.9768 17.804L16.8353 17.9455L16.8404 17.9502L16.9768 17.804ZM16.9708 22.31L16.834 22.164L16.8294 22.1686L16.9708 22.31ZM16.4428 19.106H16.6428L16.2633 19.0179L16.4428 19.106ZM14.9908 22.064L15.1582 22.1734L15.1649 22.1632L15.1704 22.1521L14.9908 22.064ZM14.4328 22.034L14.6129 21.9469L14.6118 21.9447L14.4328 22.034ZM12.9988 19.16L13.1778 19.0707L12.7988 19.16H12.9988ZM12.6868 22.2C12.6497 22.2 12.6272 22.1895 12.6062 22.1686L12.3234 22.4514C12.4224 22.5504 12.548 22.6 12.6868 22.6V22.2ZM12.6062 22.1686C12.5853 22.1476 12.5748 22.1251 12.5748 22.088H12.1748C12.1748 22.2268 12.2244 22.3524 12.3234 22.4514L12.6062 22.1686ZM12.5748 22.088V18.026H12.1748V22.088H12.5748ZM12.5748 18.026C12.5748 17.982 12.5869 17.9636 12.6013 17.9502L12.3284 17.6578C12.2227 17.7564 12.1748 17.886 12.1748 18.026H12.5748ZM12.6062 17.9454C12.6272 17.9244 12.6497 17.914 12.6868 17.914V17.514C12.548 17.514 12.4224 17.5635 12.3234 17.6626L12.6062 17.9454ZM12.6868 17.914C12.7287 17.914 12.7575 17.9258 12.7892 17.9812L13.1365 17.7828C13.0401 17.6142 12.8849 17.514 12.6868 17.514V17.914ZM12.7839 17.9713L14.5659 21.5413L14.9238 21.3627L13.1418 17.7927L12.7839 17.9713ZM14.9247 21.5394L16.6587 17.9694L16.2989 17.7946L14.5649 21.3646L14.9247 21.5394ZM16.6525 17.9812C16.6841 17.9258 16.7129 17.914 16.7548 17.914V17.514C16.5567 17.514 16.4015 17.6142 16.3052 17.7828L16.6525 17.9812ZM16.7548 17.914C16.792 17.914 16.8144 17.9244 16.8354 17.9454L17.1182 17.6626C17.0192 17.5635 16.8937 17.514 16.7548 17.514V17.914ZM16.8404 17.9502C16.8547 17.9636 16.8668 17.982 16.8668 18.026H17.2668C17.2668 17.886 17.2189 17.7564 17.1133 17.6578L16.8404 17.9502ZM16.8668 18.026V22.088H17.2668V18.026H16.8668ZM16.8668 22.088C16.8668 22.1209 16.8576 22.142 16.834 22.1641L17.1076 22.4559C17.2121 22.358 17.2668 22.2311 17.2668 22.088H16.8668ZM16.8294 22.1686C16.8065 22.1915 16.7852 22.2 16.7548 22.2V22.6C16.8925 22.6 17.0152 22.5485 17.1122 22.4514L16.8294 22.1686ZM16.7548 22.2C16.7177 22.2 16.6952 22.1895 16.6742 22.1686L16.3914 22.4514C16.4904 22.5504 16.616 22.6 16.7548 22.6V22.2ZM16.6742 22.1686C16.6533 22.1476 16.6428 22.1251 16.6428 22.088H16.2428C16.2428 22.2268 16.2924 22.3524 16.3914 22.4514L16.6742 22.1686ZM16.6428 22.088V19.106H16.2428V22.088H16.6428ZM16.2633 19.0179L14.8113 21.9759L15.1704 22.1521L16.6224 19.1941L16.2633 19.0179ZM14.8234 21.9545C14.7876 22.0093 14.757 22.02 14.7208 22.02V22.42C14.9086 22.42 15.0581 22.3266 15.1582 22.1734L14.8234 21.9545ZM14.7208 22.02C14.6872 22.02 14.6692 22.0125 14.6583 22.0055C14.6469 21.9981 14.6302 21.9827 14.6129 21.9469L14.2528 22.1211C14.2955 22.2093 14.3567 22.2869 14.4413 22.3415C14.5264 22.3965 14.6224 22.42 14.7208 22.42V22.02ZM14.6118 21.9447L13.1778 19.0707L12.8199 19.2493L14.2539 22.1233L14.6118 21.9447ZM12.7988 19.16V22.088H13.1988V19.16H12.7988ZM12.7988 22.088C12.7988 22.1251 12.7884 22.1476 12.7674 22.1686L13.0502 22.4514C13.1493 22.3524 13.1988 22.2268 13.1988 22.088H12.7988ZM12.7674 22.1686C12.7464 22.1895 12.724 22.2 12.6868 22.2V22.6C12.8257 22.6 12.9512 22.5504 13.0502 22.4514L12.7674 22.1686ZM18.5334 22.31L18.3871 22.4465L18.3919 22.4514L18.5334 22.31ZM18.5394 17.804L18.3979 17.6626L18.5394 17.804ZM19.0674 21.776H18.8674V21.976H19.0674V21.776ZM21.4614 21.866L21.6028 21.7246L21.4614 21.866ZM21.4614 22.31L21.6028 22.4514L21.4614 22.31ZM18.7554 22.2C18.7182 22.2 18.6957 22.1895 18.6748 22.1686L18.3919 22.4514C18.491 22.5504 18.6165 22.6 18.7554 22.6V22.2ZM18.6796 22.1735C18.6608 22.1534 18.6494 22.1293 18.6494 22.088H18.2494C18.2494 22.2226 18.2939 22.3466 18.3871 22.4465L18.6796 22.1735ZM18.6494 22.088V18.026H18.2494V22.088H18.6494ZM18.6494 18.026C18.6494 17.9888 18.6598 17.9664 18.6808 17.9454L18.3979 17.6626C18.2989 17.7616 18.2494 17.8871 18.2494 18.026H18.6494ZM18.6808 17.9454C18.7037 17.9225 18.725 17.914 18.7554 17.914V17.514C18.6177 17.514 18.495 17.5655 18.3979 17.6626L18.6808 17.9454ZM18.7554 17.914C18.7925 17.914 18.815 17.9244 18.8359 17.9454L19.1188 17.6626C19.0197 17.5635 18.8942 17.514 18.7554 17.514V17.914ZM18.8359 17.9454C18.8569 17.9664 18.8674 17.9888 18.8674 18.026H19.2674C19.2674 17.8871 19.2178 17.7616 19.1188 17.6626L18.8359 17.9454ZM18.8674 18.026V21.776H19.2674V18.026H18.8674ZM19.0674 21.976H21.2394V21.576H19.0674V21.976ZM21.2394 21.976C21.2765 21.976 21.299 21.9864 21.3199 22.0074L21.6028 21.7246C21.5037 21.6255 21.3782 21.576 21.2394 21.576V21.976ZM21.3199 22.0074C21.3409 22.0284 21.3514 22.0508 21.3514 22.088H21.7514C21.7514 21.9491 21.7018 21.8236 21.6028 21.7246L21.3199 22.0074ZM21.3514 22.088C21.3514 22.1251 21.3409 22.1476 21.3199 22.1686L21.6028 22.4514C21.7018 22.3524 21.7514 22.2268 21.7514 22.088H21.3514ZM21.3199 22.1686C21.299 22.1895 21.2765 22.2 21.2394 22.2V22.6C21.3782 22.6 21.5037 22.5504 21.6028 22.4514L21.3199 22.1686ZM21.2394 22.2H18.7554V22.6H21.2394V22.2Z" fill="white"/>
</svg>
