<svg width="32" height="32" viewBox="0 0 32 32" fill="none" xmlns="http://www.w3.org/2000/svg">
<path d="M9.27852 2C8.28259 2 7.48584 2.79715 7.48584 3.79359V28.2064C7.48584 29.2028 8.28259 30 9.27852 30H26.7073C27.7033 30 28.5 29.2028 28.5 28.2064V8.97509L21.5285 2H9.27852Z" fill="#E2E5E7"/>
<path d="M23.2215 8.97509H28.5L21.5284 2V7.28114C21.4288 8.17794 22.2256 8.97509 23.2215 8.97509Z" fill="#B0B7BD"/>
<path d="M28.4005 14.2562L23.2217 8.9751H28.5001V14.2562H28.4005Z" fill="#CAD1D8"/>
<path d="M24.9146 24.7188C24.9146 25.217 24.5162 25.6156 24.0183 25.6156H4.89634C4.39837 25.6156 4 25.217 4 24.7188V15.9501C4 15.4519 4.39837 15.0533 4.89634 15.0533H24.0183C24.5162 15.0533 24.9146 15.4519 24.9146 15.9501V24.7188Z" fill="#84BD5A"/>
<path d="M24.1179 25.6157H7.48584V26.5125H24.0183C24.5163 26.5125 24.9147 26.1139 24.9147 25.6157V24.7189C24.9147 25.2171 24.5163 25.6157 24.1179 25.6157Z" fill="#CAD1D8"/>
<path d="M8.58205 22.4C8.49005 22.4 8.42005 22.372 8.37205 22.316C8.32405 22.256 8.30005 22.188 8.30005 22.112C8.30005 22.032 8.32405 21.96 8.37205 21.896L9.77005 20.036L8.45005 18.206C8.40205 18.142 8.38205 18.072 8.39005 17.996C8.39805 17.92 8.42605 17.854 8.47405 17.798C8.52605 17.742 8.59405 17.714 8.67805 17.714C8.78205 17.714 8.85605 17.744 8.90005 17.804L10.19 19.592L11.534 17.804C11.59 17.744 11.664 17.714 11.756 17.714C11.84 17.714 11.906 17.74 11.954 17.792C12.002 17.844 12.028 17.908 12.032 17.984C12.036 18.06 12.014 18.134 11.966 18.206L10.598 20.03L11.942 21.896C11.99 21.96 12.012 22.032 12.008 22.112C12.004 22.192 11.976 22.26 11.924 22.316C11.876 22.372 11.808 22.4 11.72 22.4C11.62 22.4 11.54 22.362 11.48 22.286L10.178 20.48L8.79805 22.31C8.73805 22.37 8.66605 22.4 8.58205 22.4ZM13.3809 22.4C13.2929 22.4 13.2189 22.37 13.1589 22.31C13.1029 22.25 13.0749 22.176 13.0749 22.088V18.026C13.0749 17.938 13.1049 17.864 13.1649 17.804C13.2249 17.744 13.2969 17.714 13.3809 17.714C13.4689 17.714 13.5429 17.744 13.6029 17.804C13.6629 17.864 13.6929 17.938 13.6929 18.026V21.776H15.8649C15.9529 21.776 16.0269 21.806 16.0869 21.866C16.1469 21.926 16.1769 22 16.1769 22.088C16.1769 22.176 16.1469 22.25 16.0869 22.31C16.0269 22.37 15.9529 22.4 15.8649 22.4H13.3809ZM18.5925 22.46C18.3365 22.46 18.0925 22.42 17.8605 22.34C17.6285 22.26 17.4265 22.148 17.2545 22.004C17.0825 21.86 16.9565 21.694 16.8765 21.506C16.8365 21.422 16.8365 21.344 16.8765 21.272C16.9205 21.2 16.9925 21.154 17.0925 21.134C17.1645 21.118 17.2345 21.13 17.3025 21.17C17.3745 21.206 17.4285 21.262 17.4645 21.338C17.5125 21.438 17.5905 21.53 17.6985 21.614C17.8105 21.698 17.9445 21.766 18.1005 21.818C18.2565 21.87 18.4205 21.896 18.5925 21.896C18.7845 21.896 18.9605 21.866 19.1205 21.806C19.2845 21.746 19.4165 21.66 19.5165 21.548C19.6165 21.432 19.6665 21.29 19.6665 21.122C19.6665 20.91 19.5825 20.72 19.4145 20.552C19.2505 20.384 18.9785 20.28 18.5985 20.24C18.1025 20.192 17.7125 20.046 17.4285 19.802C17.1445 19.558 17.0025 19.256 17.0025 18.896C17.0025 18.632 17.0765 18.408 17.2245 18.224C17.3725 18.04 17.5725 17.9 17.8245 17.804C18.0805 17.708 18.3645 17.66 18.6765 17.66C19.0405 17.66 19.3385 17.734 19.5705 17.882C19.8025 18.03 19.9945 18.226 20.1465 18.47C20.2025 18.558 20.2245 18.642 20.2125 18.722C20.2045 18.798 20.1665 18.858 20.0985 18.902C20.0225 18.95 19.9405 18.96 19.8525 18.932C19.7645 18.904 19.6985 18.852 19.6545 18.776C19.5545 18.604 19.4245 18.47 19.2645 18.374C19.1085 18.278 18.9065 18.228 18.6585 18.224C18.3625 18.22 18.1145 18.276 17.9145 18.392C17.7145 18.504 17.6145 18.678 17.6145 18.914C17.6145 19.034 17.6445 19.15 17.7045 19.262C17.7685 19.37 17.8825 19.464 18.0465 19.544C18.2145 19.624 18.4545 19.68 18.7665 19.712C19.2425 19.76 19.6125 19.906 19.8765 20.15C20.1445 20.39 20.2785 20.708 20.2785 21.104C20.2785 21.332 20.2305 21.53 20.1345 21.698C20.0425 21.866 19.9165 22.008 19.7565 22.124C19.6005 22.236 19.4205 22.32 19.2165 22.376C19.0165 22.432 18.8085 22.46 18.5925 22.46Z" fill="white"/>
<path d="M8.3721 22.316L8.21584 22.441L8.22025 22.4462L8.3721 22.316ZM8.3721 21.896L8.21222 21.7758L8.2121 21.776L8.3721 21.896ZM9.7701 20.036L9.92998 20.1562L10.0185 20.0384L9.93231 19.919L9.7701 20.036ZM8.4501 18.206L8.61233 18.089L8.6101 18.086L8.4501 18.206ZM8.3901 17.996L8.589 18.0169L8.3901 17.996ZM8.4741 17.798L8.32743 17.6618L8.32225 17.6678L8.4741 17.798ZM8.9001 17.804L9.0623 17.687L9.06138 17.6857L8.9001 17.804ZM10.1901 19.592L10.0279 19.709L10.1868 19.9292L10.35 19.7122L10.1901 19.592ZM11.5341 17.804L11.3879 17.6675L11.3806 17.6753L11.3742 17.6838L11.5341 17.804ZM11.9541 17.792L12.1011 17.6563L11.9541 17.792ZM12.0321 17.984L12.2318 17.9735L12.0321 17.984ZM11.9661 18.206L12.1263 18.3262L12.1325 18.3169L11.9661 18.206ZM10.5981 20.03L10.4381 19.91L10.3499 20.0276L10.4358 20.1469L10.5981 20.03ZM11.9421 21.896L11.7798 22.0129L11.7821 22.016L11.9421 21.896ZM12.0081 22.112L12.2079 22.122L12.0081 22.112ZM11.9241 22.316L11.7774 22.1798L11.7722 22.1858L11.9241 22.316ZM11.4801 22.286L11.3177 22.4031L11.3231 22.4099L11.4801 22.286ZM10.1781 20.48L10.3403 20.363L10.1817 20.143L10.0184 20.3596L10.1781 20.48ZM8.7981 22.31L8.93952 22.4514L8.94939 22.4416L8.95779 22.4304L8.7981 22.31ZM8.5821 22.2C8.53283 22.2 8.52483 22.1869 8.52395 22.1858L8.22025 22.4462C8.31537 22.5571 8.44737 22.6 8.5821 22.6V22.2ZM8.52827 22.1911C8.5083 22.1661 8.5001 22.142 8.5001 22.112H8.1001C8.1001 22.2339 8.1399 22.3459 8.21593 22.4409L8.52827 22.1911ZM8.5001 22.112C8.5001 22.0753 8.51006 22.0454 8.5321 22.016L8.2121 21.776C8.13814 21.8746 8.1001 21.9887 8.1001 22.112H8.5001ZM8.53198 22.0162L9.92998 20.1562L9.61022 19.9158L8.21222 21.7758L8.53198 22.0162ZM9.93231 19.919L8.61231 18.089L8.28789 18.323L9.60789 20.153L9.93231 19.919ZM8.6101 18.086C8.59083 18.0603 8.58655 18.0402 8.589 18.0169L8.1912 17.9751C8.17765 18.1038 8.21337 18.2237 8.2901 18.326L8.6101 18.086ZM8.589 18.0169C8.59292 17.9797 8.60534 17.9522 8.62595 17.9282L8.32225 17.6678C8.24686 17.7558 8.20328 17.8603 8.1912 17.9751L8.589 18.0169ZM8.62066 17.9341C8.63083 17.9231 8.64358 17.914 8.6781 17.914V17.514C8.54462 17.514 8.42137 17.5609 8.32754 17.6619L8.62066 17.9341ZM8.6781 17.914C8.71176 17.914 8.72935 17.919 8.73646 17.9218C8.7417 17.924 8.74037 17.9244 8.73882 17.9223L9.06138 17.6857C8.96612 17.5558 8.81869 17.514 8.6781 17.514V17.914ZM8.73791 17.921L10.0279 19.709L10.3523 19.475L9.06229 17.687L8.73791 17.921ZM10.35 19.7122L11.694 17.9242L11.3742 17.6838L10.0302 19.4718L10.35 19.7122ZM11.6803 17.9405C11.6937 17.9261 11.7121 17.914 11.7561 17.914V17.514C11.6161 17.514 11.4865 17.5619 11.3879 17.6675L11.6803 17.9405ZM11.7561 17.914C11.7956 17.914 11.8041 17.9243 11.8071 17.9276L12.1011 17.6563C12.0081 17.5557 11.8846 17.514 11.7561 17.514V17.914ZM11.8071 17.9276C11.821 17.9427 11.8306 17.9613 11.8324 17.9945L12.2318 17.9735C12.2256 17.8547 12.1832 17.7453 12.1011 17.6563L11.8071 17.9276ZM11.8324 17.9945C11.8338 18.0217 11.8272 18.0538 11.7997 18.0951L12.1325 18.3169C12.201 18.2142 12.2384 18.0983 12.2318 17.9735L11.8324 17.9945ZM11.8061 18.086L10.4381 19.91L10.7581 20.15L12.1261 18.326L11.8061 18.086ZM10.4358 20.1469L11.7798 22.0129L12.1044 21.7791L10.7604 19.9131L10.4358 20.1469ZM11.7821 22.016C11.802 22.0426 11.81 22.0686 11.8083 22.102L12.2079 22.122C12.2142 21.9954 12.1782 21.8774 12.1021 21.776L11.7821 22.016ZM11.8083 22.102C11.8066 22.1375 11.7959 22.1601 11.7775 22.1799L12.0707 22.4521C12.1563 22.3599 12.2016 22.2465 12.2079 22.122L11.8083 22.102ZM11.7722 22.1858C11.7696 22.1889 11.7621 22.2 11.7201 22.2V22.6C11.8541 22.6 11.9826 22.5551 12.076 22.4462L11.7722 22.1858ZM11.7201 22.2C11.679 22.2 11.6577 22.1882 11.6371 22.1621L11.3231 22.4099C11.4225 22.5358 11.5612 22.6 11.7201 22.6V22.2ZM11.6423 22.169L10.3403 20.363L10.0159 20.597L11.3179 22.403L11.6423 22.169ZM10.0184 20.3596L8.63841 22.1896L8.95779 22.4304L10.3378 20.6004L10.0184 20.3596ZM8.65668 22.1686C8.63376 22.1915 8.61245 22.2 8.5821 22.2V22.6C8.71975 22.6 8.84244 22.5485 8.93952 22.4514L8.65668 22.1686ZM13.159 22.31L13.0127 22.4465L13.0176 22.4514L13.159 22.31ZM13.165 17.804L13.0236 17.6626L13.165 17.804ZM13.693 21.776H13.493V21.976H13.693V21.776ZM16.087 21.866L16.2284 21.7246L16.087 21.866ZM16.087 22.31L16.2284 22.4514L16.087 22.31ZM13.381 22.2C13.3439 22.2 13.3214 22.1895 13.3004 22.1686L13.0176 22.4514C13.1166 22.5504 13.2422 22.6 13.381 22.6V22.2ZM13.3052 22.1735C13.2864 22.1534 13.275 22.1293 13.275 22.088H12.875C12.875 22.2226 12.9196 22.3466 13.0128 22.4465L13.3052 22.1735ZM13.275 22.088V18.026H12.875V22.088H13.275ZM13.275 18.026C13.275 17.9888 13.2855 17.9664 13.3064 17.9454L13.0236 17.6626C12.9246 17.7616 12.875 17.8871 12.875 18.026H13.275ZM13.3064 17.9454C13.3294 17.9225 13.3507 17.914 13.381 17.914V17.514C13.2434 17.514 13.1207 17.5655 13.0236 17.6626L13.3064 17.9454ZM13.381 17.914C13.4182 17.914 13.4406 17.9244 13.4616 17.9454L13.7444 17.6626C13.6454 17.5635 13.5199 17.514 13.381 17.514V17.914ZM13.4616 17.9454C13.4826 17.9664 13.493 17.9888 13.493 18.026H13.893C13.893 17.8871 13.8435 17.7616 13.7444 17.6626L13.4616 17.9454ZM13.493 18.026V21.776H13.893V18.026H13.493ZM13.693 21.976H15.865V21.576H13.693V21.976ZM15.865 21.976C15.9022 21.976 15.9246 21.9864 15.9456 22.0074L16.2284 21.7246C16.1294 21.6255 16.0039 21.576 15.865 21.576V21.976ZM15.9456 22.0074C15.9666 22.0284 15.977 22.0508 15.977 22.088H16.377C16.377 21.9491 16.3275 21.8236 16.2284 21.7246L15.9456 22.0074ZM15.977 22.088C15.977 22.1251 15.9666 22.1476 15.9456 22.1686L16.2284 22.4514C16.3275 22.3524 16.377 22.2268 16.377 22.088H15.977ZM15.9456 22.1686C15.9246 22.1895 15.9022 22.2 15.865 22.2V22.6C16.0039 22.6 16.1294 22.5504 16.2284 22.4514L15.9456 22.1686ZM15.865 22.2H13.381V22.6H15.865V22.2ZM17.8606 22.34L17.9258 22.1509L17.8606 22.34ZM17.2546 22.004L17.1262 22.1573L17.2546 22.004ZM16.8766 21.506L17.0608 21.4276L17.0572 21.42L16.8766 21.506ZM16.8766 21.272L16.7058 21.1676L16.7018 21.1749L16.8766 21.272ZM17.0926 21.134L17.1319 21.3302L17.136 21.3292L17.0926 21.134ZM17.3026 21.17L17.201 21.3428L17.2132 21.3489L17.3026 21.17ZM17.4646 21.338L17.2839 21.4236L17.2843 21.4245L17.4646 21.338ZM17.6986 21.614L17.5758 21.7719L17.5786 21.774L17.6986 21.614ZM18.1006 21.818L18.0374 22.0077L18.1006 21.818ZM19.1206 21.806L19.0519 21.6182L19.0504 21.6187L19.1206 21.806ZM19.5166 21.548L19.6658 21.6812L19.6681 21.6786L19.5166 21.548ZM19.4146 20.552L19.2715 20.6917L19.2732 20.6934L19.4146 20.552ZM18.5986 20.24L18.6196 20.0411L18.6179 20.0409L18.5986 20.24ZM17.4286 19.802L17.559 19.6503L17.4286 19.802ZM17.8246 17.804L17.7544 17.6167L17.7534 17.6171L17.8246 17.804ZM19.5706 17.882L19.6782 17.7134L19.5706 17.882ZM20.1466 18.47L19.9769 18.5757L19.9779 18.5774L20.1466 18.47ZM20.2126 18.722L20.0147 18.6923L20.0137 18.7011L20.2126 18.722ZM20.0986 18.902L20.2054 19.0711L20.2073 19.0699L20.0986 18.902ZM19.8526 18.932L19.792 19.1226L19.8526 18.932ZM19.6546 18.776L19.8277 18.6758L19.8275 18.6755L19.6546 18.776ZM19.2646 18.374L19.1598 18.5443L19.1617 18.5455L19.2646 18.374ZM18.6586 18.224L18.6619 18.024H18.6613L18.6586 18.224ZM17.9146 18.392L18.0124 18.5665L18.015 18.565L17.9146 18.392ZM17.7046 19.262L17.5282 19.3565L17.5326 19.364L17.7046 19.262ZM18.0466 19.544L17.9589 19.7238L17.9606 19.7246L18.0466 19.544ZM18.7666 19.712L18.7462 19.911H18.7466L18.7666 19.712ZM19.8766 20.15L19.7409 20.2969L19.7432 20.299L19.8766 20.15ZM20.1346 21.698L19.961 21.5987L19.9592 21.6019L20.1346 21.698ZM19.7566 22.124L19.8733 22.2865L19.874 22.2859L19.7566 22.124ZM19.2166 22.376L19.1637 22.1831L19.1627 22.1834L19.2166 22.376ZM18.5926 22.26C18.3579 22.26 18.136 22.2234 17.9258 22.1509L17.7954 22.5291C18.0493 22.6166 18.3154 22.66 18.5926 22.66V22.26ZM17.9258 22.1509C17.7147 22.0781 17.5346 21.9776 17.383 21.8506L17.1262 22.1573C17.3186 22.3184 17.5425 22.4419 17.7954 22.5291L17.9258 22.1509ZM17.383 21.8506C17.2328 21.7249 17.1271 21.5839 17.0607 21.4277L16.6926 21.5843C16.7861 21.8041 16.9324 21.9951 17.1262 22.1573L17.383 21.8506ZM17.0572 21.42C17.0476 21.3997 17.0466 21.3886 17.0466 21.3845C17.0466 21.3814 17.047 21.3771 17.0515 21.3691L16.7018 21.1749C16.626 21.3114 16.6324 21.4583 16.6961 21.592L17.0572 21.42ZM17.0473 21.3763C17.0562 21.3617 17.0742 21.3416 17.1319 21.3301L17.0534 20.9379C16.911 20.9663 16.785 21.0383 16.706 21.1677L17.0473 21.3763ZM17.136 21.3292C17.155 21.325 17.1735 21.3261 17.2012 21.3424L17.404 20.9976C17.2957 20.9339 17.1743 20.911 17.0492 20.9388L17.136 21.3292ZM17.2132 21.3489C17.2433 21.3639 17.2661 21.3861 17.2839 21.4236L17.6454 21.2524C17.5912 21.1379 17.506 21.0481 17.3921 20.9911L17.2132 21.3489ZM17.2843 21.4245C17.3485 21.5582 17.449 21.6732 17.5758 21.7719L17.8214 21.4561C17.7323 21.3868 17.6768 21.3178 17.6449 21.2514L17.2843 21.4245ZM17.5786 21.774C17.7105 21.8729 17.8645 21.9501 18.0374 22.0077L18.1639 21.6283C18.0248 21.5819 17.9107 21.5231 17.8186 21.454L17.5786 21.774ZM18.0374 22.0077C18.2147 22.0668 18.4001 22.096 18.5926 22.096V21.696C18.4411 21.696 18.2986 21.6732 18.1639 21.6283L18.0374 22.0077ZM18.5926 22.096C18.8057 22.096 19.0058 22.0627 19.1909 21.9933L19.0504 21.6187C18.9155 21.6693 18.7636 21.696 18.5926 21.696V22.096ZM19.1893 21.9938C19.3792 21.9244 19.5406 21.8215 19.6658 21.6812L19.3674 21.4148C19.2927 21.4985 19.1901 21.5676 19.0519 21.6182L19.1893 21.9938ZM19.6681 21.6786C19.8025 21.5227 19.8666 21.3329 19.8666 21.122H19.4666C19.4666 21.2471 19.4307 21.3413 19.3651 21.4174L19.6681 21.6786ZM19.8666 21.122C19.8666 20.8503 19.7566 20.6111 19.5561 20.4106L19.2732 20.6934C19.4086 20.8289 19.4666 20.9696 19.4666 21.122H19.8666ZM19.5577 20.4123C19.3462 20.1956 19.0189 20.0831 18.6196 20.0411L18.5777 20.4389C18.9384 20.4769 19.1551 20.5724 19.2715 20.6917L19.5577 20.4123ZM18.6179 20.0409C18.1495 19.9956 17.8029 19.8598 17.559 19.6503L17.2983 19.9537C17.6224 20.2322 18.0557 20.3884 18.5794 20.4391L18.6179 20.0409ZM17.559 19.6503C17.3172 19.4425 17.2026 19.1951 17.2026 18.896H16.8026C16.8026 19.3169 16.9721 19.6734 17.2983 19.9537L17.559 19.6503ZM17.2026 18.896C17.2026 18.6719 17.2644 18.4936 17.3805 18.3493L17.0688 18.0986C16.8888 18.3224 16.8026 18.5921 16.8026 18.896H17.2026ZM17.3805 18.3493C17.5032 18.1967 17.6722 18.0761 17.8958 17.9909L17.7534 17.6171C17.473 17.7239 17.242 17.8832 17.0688 18.0986L17.3805 18.3493ZM17.8949 17.9913C18.1255 17.9048 18.3853 17.86 18.6766 17.86V17.46C18.344 17.46 18.0358 17.5112 17.7544 17.6167L17.8949 17.9913ZM18.6766 17.86C19.0146 17.86 19.272 17.9287 19.4631 18.0506L19.6782 17.7134C19.4052 17.5393 19.0667 17.46 18.6766 17.46V17.86ZM19.4631 18.0506C19.6688 18.1818 19.8399 18.3559 19.9769 18.5757L20.3164 18.3642C20.1493 18.0961 19.9365 17.8782 19.6782 17.7134L19.4631 18.0506ZM19.9779 18.5774C20.0157 18.6367 20.0178 18.6725 20.0148 18.6923L20.4104 18.7517C20.4314 18.6115 20.3896 18.4792 20.3154 18.3626L19.9779 18.5774ZM20.0137 18.7011C20.0127 18.7108 20.0105 18.7149 20.0092 18.717C20.0077 18.7194 20.0031 18.7256 19.99 18.7341L20.2073 19.0699C20.3225 18.9953 20.3968 18.8831 20.4115 18.7429L20.0137 18.7011ZM19.9918 18.7329C19.9673 18.7484 19.9468 18.7521 19.9133 18.7414L19.792 19.1226C19.9345 19.1679 20.078 19.1516 20.2054 19.0711L19.9918 18.7329ZM19.9133 18.7414C19.87 18.7276 19.8454 18.7063 19.8277 18.6758L19.4815 18.8762C19.5519 18.9976 19.6593 19.0803 19.792 19.1226L19.9133 18.7414ZM19.8275 18.6755C19.7117 18.4763 19.5584 18.317 19.3675 18.2025L19.1617 18.5455C19.2909 18.623 19.3975 18.7317 19.4817 18.8765L19.8275 18.6755ZM19.3695 18.2037C19.1739 18.0833 18.9335 18.0284 18.6619 18.024L18.6554 18.424C18.8798 18.4276 19.0434 18.4727 19.1598 18.5443L19.3695 18.2037ZM18.6613 18.024C18.3391 18.0197 18.0532 18.0804 17.8143 18.219L18.015 18.565C18.1761 18.4716 18.3861 18.4203 18.6559 18.424L18.6613 18.024ZM17.8169 18.2175C17.69 18.2886 17.5867 18.3843 17.5162 18.5068C17.446 18.6291 17.4146 18.7672 17.4146 18.914H17.8146C17.8146 18.8248 17.8333 18.7579 17.863 18.7062C17.8926 18.6547 17.9393 18.6074 18.0124 18.5665L17.8169 18.2175ZM17.4146 18.914C17.4146 19.0689 17.4537 19.2172 17.5283 19.3564L17.8809 19.1675C17.8355 19.0828 17.8146 18.9991 17.8146 18.914H17.4146ZM17.5326 19.364C17.6236 19.5176 17.7749 19.634 17.9589 19.7237L18.1343 19.3642C17.9903 19.294 17.9136 19.2224 17.8767 19.16L17.5326 19.364ZM17.9606 19.7246C18.1587 19.8189 18.4249 19.878 18.7462 19.911L18.787 19.513C18.4844 19.482 18.2706 19.4291 18.1326 19.3634L17.9606 19.7246ZM18.7466 19.911C19.1936 19.9561 19.5179 20.0907 19.7409 20.2969L20.0124 20.0031C19.7074 19.7212 19.2917 19.5639 18.7867 19.513L18.7466 19.911ZM19.7432 20.299C19.9643 20.497 20.0786 20.7585 20.0786 21.104H20.4786C20.4786 20.6575 20.325 20.283 20.0101 20.001L19.7432 20.299ZM20.0786 21.104C20.0786 21.3034 20.0369 21.466 19.961 21.5988L20.3083 21.7972C20.4244 21.594 20.4786 21.3606 20.4786 21.104H20.0786ZM19.9592 21.6019C19.8819 21.7431 19.776 21.8629 19.6392 21.9621L19.874 22.2859C20.0572 22.1531 20.2034 21.9889 20.3101 21.7941L19.9592 21.6019ZM19.64 21.9615C19.5051 22.0584 19.3471 22.1328 19.1637 22.1831L19.2696 22.5689C19.4941 22.5072 19.6961 22.4136 19.8733 22.2865L19.64 21.9615ZM19.1627 22.1834C18.981 22.2343 18.7911 22.26 18.5926 22.26V22.66C18.8261 22.66 19.0523 22.6297 19.2706 22.5686L19.1627 22.1834Z" fill="white"/>
</svg>
