<svg width="24" height="24" viewBox="0 0 24 24" fill="none" xmlns="http://www.w3.org/2000/svg">
<path d="M11.9861 12.918C7.73236 12.9246 4.21349 15.7094 4.00098 19.2286C3.99532 19.3285 4.0143 19.4282 4.05676 19.5218C4.09922 19.6155 4.16427 19.7009 4.24796 19.7731C4.33165 19.8453 4.43222 19.9026 4.54355 19.9416C4.65488 19.9806 4.77465 20.0005 4.89556 20H19.1114C19.2317 19.9997 19.3507 19.9792 19.4612 19.9399C19.5718 19.9005 19.6715 19.8431 19.7544 19.771C19.8374 19.6989 19.9018 19.6137 19.9438 19.5205C19.9859 19.4273 20.0047 19.328 19.999 19.2286C19.7862 15.7049 16.2591 12.9184 12 12.918H11.9861Z" fill="url(#paint0_linear_2152_3694)"/>
<path d="M12.0007 4C9.75147 4 7.91774 5.83482 7.91772 8.07736C7.91772 10.3199 9.75146 12.161 12.0007 12.161C14.25 12.161 16.0901 10.3199 16.0901 8.07736C16.0901 5.83482 14.25 4 12.0007 4Z" fill="url(#paint1_linear_2152_3694)"/>
<defs>
<linearGradient id="paint0_linear_2152_3694" x1="12" y1="12.918" x2="12" y2="20" gradientUnits="userSpaceOnUse">
<stop stop-color="#20C560"/>
<stop offset="1" stop-color="#04A481"/>
</linearGradient>
<linearGradient id="paint1_linear_2152_3694" x1="12.0039" y1="4" x2="12.0039" y2="12.161" gradientUnits="userSpaceOnUse">
<stop stop-color="#20C560"/>
<stop offset="1" stop-color="#04A481"/>
</linearGradient>
</defs>
</svg>
