<svg width="24" height="24" viewBox="0 0 24 24" fill="none" xmlns="http://www.w3.org/2000/svg">
<path d="M19.8389 4.18335C19.5798 3.92632 19.2698 3.7263 18.9288 3.59611C18.5878 3.46592 18.2234 3.40844 17.8589 3.42735C17.1173 3.46848 16.419 3.79025 15.9059 4.32735L7.91393 12.2833C7.87277 12.3286 7.83933 12.3803 7.81493 12.4363C7.77944 12.4871 7.74928 12.5414 7.72493 12.5983L6.59993 16.2703C6.55982 16.4074 6.55292 16.5521 6.5798 16.6924C6.60667 16.8327 6.66656 16.9646 6.7545 17.0772C6.84244 17.1897 6.95591 17.2797 7.08553 17.3398C7.21516 17.3998 7.3572 17.4281 7.49993 17.4223C7.58342 17.4355 7.66845 17.4355 7.75193 17.4223L11.3519 16.3693L11.5139 16.2793C11.57 16.255 11.6217 16.2215 11.6669 16.1803L19.6499 8.18835C20.187 7.67524 20.5088 6.97701 20.5499 6.23535C20.5851 5.86236 20.5398 5.48617 20.4171 5.13218C20.2945 4.77819 20.0973 4.45463 19.8389 4.18335Z" fill="url(#paint0_linear_2149_3164)"/>
<path d="M20.1 21.0223H3.9C3.66131 21.0223 3.43239 20.9275 3.2636 20.7587C3.09482 20.5899 3 20.361 3 20.1223C3 19.8836 3.09482 19.6547 3.2636 19.4859C3.43239 19.3171 3.66131 19.2223 3.9 19.2223H20.1C20.3387 19.2223 20.5676 19.3171 20.7364 19.4859C20.9052 19.6547 21 19.8836 21 20.1223C21 20.361 20.9052 20.5899 20.7364 20.7587C20.5676 20.9275 20.3387 21.0223 20.1 21.0223Z" fill="url(#paint1_linear_2149_3164)"/>
<defs>
<linearGradient id="paint0_linear_2149_3164" x1="13.5626" y1="3.42383" x2="13.5626" y2="17.4322" gradientUnits="userSpaceOnUse">
<stop stop-color="#20C560"/>
<stop offset="1" stop-color="#04A481"/>
</linearGradient>
<linearGradient id="paint1_linear_2149_3164" x1="12" y1="19.2223" x2="12" y2="21.0223" gradientUnits="userSpaceOnUse">
<stop stop-color="#20C560"/>
<stop offset="1" stop-color="#04A481"/>
</linearGradient>
</defs>
</svg>
