<svg width="24" height="24" viewBox="0 0 24 24" fill="none" xmlns="http://www.w3.org/2000/svg">
<path d="M18.4013 13.0981H17.0093C17.1512 13.4798 17.2287 13.8916 17.2287 14.3209V19.4893C17.2287 19.6683 17.197 19.84 17.1393 19.9998H19.4406C20.3003 19.9998 20.9997 19.3127 20.9997 18.4683V15.6507C20.9997 14.2432 19.8341 13.0981 18.4013 13.0981Z" fill="url(#paint0_linear_2596_3974)"/>
<path d="M6.771 14.321C6.771 13.8917 6.84852 13.4799 6.99041 13.0983H5.59838C4.16563 13.0983 3 14.2434 3 15.6509V18.4684C3 19.3129 3.69936 20 4.55903 20H6.8604C6.80271 19.8401 6.771 19.6684 6.771 19.4894V14.321V14.321Z" fill="url(#paint1_linear_2596_3974)"/>
<path d="M13.5908 11.7684H10.4084C8.97569 11.7684 7.81006 12.9135 7.81006 14.321V19.4894C7.81006 19.7714 8.04272 20 8.32973 20H15.6695C15.9565 20 16.1892 19.7714 16.1892 19.4894V14.321C16.1892 12.9135 15.0236 11.7684 13.5908 11.7684Z" fill="url(#paint2_linear_2596_3974)"/>
<path d="M11.9999 5C10.2768 5 8.875 6.37711 8.875 8.06986C8.875 9.21803 9.52008 10.2208 10.4727 10.7473C10.9246 10.997 11.4455 11.1397 11.9999 11.1397C12.5542 11.1397 13.0751 10.997 13.527 10.7473C14.4797 10.2208 15.1247 9.218 15.1247 8.06986C15.1247 6.37715 13.7229 5 11.9999 5Z" fill="url(#paint3_linear_2596_3974)"/>
<path d="M6.51277 7.86133C5.22413 7.86133 4.17578 8.89121 4.17578 10.1572C4.17578 11.4231 5.22413 12.453 6.51277 12.453C6.83965 12.453 7.15092 12.3865 7.43368 12.2669C7.92256 12.0601 8.32566 11.6941 8.57509 11.2356C8.75017 10.9139 8.84977 10.5468 8.84977 10.1572C8.84977 8.89125 7.80142 7.86133 6.51277 7.86133Z" fill="url(#paint4_linear_2596_3974)"/>
<path d="M17.4874 7.86133C16.1987 7.86133 15.1504 8.89121 15.1504 10.1572C15.1504 10.5468 15.25 10.9139 15.4251 11.2356C15.6745 11.6941 16.0776 12.0602 16.5665 12.2669C16.8492 12.3865 17.1605 12.453 17.4874 12.453C18.776 12.453 19.8244 11.4231 19.8244 10.1572C19.8244 8.89121 18.776 7.86133 17.4874 7.86133Z" fill="url(#paint5_linear_2596_3974)"/>
<defs>
<linearGradient id="paint0_linear_2596_3974" x1="19.0045" y1="13.0981" x2="19.0045" y2="19.9998" gradientUnits="userSpaceOnUse">
<stop stop-color="#20C560"/>
<stop offset="1" stop-color="#04A481"/>
</linearGradient>
<linearGradient id="paint1_linear_2596_3974" x1="4.99521" y1="13.0983" x2="4.99521" y2="20" gradientUnits="userSpaceOnUse">
<stop stop-color="#20C560"/>
<stop offset="1" stop-color="#04A481"/>
</linearGradient>
<linearGradient id="paint2_linear_2596_3974" x1="11.9996" y1="11.7684" x2="11.9996" y2="20" gradientUnits="userSpaceOnUse">
<stop stop-color="#20C560"/>
<stop offset="1" stop-color="#04A481"/>
</linearGradient>
<linearGradient id="paint3_linear_2596_3974" x1="11.9999" y1="5" x2="11.9999" y2="11.1397" gradientUnits="userSpaceOnUse">
<stop stop-color="#20C560"/>
<stop offset="1" stop-color="#04A481"/>
</linearGradient>
<linearGradient id="paint4_linear_2596_3974" x1="6.51277" y1="7.86133" x2="6.51277" y2="12.453" gradientUnits="userSpaceOnUse">
<stop stop-color="#20C560"/>
<stop offset="1" stop-color="#04A481"/>
</linearGradient>
<linearGradient id="paint5_linear_2596_3974" x1="17.4874" y1="7.86133" x2="17.4874" y2="12.453" gradientUnits="userSpaceOnUse">
<stop stop-color="#20C560"/>
<stop offset="1" stop-color="#04A481"/>
</linearGradient>
</defs>
</svg>
