<svg width="24" height="24" viewBox="0 0 24 24" fill="none" xmlns="http://www.w3.org/2000/svg">
<path d="M2.2231 12.6115C3.52862 14.2475 7.41214 18.6103 12.0063 18.6103C16.6004 18.6103 20.4839 14.2477 21.7894 12.6115C22.0702 12.2479 22.0702 11.7356 21.7894 11.3887C20.4839 9.75269 16.6004 5.38992 12.0063 5.38992C7.41214 5.3734 3.52862 9.73616 2.2231 11.3722C1.92563 11.7358 1.92563 12.2479 2.2231 12.6115ZM12.0063 8.0175C14.2042 8.0175 15.9724 9.78574 15.9724 11.9836C15.9724 14.1816 14.2042 15.9498 12.0063 15.9498C9.80835 15.9498 8.04011 14.1816 8.04011 11.9836C8.04011 9.78574 9.80835 8.0175 12.0063 8.0175Z" fill="#BDBCC8"/>
<path d="M12.0063 13.9668C13.1015 13.9668 13.9893 13.079 13.9893 11.9837C13.9893 10.8885 13.1015 10.0007 12.0063 10.0007C10.911 10.0007 10.0232 10.8885 10.0232 11.9837C10.0232 13.079 10.911 13.9668 12.0063 13.9668Z" fill="#BDBCC8"/>
</svg>
