<svg width="18" height="18" viewBox="0 0 18 18" fill="none" xmlns="http://www.w3.org/2000/svg">
<path d="M15.5324 2.4675C15.3165 2.25331 15.0581 2.08662 14.774 1.97813C14.4898 1.86964 14.1861 1.82174 13.8824 1.8375C13.2643 1.87178 12.6825 2.13991 12.2549 2.5875L5.5949 9.2175C5.5606 9.25519 5.53273 9.29826 5.5124 9.345C5.48282 9.3873 5.45769 9.43254 5.4374 9.48L4.4999 12.54C4.46648 12.6542 4.46072 12.7748 4.48312 12.8917C4.50552 13.0086 4.55542 13.1185 4.62871 13.2123C4.70199 13.3061 4.79655 13.3812 4.90457 13.4312C5.01259 13.4812 5.13096 13.5048 5.2499 13.5C5.31948 13.511 5.39033 13.511 5.4599 13.5L8.4599 12.6225L8.5949 12.5475C8.64164 12.5272 8.68471 12.4993 8.7224 12.465L15.3749 5.805C15.8225 5.37741 16.0906 4.79555 16.1249 4.1775C16.1542 3.86667 16.1165 3.55318 16.0142 3.25819C15.912 2.9632 15.7477 2.69356 15.5324 2.4675Z" fill="white"/>
<path d="M15.75 16.5H2.25C2.05109 16.5 1.86032 16.421 1.71967 16.2803C1.57902 16.1397 1.5 15.9489 1.5 15.75C1.5 15.5511 1.57902 15.3603 1.71967 15.2197C1.86032 15.079 2.05109 15 2.25 15H15.75C15.9489 15 16.1397 15.079 16.2803 15.2197C16.421 15.3603 16.5 15.5511 16.5 15.75C16.5 15.9489 16.421 16.1397 16.2803 16.2803C16.1397 16.421 15.9489 16.5 15.75 16.5Z" fill="white"/>
</svg>
