<svg width="24" height="24" viewBox="0 0 24 24" fill="none" xmlns="http://www.w3.org/2000/svg">
<path d="M10.8938 10.1844C13.3159 10.1844 15.2793 8.22091 15.2793 5.79885C15.2793 3.37679 13.3159 1.41333 10.8938 1.41333C8.47177 1.41333 6.5083 3.37679 6.5083 5.79885C6.5083 8.22091 8.47177 10.1844 10.8938 10.1844Z" fill="white"/>
<path d="M13.1165 19.6571C12.6595 18.866 12.7508 17.8915 13.2946 17.2012C12.7508 16.5109 12.6595 15.5374 13.1165 14.7453L13.8261 13.5174C14.2164 12.8411 14.9444 12.421 15.7259 12.421C15.8329 12.421 15.9382 12.4289 16.0425 12.4438C16.0715 12.3719 16.1083 12.3044 16.1443 12.2359C15.6706 12.0491 15.1593 11.9386 14.6216 11.9386H7.16624C4.86911 11.9386 3 13.8077 3 16.1048V19.1747C3 19.5378 3.29471 19.8325 3.65783 19.8325H13.2174L13.1165 19.6571Z" fill="white"/>
<path d="M22.0361 17.6124C22.0536 17.4765 22.0773 17.3414 22.0773 17.2011C22.0773 17.0599 22.0527 16.9257 22.0361 16.7897L22.8264 16.1915C23.0027 16.0582 23.0518 15.8144 22.9413 15.6223L22.2317 14.3943C22.1212 14.2031 21.8852 14.1233 21.6817 14.2093L20.7722 14.5926C20.5503 14.4233 20.3143 14.2742 20.0538 14.1654L19.9328 13.1997C19.9047 12.9804 19.7188 12.8156 19.4977 12.8156H18.0795C17.8584 12.8156 17.6716 12.9804 17.6444 13.1997L17.5234 14.1654C17.2629 14.2742 17.0261 14.4242 16.805 14.5926L15.8955 14.2093C15.692 14.1233 15.456 14.2023 15.3455 14.3943L14.636 15.6223C14.5254 15.8135 14.5746 16.0573 14.7509 16.1915L15.5411 16.7897C15.5236 16.9257 15.4999 17.0607 15.4999 17.2011C15.4999 17.3423 15.5245 17.4765 15.5411 17.6124L14.7509 18.2106C14.5746 18.3439 14.5254 18.5878 14.636 18.7799L15.3455 20.0087C15.456 20.1999 15.692 20.2797 15.8955 20.1938L16.805 19.8096C17.0269 19.9789 17.2629 20.128 17.5234 20.2367L17.6444 21.2024C17.6716 21.4217 17.8576 21.5866 18.0786 21.5866H19.4969C19.7179 21.5866 19.9047 21.4217 19.9319 21.2024L20.0529 20.2367C20.3134 20.128 20.5503 19.978 20.7713 19.8096L21.6809 20.1929C21.8843 20.2788 22.1203 20.1999 22.2308 20.0078L22.9404 18.779C23.0509 18.5878 23.0018 18.3439 22.8255 18.2097L22.0361 17.6124ZM18.7882 18.9553C17.819 18.9553 17.034 18.1703 17.034 17.2011C17.034 16.2319 17.819 15.4469 18.7882 15.4469C19.7574 15.4469 20.5424 16.2319 20.5424 17.2011C20.5424 18.1703 19.7574 18.9553 18.7882 18.9553Z" fill="white"/>
</svg>
