<svg width="32" height="32" viewBox="0 0 32 32" fill="none" xmlns="http://www.w3.org/2000/svg">
<path d="M16 0C7.21951 0 0 7.21951 0 16C0 24.7805 7.21951 32 16 32C24.7805 32 32 24.7805 32 16C32 7.21951 24.7805 0 16 0ZM23.4927 17.4829H17.4829V23.4927C17.4829 24.3512 16.8195 24.9756 16 24.9756C15.1805 24.9756 14.5171 24.3122 14.5171 23.4927V17.4829H8.50732C7.64878 17.4829 7.02439 16.8195 7.02439 16C7.02439 15.1805 7.64878 14.5171 8.50732 14.5171H14.5171V8.50732C14.5171 7.64878 15.1805 7.02439 16 7.02439C16.8195 7.02439 17.4829 7.6878 17.4829 8.50732V14.5171H23.4927C24.3512 14.5171 24.9756 15.1805 24.9756 16C24.9756 16.8195 24.3122 17.4829 23.4927 17.4829Z" fill="white"/>
</svg>
