<svg width="24" height="24" viewBox="0 0 24 24" fill="none" xmlns="http://www.w3.org/2000/svg">
<g clip-path="url(#clip0_7_292)">
<path d="M17.8918 12.7077C17.48 12.394 16.8916 12.4735 16.578 12.8855C16.0591 13.5668 15.4462 14.142 14.8535 14.6981C13.9402 15.5552 13.0666 16.3755 12.7214 17.4377H8.42284C8.07768 16.3755 7.20409 15.5552 6.29094 14.6981C4.81126 13.3096 3.28142 11.8737 3.28142 9.05951C3.28142 7.15302 4.03563 5.35419 5.40507 3.99481C6.78331 2.62665 8.60338 1.87518 10.5353 1.87518C10.5536 1.87518 10.5721 1.87518 10.5904 1.87537H10.5976C11.1121 1.87537 11.5311 1.46027 11.5349 0.944826C11.5387 0.427004 11.122 0.00421298 10.6044 0.000367765C8.15092 -0.0173935 5.83281 0.928346 4.08397 2.66419C2.35728 4.37824 1.40623 6.64948 1.40623 9.05969C1.40623 12.6855 3.48778 14.6389 5.00774 16.0653C6.05894 17.0519 6.70311 17.6935 6.70311 18.4221V21.1877C6.70311 22.7386 7.96489 24.0002 9.51561 24.0002H11.625C13.1759 24.0002 14.4375 22.7386 14.4375 21.1877V18.4937C14.4393 18.47 14.4411 18.4462 14.4411 18.4221C14.4411 17.6935 15.0853 17.0519 16.1365 16.0653C16.7549 15.485 17.456 14.8272 18.0694 14.0217C18.3832 13.6097 18.3036 13.0215 17.8918 12.7077ZM11.625 22.1252H9.51561C8.9987 22.1252 8.57811 21.7046 8.57811 21.1877V19.3127H12.5625V21.1877C12.5625 21.7046 12.1421 22.1252 11.625 22.1252ZM9.46617 5.68048C7.98192 6.14264 6.98454 7.49561 6.98454 9.04706C6.98454 9.56488 6.56486 9.98456 6.04704 9.98456C5.52922 9.98456 5.10954 9.56488 5.10954 9.04706C5.10954 6.67017 6.63646 4.59778 8.90898 3.89026C9.40337 3.73645 9.92888 4.01239 10.0827 4.50678C10.2365 5.00116 9.96056 5.52667 9.46617 5.68048ZM22.2045 6.08808L21.3023 5.43787C21.3041 5.39099 21.305 5.34393 21.305 5.29706C21.305 5.2403 21.3032 5.18335 21.3006 5.12659C21.2997 5.10791 21.2986 5.08942 21.2975 5.07074C21.2964 5.05298 21.2959 5.03522 21.2946 5.01764L22.2253 4.30664C22.5921 4.02667 22.7005 3.52149 22.4809 3.11554L22.0591 2.33569C21.8384 1.92755 21.3525 1.74243 20.9163 1.8999L19.808 2.29981C19.6686 2.19489 19.5218 2.10114 19.3696 2.01673C19.3557 2.00922 19.3421 2.00134 19.3282 1.99384C19.2903 1.97351 19.2521 1.9541 19.2136 1.93506C19.1929 1.92481 19.1724 1.91474 19.1515 1.90485C19.134 1.89661 19.1166 1.88727 19.0988 1.87921L18.8994 0.771608C18.819 0.325014 18.4305 0.000184659 17.9767 0.000184659H17.0861C16.6186 0.000184659 16.2226 0.344606 16.1578 0.80768L16.0076 1.88013C15.7315 2.00519 15.472 2.16321 15.2336 2.35126L14.1458 2.0116C13.7076 1.87482 13.2348 2.07532 13.0287 2.48548L12.6156 3.30744C12.4048 3.72656 12.5365 4.23706 12.9236 4.50202L13.8096 5.10864C13.8067 5.17108 13.8049 5.23389 13.8049 5.29706C13.8049 5.35437 13.8067 5.41168 13.8092 5.469C13.8102 5.48804 13.8114 5.50708 13.8125 5.52612C13.8138 5.54608 13.8146 5.56604 13.816 5.586L12.9179 6.29755C12.5498 6.58924 12.4543 7.10816 12.6943 7.51172L13.1338 8.25055C13.3634 8.63635 13.8343 8.80536 14.2568 8.65338L15.2867 8.28314C15.5114 8.45398 15.7542 8.59882 16.0109 8.71491L16.2103 9.82251C16.2907 10.2689 16.6792 10.5939 17.133 10.5939H17.9767C18.4374 10.5939 18.8296 10.2592 18.9025 9.80457L19.0752 8.72589C19.3887 8.5871 19.6811 8.40582 19.9457 8.1861L21.0113 8.50141C21.4464 8.63013 21.9111 8.42871 22.1149 8.0235L22.4939 7.26966C22.7007 6.85803 22.578 6.35724 22.2045 6.08808ZM15.683 5.19324C15.6832 5.18884 15.6837 5.18463 15.6839 5.18024C15.6859 5.14911 15.6885 5.11798 15.6921 5.08685C15.6923 5.08411 15.6927 5.08136 15.693 5.07861C15.6969 5.04584 15.7016 5.01306 15.7073 4.98029C15.7075 4.97846 15.7079 4.97644 15.7082 4.97461C15.7139 4.9422 15.7205 4.90979 15.7278 4.87756C15.8062 4.53589 15.9781 4.22955 16.2153 3.98712C16.2217 3.98053 16.2281 3.97376 16.2347 3.96735C16.2533 3.94867 16.2724 3.93054 16.2918 3.91278C16.2962 3.90875 16.3008 3.90473 16.3053 3.90088C16.3443 3.86591 16.3846 3.8324 16.4266 3.8009C16.43 3.79816 16.4333 3.79559 16.4368 3.79303C16.4599 3.77582 16.4833 3.75897 16.5073 3.74286V3.74268C16.5536 3.71155 16.6014 3.68244 16.6505 3.65534C16.6562 3.65222 16.6618 3.64893 16.6675 3.64581C16.691 3.63318 16.7148 3.62091 16.7388 3.60938C16.7466 3.60553 16.7547 3.60205 16.7626 3.59821C16.8006 3.58045 16.8393 3.56415 16.8785 3.54895C16.8946 3.54254 16.9107 3.53632 16.927 3.53064C16.9457 3.52405 16.9643 3.51764 16.9834 3.5116C17.0094 3.50318 17.0358 3.49549 17.0621 3.48834C17.2192 3.4455 17.3844 3.42224 17.5549 3.42224C17.7288 3.42224 17.8969 3.44641 18.0567 3.49091C18.0833 3.49823 18.1095 3.50611 18.1357 3.51471C18.1505 3.51947 18.1653 3.52442 18.1802 3.52973C18.2034 3.53797 18.2263 3.54675 18.2492 3.55591C18.2691 3.56397 18.2889 3.57221 18.3083 3.58081C18.332 3.59107 18.3552 3.60187 18.3783 3.61304C18.3944 3.62091 18.4101 3.62915 18.4259 3.63739C18.4444 3.6471 18.4625 3.65735 18.4808 3.66779C18.4953 3.67603 18.5099 3.68408 18.5242 3.69269C18.5528 3.71008 18.581 3.72821 18.6086 3.74707C18.6216 3.75604 18.6343 3.7652 18.6469 3.77435C18.6663 3.78827 18.6853 3.80255 18.7042 3.8172C18.7156 3.82617 18.7271 3.83478 18.7383 3.84393C18.7659 3.86664 18.793 3.88989 18.8196 3.91425C18.8274 3.92121 18.8348 3.92871 18.8425 3.93604C18.8639 3.95618 18.8847 3.97687 18.9051 3.99829C19.1325 4.2345 19.2986 4.52985 19.3777 4.85871C19.3841 4.88562 19.3901 4.91272 19.3952 4.93982C19.3974 4.95026 19.3991 4.96088 19.4011 4.9715C19.4055 4.99695 19.4093 5.02222 19.4128 5.04767C19.4143 5.05866 19.4158 5.06964 19.417 5.08081C19.4201 5.107 19.4223 5.13318 19.4244 5.15955C19.4251 5.16944 19.426 5.17932 19.4266 5.18939C19.4286 5.22528 19.4299 5.26117 19.4299 5.29724C19.4299 5.36188 19.4266 5.42688 19.42 5.49133C19.4196 5.49408 19.4191 5.49683 19.4189 5.49957C19.4158 5.5285 19.4121 5.55744 19.4075 5.58618C19.4059 5.59699 19.4037 5.60779 19.4018 5.61859C19.3984 5.63873 19.3949 5.65869 19.3909 5.67865C19.3238 6.00128 19.1735 6.29352 18.9637 6.53247C18.9366 6.56342 18.9087 6.59363 18.88 6.62238C18.8738 6.62879 18.867 6.63483 18.8606 6.64105C18.8381 6.66303 18.8148 6.68427 18.7914 6.70496C18.7787 6.71594 18.7665 6.72693 18.7536 6.73755C18.7276 6.75934 18.7009 6.7804 18.6738 6.80072C18.6571 6.81317 18.6399 6.82508 18.6229 6.83698C18.6077 6.84741 18.5925 6.85767 18.5773 6.86774C18.5497 6.88568 18.5215 6.90308 18.4929 6.91956C18.4753 6.92981 18.4577 6.94007 18.4398 6.94959C18.4211 6.95966 18.4021 6.96936 18.383 6.97888C18.3622 6.98895 18.3413 6.99884 18.3201 7.00818C18.2984 7.01807 18.2765 7.02741 18.2543 7.0362C18.2272 7.04718 18.1998 7.05762 18.1721 7.06732C18.1589 7.0719 18.1456 7.07648 18.1322 7.08087C18.0939 7.09314 18.0551 7.10468 18.0157 7.11456C17.8683 7.1521 17.714 7.17206 17.555 7.17206C17.3804 7.17206 17.2117 7.14771 17.0513 7.10285C17.0253 7.09571 16.9997 7.08801 16.9742 7.07959C16.9587 7.07446 16.9431 7.06934 16.9275 7.06384C16.9054 7.05579 16.8834 7.04737 16.8614 7.03858C16.8369 7.02869 16.8125 7.01843 16.7886 7.00763C16.7695 6.99903 16.7505 6.99042 16.7316 6.98126C16.7137 6.97248 16.6959 6.96314 16.6783 6.9538C16.6626 6.94556 16.6472 6.93677 16.6318 6.92816C16.6058 6.91333 16.5802 6.89795 16.5551 6.88202C16.537 6.87067 16.5188 6.85913 16.5013 6.84705C16.4852 6.83606 16.4692 6.82471 16.4535 6.81317C16.4379 6.80182 16.4225 6.7901 16.4071 6.7782C16.3931 6.76721 16.3786 6.75623 16.3647 6.74487C16.339 6.72363 16.3139 6.70185 16.2894 6.67932C16.2773 6.66834 16.2658 6.6568 16.2541 6.64563C16.237 6.62915 16.2206 6.61249 16.2041 6.59546C15.9759 6.35816 15.8097 6.06134 15.7311 5.73065C15.7251 5.70538 15.7194 5.68012 15.7145 5.65448C15.7123 5.64331 15.7104 5.63214 15.7084 5.62097C15.7042 5.59625 15.7004 5.57135 15.6971 5.54645C15.6956 5.53528 15.694 5.52411 15.6927 5.51276C15.6897 5.48676 15.6875 5.46076 15.6855 5.43457C15.6848 5.42468 15.6839 5.4148 15.6832 5.40473C15.6811 5.36902 15.68 5.33295 15.68 5.29706C15.6799 5.26245 15.681 5.22785 15.683 5.19324ZM7.73436 11.1096C8.25218 11.1096 8.67186 11.5292 8.67186 12.0471C8.67186 12.5649 8.25218 12.9846 7.73436 12.9846C7.21672 12.9846 6.79686 12.5649 6.79686 12.0471C6.79686 11.5292 7.21672 11.1096 7.73436 11.1096Z" fill="white"/>
</g>
<defs>
<clipPath id="clip0_7_292">
<rect width="24" height="24" fill="white"/>
</clipPath>
</defs>
</svg>
