<svg width="24" height="24" viewBox="0 0 24 24" fill="none" xmlns="http://www.w3.org/2000/svg">
<path d="M19.8389 3.77685C19.5798 3.51396 19.2698 3.30937 18.9288 3.17621C18.5878 3.04305 18.2234 2.98426 17.8589 3.0036C17.1173 3.04567 16.419 3.37478 15.9059 3.92413L7.91393 12.0616C7.87277 12.1079 7.83933 12.1608 7.81493 12.2181C7.77944 12.2701 7.74928 12.3256 7.72493 12.3838L6.59993 16.1396C6.55982 16.2798 6.55292 16.4278 6.5798 16.5713C6.60667 16.7148 6.66656 16.8497 6.7545 16.9648C6.84244 17.08 6.95591 17.172 7.08553 17.2334C7.21516 17.2948 7.3572 17.3238 7.49993 17.3179C7.58342 17.3313 7.66845 17.3313 7.75193 17.3179L11.3519 16.2409L11.5139 16.1488C11.57 16.1239 11.6217 16.0897 11.6669 16.0476L19.6499 7.87322C20.187 7.3484 20.5088 6.63424 20.5499 5.87566C20.5851 5.49416 20.5398 5.10939 20.4171 4.74732C20.2945 4.38526 20.0973 4.05432 19.8389 3.77685Z" fill="white"/>
<path d="M20.1 21H3.9C3.66131 21 3.43239 20.903 3.2636 20.7304C3.09482 20.5578 3 20.3236 3 20.0795C3 19.8353 3.09482 19.6012 3.2636 19.4286C3.43239 19.2559 3.66131 19.1589 3.9 19.1589H20.1C20.3387 19.1589 20.5676 19.2559 20.7364 19.4286C20.9052 19.6012 21 19.8353 21 20.0795C21 20.3236 20.9052 20.5578 20.7364 20.7304C20.5676 20.903 20.3387 21 20.1 21Z" fill="white"/>
</svg>
