<svg width="32" height="32" viewBox="0 0 32 32" fill="none" xmlns="http://www.w3.org/2000/svg">
<g clip-path="url(#clip0_382_1778)">
<path d="M16.0002 6.66687C7.78565 6.66687 0.465764 15.2054 0.157769 15.5694C-0.0529152 15.8174 -0.0529152 16.1814 0.157769 16.4307C0.341766 16.648 3.03241 19.772 6.91235 22.2599L11.091 18.0813C10.819 17.4413 10.667 16.7387 10.667 16C10.667 13.0588 13.0589 10.6668 16.0002 10.6668C16.7389 10.6668 17.4415 10.8188 18.0815 11.0908L21.5174 7.65486C19.8428 7.05618 18.0042 6.66687 16.0002 6.66687Z" fill="#878787"/>
<path d="M31.8815 15.6201C31.7108 15.3734 28.8803 11.3895 24.1216 8.82155L27.8056 5.13761C28.0656 4.87761 28.0656 4.45493 27.8056 4.19494C27.5456 3.93494 27.1229 3.93494 26.8629 4.19494L4.19664 26.8613C3.93665 27.1213 3.93665 27.544 4.19664 27.804C4.32596 27.9347 4.49664 28 4.66732 28C4.83801 28 5.00863 27.9347 5.13932 27.8053L9.31925 23.6254C11.3792 24.6307 13.6512 25.3334 16.0005 25.3334C24.215 25.3334 31.5349 16.7948 31.8429 16.4308C32.0362 16.2001 32.0535 15.8681 31.8815 15.6201ZM16.0005 21.3334C14.7698 21.3334 13.6512 20.8974 12.7472 20.1961L20.1964 12.7469C20.8977 13.6509 21.3337 14.7696 21.3337 16.0002C21.3337 18.9415 18.9417 21.3334 16.0005 21.3334Z" fill="#878787"/>
</g>
<defs>
<clipPath id="clip0_382_1778">
<rect width="32" height="32" fill="white"/>
</clipPath>
</defs>
</svg>
