<svg width="9" height="9" viewBox="0 0 9 9" fill="none" xmlns="http://www.w3.org/2000/svg">
<g clip-path="url(#clip0)">
<path d="M5.16991 4.50097L8.86127 0.809604C9.04625 0.624612 9.04625 0.324695 8.86127 0.13972C8.67628 -0.0452714 8.37635 -0.0452714 8.19137 0.13972L4.49999 3.83108L0.808627 0.13972C0.623636 -0.0452714 0.323718 -0.0452714 0.138744 0.13972C-0.0462304 0.324712 -0.046248 0.62463 0.138744 0.809604L3.83011 4.50097L0.138744 8.19233C-0.046248 8.37732 -0.046248 8.67724 0.138744 8.86221C0.323736 9.04721 0.623653 9.04719 0.808627 8.86221L4.49999 5.17085L8.19134 8.86221C8.37633 9.04721 8.67626 9.04719 8.86124 8.86221C9.04621 8.67722 9.04621 8.37731 8.86124 8.19233L5.16991 4.50097Z" fill="white"/>
</g>
<defs>
<clipPath id="clip0">
<rect width="9" height="9" fill="white"/>
</clipPath>
</defs>
</svg>
