<svg width="24" height="24" viewBox="0 0 24 24" fill="none" xmlns="http://www.w3.org/2000/svg">
<g clip-path="url(#clip0)">
<path d="M15.7816 16.0663C15.8372 15.4813 15.8204 14.8985 15.7358 14.3295L17.0512 13.7432C16.9269 13.1061 16.7315 12.4775 16.4606 11.8693C16.1897 11.2615 15.8532 10.6959 15.4632 10.1769L14.147 10.7628C13.7808 10.3197 13.3589 9.91767 12.8869 9.56738L13.4029 8.22317C12.8641 7.8608 12.2817 7.55451 11.6601 7.31596C11.041 7.07826 10.4051 6.9139 9.75849 6.82288L9.24212 8.16838C8.65715 8.11273 8.07434 8.12956 7.50534 8.21411L6.92253 6.90527C5.62059 7.16109 4.40407 7.71327 3.35967 8.50228L3.9386 9.80249C3.4947 10.1687 3.09264 10.5911 2.74235 11.0626L1.40159 10.5484C1.03577 11.0859 0.729051 11.6687 0.49006 12.2899C0.253226 12.9111 0.0910235 13.5487 0 14.191L1.34421 14.707C1.28856 15.2919 1.30539 15.8748 1.38994 16.4438L0.0746306 17.0296C0.198871 17.6672 0.394291 18.2953 0.665205 18.9035C0.93655 19.5118 1.2726 20.0769 1.66301 20.5959L2.97832 20.0101C3.34457 20.4535 3.76647 20.8556 4.23885 21.2059L3.7229 22.551C4.26171 22.9138 4.84409 23.2196 5.46572 23.4582C6.08477 23.6959 6.72064 23.8602 7.36729 23.9513L7.88367 22.6057C8.46863 22.661 9.05144 22.6441 9.62045 22.5596L10.2033 23.868C11.5052 23.6122 12.7226 23.06 13.7665 22.271L13.1872 20.9708C13.6307 20.6045 14.0331 20.1826 14.3834 19.7107L15.7233 20.2249C16.0892 19.6874 16.3959 19.1046 16.6349 18.4838C16.8734 17.8626 17.0352 17.2246 17.1262 16.5818L15.7816 16.0663ZM12.2084 16.7854C11.4357 18.7991 9.17741 19.8043 7.16324 19.0317C5.15167 18.2595 4.14523 16.0016 4.91742 13.9883C5.69005 11.975 7.94838 10.9698 9.96125 11.7416C11.9745 12.5138 12.9806 14.7725 12.2084 16.7854Z" fill="white"/>
<path d="M23.0643 5.34723C23.0643 5.08667 23.0376 4.83172 22.9919 4.5841L24 4.00172C23.7559 3.07337 23.271 2.24208 22.6079 1.5855L21.5972 2.16917C21.2115 1.83873 20.7646 1.57989 20.2758 1.40734V0.241285C19.8306 0.119202 19.3643 0.0493164 18.8816 0.0493164C18.3989 0.0493164 17.933 0.120065 17.4873 0.241285V1.40777C16.9986 1.58032 16.5521 1.83959 16.166 2.1696L15.1548 1.58593C14.4926 2.24251 14.0073 3.0738 13.7627 4.00215L14.7713 4.58453C14.7256 4.83258 14.6984 5.08667 14.6984 5.34766C14.6984 5.60865 14.7256 5.86317 14.7713 6.11079L13.7627 6.69317C14.0073 7.62152 14.4926 8.45324 15.1548 9.10939L16.1655 8.52572C16.5516 8.85616 16.9981 9.115 17.4869 9.28755V10.454C17.9325 10.5757 18.3984 10.646 18.8811 10.646C19.3639 10.646 19.8306 10.5753 20.2754 10.454V9.28755C20.7642 9.115 21.2111 8.85573 21.5968 8.52572L22.6075 9.10939C23.2706 8.45281 23.7554 7.62152 23.9996 6.69317L22.9914 6.11079C23.0376 5.86231 23.0643 5.60822 23.0643 5.34723ZM18.882 7.2997C17.8035 7.2997 16.9291 6.42571 16.9291 5.34766C16.9291 4.26961 17.8035 3.39518 18.882 3.39518C19.9592 3.39518 20.8336 4.26918 20.8336 5.34723C20.8336 6.42527 19.9592 7.2997 18.882 7.2997Z" fill="white"/>
</g>
<defs>
<clipPath id="clip0">
<rect width="24" height="24" fill="white"/>
</clipPath>
</defs>
</svg>
