<svg width="40" height="46" viewBox="0 0 40 46" fill="none" xmlns="http://www.w3.org/2000/svg">
<g clip-path="url(#clip0)">
<path fill-rule="evenodd" clip-rule="evenodd" d="M18.0377 9.12495C11.3548 10.1403 5.00778 15.2838 5.00778 22.2794C7.61376 32.9682 9.14259 37.1299 14.6904 41.2023C19.0453 43.9581 21.9524 45.0404 25.6818 45.6541C30.5232 46.4574 34.8317 45.7656 37.0555 44.6053C40.9471 42.4631 40.3564 40.3655 38.816 33.314C37.8431 28.8288 37.3103 26.6754 35.9668 21.5654C35.6425 20.3492 34.8665 16.4107 32.2257 13.0189C30.7085 11.0775 28.6816 9.54893 25.4386 9.30347C21.8597 8.28815 20.8753 9.05801 18.0377 9.12495Z" fill="#245643"/>
<path fill-rule="evenodd" clip-rule="evenodd" d="M36.2563 -0.00177002C36.3605 8.15424 27.4655 9.54891 21.8482 10.4638C14.9221 11.5907 11.9918 15.44 11.7254 12.7622C11.4706 10.0845 16.671 6.33559 23.6897 6.13476C29.0059 6.00087 34.6464 5.42069 36.2563 -0.00177002Z" fill="url(#paint0_linear)"/>
<path fill-rule="evenodd" clip-rule="evenodd" d="M36.2668 0.00421143C36.3711 8.16022 27.7772 9.63299 24.1288 9.86729C17.1216 10.3247 13.6238 14.743 11.736 12.7682C9.5701 10.5033 15.3959 7.13375 22.2872 5.87297C26.8159 5.04733 34.6454 5.41552 36.2668 0.00421143Z" fill="#1B1A18"/>
<path fill-rule="evenodd" clip-rule="evenodd" d="M32.9103 22.3167C32.9103 29.35 34.0609 39.0333 22.5888 38.2833C14.9239 37.8 5.0423 29.8167 4.75465 22.7833C4.467 15.7667 11.286 7.8 18.9509 7.4C24.0948 7.13333 28.4941 9.66666 30.9983 14.1667C32.1658 16.3167 33.0118 19.4333 32.9103 22.3167Z" fill="#1B1B18"/>
<path fill-rule="evenodd" clip-rule="evenodd" d="M11.3875 25.3334C11.3875 26.45 10.6768 26.1167 9.66159 26.5167C5.98985 27.9334 8.73096 31.35 6.80203 31.35C3.65482 31.35 0 28.2334 0 25.3334C0 22.4334 2.55499 20.0834 5.7022 20.0834C8.83249 20.0834 11.3875 22.4334 11.3875 25.3334Z" fill="#FFE600"/>
<path fill-rule="evenodd" clip-rule="evenodd" d="M30.7276 27.3167C30.7276 30.9833 27.4619 33.95 23.4349 33.95C19.4078 33.95 16.1421 30.9833 16.1421 27.3167C16.1421 23.65 19.4078 20.6833 23.4349 20.6833C27.4619 20.6833 30.7276 23.65 30.7276 27.3167Z" fill="#E53C0E"/>
<path fill-rule="evenodd" clip-rule="evenodd" d="M21 21.9943C21 24.1836 19.2522 25.9486 17.0757 25.9995C14.8991 26.0334 13.0854 24.3194 13.0029 22.147C12.9205 19.9747 14.6023 18.1248 16.7789 18.006C18.9554 17.8872 20.8351 19.5335 21 21.7058" fill="black"/>
<path d="M21 21.9943C21 24.1836 19.2522 25.9486 17.0757 25.9995C14.8991 26.0334 13.0854 24.3194 13.0029 22.147C12.9205 19.9747 14.6023 18.1248 16.7789 18.006C18.9554 17.8872 20.8351 19.5335 21 21.7058" stroke="white" stroke-width="6.3526" stroke-miterlimit="11.3386" stroke-linecap="round"/>
<circle cx="17" cy="22" r="4" fill="#191917"/>
</g>
<defs>
<linearGradient id="paint0_linear" x1="21.4653" y1="-1.84861" x2="27.5358" y2="21.1013" gradientUnits="userSpaceOnUse">
<stop stop-color="#3E3E3E"/>
<stop offset="1" stop-color="#CFC9B7"/>
</linearGradient>
<clipPath id="clip0">
<rect width="40" height="46" fill="white"/>
</clipPath>
</defs>
</svg>
