<svg width="24" height="24" viewBox="0 0 24 24" fill="none" xmlns="http://www.w3.org/2000/svg">
<g clip-path="url(#clip0)">
<path d="M21.8127 0.982666C21.3855 0.982666 21.0385 1.32911 21.0385 1.75684C21.0385 2.18409 21.3855 2.53102 21.8127 2.53102C22.165 2.53102 22.4514 2.81747 22.4514 3.16923V20.8292C22.4514 21.181 22.165 21.4674 21.8127 21.4674C21.3855 21.4674 21.0385 21.8143 21.0385 22.2415C21.0385 22.6693 21.3855 23.0157 21.8127 23.0157C23.0185 23.0157 23.9998 22.0349 23.9998 20.8292V3.16923C23.9998 1.96345 23.0185 0.982666 21.8127 0.982666ZM18.2249 0.982666C17.7976 0.982666 17.4507 1.32911 17.4507 1.75684C17.4507 2.18409 17.7976 2.53102 18.2249 2.53102C18.5771 2.53102 18.8636 2.81747 18.8636 3.16923V20.8292C18.8636 21.181 18.5771 21.4674 18.2249 21.4674C17.7976 21.4674 17.4507 21.8143 17.4507 22.2415C17.4507 22.6693 17.7976 23.0157 18.2249 23.0157C19.4312 23.0157 20.4119 22.0349 20.4119 20.8292V3.16923C20.4119 1.96345 19.4312 0.982666 18.2249 0.982666ZM16.8241 3.16923V20.8292C16.8241 22.035 15.8433 23.0157 14.6371 23.0157H7.39172C6.9635 23.0157 6.61705 22.6683 6.61754 22.2401C6.61947 21.5492 6.61657 20.1726 6.61657 17.3696C6.61657 16.834 6.18206 16.3999 5.64691 16.3999C2.8439 16.3999 1.46732 16.397 0.775882 16.3989C0.347665 16.3995 0.000252658 16.053 0.000252658 15.6247V3.16923C0.000252658 1.96152 0.979104 0.982666 2.18682 0.982666H14.6371C15.8433 0.982666 16.8241 1.96345 16.8241 3.16923ZM5.8753 17.9154V22.2416C5.8753 22.9178 5.05805 23.2822 4.55339 22.7893C-0.119745 18.1157 0.0764608 18.3859 0.0147685 18.0644C-0.079778 17.5915 0.284037 17.1412 0.774431 17.1412H5.10112C5.52837 17.1412 5.8753 17.4877 5.8753 17.9154Z" fill="white"/>
</g>
<defs>
<clipPath id="clip0">
<rect width="24" height="24" fill="white"/>
</clipPath>
</defs>
</svg>
