<svg width="24" height="24" viewBox="0 0 24 24" fill="none" xmlns="http://www.w3.org/2000/svg">
<g clip-path="url(#clip0)">
<path d="M14.9998 13.0005C14.4469 13.0005 13.9999 13.4486 13.9999 14.0005V18.0006C13.9999 18.5515 13.5519 19.0005 12.9998 19.0005H9.99983V4.00063C9.99983 3.14664 9.45583 2.38364 8.63791 2.09965L8.34183 2.00059H12.9998C13.5519 2.00059 13.9999 2.44956 13.9999 3.0007V6.00067C13.9999 6.55255 14.4469 7.0006 14.9998 7.0006C15.5528 7.0006 15.9998 6.55255 15.9998 6.00067V3.0007C15.9998 1.34673 14.6538 0.000732422 12.9998 0.000732422H2.24998C2.21189 0.000732422 2.18003 0.0177611 2.14304 0.0227049C2.09489 0.0186766 2.04893 0.000732422 2.00004 0.000732422C0.897024 0.000732422 0 0.897574 0 2.00059V20.0004C0 20.8544 0.544001 21.6174 1.36192 21.9014L7.37999 23.9075C7.58397 23.9705 7.78684 24.0005 7.99998 24.0005C9.10299 24.0005 9.99983 23.1035 9.99983 22.0005V21.0005H12.9998C14.6538 21.0005 15.9998 19.6545 15.9998 18.0006V14.0005C15.9998 13.4486 15.5528 13.0005 14.9998 13.0005Z" fill="white"/>
<path d="M23.7068 9.29304L19.7067 5.29315C19.4209 5.00714 18.9908 4.92108 18.6169 5.07599C18.2439 5.23107 17.9998 5.596 17.9998 6.00011V9.00008H13.9999C13.4479 9.00008 12.9998 9.44795 12.9998 10C12.9998 10.5521 13.4479 10.9999 13.9999 10.9999H17.9998V13.9999C17.9998 14.404 18.2439 14.7689 18.6169 14.924C18.9908 15.0789 19.4209 14.9929 19.7067 14.7071L23.7068 10.707C24.0977 10.316 24.0977 9.68397 23.7068 9.29304Z" fill="white"/>
</g>
<defs>
<clipPath id="clip0">
<rect width="24" height="24" fill="white"/>
</clipPath>
</defs>
</svg>
