<svg width="24" height="24" viewBox="0 0 24 24" fill="none" xmlns="http://www.w3.org/2000/svg">
<g clip-path="url(#clip0)">
<path d="M10.5691 0C4.74145 0 0 4.74145 0 10.5691C0 16.3971 4.74145 21.1382 10.5691 21.1382C16.3971 21.1382 21.1382 16.3971 21.1382 10.5691C21.1382 4.74145 16.3971 0 10.5691 0ZM10.5691 19.187C5.81723 19.187 1.95122 15.321 1.95122 10.5691C1.95122 5.81728 5.81723 1.95122 10.5691 1.95122C15.321 1.95122 19.187 5.81723 19.187 10.5691C19.187 15.321 15.321 19.187 10.5691 19.187Z" fill="black"/>
<path d="M23.7142 22.3346L18.1207 16.7411C17.7395 16.3599 17.1223 16.3599 16.7411 16.7411C16.36 17.1219 16.36 17.7398 16.7411 18.1206L22.3347 23.7141C22.5252 23.9046 22.7747 23.9999 23.0244 23.9999C23.2739 23.9999 23.5236 23.9046 23.7142 23.7141C24.0954 23.3333 24.0954 22.7154 23.7142 22.3346Z" fill="black"/>
</g>
<defs>
<clipPath id="clip0">
<rect width="24" height="24" fill="white"/>
</clipPath>
</defs>
</svg>
