<svg width="24" height="24" viewBox="0 0 24 24" fill="none" xmlns="http://www.w3.org/2000/svg">
<path d="M21.5303 16.3942H21.0363V12.1209C21.0363 8.22396 18.2179 4.94513 14.3535 3.9776C14.615 3.57447 14.7893 3.11758 14.7893 2.60694V2.58007C14.7893 1.15566 13.54 0 12 0C10.46 0 9.21065 1.15566 9.21065 2.58007V2.60694C9.21065 3.09071 9.38499 3.57447 9.64649 3.9776C5.81114 4.94513 2.96368 8.22396 2.96368 12.1209V16.3942H2.46973C1.13317 16.3942 0 17.4155 0 18.6786C0 19.9149 1.10412 20.963 2.46973 20.963H7.99031C8.39709 22.6831 10.0242 24 12 24C13.9758 24 15.661 22.6831 16.0097 20.963H21.5303C22.8668 20.963 24 19.9418 24 18.6786C24 17.4155 22.8668 16.3942 21.5303 16.3942Z" fill="white"/>
</svg>
