<svg width="32" height="32" viewBox="0 0 32 32" fill="none" xmlns="http://www.w3.org/2000/svg">
<g clip-path="url(#clip0)">
<path d="M21.7469 8.18459L15.5731 14.4553L9.30225 8.28136C8.86966 7.85545 8.17266 7.86088 7.74662 8.29362C7.32071 8.72621 7.32614 9.4232 7.75873 9.84911L14.0296 16.0231L7.85565 22.2939C7.42974 22.7265 7.43517 23.4235 7.86776 23.8494C8.3005 24.2754 8.99749 24.27 9.4234 23.8374L15.5973 17.5666L21.8681 23.7404C22.3008 24.1664 22.9978 24.161 23.4237 23.7284C23.8497 23.2957 23.8443 22.5987 23.4116 22.1726L17.1409 15.9988L23.3147 9.72811C23.7407 9.29537 23.7353 8.59838 23.3025 8.17233C22.8699 7.74642 22.173 7.75185 21.7469 8.18459Z" fill="#8D8D8D"/>
</g>
<defs>
<clipPath id="clip0">
<rect width="22" height="22" fill="white" transform="translate(0.0292969 16.1321) rotate(-45.4462)"/>
</clipPath>
</defs>
</svg>
