<svg width="32" height="32" viewBox="0 0 32 32" fill="none" xmlns="http://www.w3.org/2000/svg">
<g clip-path="url(#clip0)">
<path d="M16.0002 6.66675C7.78565 6.66675 0.465764 15.2053 0.157769 15.5693C-0.0529152 15.8173 -0.0529152 16.1813 0.157769 16.4306C0.341766 16.6479 3.03241 19.7719 6.91235 22.2598L11.091 18.0812C10.819 17.4412 10.667 16.7385 10.667 15.9999C10.667 13.0586 13.0589 10.6667 16.0002 10.6667C16.7389 10.6667 17.4415 10.8187 18.0815 11.0907L21.5174 7.65473C19.8428 7.05605 18.0042 6.66675 16.0002 6.66675Z" fill="#878787"/>
<path d="M31.8815 15.6202C31.7108 15.3735 28.8802 11.3896 24.1216 8.82161L27.8055 5.13767C28.0655 4.87767 28.0655 4.45499 27.8055 4.195C27.5455 3.935 27.1229 3.935 26.8629 4.195L4.19658 26.8614C3.93659 27.1214 3.93659 27.5441 4.19658 27.8041C4.32589 27.9348 4.49658 28.0001 4.66726 28.0001C4.83795 28.0001 5.00857 27.9348 5.13926 27.8054L9.31919 23.6254C11.3792 24.6307 13.6511 25.3334 16.0004 25.3334C24.215 25.3334 31.5348 16.7949 31.8428 16.4309C32.0361 16.2002 32.0535 15.8682 31.8815 15.6202ZM16.0004 21.3335C14.7697 21.3335 13.6511 20.8975 12.7471 20.1962L20.1963 12.747C20.8976 13.651 21.3336 14.7696 21.3336 16.0002C21.3336 18.9415 18.9417 21.3335 16.0004 21.3335Z" fill="#878787"/>
</g>
<defs>
<clipPath id="clip0">
<rect width="32" height="32" fill="white"/>
</clipPath>
</defs>
</svg>
