<svg width="24" height="24" viewBox="0 0 24 24" fill="none" xmlns="http://www.w3.org/2000/svg">
<path d="M17.8984 4H6.10156C3.8399 4 2 5.78755 2 7.98484V14.1394C2 15.8927 3.18484 17.4198 4.90176 17.9086L6.88266 19.8332C6.99268 19.94 7.1416 20 7.29709 20C7.45242 20 7.6015 19.94 7.71136 19.8332L9.52853 18.0676H17.8984C20.1601 18.0676 22 16.2801 22 14.0828V7.98484C22 5.78755 20.1601 4 17.8984 4ZM7.69366 12.04C7.69366 11.7255 7.95596 11.4707 8.2796 11.4707H15.7204C16.044 11.4707 16.3063 11.7255 16.3063 12.04C16.3063 12.3544 16.044 12.6092 15.7204 12.6092H8.2796C7.95596 12.6092 7.69366 12.3544 7.69366 12.04ZM15.7204 10.5969H8.2796C7.95596 10.5969 7.69366 10.3421 7.69366 10.0277C7.69366 9.71339 7.95596 9.4584 8.2796 9.4584H15.7204C16.044 9.4584 16.3063 9.71339 16.3063 10.0277C16.3063 10.3421 16.044 10.5969 15.7204 10.5969Z" fill="#323232"/>
</svg>
