<svg width="24" height="24" viewBox="0 0 24 24" fill="none" xmlns="http://www.w3.org/2000/svg">
<path fill-rule="evenodd" clip-rule="evenodd" d="M12.7727 2.7726C12.7727 2.3459 12.4268 2 12 2C11.5732 2 11.2273 2.3459 11.2273 2.7726V3.07643C10.7662 3.13032 10.3097 3.22911 9.86532 3.37245C7.55064 4.11909 5.74179 5.99198 5.10123 8.34456L4.48823 10.5959L4.00279 12.7836C3.96003 12.9763 3.90755 13.1893 3.8524 13.4131C3.73792 13.8777 3.61192 14.3891 3.5374 14.8629C3.51273 15.0197 3.5 15.18 3.5 15.3428C3.5 16.8035 4.52913 18.062 5.96093 18.3522L6.33967 18.429C6.97132 18.5571 7.60623 18.6635 8.2433 18.7482C8.24923 18.7743 8.25539 18.8002 8.2618 18.8262L8.34625 19.168C8.68022 20.5195 9.74123 21.5714 11.0958 21.8939C11.6903 22.0354 12.3097 22.0354 12.9042 21.8939C14.2588 21.5714 15.3198 20.5195 15.6537 19.168L15.7382 18.8262C15.7446 18.8002 15.7508 18.7743 15.7567 18.7482C16.3938 18.6635 17.0287 18.5571 17.6603 18.429L18.0391 18.3522C19.4709 18.062 20.5 16.8035 20.5 15.3428C20.5 15.18 20.4873 15.0197 20.4626 14.8629C20.3881 14.3891 20.2621 13.8778 20.1476 13.4132C20.0925 13.1894 20.04 12.9763 19.9972 12.7836L19.5124 10.599L18.9077 8.30521C18.2956 5.98358 16.5492 4.1298 14.268 3.38007C13.7807 3.21993 13.279 3.11465 12.7727 3.06375V2.7726ZM11.4538 20.3907C10.7028 20.2119 10.1062 19.6496 9.88012 18.918C11.2914 19.0233 12.7086 19.0233 14.1199 18.918C13.8938 19.6496 13.2972 20.2119 12.5462 20.3907C12.1871 20.4762 11.8129 20.4762 11.4538 20.3907Z" fill="#323232"/>
</svg>
