<svg width="24" height="24" viewBox="0 0 24 24" fill="none" xmlns="http://www.w3.org/2000/svg">
<path d="M10.9268 3C6.55608 3 3 6.55608 3 10.9268C3 15.2977 6.55608 18.8536 10.9268 18.8536C15.2977 18.8536 18.8536 15.2977 18.8536 10.9268C18.8536 6.55608 15.2977 3 10.9268 3ZM10.9268 17.3902C7.36291 17.3902 4.46341 14.4907 4.46341 10.9268C4.46341 7.36294 7.36291 4.46341 10.9268 4.46341C14.4907 4.46341 17.3902 7.36291 17.3902 10.9268C17.3902 14.4907 14.4907 17.3902 10.9268 17.3902Z" fill="#3B3B3B"/>
<path d="M20.7856 19.7509L16.5905 15.5558C16.3046 15.27 15.8417 15.27 15.5558 15.5558C15.27 15.8414 15.27 16.3049 15.5558 16.5905L19.7509 20.7856C19.8939 20.9285 20.081 21 20.2683 21C20.4553 21 20.6427 20.9285 20.7856 20.7856C21.0715 20.5 21.0715 20.0365 20.7856 19.7509Z" fill="#3B3B3B"/>
</svg>
