<svg width="32" height="32" viewBox="0 0 32 32" fill="none" xmlns="http://www.w3.org/2000/svg">
<rect width="32" height="32" fill="white"/>
<path d="M14.5691 4C8.74143 4 4 8.74143 4 14.5691C4 20.397 8.74143 25.1381 14.5691 25.1381C20.397 25.1381 25.1381 20.397 25.1381 14.5691C25.1381 8.74143 20.397 4 14.5691 4ZM14.5691 23.1869C9.81721 23.1869 5.95121 19.3209 5.95121 14.5691C5.95121 9.81726 9.81721 5.95121 14.5691 5.95121C19.3209 5.95121 23.1869 9.81721 23.1869 14.5691C23.1869 19.3209 19.3209 23.1869 14.5691 23.1869Z" fill="#3B3B3B"/>
<path d="M27.7141 26.3347L22.1206 20.7412C21.7395 20.36 21.1223 20.36 20.7411 20.7412C20.36 21.122 20.36 21.7399 20.7411 22.1207L26.3346 27.7142C26.5252 27.9047 26.7746 28 27.0244 28C27.2738 28 27.5236 27.9047 27.7141 27.7142C28.0953 27.3334 28.0953 26.7155 27.7141 26.3347Z" fill="#3B3B3B"/>
</svg>
