<svg width="32" height="32" viewBox="0 0 32 32" fill="none" xmlns="http://www.w3.org/2000/svg">
<path d="M9.32487 13.0497L5.23717 10.6897C4.44733 12.2858 4.00005 14.0859 4 15.9998C4 17.8871 4.45211 19.6903 5.2541 21.3006L9.32459 18.9505C8.9231 18.0465 8.69562 17.0493 8.69566 15.9998C8.69571 14.9502 8.92333 13.9534 9.32487 13.0497Z" fill="white"/>
<path d="M23.8715 6.94226C21.7626 5.10785 19.0068 3.99799 15.9917 4C11.8667 4.00277 8.18484 6.10868 6.02161 9.33551L10.1126 11.6975C11.443 9.88282 13.5833 8.69562 16.0002 8.69567C17.7621 8.69571 19.3772 9.32553 20.6387 10.3692C20.9475 10.6246 21.3989 10.6012 21.6822 10.3178L23.9103 8.08981C24.2315 7.76852 24.2143 7.24038 23.8715 6.94226Z" fill="white"/>
<path d="M27.9178 14.6116C27.8711 14.2143 27.5371 13.9136 27.1372 13.9136L17.3044 13.9131C16.8722 13.9131 16.5217 14.2635 16.5217 14.6957V17.8235C16.5217 18.2557 16.8721 18.6062 17.3044 18.6062H22.8144C22.3069 19.9271 21.4254 21.0626 20.3031 21.888L22.6435 25.9417C24.9992 24.3453 26.7904 21.9317 27.5793 19.0824C28.0082 17.5332 28.0854 16.0352 27.9178 14.6116Z" fill="white"/>
<path d="M18.9499 22.6742C18.0473 23.0763 17.0509 23.3044 16.0002 23.3045C13.5805 23.3045 11.4415 22.1172 10.112 20.3032L6.03845 22.6551C8.18355 25.8502 11.8241 28.0001 16.0001 28.0001C17.8878 28.0001 19.6846 27.5386 21.2917 26.7305L18.9499 22.6742Z" fill="white"/>
</svg>
