<svg width="32" height="32" viewBox="0 0 32 32" fill="none" xmlns="http://www.w3.org/2000/svg">
<path d="M0.356951 16.9783C2.44578 19.5959 8.65937 26.5763 16.0099 26.5763C23.3605 26.5763 29.5741 19.5962 31.6629 16.9783C32.1121 16.3966 32.1121 15.5769 31.6629 15.0219C29.5741 12.4043 23.3605 5.4239 16.0099 5.4239C8.65937 5.39746 2.44578 12.3778 0.356951 14.9955C-0.118984 15.5772 -0.118984 16.3966 0.356951 16.9783ZM16.0099 9.62799C19.5265 9.62799 22.3557 12.4572 22.3557 15.9738C22.3557 19.4904 19.5265 22.3196 16.0099 22.3196C12.4933 22.3196 9.66412 19.4904 9.66412 15.9738C9.66412 12.4572 12.4933 9.62799 16.0099 9.62799Z" fill="#878787"/>
<path d="M16.0099 19.1468C17.7622 19.1468 19.1828 17.7263 19.1828 15.9739C19.1828 14.2216 17.7622 12.801 16.0099 12.801C14.2575 12.801 12.837 14.2216 12.837 15.9739C12.837 17.7263 14.2575 19.1468 16.0099 19.1468Z" fill="#878787"/>
</svg>
