<svg width="24" height="24" viewBox="0 0 24 24" xmlns="http://www.w3.org/2000/svg">
<path d="M17 4V5H15V4H9V5H7V4C7 3.46957 7.21071 2.96086 7.58579 2.58579C7.96086 2.21071 8.46957 2 9 2H15C15.5304 2 16.0391 2.21071 16.4142 2.58579C16.7893 2.96086 17 3.46957 17 4Z" />
<path d="M20 6H4C3.73478 6 3.48043 6.10536 3.29289 6.29289C3.10536 6.48043 3 6.73478 3 7C3 7.26522 3.10536 7.51957 3.29289 7.70711C3.48043 7.89464 3.73478 8 4 8H5V20C5 20.5304 5.21071 21.0391 5.58579 21.4142C5.96086 21.7893 6.46957 22 7 22H17C17.5304 22 18.0391 21.7893 18.4142 21.4142C18.7893 21.0391 19 20.5304 19 20V8H20C20.2652 8 20.5196 7.89464 20.7071 7.70711C20.8946 7.51957 21 7.26522 21 7C21 6.73478 20.8946 6.48043 20.7071 6.29289C20.5196 6.10536 20.2652 6 20 6ZM11 17C11 17.2652 10.8946 17.5196 10.7071 17.7071C10.5196 17.8946 10.2652 18 10 18C9.73478 18 9.48043 17.8946 9.29289 17.7071C9.10536 17.5196 9 17.2652 9 17V11C9 10.7348 9.10536 10.4804 9.29289 10.2929C9.48043 10.1054 9.73478 10 10 10C10.2652 10 10.5196 10.1054 10.7071 10.2929C10.8946 10.4804 11 10.7348 11 11V17ZM15 17C15 17.2652 14.8946 17.5196 14.7071 17.7071C14.5196 17.8946 14.2652 18 14 18C13.7348 18 13.4804 17.8946 13.2929 17.7071C13.1054 17.5196 13 17.2652 13 17V11C13 10.7348 13.1054 10.4804 13.2929 10.2929C13.4804 10.1054 13.7348 10 14 10C14.2652 10 14.5196 10.1054 14.7071 10.2929C14.8946 10.4804 15 10.7348 15 11V17Z" />
</svg>
