<svg width="24" height="24" viewBox="0 0 24 24" fill="none" xmlns="http://www.w3.org/2000/svg">
<path d="M20.71 3.29001C20.4221 3.00443 20.0776 2.78219 19.6988 2.63753C19.3199 2.49287 18.915 2.429 18.51 2.45001C17.6859 2.49572 16.9101 2.85324 16.34 3.45001L7.46001 12.29C7.41428 12.3403 7.37712 12.3977 7.35001 12.46C7.31058 12.5164 7.27707 12.5767 7.25001 12.64L6.00001 16.72C5.95545 16.8723 5.94778 17.0331 5.97764 17.189C6.0075 17.3449 6.07404 17.4914 6.17175 17.6165C6.26947 17.7415 6.39555 17.8416 6.53957 17.9083C6.6836 17.9749 6.84143 18.0064 7.00001 18C7.09278 18.0146 7.18725 18.0146 7.28001 18L11.28 16.83L11.46 16.73C11.5223 16.7029 11.5798 16.6657 11.63 16.62L20.5 7.74001C21.0968 7.16989 21.4543 6.39408 21.5 5.57001C21.5391 5.15558 21.4888 4.7376 21.3525 4.34427C21.2162 3.95095 20.9971 3.59144 20.71 3.29001Z" fill="white"/>
<path d="M21 22H3C2.73478 22 2.48043 21.8946 2.29289 21.7071C2.10536 21.5196 2 21.2652 2 21C2 20.7348 2.10536 20.4804 2.29289 20.2929C2.48043 20.1054 2.73478 20 3 20H21C21.2652 20 21.5196 20.1054 21.7071 20.2929C21.8946 20.4804 22 20.7348 22 21C22 21.2652 21.8946 21.5196 21.7071 21.7071C21.5196 21.8946 21.2652 22 21 22Z" fill="white"/>
</svg>
